<?xml version="1.0" encoding="UTF-8"?>
<svg xmlns="http://www.w3.org/2000/svg" viewBox="0 0 89.89 99.05">
  <defs>
    <style>
      .cls-1 {
        mix-blend-mode: screen;
        opacity: .4;
      }

      .cls-2 {
        fill: #fff;
      }

      .cls-3, .cls-4 {
        fill: #f0d907;
      }

      .cls-5 {
        isolation: isolate;
      }

      .cls-4 {
        mix-blend-mode: multiply;
      }

      .cls-6 {
        fill: #5057b8;
      }

      .cls-7 {
        fill: #e8e8e8;
      }

      .cls-8 {
        fill: #ff3599;
      }

      .cls-9 {
        fill: #439eff;
      }

      .cls-10 {
        fill: #ff61af;
      }
    </style>
  </defs>
  <g class="cls-5">
    <g id="Ebene_2" data-name="Ebene 2">
      <g id="_Ńëîé_1" data-name="Ńëîé 1">
        <g>
          <g>
            <path class="cls-6" d="M89.79,31.43c.19-1.93,.1-3.84-.45-5.56-.04-.23-.09-.46-.15-.68-.55-2.08-2.18-3.57-4.26-4.46-1.99-1-4.38-1.21-6.68-.81-1.18,.17-2.32,.52-3.32,1.05-1.15,.54-2.19,1.23-3.03,2.06-3.31,3.26-1.15,6.83,.16,10.41,1.25,3.42,1.7,9.72,.69,13.17-1.63,5.55-6.76,8.47-12.22,11.42-2.18,1.18-5.04,2.52-5.51,5.07-.47,2.56,2.42,4.72,4.78,5.5,6.14,2.02,12.25-1.52,15.94-5.81,13.59-15.79,14-29.85,14.04-31.35Z"/>
            <path d="M80.28,16.82s.1-.05,.29-.1c.12-.02,.28-.04,.45-.06,.15,0,.33,0,.52,.02,.37,.04,.79,.16,1.21,.31,.42,.16,.86,.35,1.26,.59,.41,.24,.78,.53,1.1,.83,.16,.15,.31,.3,.43,.46,.14,.14,.23,.31,.33,.45,.1,.14,.16,.29,.23,.41,.07,.12,.11,.23,.15,.33,.07,.18,.11,.29,.11,.29,.01,.04,0,.08-.04,.1-.03,.01-.06,0-.08-.02h0s-.07-.09-.2-.23c-.06-.07-.13-.16-.23-.24-.1-.09-.19-.19-.32-.29-.25-.19-.53-.41-.87-.58-.33-.19-.71-.32-1.09-.45-.76-.26-1.56-.31-2.11-.31-.14,0-.26,0-.37-.01-.09,0-.16,0-.23-.02-.19,0-.3,0-.3,0h0c-.42-.05-.72-.43-.67-.85,.03-.27,.21-.5,.44-.61Z"/>
            <path class="cls-6" d="M.33,93.4c-3.16-8.73,17.19-8.25,20.96-14.26,3.77-6.01,.89-15.07,2.94-22.23,2.05-7.17-1.91-13.73,3.44-20.72,5.35-6.98,1.66-12.76,2.87-15.97,1.2-3.21,2.99-7.61,10.92-7.82,7.93-.21,17.93-2.45,21.11,6.21,3.18,8.66,.5,18.96,2.64,29.21,2.15,10.25-1.88,24.77,3.75,29.16,5.63,4.39,20.97,10.75,18.35,14.69-2.62,3.94-5.84,3.9-14.17,5.89-5.55,1.33-69.88,3.9-72.8-4.18Z"/>
            <g>
              <path class="cls-4" d="M48.29,42.98c-6.25,0-11.34-5.09-11.34-11.34,0-.55,.06-1.12,.18-1.8,.86-5.51,5.56-9.54,11.16-9.54,6.25,0,11.34,5.09,11.34,11.34s-5.09,11.34-11.34,11.34Z"/>
              <path class="cls-3" d="M48.29,42.98c-6.25,0-11.34-5.09-11.34-11.34,0-.55,.06-1.12,.18-1.8,.86-5.51,5.56-9.54,11.16-9.54,6.25,0,11.34,5.09,11.34,11.34s-5.09,11.34-11.34,11.34Z"/>
              <g>
                <g>
                  <path class="cls-2" d="M38.92,31.64c0,5.17,4.2,9.37,9.37,9.37s9.37-4.2,9.37-9.37-4.19-9.37-9.37-9.37-9.37,4.2-9.37,9.37Z"/>
                  <path class="cls-7" d="M39.27,29.24c.3,4.91,4.33,8.81,9.31,8.81,4.34,0,7.96-2.97,9.02-6.97,.01,.19,.06,.37,.06,.56,0,5.17-4.19,9.37-9.37,9.37s-9.37-4.2-9.37-9.37c0-.83,.15-1.63,.35-2.4Z"/>
                </g>
                <g>
                  <path d="M47.88,26.88c-1.66,1.98-1.4,4.92,.57,6.58,1.98,1.66,4.92,1.4,6.58-.57,1.66-1.98,1.4-4.92-.58-6.58-1.98-1.66-4.92-1.4-6.58,.58Z"/>
                  <path class="cls-2" d="M52.25,28.93c-.66,.79-.56,1.97,.23,2.63,.79,.66,1.96,.56,2.63-.23,.66-.79,.56-1.96-.23-2.63-.79-.66-1.97-.56-2.63,.23Z"/>
                </g>
              </g>
            </g>
            <g>
              <path class="cls-4" d="M76.63,35.96c-3.7-2.14-4.98-6.89-2.84-10.6,.19-.33,.42-.65,.72-1,2.39-2.97,6.56-3.75,9.88-1.84,3.71,2.14,4.98,6.89,2.84,10.6-2.14,3.7-6.89,4.98-10.6,2.84Z"/>
              <path class="cls-3" d="M76.63,35.96c-3.7-2.14-4.98-6.89-2.84-10.6,.19-.33,.42-.65,.72-1,2.39-2.97,6.56-3.75,9.88-1.84,3.71,2.14,4.98,6.89,2.84,10.6-2.14,3.7-6.89,4.98-10.6,2.84Z"/>
              <g>
                <g>
                  <path class="cls-2" d="M74.96,26.04c-1.77,3.06-.72,6.98,2.35,8.75,3.07,1.77,6.99,.72,8.75-2.35,1.77-3.06,.72-6.98-2.35-8.75-3.06-1.77-6.98-.72-8.75,2.35Z"/>
                  <path class="cls-7" d="M75.99,24.74c-1.5,3.01-.45,6.7,2.5,8.4,2.57,1.48,5.73,.96,7.73-1.05-.06,.12-.09,.24-.16,.35-1.77,3.07-5.69,4.12-8.75,2.35-3.07-1.77-4.12-5.69-2.35-8.75,.29-.5,.64-.92,1.03-1.3Z"/>
                </g>
                <g>
                  <path d="M80.85,30.18c1.17-1.33,1.03-3.34-.29-4.51-1.33-1.16-3.35-1.03-4.51,.29-1.16,1.33-1.03,3.34,.29,4.51,1.32,1.16,3.34,1.03,4.51-.29Z"/>
                  <path class="cls-2" d="M77.89,28.71c.46-.53,.41-1.34-.12-1.8-.53-.46-1.34-.41-1.8,.12-.46,.53-.41,1.33,.12,1.8,.53,.47,1.34,.41,1.8-.12Z"/>
                </g>
              </g>
            </g>
            <path class="cls-8" d="M63.13,57.86c-8.96,4.18-20.38-1.35-25.5-12.34-1.91-4.09-2.67-8.36-2.42-12.33-4.07,4.03-6.68,10.19-6.68,17.11,0,12.13,8.01,21.96,17.9,21.96,7.74,0,14.33-6.03,16.83-14.46-.04,.02-.08,.04-.12,.06Z"/>
            <g>
              <path class="cls-2" d="M35.58,38.92c-1.48,.35-3.31,.65-3.92,.69-.88,.05-.55,1.5,.38,3.82,1.22,3.44,2.57,2.35,2.57,2.35l2.17-2.43c-.54-1.47-.94-2.95-1.2-4.43Z"/>
              <path class="cls-2" d="M49.32,62.5c3.15,1.85,3.48,.15,3.48,.15l.13-3.89c-1.41-.33-2.8-.84-4.15-1.51-.85,1.08-1.81,2.2-2.2,2.56-.64,.61,.55,1.5,2.74,2.69Z"/>
              <path class="cls-2" d="M37.92,54.29c2.85,2.28,3.42,.64,3.42,.64l.53-3.01c-1.03-1.16-1.98-2.45-2.83-3.84-1.09,1.16-2.88,2.75-3.46,3.16-.72,.51,.33,1.57,2.34,3.05Z"/>
            </g>
            <path class="cls-2" d="M46.42,72.27c3.85,0,7.42-1.49,10.34-4.04-.14-.71-.55-1.36-1.35-1.86-1.84-1.13-3.93,.27-5.85-.33-1.85-.57-2.84-2.61-4.51-3.53-1.96-1.08-3.8-1.46-5.38-3.23-1.8-2.02-2.84-4.61-4.84-6.48-2-1.87-4.63-2.44-6.18-.02,1.01,10.96,8.58,19.47,17.78,19.47Z"/>
            <path class="cls-9" d="M61.92,58.36c-3.09,6.56-8.87,10.99-15.49,10.99-9.49,0-17.25-9.06-17.86-20.51-.03,.49-.04,.98-.04,1.47,0,12.13,8.01,21.96,17.9,21.96,7.74,0,14.33-6.03,16.83-14.46-.04,.02-.08,.04-.12,.06-.4,.19-.81,.35-1.22,.5Z"/>
            <path class="cls-8" d="M86.17,37c-1.01,3.26-4.76,5.3-8.8,4.63-.4-.07-.78-.16-1.15-.27,.57,1.05,1.48,1.95,2.67,2.52,2.83,1.33,6.14,.27,7.38-2.37,.69-1.46,.59-3.1-.1-4.5Z"/>
            <path class="cls-10" d="M86.28,40.6c-1.24,2.64-4.55,3.71-7.38,2.37-.74-.35-1.36-.84-1.87-1.41-.27-.06-.54-.12-.81-.2,.57,1.05,1.48,1.95,2.67,2.52,2.83,1.33,6.14,.27,7.38-2.37,.38-.82,.52-1.69,.45-2.54-.05,.55-.2,1.11-.45,1.63Z"/>
            <path class="cls-2" d="M85.21,38.85c-1.3,1.71-3.51,2.8-5.99,2.89l.56,.74s2.89-.1,3.96-.78c1.08-.69,1.69-1.66,1.64-2.33-.01-.15-.08-.34-.17-.52Z"/>
            <path d="M48.02,15.9s-.2,.1-.56,.21c-.15,.06-.3,.13-.48,.19-.2,.08-.45,.17-.72,.25-.54,.2-1.2,.39-1.88,.7-.35,.14-.69,.32-1.04,.49-.34,.19-.71,.37-1.05,.58-.69,.41-1.36,.88-1.95,1.36-.28,.25-.57,.49-.8,.75-.12,.13-.24,.25-.36,.37-.11,.13-.21,.25-.3,.37-.21,.23-.36,.47-.5,.68-.15,.21-.26,.4-.34,.56-.17,.33-.27,.52-.27,.52v.02c-.04,.07-.13,.09-.19,.06-.05-.03-.08-.09-.07-.14,0,0,.03-.22,.09-.6,.02-.2,.08-.43,.16-.69,.07-.27,.16-.57,.31-.88,.07-.16,.14-.32,.21-.49,.09-.16,.18-.33,.27-.5,.18-.35,.42-.68,.66-1.04,.25-.34,.52-.7,.82-1.04,.3-.34,.61-.68,.95-.99,.66-.64,1.38-1.21,2.1-1.7,.36-.25,.71-.47,1.06-.67,.34-.22,.7-.37,1.01-.52,.33-.14,.64-.25,.93-.33,.31-.08,.6-.14,.82-.17,.37-.03,.6-.02,.6-.02,.78,.05,1.38,.72,1.33,1.51-.03,.53-.35,.97-.79,1.18h0Z"/>
            <path d="M76.9,21.3s-.1-.04-.29-.12c-.17-.08-.44-.2-.79-.36-.35-.17-.77-.38-1.26-.66-.49-.28-1.04-.63-1.63-1.1-.3-.24-.6-.52-.91-.87-.31-.35-.63-.77-.85-1.4-.23-.61-.25-1.52,.09-2.18,.32-.66,.77-1.08,1.19-1.4,.43-.31,.86-.56,1.29-.76,.44-.21,.93-.38,1.32-.51,.82-.25,1.41-.51,1.62-.83,.12-.16,.21-.38,.21-.71,.01-.14-.04-.45-.2-.74-.3-.6-.86-1.22-1.4-1.87-.28-.35-.52-.65-.79-1.14-.08-.18-.16-.36-.24-.53-.08-.22-.15-.45-.21-.67-.22-.86,0-1.85,.51-2.46,.52-.6,1.15-.88,1.69-1.06,.55-.17,1.03-.21,1.43-.23,.39,0,.7,0,.91,.03,.21,.02,.32,.03,.32,.03,.08,0,.13,.07,.12,.15,0,.07-.06,.12-.13,.12h-.01s-.11,0-.31,.02c-.2,0-.49,.05-.85,.12-.36,.08-.79,.18-1.24,.4-.44,.21-.9,.53-1.17,.98-.26,.45-.29,.99-.08,1.56,.06,.13,.12,.26,.18,.4,.1,.16,.2,.33,.3,.5,.14,.18,.42,.49,.69,.75,.56,.55,1.25,1.09,1.85,1.95,.29,.44,.56,.96,.62,1.68,.04,.54-.05,1.2-.37,1.79-.32,.6-.83,1.03-1.29,1.33-.47,.3-.92,.49-1.32,.67-.41,.18-.71,.32-1.01,.5-.32,.18-.58,.39-.8,.58-.21,.19-.31,.38-.32,.44,0,.06,.03-.03,.07,.06,.09,.17,.51,.6,.94,.9,.44,.33,.9,.62,1.32,.89,.43,.27,.81,.5,1.12,.7,.32,.2,.57,.37,.75,.49,.17,.12,.26,.18,.26,.18,.62,.44,.77,1.3,.32,1.92-.38,.54-1.09,.72-1.67,.47h0Z"/>
            <path class="cls-3" d="M49.9,46.7c.01-.12-.01-.25-.07-.36,0,0,0,0,.01,0-.07-.23-.23-.34-.41-.38,0,0-.02,0-.03,0-.42-.07-.95,.27-.86,.78,.07,.44,.47,.61,.82,.54,0,.01-.02,.02-.03,.03,.12-.02,.23-.07,.32-.14,0,0,.01-.01,.02-.02,.12-.1,.21-.25,.23-.44Z"/>
            <path class="cls-3" d="M55.91,43.53v.2c0,.57,.87,.52,.87-.04v-.2c0-.57-.87-.52-.87,.04Z"/>
            <path class="cls-3" d="M56.51,50.82c-.05-.47-.36-.87-.84-.97-.52-.11-1.19,.24-1.25,.82-.03,.28-.02,.48,.03,.76,.14,.69,1.08,.88,1.59,.54,.18-.12,.31-.3,.38-.5,.04-.05,.07-.13,.08-.24,.02-.17,.02-.26,0-.4Z"/>
            <path class="cls-3" d="M59.79,47.22s.02,.03,.03,.04c-.02-.05-.04-.1-.06-.16-.1-.28-.43-.42-.71-.32-.06,.02-.12,.05-.18,.07-.27,.11-.4,.47-.26,.7,.02,.35,.32,.66,.72,.6,.48-.07,.63-.55,.46-.93Z"/>
            <path class="cls-3" d="M54.88,45.89s-.07,0-.1,0c-.53-.01-.96,.47-.95,.98,0,.52,.46,.96,.98,.95,.35,0,.66-.05,.92-.32,.69-.74-.06-1.72-.85-1.6Z"/>
            <path class="cls-3" d="M60.66,41.07c-.84,0-1.01,1.31-.16,1.31s1.01-1.31,.16-1.31Z"/>
            <path class="cls-3" d="M62.31,46.05c-.56,0-1,.53-.98,1.07,.03,.58,.51,.98,1.07,.98s1-.53,.98-1.07c-.03-.58-.51-.98-1.07-.98Z"/>
            <path class="cls-3" d="M61.3,51.35c-.04-.51-.41-.94-.96-.94-.12,0-.23,.03-.33,.06-.31,.05-.6,.26-.69,.57-.19,.65,.1,1.26,.79,1.41,.58,.12,1.25-.3,1.2-.95,0-.05,0-.11-.01-.16Z"/>
            <path class="cls-3" d="M46.16,45.22c-.94,0-1.08,1.47-.12,1.47s1.08-1.47,.12-1.47Z"/>
            <path class="cls-3" d="M49.35,50.23s-.01-.09-.02-.13c-.05-.35-.39-.61-.73-.63-.46-.03-.77,.32-.84,.74,0,.05-.02,.1-.02,.15-.07,.44,.36,.83,.77,.85,.55,.03,.92-.47,.84-.99Z"/>
            <path class="cls-3" d="M52.16,50.27c-1.04,0-1.13,1.61-.09,1.61s1.13-1.61,.09-1.61Z"/>
            <g>
              <path class="cls-3" d="M78.09,57.47c.26,.05,.45,.05,.68-.09,.24-.15,.31-.5,.21-.74-.11-.27-.37-.39-.65-.38-.08,0-.19,.01-.22,.02-.66,.14-.7,1.06-.01,1.19Z"/>
              <path class="cls-3" d="M79.83,51.98c-.3,.14-.51,.36-.55,.7-.04,.38,.21,.78,.61,.83,.61,.07,.87-.59,.69-1.09-.09-.24-.46-.57-.75-.44Z"/>
              <path class="cls-3" d="M78.31,56.25s0,0,0,0c.09,0,.15,0,0,0Z"/>
              <path class="cls-3" d="M81.93,47.94h-.23c-.61-.03-.56,.97,.06,.95,.02,0,.03,0,.05,0,.1,.03,.21,.03,.31-.02-.01,.01-.03,.02-.04,.03,.03,0,.04-.03,.07-.04,.01,0,.02-.01,.04-.02,.03-.02,.06-.03,.08-.05,.02-.02,.04-.05,.06-.08,0,0,0,0,0,0,0,0,0,0,0,0,.04-.06,.07-.12,.09-.19,.08-.32-.2-.55-.49-.56Z"/>
              <path class="cls-3" d="M75.93,58.86h-.2c-1.17,0-1.19,1.82-.01,1.82h.2c1.17,0,1.19-1.82,.01-1.82Z"/>
              <path class="cls-3" d="M80.32,50.38c.82,0,.99-1.27,.16-1.27s-.99,1.27-.16,1.27Z"/>
              <path class="cls-3" d="M70.96,65.15c.6-.18,.88-.9,.55-1.43-.64-1.04-2.29-.09-1.68,.97,.23,.39,.69,.6,1.13,.47Z"/>
              <path class="cls-3" d="M81.15,53.97c-.37,0-.7,.2-.75,.59-.04,.33,.22,.75,.59,.75,.16,0,.31-.04,.43-.12,.1-.17,.21-.33,.31-.49,.03-.33-.23-.73-.59-.73Z"/>
              <path class="cls-3" d="M83,49.98c-.59,0-1.04,.6-1,1.16,.04,.62,.57,1,1.16,1,.04,0,.09,0,.13-.02,.28-.49,.54-.98,.8-1.46-.17-.43-.6-.69-1.08-.69Z"/>
              <path class="cls-3" d="M78.21,52.62h0c-.11-.1-.23-.18-.37-.23-.77-.27-1.66,.14-1.77,.98-.08,.59,.38,1.38,1.05,1.38,.29,0,.51-.03,.79-.13,.65-.25,1.01-1.2,.51-1.77-.03-.04-.06-.07-.09-.1-.03-.04-.06-.08-.1-.11,0,0,0,0-.01-.01Z"/>
              <path class="cls-3" d="M74.76,57.69c.82,0,.99-1.27,.16-1.27s-.99,1.27-.16,1.27Z"/>
              <path class="cls-3" d="M74.43,61.98c-.66,0-.66,1.02,0,1.02s.66-1.02,0-1.02Z"/>
            </g>
            <g class="cls-1">
              <path class="cls-6" d="M17.11,91.63c11.53,2.77,25.67,2.31,32.29,2.33,2.17,0,5.28-.18,7.36,.44-4.83,.9-22.95,2.03-27.02,1.81-7.04-.38-14.88-.48-21.37-3.54-1.01-.48-4.13-1.53-3.91-2.99,.48-3.15,10.71,1.49,12.64,1.95Z"/>
            </g>
            <g class="cls-1">
              <path class="cls-6" d="M29.49,75.22c-.48,1.91-2.9,2.83-1.68,4.86,1.06,1.76,4.62,2.37,5.18-.08,.46-1.98-1.62-4.22-1.98-6.15-.42-2.26-1-.76-1.53,1.37Z"/>
            </g>
            <g class="cls-1">
              <path class="cls-6" d="M41.4,83.75c-.29,1.17-1.77,1.73-1.02,2.97,.65,1.07,2.82,1.45,3.17-.05,.28-1.21-.99-2.58-1.21-3.76-.25-1.38-.61-.46-.93,.84Z"/>
            </g>
            <g class="cls-1">
              <path class="cls-6" d="M33.49,25.39c-.29,1.17-1.77,1.73-1.02,2.97,.65,1.07,2.82,1.45,3.17-.05,.28-1.21-.99-2.58-1.21-3.76-.26-1.38-.61-.46-.93,.84Z"/>
            </g>
            <g class="cls-1">
              <path class="cls-6" d="M57.97,18.16c.02,.91-.95,1.61-.16,2.37,.69,.65,2.35,.49,2.3-.66-.04-.94-1.24-1.69-1.63-2.5-.46-.95-.54-.22-.51,.8Z"/>
            </g>
            <g class="cls-1">
              <path class="cls-6" d="M67.96,58.58c-.29,1.17-1.77,1.73-1.02,2.97,.65,1.07,2.82,1.45,3.17-.05,.28-1.21-.99-2.58-1.21-3.76-.25-1.38-.61-.46-.93,.84Z"/>
            </g>
            <g class="cls-1">
              <path class="cls-6" d="M74.78,47.64c-.29,1.17-1.77,1.73-1.02,2.97,.64,1.07,2.82,1.45,3.17-.05,.28-1.21-.99-2.58-1.21-3.76-.25-1.38-.61-.46-.93,.84Z"/>
            </g>
            <g class="cls-1">
              <path class="cls-6" d="M63.24,74.8c-.52,2.05-3.1,3.03-1.8,5.2,1.13,1.88,4.95,2.54,5.55-.08,.49-2.12-1.74-4.52-2.12-6.59-.45-2.42-1.06-.81-1.64,1.47Z"/>
            </g>
            <g class="cls-1">
              <path class="cls-6" d="M49.18,77.37c-.3,1.19-1.8,1.76-1.04,3.02,.66,1.09,2.87,1.47,3.22-.05,.28-1.23-1.01-2.62-1.23-3.82-.26-1.4-.62-.47-.95,.85Z"/>
            </g>
          </g>
          <path d="M36.22,17.06s-.04-.16-.12-.46c-.04-.16-.08-.41-.12-.68-.03-.25-.07-.54-.1-.84-.07-.62-.09-1.34-.15-2.09-.06-.76-.14-1.56-.37-2.27-.13-.34-.25-.69-.47-.97-.04-.08-.11-.14-.17-.21l-.14-.16c-.2-.18-.46-.42-.51-.42-.08-.07-.23-.14-.34-.18-.11-.04-.22-.05-.35-.04-.26,.01-.66,.18-1.1,.46-.9,.55-1.84,1.54-3.19,2.28-.71,.38-1.35,.63-2.08,.84-.73,.19-1.48,.37-2.42,.26-.46-.06-.99-.22-1.46-.6-.45-.39-.75-.97-.8-1.44l-.03-.18v-.09s-.02-.05-.02-.05v-.02c-.01-.25,0-.08,0-.14l.02-.25c0-.12,.07-.46,.14-.71,.16-.49,.35-.79,.55-1.12,.41-.62,.84-1.12,1.23-1.61,.38-.49,.74-.96,.93-1.4,.19-.45,.19-.76,0-1.12l-.2-.26-.05-.07s-.06-.05,.05,.04h-.01s-.02-.03-.02-.03l-.04-.04-.17-.14-.17-.14-.14-.07c-.1-.04-.16-.1-.28-.14-.92-.37-1.98-.48-2.93-.48-1.93,0-3.54,.43-4.55,.89-.25,.12-.47,.24-.66,.36-.17,.13-.33,.23-.43,.33-.2,.21-.31,.33-.31,.33l-.02,.02c-.05,.05-.14,.06-.19,0-.05-.05-.06-.13-.02-.18,0,0,.11-.14,.3-.41,.11-.12,.26-.25,.44-.42,.19-.14,.41-.3,.66-.46,1.04-.61,2.67-1.22,4.73-1.42,1.03-.09,2.18-.12,3.42,.27,.16,.04,.34,.14,.5,.22l.25,.13,.18,.12,.18,.13,.05,.03,.02,.02h.01c.12,.11,.04,.04,.07,.07l.1,.1c.13,.14,.25,.28,.38,.43,.1,.18,.2,.36,.29,.55,.07,.2,.11,.42,.15,.63,0,.21,0,.43-.02,.64-.04,.19-.09,.39-.14,.58-.25,.73-.64,1.31-1,1.86-.37,.55-.74,1.07-1.01,1.57-.28,.54-.36,.83-.27,1.18,.03,.19,.11,.21,.15,.26,.06,.02,.18,.07,.38,.08,.84,.04,2.15-.49,3.04-1.04,.93-.57,1.75-1.53,2.9-2.4,.58-.42,1.29-.87,2.21-1.03,.46-.08,.96-.07,1.41,.03,.24,.03,.43,.13,.65,.2,.21,.07,.41,.18,.6,.3,.46,.27,.61,.42,.83,.59l.04,.03,.02,.02,.09,.08,.1,.1,.19,.2c.12,.13,.25,.26,.35,.41,.45,.56,.74,1.19,.97,1.77,.4,1.19,.48,2.22,.53,3.08,.04,.86,.04,1.55,.04,2.1,0,.28,.02,.5,.02,.71,.01,.18,.02,.33,.03,.46,.04,.31,.06,.47,.06,.47h0c.09,.76-.45,1.44-1.2,1.53-.69,.08-1.32-.36-1.49-1.02Z"/>
          <path d="M40.26,14.3s-.06-.08-.16-.23c-.06-.08-.11-.15-.19-.3-.08-.15-.17-.32-.27-.52-.18-.38-.36-.81-.51-1.37-.16-.54-.27-1.2-.28-2,.04-.44,.06-.86,.28-1.4l.07-.19,.04-.09,.02-.05v-.02c.04-.05-.05,.1,.08-.12h0s.14-.21,.14-.21l.07-.1,.04-.05,.08-.09c.11-.13,.22-.26,.34-.38,.24-.23,.48-.4,.76-.54,.14-.07,.28-.13,.42-.18,.14-.04,.28-.08,.41-.11,.54-.11,1.04-.11,1.45-.08,.83,.07,1.48,.16,1.88,.07,.09-.03,.19-.04,.26-.09l.06-.03h.02s0,0,0,0c.06-.05-.08,.07-.06,.05h0s.06-.05,.06-.05l.11-.09s.08-.07,.07-.07c.01-.02,.02-.01,.05-.05l.1-.13c.06-.1,.12-.22,.17-.36,.22-.57,.3-1.36,.57-2.23,.13-.43,.33-.91,.67-1.33v-.02s.06-.05,.06-.05h0s.03-.03,.03-.03l.05-.05,.1-.1,.2-.2c.17-.15,.37-.3,.55-.45,.72-.5,1.5-.76,2.23-.9,.73-.14,1.42-.15,2.04-.11,1.24,.1,2.23,.37,2.89,.62,.33,.13,.59,.23,.76,.32,.17,.08,.26,.12,.26,.12,.07,.03,.1,.12,.06,.18-.03,.06-.1,.09-.16,.07h0s-.09-.03-.27-.07c-.17-.05-.44-.1-.77-.17-.33-.05-.74-.12-1.21-.14-.47-.04-.99-.03-1.55,.02-.56,.06-1.16,.17-1.74,.36-.58,.2-1.15,.49-1.6,.91l-.28,.3-.17,.23-.09,.11-.04,.06-.02,.03h0s.07-.07,.03-.03h0c-.11,.2-.19,.46-.24,.78-.1,.64-.08,1.44-.31,2.39-.06,.24-.14,.49-.26,.74-.06,.13-.13,.25-.2,.38-.08,.13-.2,.28-.31,.42-.07,.08-.1,.11-.13,.14l-.1,.11-.05,.05h0s-.08,.07-.08,.07l-.02,.02-.04,.03-.19,.13c-.24,.19-.52,.3-.79,.41-1.1,.36-2.01,.25-2.65,.29-.33,0-.56,.06-.71,.11-.15,.04-.18,.13-.2,.16,0,0,0,0,0,0,0,0,0,0,0,0l-.03,.05-.06,.11-.12,.21h0c.12-.21,.03-.05,.06-.1h0s0,.03,0,.03v.04c-.04,.05-.02,.26-.04,.41,.03,.77,.29,1.66,.45,2.18,.04,.12,.08,.23,.11,.33,.03,.1,.09,.22,.12,.3,.07,.17,.11,.27,.11,.27h0c.28,.72-.07,1.52-.77,1.8-.61,.24-1.28,.02-1.64-.49Z"/>
          <path d="M32.41,21.04s-.09-.02-.33-.1c-.41-.18-.82-.44-1.19-.77-.38-.33-.72-.71-1.04-1-.16-.15-.3-.26-.43-.33-.13-.09-.24-.12-.38-.16-.07-.02-.15-.03-.25-.03h-.07c-.08,0,.1-.02,.08-.01h0s-.02,0-.02,0h-.03s-.07,0-.07,0l-.27,.02c-.11,.03-.3,.05-.47,.13-.31,.13-.69,.56-1.07,1.25-.37,.66-.78,1.56-1.39,2.4-.33,.43-.69,.9-1.37,1.28-.35,.18-.81,.3-1.25,.28-.44-.03-.8-.18-1.09-.33-.56-.32-.93-.68-1.27-1-.34-.33-.64-.64-.94-.92-.6-.56-1.2-.96-1.83-1.08-.16-.03-.32-.05-.48-.04-.03,0-.11,0-.09,0l-.16,.02-.31,.04c-.19,.03-.34,.06-.52,.09-.17,.05-.35,.09-.52,.15-.67,.23-1.27,.55-1.77,.93-.5,.38-.89,.82-1.16,1.25-.26,.44-.43,.86-.52,1.23-.09,.36-.13,.67-.13,.87,0,.21-.01,.32-.01,.32v.02c0,.08-.07,.13-.14,.13-.07,0-.12-.05-.13-.12,0,0-.01-.12-.04-.33-.04-.22-.05-.54-.02-.96,.03-.42,.15-.92,.38-1.47,.24-.55,.61-1.11,1.13-1.64,.51-.53,1.17-1.01,1.94-1.37,.19-.09,.4-.17,.6-.25,.21-.07,.45-.15,.66-.2l.3-.07,.15-.04,.22-.03c.25-.04,.52-.04,.78-.03,1.08,.06,2.05,.61,2.82,1.17,.39,.28,.75,.58,1.1,.84,.34,.27,.67,.51,.91,.6,.11,.04,.2,.05,.21,.04,.01-.02,0-.02,.05-.05,.1-.08,.32-.34,.49-.63,.38-.64,.64-1.39,1.01-2.25,.19-.42,.41-.87,.72-1.32,.31-.44,.72-.89,1.23-1.22,.5-.33,1.05-.52,1.66-.63l.27-.04h.07s.03-.01,.03-.01h.02s.1-.01,.1-.01h.2c.26-.01,.52,0,.79,.05,1.08,.16,1.93,.82,2.38,1.28,.48,.48,.76,.84,.96,1.05,.2,.22,.32,.3,.28,.32,.15,.09,.28,.15,.27,.15,.7,.29,1.04,1.09,.75,1.79-.29,.7-1.09,1.04-1.79,.75Z"/>
        </g>
      </g>
    </g>
  </g>
</svg>