<?xml version="1.0" encoding="UTF-8"?>
<svg xmlns="http://www.w3.org/2000/svg" viewBox="0 0 105.79 111.82">
  <defs>
    <style>
      .cls-1 {
        fill: #fff;
      }

      .cls-2, .cls-3 {
        fill: #f0d907;
      }

      .cls-4, .cls-5 {
        fill: #f04646;
      }

      .cls-6, .cls-7 {
        fill: #3c37a1;
      }

      .cls-8 {
        isolation: isolate;
      }

      .cls-9 {
        fill: #7a81de;
      }

      .cls-3, .cls-5 {
        mix-blend-mode: multiply;
      }

      .cls-10, .cls-11 {
        fill: #5057b8;
      }

      .cls-7, .cls-11 {
        mix-blend-mode: screen;
      }

      .cls-12 {
        fill: #e8e8e8;
      }

      .cls-11, .cls-5 {
        opacity: .1;
      }

      .cls-13 {
        fill: #c40e0e;
      }
    </style>
  </defs>
  <g class="cls-8">
    <g id="Ebene_2" data-name="Ebene 2">
      <g id="_Ńëîé_1" data-name="Ńëîé 1">
        <g>
          <path class="cls-6" d="M101.67,101.36c-.04-.19-.1-.36-.17-.53-.03-1.59-.79-3.45-1.34-4.59-1.9-3.91-5.2-5.39-8.61-7.89-.62-.45-1.2-.92-1.78-1.4-.08-.12-.19-.21-.32-.28-3.25-2.77-5.8-6-7.63-9.99-.2-.44-.38-.88-.55-1.31-.06-.16-.12-.32-.18-.48-.09-.26-.18-.52-.26-.78-.06-.21-.12-.41-.18-.61-.06-.2-.1-.4-.15-.6-.06-.24-.11-.48-.16-.72-.02-.1-.03-.2-.05-.31-.18-1.02-.26-2.04-.25-3.09,0-.02,0-.04,0-.05,0-.38,.02-.76,.05-1.14,.03-.38,.06-.76,.1-1.15,.05-.41,.1-.82,.18-1.25,.02-.11-.14-.16-.2-.08-.22,.31-.41,.62-.59,.94-.01,.02-.03,.05-.04,.07-.16,.3-.3,.6-.42,.91-.02,.05-.04,.09-.06,.14,0,0,0,.02-.01,.02-.06-.02-.11-.04-.16-.06-10.38-3.53-20.97,1.46-26.87,10.35-1.23,1.85-1.78,3.57-1.84,5.2,0,0,0,0,0,0-.4-.42-.79-.86-1.17-1.29-.04-.04-.08-.09-.12-.13-.42-.49-.82-.98-1.22-1.49-.02-.03-.06,0-.05,.03,.22,.42,.46,.83,.71,1.23,.08,.14,.17,.27,.26,.41,.17,.26,.34,.51,.52,.76,.11,.16,.22,.31,.33,.46,.23,.31,.47,.62,.71,.92,.44,.54,.9,1.06,1.37,1.57,.03,.03,.06,.06,.09,.09,.4,.43,.82,.85,1.24,1.26,.1,.1,.2,.19,.3,.29,.37,.36,.75,.71,1.13,1.05,.11,.1,.21,.19,.32,.29,.46,.42,.93,.83,1.4,1.24,4.3,3.72,9.04,5.4,14.18,7.71,4.46,2,9.18,2.57,13.97,2.64,2.69,.04,5.37,.14,8.05,.31,1.48,.09,5.5,.02,6.83,1.56,.11,.33,.24,.66,.42,.98,.31,.56,1.03,.51,1.47,.16,.53-.21,.9-.8,.77-1.39Z"/>
          <path class="cls-5" d="M99.97,101.48c-.74-1.52-4.45-3.58-9.87-4.21-3.43-.4-8.01-2.15-11.16-3.49-3.72-1.58-7.11-3.99-9.93-6.87-2.43-2.49-4.1-5.11-5.17-8.42-.87-2.7-2.37-4.48-5.24-5.15-1.02-.23-2.06-.27-3.09-.13-1.29,1.29-2.47,2.72-3.5,4.28-1.23,1.85-1.78,3.57-1.84,5.2,0,0,0,0,0,0-.4-.42-.79-.86-1.17-1.29-.04-.04-.08-.09-.12-.13-.42-.49-.82-.98-1.22-1.49-.02-.03-.06,0-.05,.03,.22,.42,.46,.83,.71,1.23,.08,.14,.17,.27,.26,.41,.17,.26,.34,.51,.52,.76,.11,.16,.22,.31,.33,.46,.23,.31,.47,.62,.71,.92,.44,.54,.9,1.06,1.37,1.57,.03,.03,.06,.06,.09,.09,.4,.43,.82,.85,1.24,1.26,.1,.1,.2,.19,.3,.29,.37,.36,.75,.71,1.13,1.05,.11,.1,.21,.19,.32,.29,.46,.42,.93,.83,1.4,1.24,4.3,3.72,9.04,5.4,14.18,7.71,4.46,2,9.18,2.57,13.97,2.64,2.69,.04,5.37,.14,8.05,.31,1.48,.09,5.5,.02,6.83,1.56,.11,.33,.24,.66,.42,.98,.2,.36,.56,.46,.91,.4-.03-.53-.16-1.06-.38-1.52Z"/>
          <g>
            <path class="cls-6" d="M35.2,45.68c-6.74,1-13.07,4.25-17.68,9.28-2.1,2.29-3.82,4.54-5.17,7.39-.86,1.81-2.01,4.26-1.71,6.34,0,.02,0,.05,0,.07,0,.07,.02,.13,.05,.17,0,.01,0,.03,0,.04,.06,.29,.47,.27,.56,0,0-.03,.02-.06,.03-.09,9.91-17.5,18.19-17.85,23.58-19.05,1.05-.23,1.11-1.29,.66-1.9,.01,0,.02,0,.04,0-.02-.03-.04-.07-.06-.1,.12,0,.24,.01,.36,.02,1.23-.46,.6-2.35-.64-2.16Z"/>
            <path class="cls-6" d="M18.47,69.66c-.48-2.73-4.06-5.04-6.74-4.43-.06-.09-.17-.15-.29-.13-1.69,.27-4.29,1.87-4.76,3.64-.26,1,.32,2.49,.46,3.46,.16,1.12,.57,2.5,1.33,3.36,.48,.54,1.44,.6,1.76-.17,.16-.38,.29-.77,.38-1.16,.21,.06,.45,.11,.72,.1,.82-.03,1.21-.54,1.36-1.19,.06,.43,.14,.86,.29,1.27,.48,1.38,1.77,1.99,3.01,1.12,1.27-.89,.47-3.39,.14-4.5-.32-1.07-.79-1.98-1.44-2.88,.71,.49,1.28,1.18,1.46,1.9,.04-.12,.09-.24,.13-.37,.06,.42,.12,.83,.18,1.25,.46,.3,.97,.27,1.41-.05,.06-.05,.13-.09,.2-.14,.33-.24,.47-.71,.4-1.1Z"/>
          </g>
          <g>
            <path class="cls-6" d="M69.15,45.68c7.27,1,14.09,4.25,19.06,9.28,2.27,2.29,4.12,4.54,5.57,7.39,.92,1.81,2.16,4.26,1.84,6.34,0,.02,0,.05,0,.07,0,.07-.02,.13-.05,.17,0,.01,0,.03,0,.04-.07,.29-.51,.27-.6,0-.01-.03-.02-.06-.03-.09-10.69-17.5-19.61-17.85-25.42-19.05-1.13-.23-1.2-1.29-.71-1.9-.01,0-.03,0-.04,0,.02-.03,.05-.07,.07-.1-.13,0-.26,.01-.38,.02-1.32-.46-.65-2.35,.69-2.16Z"/>
            <path class="cls-6" d="M87.18,69.66c.51-2.73,4.37-5.04,7.26-4.43,.06-.09,.18-.15,.31-.13,1.83,.27,4.63,1.87,5.13,3.64,.28,1-.35,2.49-.5,3.46-.17,1.12-.61,2.5-1.44,3.36-.52,.54-1.55,.6-1.9-.17-.17-.38-.31-.77-.41-1.16-.23,.06-.48,.11-.78,.1-.89-.03-1.31-.54-1.47-1.19-.07,.43-.15,.86-.31,1.27-.52,1.38-1.91,1.99-3.25,1.12-1.37-.89-.51-3.39-.15-4.5,.35-1.07,.86-1.98,1.55-2.88-.77,.49-1.38,1.18-1.57,1.9-.05-.12-.1-.24-.14-.37-.06,.42-.13,.83-.19,1.25-.49,.3-1.05,.27-1.52-.05-.07-.05-.14-.09-.21-.14-.35-.24-.5-.71-.43-1.1Z"/>
          </g>
          <g>
            <path class="cls-6" d="M98.17,18.1c2.56,.45,5.32,.79,7.62,2.06-2.02,3.45-6.91,3.37-10.32,4.25,3.15,.02,5.49,.86,7.12,3.38-1.93-.3-3.68-.17-5.51,.43,2.41,1.83,7.06,3.4,6.35,7.53-3.26-.09-8.37-2.8-11.2,.03,1.62,1.72,2.99,3.53,3.19,5.98-2.21-1.09-7.31-2.59-5.59,1.8-1.94,.04-6.62-3.48-8.36-2.07-1.26,1.02,.72,5.29,.54,6.88-1.73-.91-2.93-3.13-4.42-4.51-1.73-1.61-3-1.81-5.02-2.79-7.92-3.87-1.93-14.94,2.59-18.69,6.18-5.12,15.46-5.58,23-4.26Z"/>
            <path class="cls-7" d="M90.2,21.35c1.7,.29,3.54,.51,5.07,1.33-1.35,2.22-4.6,2.17-6.86,2.73,2.51,.21,3.66,.55,4.74,2.17-1.28-.2-2.45-.11-3.66,.28,1.61,1.18,4.7,2.19,4.22,4.85-2.17-.06-5.57-1.8-7.45,.02,1.08,1.11,1.99,2.27,2.12,3.85-1.47-.7-4.86-1.67-3.72,1.16-1.29,.02-4.41-2.24-5.56-1.33-.84,.66,.48,3.4,.36,4.43-1.15-.58-1.95-2.02-2.94-2.91-1.15-1.04-2-1.16-3.34-1.8-5.27-2.49-1.28-9.62,1.72-12.03,4.11-3.3,10.29-3.6,15.3-2.74Z"/>
          </g>
          <g>
            <path class="cls-6" d="M7.75,17.23c-2.6,.45-5.4,.79-7.75,2.06,2.05,3.45,7.02,3.38,10.48,4.25-3.2,.01-5.58,.86-7.23,3.38,1.96-.3,3.74-.17,5.6,.43-2.45,1.83-7.17,3.4-6.45,7.53,3.31-.1,8.51-2.8,11.38,.03-1.65,1.72-3.04,3.53-3.24,5.98,2.25-1.09,7.43-2.6,5.68,1.8,1.97,.04,6.73-3.49,8.49-2.07,1.28,1.03-.73,5.29-.55,6.88,1.76-.91,2.98-3.13,4.49-4.51,1.76-1.61,3.05-1.81,5.11-2.79,8.05-3.87,1.96-14.94-2.63-18.69-6.28-5.12-15.71-5.59-23.38-4.26Z"/>
            <path class="cls-7" d="M15.85,20.48c-1.73,.29-3.6,.51-5.16,1.33,1.37,2.22,4.67,2.17,6.98,2.73-2.55,.21-3.71,.55-4.81,2.17,1.3-.19,2.49-.11,3.72,.28-1.63,1.17-4.77,2.19-4.29,4.85,2.2-.06,5.66-1.8,7.57,.02-1.1,1.11-2.02,2.27-2.16,3.85,1.5-.7,4.94-1.67,3.78,1.16,1.31,.02,4.48-2.24,5.65-1.33,.85,.66-.49,3.4-.36,4.43,1.17-.58,1.98-2.01,2.99-2.91,1.17-1.04,2.03-1.16,3.4-1.8,5.36-2.49,1.31-9.62-1.75-12.03-4.18-3.3-10.45-3.6-15.55-2.74Z"/>
          </g>
          <path class="cls-10" d="M25.55,84.06c-9.12-16.05,7.93-56.47,17.84-64.4,4.09-3.27,18.98-3.84,23.93,1.64,10.04,11.13,23.26,53.86,15.72,62.76-7.54,8.9-50.3,12.65-57.49,0Z"/>
          <path class="cls-11" d="M33.15,84.26c-8.26-14.53,7.18-51.14,16.15-58.32,3.7-2.96,17.19-3.47,21.67,1.49,.58,.65,1.18,1.42,1.78,2.28-1.82-3.54-3.68-6.46-5.44-8.4-4.94-5.48-19.84-4.91-23.93-1.64-9.91,7.93-26.96,48.35-17.84,64.4,4.53,7.97,23.17,9.43,38.23,7.19-12.76,1.23-26.92-.47-30.63-7Z"/>
          <g>
            <path class="cls-3" d="M60.83,43.74c-4.33,0-7.86-3.53-7.86-7.86,0-.38,.04-.78,.12-1.25,.6-3.82,3.85-6.61,7.74-6.61,4.33,0,7.86,3.53,7.86,7.86s-3.52,7.86-7.86,7.86Z"/>
            <path class="cls-2" d="M60.83,43.74c-4.33,0-7.86-3.53-7.86-7.86,0-.38,.04-.78,.12-1.25,.6-3.82,3.85-6.61,7.74-6.61,4.33,0,7.86,3.53,7.86,7.86s-3.52,7.86-7.86,7.86Z"/>
            <g>
              <g>
                <path class="cls-1" d="M54.33,35.88c0,3.59,2.91,6.49,6.49,6.49s6.49-2.91,6.49-6.49-2.9-6.49-6.49-6.49-6.49,2.91-6.49,6.49Z"/>
                <path class="cls-12" d="M54.58,34.22c.21,3.4,3,6.1,6.45,6.1,3.01,0,5.51-2.06,6.25-4.83,0,.13,.04,.26,.04,.39,0,3.59-2.9,6.49-6.49,6.49s-6.49-2.91-6.49-6.49c0-.58,.1-1.13,.24-1.66Z"/>
              </g>
              <g>
                <path d="M55.78,34.22c0,1.79,1.45,3.24,3.24,3.24s3.24-1.45,3.24-3.24-1.45-3.24-3.24-3.24-3.24,1.45-3.24,3.24Z"/>
                <path class="cls-1" d="M59.01,33.36c0,.71,.58,1.29,1.29,1.29s1.29-.58,1.29-1.29-.58-1.29-1.29-1.29-1.29,.58-1.29,1.29Z"/>
              </g>
            </g>
          </g>
          <g>
            <path class="cls-3" d="M46.18,42.03c3.39,0,6.15-2.76,6.15-6.15,0-.3-.03-.61-.1-.98-.47-2.99-3.02-5.17-6.05-5.17-3.39,0-6.15,2.76-6.15,6.15s2.76,6.15,6.15,6.15Z"/>
            <path class="cls-2" d="M46.18,42.03c3.39,0,6.15-2.76,6.15-6.15,0-.3-.03-.61-.1-.98-.47-2.99-3.02-5.17-6.05-5.17-3.39,0-6.15,2.76-6.15,6.15s2.76,6.15,6.15,6.15Z"/>
            <g>
              <g>
                <circle class="cls-1" cx="46.18" cy="35.88" r="5.08"/>
                <path class="cls-12" d="M51.07,34.58c-.16,2.66-2.35,4.78-5.05,4.78-2.35,0-4.31-1.61-4.89-3.78,0,.1-.03,.2-.03,.31,0,2.81,2.27,5.08,5.08,5.08s5.08-2.27,5.08-5.08c0-.45-.08-.88-.19-1.3Z"/>
              </g>
              <g>
                <path d="M50.13,34.58c0,1.4-1.13,2.53-2.53,2.53s-2.53-1.13-2.53-2.53,1.13-2.53,2.53-2.53,2.53,1.13,2.53,2.53Z"/>
                <path class="cls-1" d="M47.6,33.91c0,.56-.45,1.01-1.01,1.01s-1.01-.45-1.01-1.01,.45-1.01,1.01-1.01,1.01,.45,1.01,1.01Z"/>
              </g>
            </g>
          </g>
          <path class="cls-4" d="M78.43,52.19c0,7.45-10.95,13.49-24.46,13.49s-24.46-6.04-24.46-13.49,16.89,7.81,31.98-4.13c10.59-8.38,16.94-3.32,16.94,4.13Z"/>
          <path class="cls-13" d="M70.6,62.07c-.59-.64-1.44-1.13-2.25-1.47-1.61-.67-3.09-1.47-4.67-2.21-1.82-.85-2.97-.47-4.67,.4-1.85,.95-3.42,1.28-5.35,.28-1.8-.93-3.17-2.69-5.26-3.04-2.12-.36-4.64,.71-5.91,2.38-1.22,1.59-1.85,3.43-1.77,5.11,3.82,1.36,8.36,2.15,13.24,2.15,6.42,0,12.26-1.37,16.63-3.6Z"/>
          <g>
            <path class="cls-1" d="M37.07,51.12c.28,3.37,2.96,6.03,2.96,6.03,0,0,1.66-1.18,2.93-4.74-2.15-.34-4.14-.84-5.9-1.29Z"/>
            <path class="cls-1" d="M50.13,61.59c-1.27-4.01-1.77-3.65-1.77-3.65l-1.22,3.04c-.53,1.32-.7,2.79-.73,4.04,1.53,.27,3.12,.47,4.76,.57-.17-.94-.48-2.22-1.04-4Z"/>
            <path class="cls-1" d="M57.9,57.42c.83-2.49,1.27-5.25,1.28-7.75-1.98,1.21-3.96,2-5.93,2.48,1.32,2.64,4.24,6.5,4.65,5.26Z"/>
            <path class="cls-1" d="M63.19,46.81c.07,.78,.22,1.6,.49,2.37,.96,2.73-.21,.3,1.73,5.05l1.94,4.75s3.14,.57,3.2-4.75c.04-3.01,.89-7.12,1.46-10.48-2.37-.2-5.34,.67-8.83,3.06Z"/>
          </g>
          <path class="cls-9" d="M53.97,64.33c-13.04,0-23.69-5.63-24.42-12.72-.03,.17-.04,.37-.04,.58,0,7.45,10.95,13.49,24.46,13.49s24.46-6.04,24.46-13.49c0-.26,0-.52-.03-.78-.54,7.19-11.27,12.92-24.43,12.92Z"/>
          <path class="cls-2" d="M52.54,44.94c-.38,0-.38,.59,0,.59s.38-.59,0-.59Z"/>
          <path class="cls-2" d="M49.18,43.99c-.59,0-.58,.91,0,.91s.58-.91,0-.91Z"/>
          <path class="cls-2" d="M46.95,46.96s-.02-.02-.04-.03c.1,.14,.08,.11-.06-.07-.12-.12-.27-.18-.44-.21-.66-.11-1.27,.53-.88,1.17,.19,.31,.5,.42,.79,.37,.21,.02,.44-.07,.57-.26,0-.01,.02-.02,.03-.04,0,0,0,0,0,0,0,0,0,0,0-.01,.01-.01,.03-.02,.04-.03,.25-.21,.24-.68,0-.89Z"/>
          <path class="cls-2" d="M51.15,47.55c-1.1,0-1.09,1.7,.01,1.7s1.08-1.7-.01-1.7Z"/>
          <path class="cls-2" d="M55.51,45.96s-.03,0-.05,.01c-.64,.21-.62,1.08,.01,1.29,.01,0,.03,0,.04,.01,.43,.14,.87-.24,.86-.67,0-.43-.45-.8-.87-.65Z"/>
          <path class="cls-2" d="M51.55,42.14c-.93,0-.91,1.43,.01,1.43s.91-1.43-.01-1.43Z"/>
          <path class="cls-2" d="M44.23,43.23s-.04,.06,0,.06,.04-.06,0-.06Z"/>
          <path class="cls-2" d="M44.22,42.53c-.94,0-.93,1.46,.01,1.46s.93-1.46-.01-1.46Z"/>
          <path class="cls-2" d="M42.5,46.24s-.04,0-.06,0c0,0-.01,0-.02,0-.06,0-.11,0-.17,0-.24,0-.23,.36,0,.37,.06,0,.11,0,.17,0,0,0,0,0,.02,0,.02,0,.04,0,.06,0,.12,0,.18-.09,.18-.19,0-.09-.06-.19-.18-.19Z"/>
          <path class="cls-2" d="M39.48,43c-.34,0-.33,.52,0,.52s.33-.52,0-.52Z"/>
          <path class="cls-2" d="M40.86,48.1c-.4,0-.39,.62,0,.62s.39-.62,0-.62Z"/>
          <path class="cls-2" d="M45.77,49.1c-.1-.13-.2-.14-.35-.13-.3,.02-.29,.45,0,.46,.16,0,.25,0,.35-.13,.04-.05,.04-.15,0-.2Z"/>
          <path class="cls-2" d="M60.46,45.12c-.23,.03-.41,.1-.62,.19-.55,.24-.53,1.21,.01,1.45,.12,.05,.26,.14,.38,.16,.49,.07,.98-.12,1.12-.65,.14-.52-.29-1.23-.89-1.15Z"/>
          <path class="cls-2" d="M55.91,43.36c-.37,0-.37,.58,0,.58s.37-.58,0-.58Z"/>
          <path class="cls-2" d="M59.08,47.14c-.35,0-.35,.55,0,.55s.35-.55,0-.55Z"/>
          <path class="cls-2" d="M52.34,28.83c-.74,0-.73,1.14,0,1.14s.73-1.14,0-1.14Z"/>
          <path class="cls-2" d="M49.57,26.21c-.79,0-.78,1.22,0,1.22s.78-1.22,0-1.22Z"/>
          <path class="cls-2" d="M54.22,25.71c-.05-.02-.11-.04-.16-.07-.25-.1-.5,.15-.5,.39,0,.24,.26,.48,.51,.38,.05-.02,.11-.04,.16-.07,.32-.13,.31-.51,0-.64Z"/>
          <path class="cls-2" d="M51.78,26.52s.01-.07-.03-.09c-.05-.05-.12-.08-.19-.08-.15,0-.27,.13-.27,.28,0,.12,.09,.23,.2,.26,.07,.02,.15,0,.21-.03,.01,0,.13-.15,.09-.13,.1-.03,.1-.18,0-.21Z"/>
          <path class="cls-2" d="M49.9,28.76c-.1,.04-.18,.07-.25,.16-.03,.04-.03,.12,0,.16,.06,.09,.15,.12,.25,.16,.39,.16,.39-.64,0-.47Z"/>
          <path class="cls-2" d="M44.46,27.2c-.32,.56,.65,.96,.81,.33,.12-.48-.56-.78-.81-.33Z"/>
          <path class="cls-2" d="M47.59,24.09c-.2,0-.2,.31,0,.31s.2-.31,0-.31Z"/>
          <path class="cls-2" d="M52.91,22.75c-.09-.13-.23-.17-.37-.15-.03,0-.06,.01-.09,.03-.01,0-.03,0-.04,.01-.11,.05-.14,.13-.12,.22-.01,.09,.02,.18,.13,.22,.01,0,.03,0,.04,.01,.03,.01,.05,.02,.08,.02,.14,.02,.28-.02,.37-.15,.04-.06,.04-.17,0-.22Z"/>
          <path class="cls-2" d="M55.22,27.62c-.33-.05-.65,.26-.45,.59,.13,.22,.45,.26,.63,.08,.19-.2,.13-.62-.18-.67Z"/>
          <path class="cls-2" d="M58.68,25.76c-.35,0-.35,.55,0,.55s.35-.55,0-.55Z"/>
          <path class="cls-2" d="M55.7,22.94c-.24-.13-.55,.03-.55,.32,0,.29,.31,.44,.55,.31,.29-.15,.28-.48,0-.63Z"/>
          <path class="cls-2" d="M57.09,23.53c-.61,0-1.11,.52-1.1,1.12,0,.61,.51,1.1,1.12,1.1s1.11-.52,1.1-1.12c0-.61-.51-1.1-1.12-1.1Z"/>
          <path class="cls-2" d="M61.25,25.44c-.76,0-.75,1.18,0,1.18s.75-1.18,0-1.18Z"/>
          <path class="cls-2" d="M64.82,26.79c-.81,0-.8,1.25,0,1.25s.8-1.25,0-1.25Z"/>
          <path class="cls-2" d="M47.59,23.01c-.84,0-.82,1.29,0,1.29s.82-1.29,0-1.29Z"/>
          <path class="cls-2" d="M47.18,25.93c-.14-.14-.36-.16-.53-.06l-.05,.03c-.22,.13-.24,.42-.07,.61,.04,.05,.08,.08,.13,.11,.04,.02,.06,.03,.07,.04,.18,.2,.55,.18,.62-.14,.05-.22-.01-.43-.17-.59Z"/>
          <path class="cls-2" d="M64.82,43.95c-.64,0-.64,1,0,1s.64-1,0-1Z"/>
          <path class="cls-2" d="M68.47,41.25c-.51,.15-.33,.93,.18,.85,.59-.1,.39-1.01-.18-.85Z"/>
          <path class="cls-2" d="M70.36,37.4c-.65,0-.65,1.01,0,1.01s.65-1.01,0-1.01Z"/>
          <path class="cls-2" d="M67.14,42.72s-.09-.08-.15-.12c-.19-.14-.46,.06-.46,.27,0,.21,.27,.4,.46,.26,.05-.04,.1-.08,.14-.12,.08-.08,.08-.21,0-.29Z"/>
          <path class="cls-2" d="M71.15,39.14c-1.48,0-1.46,2.29,.02,2.29s1.46-2.29-.02-2.29Z"/>
          <path class="cls-2" d="M70.56,34.31c-.55,0-.55,.86,0,.86s.55-.86,0-.86Z"/>
          <path class="cls-2" d="M68.74,31.72s0,0,0,0c-.04-.28-.22-.51-.55-.51-.41,0-.6,.37-.54,.72,.07,.47,.65,.81,1.03,.39,.14-.16,.2-.41,.07-.6Z"/>
          <path class="cls-2" d="M38.09,33.28c-.86,0-.85,1.34,.01,1.34s.85-1.34-.01-1.34Z"/>
          <path class="cls-2" d="M36.5,38.06c-1.33,0-1.32,2.07,.02,2.07s1.32-2.07-.02-2.07Z"/>
          <path class="cls-2" d="M39.28,40.07c-.54,0-.53,.83,0,.83s.53-.83,0-.83Z"/>
          <path class="cls-2" d="M37.1,41.94c-.42,0-.41,.65,0,.65s.41-.65,0-.65Z"/>
          <path class="cls-2" d="M40.86,27.48c-.43,0-.42,.66,0,.66s.42-.66,0-.66Z"/>
          <path class="cls-2" d="M40.06,29.61c-.21-.26-.63,.16-.37,.37,.14,.11,.34,.32,.51,.14,.17-.17-.04-.37-.15-.51Z"/>
          <path class="cls-2" d="M74.32,41.89c-.48,0-.47,.75,0,.75s.47-.75,0-.75Z"/>
          <path class="cls-6" d="M46.97,84.98c.2-.38-.32-.77-.61-.44-1.13,1.29-2.1,2.81-2.89,4.43-.04-.12-.11-.24-.2-.33,.13-.33,.23-.67,.24-1.05,.02-.8-1-1.1-1.52-.59-.41,.41-.76,.85-1.05,1.3-.11-.18-.22-.35-.35-.5,0-.08,0-.17,0-.26-.01-1.56,.61-2.06,.18-3.49-.21-.7-1.28-.89-1.71-.3-1.06,1.47-1.71,3.02-2.06,4.63-.08,.11-.15,.22-.21,.33-.3-.07-.62,.09-.78,.39-.08-.95-.1-1.9-.05-2.86,.08-1.73,1.16-3.57,.89-5.26,0-.02-.02-.02-.04-.01-5.46,5.69-2.19,15.63,2.31,21.68-2.95-.98-5.98-1.22-9.31-.47-2.27,.51-4.43,1.48-6.58,2.35-1.14,.47-1.94,1.13-1.88,2.4,.02,.37,.32,.71,.64,.86,1.26,.56,2.6,.38,3.86-.08,.51-.19,1.03-.34,1.54-.49-.26,.24-.5,.48-.69,.72-.51,.65-.08,1.49,.57,1.8,1.67,.78,4.22-.04,5.88-.45,.56-.14,1.11-.26,1.66-.38-.26,.25-.52,.51-.79,.78-.67,.64-.43,2.17,.7,2.11,2.85-.14,4.95-2.14,7.46-3.16,.87,.1,1.72-.07,2.56-.35,.91-.29,1.48-1.25,1.2-2.17-.17-.54-.49-.96-.82-1.4-.12-.16-.21-.32-.29-.49-.36-2.78-1.42-5.51-1.45-8.4-.04-3.63,1.9-7.75,3.59-10.87Z"/>
          <path class="cls-6" d="M59.1,84.98c-.21-.38,.33-.77,.62-.44,1.14,1.29,2.12,2.81,2.92,4.43,.04-.12,.11-.24,.2-.33-.13-.33-.23-.67-.24-1.05-.03-.8,1.01-1.1,1.53-.59,.42,.41,.77,.85,1.06,1.3,.11-.18,.22-.35,.36-.5,0-.08,0-.17,0-.26,.01-1.56-.62-2.06-.18-3.49,.21-.7,1.29-.89,1.72-.3,1.07,1.47,1.73,3.02,2.08,4.63,.08,.11,.15,.22,.22,.33,.3-.07,.62,.09,.79,.39,.08-.95,.1-1.9,.06-2.86-.08-1.73-1.18-3.57-.9-5.26,0-.02,.02-.02,.04-.01,5.52,5.69,2.22,15.63-2.33,21.68,2.98-.98,6.04-1.22,9.41-.47,2.29,.51,4.47,1.48,6.65,2.35,1.15,.47,1.95,1.13,1.9,2.4-.02,.37-.32,.71-.65,.86-1.27,.56-2.63,.38-3.9-.08-.52-.19-1.04-.34-1.56-.49,.26,.24,.5,.48,.7,.72,.52,.65,.08,1.49-.58,1.8-1.68,.78-4.27-.04-5.94-.45-.57-.14-1.12-.26-1.68-.38,.26,.25,.52,.51,.8,.78,.67,.64,.43,2.17-.7,2.11-2.88-.14-5-2.14-7.53-3.16-.88,.1-1.74-.07-2.59-.35-.92-.29-1.5-1.25-1.22-2.17,.17-.54,.49-.96,.83-1.4,.12-.16,.21-.32,.3-.49,.36-2.78,1.43-5.51,1.47-8.4,.04-3.63-1.91-7.75-3.62-10.87Z"/>
          <path class="cls-2" d="M51.91,19.45c-1.36-.51-9.51-2.72-6.39-9.18,.7,.88,1.8,3.75,2.96,3.99-2.46-3.08-2.19-5.63,.54-8.17,.65-1.7,2.64-2.48,3.39-6.08,1.53,2.74,.95,4.41,.31,6.29,.78-1.08,1.71-2.08,2.07-3.3-.3,2.62,2.15,5.04,.95,7.65,.77-1.14,1.69-2.14,2.78-2.98,.62,2.97,1.69,5.69-.06,8.31-.81,1.23-2.99,2.61-4.27,3.43-.76,.49-2.27,.04-2.27,.04Z"/>
        </g>
      </g>
    </g>
  </g>
</svg>