<?xml version="1.0" encoding="UTF-8"?>
<svg xmlns="http://www.w3.org/2000/svg" viewBox="0 0 92.82 83.53">
  <defs>
    <style>
      .cls-1 {
        fill: #fff;
      }

      .cls-2 {
        isolation: isolate;
      }

      .cls-3 {
        fill: #ffe398;
        mix-blend-mode: screen;
        opacity: .2;
      }

      .cls-4 {
        fill: #01858a;
      }

      .cls-5 {
        fill: #f0d907;
      }

      .cls-5, .cls-6 {
        mix-blend-mode: multiply;
      }

      .cls-7 {
        fill: #19b8bd;
      }

      .cls-8 {
        fill: #0ca4a8;
      }

      .cls-9 {
        fill: #0c989c;
      }

      .cls-10 {
        fill: #078f94;
      }

      .cls-6 {
        fill: #21b3b8;
        opacity: .1;
      }

      .cls-11 {
        fill: #e8e8e8;
      }

      .cls-12 {
        fill: #00acb3;
      }

      .cls-13 {
        fill: #47dade;
      }
    </style>
  </defs>
  <g class="cls-2">
    <g id="Ebene_2" data-name="Ebene 2">
      <g id="_Ńëîé_1" data-name="Ńëîé 1">
        <g>
          <path class="cls-9" d="M21.97,65.84c3.48,10.81,11.73,14.13,21.17,13.88,14.41-.38,24.69-13.92,39.3-12.46,3.34,.34,7.31,1.14,10.15,3.68,2.05-9.32-10.06-27.4-23.74-26.88-7.68,.29-14.43,5.09-21.22,7.94-6.08,2.55-13.83,3.62-18.99,7.92-2.66,2.22-3.42,5.41-7.08,6.11l.4-.21Z"/>
          <g>
            <path class="cls-12" d="M17.94,18.14c-.23-.45-.47-.92-.73-1.44C10.64,3.76,2.28,1.46,2.28,1.46c0,0-6.72,18.09,2.92,25.17,1.06-4.12,7.51-7.39,12.74-8.49Z"/>
            <path class="cls-10" d="M15.97,18.99c-.15-.3-.31-.61-.48-.96C11.12,9.45,5.58,7.92,5.58,7.92c0,0-4.46,12,1.94,16.71,.7-2.74,4.98-4.91,8.46-5.63Z"/>
          </g>
          <g>
            <path class="cls-12" d="M62.89,18.14c.23-.45,.47-.92,.73-1.44,6.57-12.94,14.93-15.24,14.93-15.24,0,0,6.72,18.09-2.92,25.17-1.06-4.12-7.51-7.39-12.74-8.49Z"/>
            <path class="cls-10" d="M64.86,18.99c.15-.3,.31-.61,.48-.96,4.36-8.59,9.91-10.12,9.91-10.12,0,0,4.46,12-1.94,16.71-.7-2.74-4.98-4.91-8.46-5.63Z"/>
          </g>
          <g>
            <path class="cls-7" d="M78.39,30.09c0,22.77-16.92,49.76-37.44,49.76S4.07,52.86,4.07,30.09s74.32-22.76,74.32,0Z"/>
            <path class="cls-7" d="M60.13,15.16C57.81,6.43,49.86,0,40.4,0S22.7,6.67,20.54,15.63c-9.58,2.71-16.48,7.53-16.48,14.46,0,22.77,16.36,49.76,36.88,49.76s37.44-26.99,37.44-49.76c0-7.35-7.76-12.33-18.26-14.93Z"/>
            <path class="cls-3" d="M40.28,19.89c15.45,0,29.08,7.85,37.17,19.8,.61-3.22,.94-6.45,.94-9.59,0-7.35-7.76-12.33-18.26-14.93C57.81,6.43,49.86,0,40.4,0S22.7,6.67,20.54,15.63c-9.58,2.71-16.48,7.53-16.48,14.46,0,2.46,.19,4.97,.56,7.49,8.22-10.76,21.13-17.7,35.65-17.7Z"/>
          </g>
          <path class="cls-6" d="M40.95,75.54c-13.65,0-25.62-10.88-32.94-25.02,6.05,15.9,18.45,29.33,32.93,29.33s27.24-13.51,33.43-29.48c-7.49,14.21-19.72,25.17-33.42,25.17Z"/>
          <g>
            <path class="cls-5" d="M40.95,38.86c-8.8,0-15.96-7.16-15.96-15.96,0-.78,.08-1.58,.25-2.53,1.21-7.76,7.83-13.43,15.71-13.43,8.8,0,15.96,7.16,15.96,15.96s-7.16,15.96-15.96,15.96Z"/>
            <path class="cls-4" d="M40.95,38.86c-8.8,0-15.96-7.16-15.96-15.96,0-.78,.08-1.58,.25-2.53,1.21-7.76,7.83-13.43,15.71-13.43,8.8,0,15.96,7.16,15.96,15.96s-7.16,15.96-15.96,15.96Z"/>
            <g>
              <g>
                <path class="cls-1" d="M27.76,22.89c0,7.28,5.91,13.19,13.19,13.19s13.19-5.9,13.19-13.19-5.9-13.19-13.19-13.19-13.19,5.91-13.19,13.19Z"/>
                <path class="cls-11" d="M28.25,19.52c.42,6.91,6.1,12.39,13.11,12.39,6.11,0,11.2-4.17,12.7-9.81,.02,.27,.08,.52,.08,.79,0,7.28-5.9,13.19-13.19,13.19s-13.19-5.9-13.19-13.19c0-1.17,.2-2.29,.49-3.37Z"/>
              </g>
              <g>
                <path d="M36.03,25.34c2.72,2.41,6.87,2.16,9.28-.55,2.41-2.72,2.17-6.87-.55-9.28-2.72-2.41-6.87-2.16-9.29,.55-2.41,2.71-2.16,6.87,.56,9.28Z"/>
                <path class="cls-1" d="M39.1,19.27c1.08,.96,2.74,.86,3.71-.22,.96-1.09,.86-2.75-.22-3.71-1.08-.96-2.74-.86-3.7,.22-.96,1.09-.87,2.75,.22,3.71Z"/>
              </g>
            </g>
          </g>
          <path class="cls-10" d="M40.4,40.9c-9.17,0-17.64-1.66-24.46-4.45,.43,12.03,11.21,21.66,24.46,21.66s24.03-9.63,24.46-21.66c-6.82,2.79-15.29,4.45-24.46,4.45Z"/>
          <path class="cls-13" d="M40.4,55.33c-12.27,0-22.45-8.15-24.46-18.85,.44,12.01,11.22,21.63,24.46,21.63s24.02-9.62,24.46-21.63c-2,10.71-12.19,18.85-24.46,18.85Z"/>
          <g>
            <path class="cls-1" d="M25.97,39.46c-2.14-.44-4.19-.98-6.14-1.6,.19,1.61,.54,3.3,1.16,4.59,.34,1.09,1.63,2.96,1.63,2.96,0,0,1.71-1.21,2.96-4.41,.14-.37,.29-.89,.39-1.54Z"/>
            <path class="cls-1" d="M43.32,40.84c-.97,.04-1.94,.06-2.93,.06-1.06,0-2.12-.03-3.16-.07,.21,1.31,.53,2.62,1.03,3.67,.34,1.09,1.63,2.96,1.63,2.96,0,0,1.71-1.21,2.96-4.41,.19-.49,.39-1.24,.47-2.21Z"/>
            <path class="cls-1" d="M34.22,42.17c.14-.36,.29-.87,.39-1.5-2.06-.16-4.06-.4-6.01-.72,.21,1.32,.53,2.63,1.04,3.68,.34,1.09,1.63,2.96,1.63,2.96,0,0,1.71-1.21,2.96-4.41Z"/>
            <path class="cls-1" d="M60.97,37.86c-2.03,.65-4.18,1.2-6.41,1.66,.11,.69,.27,1.25,.43,1.64,1.29,3.2,3.07,4.41,3.07,4.41,0,0,1.34-1.87,1.69-2.96,.66-1.33,1.03-3.09,1.22-4.75Z"/>
            <path class="cls-1" d="M49.17,46.43s1.34-1.87,1.69-2.96c.5-.99,.83-2.23,1.04-3.48-2,.32-4.06,.56-6.17,.71,.1,.54,.24,.99,.37,1.32,1.29,3.2,3.07,4.41,3.07,4.41Z"/>
          </g>
          <path class="cls-8" d="M31.5,73.41c-1.55-.93-3.56-1.2-5.61-1.11-2-.29-4.09,.03-5.96,.84-1.99,.86-5.7,3.44-4.66,6.08,.15,.38,.46,.65,.88,.64,2.09-.03,3.81-1.18,5.83-1.3-.88,1.39-1.34,3.09-.42,4.53,.3,.46,1.07,.59,1.5,.23,1.21-1.04,2.17-2.3,3.26-3.45,.39,1.34,1.02,2.68,2.06,3.37,.69,.45,1.42,.16,1.78-.52,.49-.9,.79-1.84,1.02-2.8,.65,.58,1.37,1.06,2.08,1.19,.37,.07,.92-.16,1.1-.51,1.34-2.55-.62-5.82-2.85-7.16Z"/>
          <path class="cls-8" d="M48.32,73.41c1.54-.93,3.56-1.2,5.6-1.11,2-.29,4.09,.03,5.95,.84,1.99,.86,5.7,3.44,4.65,6.08-.15,.38-.45,.65-.88,.64-2.08-.03-3.81-1.18-5.82-1.3,.88,1.39,1.34,3.09,.42,4.53-.3,.46-1.07,.59-1.49,.23-1.21-1.04-2.16-2.3-3.25-3.45-.39,1.34-1.02,2.68-2.06,3.37-.68,.45-1.42,.16-1.78-.52-.49-.9-.79-1.84-1.02-2.8-.65,.58-1.37,1.06-2.07,1.19-.37,.07-.92-.16-1.1-.51-1.34-2.55,.62-5.82,2.85-7.16Z"/>
          <path class="cls-9" d="M22.37,22.49c-.76,0-.92,1.19-.15,1.19s.92-1.19,.15-1.19Z"/>
          <path class="cls-9" d="M22.72,27.29s0,.08,0,.12c0,.18,.28,.22,.29,.02,0-.04,0-.08,0-.12,.01-.2-.31-.21-.3-.02Z"/>
          <path class="cls-9" d="M18.88,26.59c-.31,0-.52,.35-.49,.63,.04,.33,.32,.49,.63,.49s.52-.36,.49-.63c-.04-.33-.32-.49-.63-.49Z"/>
          <path class="cls-9" d="M23.23,31.09c-.08-.64-.62-.96-1.21-.96s-1.02,.67-.96,1.21c.08,.64,.62,.96,1.21,.96s1.02-.67,.96-1.21Z"/>
          <path class="cls-9" d="M25.38,32.8c-.41,0-.76,.28-.78,.7-.02,.39,.3,.78,.7,.78s.76-.28,.78-.7c.02-.39-.3-.78-.7-.78Z"/>
          <path class="cls-9" d="M23.22,34.73c-.07-.64-.61-.95-1.2-.95s-1.01,.66-.95,1.2c.07,.64,.61,.96,1.2,.96s1.02-.66,.95-1.2Z"/>
          <path class="cls-9" d="M23.21,26.15c-.39,0-.73,.26-.76,.66-.03,.37,.27,.76,.66,.76s.73-.26,.76-.66c.03-.37-.27-.76-.66-.76Z"/>
          <path class="cls-9" d="M16.92,28.78c-1.09,0-1.1,1.69,0,1.69s1.1-1.69,0-1.69Z"/>
          <path class="cls-9" d="M27.01,35.84c-.77,0-.93,1.21-.15,1.21s.93-1.21,.15-1.21Z"/>
          <path class="cls-9" d="M30.17,36.12c-1.37,0-1.14,2.11,.22,2.11s1.14-2.11-.22-2.11Z"/>
          <path class="cls-9" d="M49.43,38.68c-.48,0-.46,.75,.03,.75s.46-.75-.03-.75Z"/>
          <path class="cls-9" d="M56.68,34.97c-.65,0-1.24,.37-1.31,1.06-.06,.6,.41,1.31,1.06,1.31s1.24-.37,1.31-1.06c.06-.6-.41-1.31-1.06-1.31Z"/>
          <path class="cls-9" d="M52.69,36.14c-1.34,0-1.14,2.07,.19,2.07s1.14-2.07-.19-2.07Z"/>
          <path class="cls-9" d="M49.47,38.28c-.43,0-.79,.31-.81,.75-.02,.41,.33,.81,.75,.81s.79-.31,.81-.75c.02-.41-.33-.81-.75-.81Z"/>
          <path class="cls-9" d="M56.46,30.62c-.96,0-1.04,1.49-.08,1.49s1.04-1.49,.08-1.49Z"/>
          <path class="cls-9" d="M55.21,32.76c-.63,0-.54,.98,.09,.98s.54-.98-.09-.98Z"/>
          <path class="cls-9" d="M60.03,32.06c-1.16,0-1.12,1.79,.04,1.79s1.12-1.79-.04-1.79Z"/>
          <path class="cls-9" d="M59.42,34.79c-.64,0-.54,.99,.09,.99s.54-.99-.09-.99Z"/>
          <path class="cls-9" d="M54.92,37.67s.04,0,.05,0c-.07-.06-.14-.09-.23-.11-.09-.02-.17,0-.25,.02,0,0,0,0,0,0,0,0,0,0,0,0-.02,0-.05,0-.07,.02-.16,.04-.26,.17-.31,.32-.17,.19-.13,.46,.09,.61,.04,.03,.08,.06,.12,.08,.23,.09,.45,.03,.59-.17,.3-.21,.25-.6,0-.77Z"/>
          <path class="cls-9" d="M60.02,28.36c-.17-.44-.63-.72-1.11-.67-.47,.05-.86,.42-.94,.89-.03,.19-.01,.38,.06,.57,.04,.08,.09,.16,.13,.24,.11,.15,.25,.26,.42,.34,0,0,0,0,0,0,.27,.18,.69,.13,.95-.04,0,0,.01-.01,.02-.02l.1-.06c.41-.24,.52-.84,.36-1.25Z"/>
          <path class="cls-9" d="M62.43,28.8c-.37,0-.7,.22-.73,.62-.03,.34,.25,.73,.62,.73s.7-.23,.73-.62c.03-.34-.25-.73-.62-.73Z"/>
          <path class="cls-9" d="M63.47,31.99c-.69,0-.56,1.06,.12,1.06s.56-1.06-.12-1.06Z"/>
          <path class="cls-9" d="M59.03,23.64s-.03,.06,0,.06,.03-.06,0-.06Z"/>
          <path class="cls-9" d="M59.75,23.12c-.21-.54-.81-.83-1.34-.51-.45,.28-.63,1.07-.15,1.42,.07,.05,.13,.1,.2,.15-.02-.02-.03-.03-.05-.05,.03,.02,.07,.05,.1,.07,0,0,0,0,0,.01,.1,.04,.19,.08,.28,.12,.49,.23,.95-.26,1-.7,.02-.18,.02-.34-.05-.51Z"/>
          <path class="cls-9" d="M62.02,24.58c-.53,0-.94,.52-.92,1.03,.03,.55,.5,.91,1.03,.91s.95-.53,.91-1.03c-.03-.55-.5-.91-1.03-.91Z"/>
          <path class="cls-9" d="M64.76,26.72c-.74,0-.58,1.15,.15,1.15s.58-1.15-.15-1.15Z"/>
          <path class="cls-9" d="M21.85,21.66c-.55,0-.96,.56-.93,1.07,.04,.57,.53,.93,1.07,.93s.96-.56,.93-1.07c-.04-.57-.53-.93-1.07-.93Z"/>
          <path class="cls-9" d="M18.91,25.73c-.54,0-.96,.55-.92,1.06,.04,.57,.52,.92,1.06,.92s.96-.55,.92-1.06c-.04-.57-.52-.92-1.06-.92Z"/>
          <path class="cls-9" d="M17.62,31.82c-.54,0-.49,.84,.05,.84s.49-.84-.05-.84Z"/>
          <path class="cls-9" d="M19.88,32.58c-.86,0-.99,1.34-.12,1.34s.99-1.34,.12-1.34Z"/>
          <path class="cls-9" d="M20.16,28.4c-1.02,0-1.07,1.58-.05,1.58s1.07-1.58,.05-1.58Z"/>
          <path class="cls-9" d="M15.89,26.6s-.08,0-.12,0c-.35-.02-.35,.55,0,.53,.04,0,.08,0,.12,0,.33-.02,.35-.5,.01-.52Z"/>
          <path class="cls-9" d="M15.57,26.02c-.3,0-.51,.34-.48,.61,.04,.32,.31,.48,.61,.48s.51-.34,.48-.61c-.04-.32-.31-.48-.61-.48Z"/>
          <path class="cls-9" d="M19.36,23.59c.02-.14-.02-.3-.11-.41-.06-.16-.2-.3-.42-.35-.03,0-.06-.01-.09-.02-.37-.07-.69,.29-.64,.64,.02,.17,.1,.4,.26,.5,.11,.07,.19,.12,.32,.14,.1,.01,.3,.03,.08-.06,.29,.11,.69-.09,.6-.44Z"/>
          <path class="cls-9" d="M34.38,3.89c-.41,0-.77,.29-.79,.72-.02,.4,.31,.79,.72,.79s.77-.29,.79-.72c.02-.4-.31-.79-.72-.79Z"/>
          <path class="cls-9" d="M38.62,2.04c-.55,0-.97,.57-.93,1.09,.05,.58,.54,.93,1.09,.93s.97-.57,.93-1.09c-.04-.58-.54-.93-1.09-.93Z"/>
          <path class="cls-9" d="M42.15,4.59c-.5,0-.91,.47-.89,.96,.02,.52,.45,.89,.96,.89s.91-.46,.89-.96c-.02-.52-.45-.89-.96-.89Z"/>
          <path class="cls-9" d="M48.22,5c-.54,.04-.95,.51-.92,1.04,0,.04,0,.08,0,.12,.03,.53,.5,.95,1.03,.91,.57-.03,.89-.5,.92-1.03,0-.04,0-.08,0-.13,.03-.54-.55-.95-1.04-.92Z"/>
          <path class="cls-9" d="M44.35,2.32c-.49,0-.88,.43-.88,.91,0,.49,.42,.88,.91,.88s.89-.43,.88-.91c0-.49-.42-.88-.91-.88Z"/>
          <path class="cls-9" d="M37.41,5.29c-1.04,0-1.08,1.62-.03,1.62s1.08-1.62,.03-1.62Z"/>
          <path class="cls-9" d="M32.26,7.4c-.09-.66-.65-.96-1.26-.96s-1.04,.71-.96,1.26c.09,.67,.65,.96,1.26,.96s1.04-.71,.96-1.26Z"/>
          <path class="cls-9" d="M28.85,8.77c-1.04,0-1.08,1.62-.03,1.62s1.08-1.62,.03-1.62Z"/>
          <path class="cls-9" d="M38.73,2.14c-.09,0-.19,0-.28,0-.58-.01-1,.64-.95,1.17,.06,.61,.59,.96,1.16,.95,.09,0,.18,0,.27,0,.58-.01,1-.61,.95-1.15-.06-.62-.58-.93-1.15-.94Z"/>
          <path class="cls-9" d="M49.53,7.16c-.3,0-.51,.33-.48,.6,.04,.32,.31,.48,.6,.48s.51-.33,.48-.6c-.04-.32-.31-.48-.6-.48Z"/>
          <path class="cls-9" d="M52.14,5.97c.05-.11,.04-.24,0-.34-.19-.38-.69-.08-.63,.27,0,.02,0,.03,0,.04,.03,.27,.33,.33,.47,.17,0,0,0,0,0,0,0,0,0,0,.01,0,0,0,.02,0,.04-.01,0,0,.02-.01,.02-.02,0,0,.02,0,.03-.01,0,0,0-.01,.01-.02,.02-.02,.04-.04,.05-.07,0,0,0,0,0,0,0,0,0,0,0,0Z"/>
          <path class="cls-9" d="M52.78,8.43c-.63,0-1.2,.33-1.29,1.01-.07,.57,.38,1.29,1.01,1.29s1.2-.33,1.29-1.01c.07-.57-.38-1.29-1.01-1.29Z"/>
          <path class="cls-9" d="M36.16,1.86c-.1-.02-.19-.02-.29,0-.71,.13-.66,1.11,.03,1.23,.1,.02,.19,.01,.29,0,.69-.17,.66-1.06-.02-1.22Z"/>
          <path class="cls-9" d="M31.26,3.88c-.61,0-.53,.95,.08,.95s.53-.95-.08-.95Z"/>
          <path class="cls-9" d="M33.92,6.5c-.23,0-.25,.36-.02,.36s.26-.36,.02-.36Z"/>
          <path class="cls-9" d="M33.62,6.79s-.03,.06,0,.06,.03-.06,0-.06Z"/>
          <path class="cls-9" d="M33.88,6.41c-.06-.02-.12-.05-.18-.07-.03-.01-.06-.02-.1-.02-.02,0-.03-.01-.05-.01-.01,0-.02,0-.04,0-.03,0-.05-.01-.09,0,0,0-.01,0-.02,0-.03,0-.05,.02-.08,.02,0,0-.01,0-.02,0-.21,.06-.33,.23-.34,.42,0,.03,0,.07,0,.1,0,0,0,.02,0,.02,0,.19,.1,.35,.3,.42,.02,0,.05,.02,.07,.02,.02,0,.03,.01,.04,.01h.02s.03,0,.05,0c.02,0,.05,0,.07,0,.07,0,.14-.02,.21-.04,.12-.07,.15-.09,.09-.04,.35-.13,.45-.7,.05-.85Z"/>
          <path class="cls-9" d="M40.43,4.84c-.1-.07-.2-.1-.31-.12-.52-.12-1.06,.23-1.06,.8,0,.56,.52,.92,1.05,.81,.1-.02,.21-.04,.3-.11,.49-.34,.58-1.03,.04-1.38Z"/>
          <path class="cls-9" d="M41.01,2.39s-.08-.01-.12-.02c-.06,0-.11,0-.15,.04,0,0,0,0-.01,0,0,0-.01,.01-.02,.02-.06,.06-.07,.15-.04,.23,0,0,0,0,0,0,0,.02,.02,.04,.03,.06,.01,.02,.03,.03,.04,.05,0,0,.01,.01,.02,.02,.02,.01,.04,.03,.07,.03,0,0,0,0,.01,0,.01,0,.02,.01,.04,.01,0,0,.01,0,.02,0,.05,0,.08,0,.12-.02,.01,0,.03,0,.04,0,.26-.03,.19-.4-.04-.43Z"/>
          <path class="cls-9" d="M44.95,5.1s-.04-.02-.06-.03c-.1,.02-.2,.06-.28,.12-.12,.1-.21,.24-.23,.4-.04,.29,.19,.67,.52,.67,1.04,0,.71-1.37,.05-1.15Z"/>
          <path class="cls-9" d="M47.8,2.85c-.63,0-.54,.98,.09,.98s.54-.98-.09-.98Z"/>
          <path class="cls-9" d="M29.19,6.14c-.07-.15-.2-.27-.38-.31-.02,0-.03-.01-.05-.01,0,0,0,0,0,0-.02,0-.04,0-.07,0-.03,0-.06,0-.09,0-.19,.03-.33,.14-.41,.29-.09,.15-.11,.33-.04,.5,.01,.03,.03,.06,.04,.09,.17,.41,.79,.46,.97,.03,.02-.04,.03-.08,.05-.11,.07-.16,.05-.33-.02-.47Z"/>
          <path class="cls-9" d="M26.03,10.29c-.59,0-.52,.91,.07,.91s.52-.91-.07-.91Z"/>
          <path class="cls-9" d="M54.88,10.44c-.4,0-.75,.28-.78,.69-.02,.38,.29,.78,.69,.78s.76-.28,.78-.7c.02-.38-.29-.78-.69-.78Z"/>
          <path class="cls-9" d="M55.24,8.31c-.05,0-.1,.03-.15,.05-.05,.02-.05,.09,0,.11,.05,.02,.1,.05,.16,.05,.16,0,.15-.22,0-.21Z"/>
          <path class="cls-9" d="M53.68,6.91c-.08-.04-.17-.06-.26-.06-.32,0-.61,.15-.72,.47-.1,.27,0,.67,.27,.82,.19,.1,.4,.2,.62,.09,.02-.01,.04-.02,.07-.03,.03,0,.05-.01,.08-.03,.57-.28,.46-1.02-.06-1.26Z"/>
          <path class="cls-9" d="M55.54,8.39l-.12-.02c-.09-.03-.09,.13,0,.09,.04,0,.08-.01,.12-.02,.05,0,.05-.07,0-.06Z"/>
          <path class="cls-9" d="M55.79,8.85c.33-.17,.42-.68,.02-.86-.01,0-.02,0-.04-.01-.04-.03-.09-.04-.13-.06-.03-.01-.06-.02-.1-.03-.02,0-.04-.01-.07-.02-.02,0-.03,0-.05,0-.03,0-.05-.01-.08,0,0,0-.01,0-.02,0-.31,.03-.45,.25-.46,.49,0,.02,0,.04,0,.07,0,.02,0,.03,0,.05,0,.21,.11,.4,.35,.46,0,0,.01,0,.02,0,.03,0,.05,.02,.08,.02h.02s.04,0,.06,0c.02,0,.04,0,.07,0,.04,0,.07-.02,.11-.03,.01,0,.02,0,.03,0,.06-.02,.12-.05,.18-.08Z"/>
          <path class="cls-9" d="M27.47,11.1c-.42,.04-.55,.49-.37,.82,0,.02,.02,.03,.02,.04,.19,.34,.67,.22,.83-.06,.01-.02,.02-.04,.04-.07,.2-.35-.16-.77-.53-.74Z"/>
          <path class="cls-9" d="M26.8,7.39c-.39,0-.39,.61,0,.61s.39-.61,0-.61Z"/>
          <path class="cls-9" d="M25.92,13.18s-.03,.06,0,.06,.03-.06,0-.06Z"/>
          <path class="cls-9" d="M25.86,12.67c-.3,0-.51,.33-.48,.6,.04,.32,.31,.48,.6,.48s.51-.33,.48-.6c-.04-.32-.31-.48-.6-.48Z"/>
          <path class="cls-9" d="M57.13,11.24c-.48,0-.46,.75,.03,.75s.46-.75-.03-.75Z"/>
          <path class="cls-9" d="M56.51,13.43c-.66,0-.55,1.02,.1,1.02s.55-1.02-.1-1.02Z"/>
        </g>
      </g>
    </g>
  </g>
</svg>