<?xml version="1.0" encoding="UTF-8"?>
<svg xmlns="http://www.w3.org/2000/svg" viewBox="0 0 86.45 106.95">
  <defs>
    <style>
      .cls-1 {
        mix-blend-mode: screen;
      }

      .cls-1, .cls-2 {
        opacity: .4;
      }

      .cls-3 {
        fill: #fff;
      }

      .cls-4, .cls-5 {
        fill: #f0d907;
      }

      .cls-6 {
        fill: #64bd55;
      }

      .cls-2 {
        fill: #5057b8;
      }

      .cls-7 {
        fill: #7077db;
      }

      .cls-8 {
        isolation: isolate;
      }

      .cls-5, .cls-9 {
        mix-blend-mode: multiply;
      }

      .cls-10 {
        fill: #5a62cf;
      }

      .cls-9 {
        opacity: .3;
      }

      .cls-11 {
        fill: #e8e8e8;
      }

      .cls-12 {
        fill: #437e39;
      }

      .cls-13 {
        fill: #f2df2c;
      }
    </style>
  </defs>
  <g class="cls-8">
    <g id="Ebene_2" data-name="Ebene 2">
      <g id="_Ńëîé_1" data-name="Ńëîé 1">
        <g>
          <g>
            <g>
              <path class="cls-10" d="M31.59,74.41s.81,8.8,3.56,16.83c2.75,8.03,2.44,5.78,2.64,8.55l.2,2.76s.71-.35,1.42,0c.71,.35,1.12-.69,.81-2.68-.31-1.99,.46-4.4,1.04-8.13,.89-4.72,1.12-8.81-.03-14.23-1.15-5.46-9.66-3.11-9.66-3.11Z"/>
              <path class="cls-2" d="M38.03,83.92c0,.42,.11,.83,.22,1.23l1.14-.24c.35,2.86,.47,5.54,.26,8.42-.08,1.15-.28,2.28-.41,3.42-.14,1.25,.06,2.42,.15,3.65,.04,.48-.07,1.34-.04,2.12,.02,0,.04,.01,.07,.02,.71,.35,1.12-.69,.81-2.68-.31-1.99,.46-4.4,1.04-8.13,.76-4.01,1.03-7.57,.39-11.86-1.85,.31-3.68,2.2-3.64,4.04Z"/>
              <path class="cls-7" d="M32.12,102.26c-1.71,.16-2.71-.84-4.29-.74-2.03,.12-1.63,1.74-.15,2.22,1.41,.45,3.33,.03,4.8-.1,1.93-.16,3.84-.4,5.78-.53-.43,1.1-2.24,1.37-3.04,2.28-.67,.76-.49,1.71,1.07,1.53,1.63-.19,1.05-.85,1.3-1.63,.22-.67,1.35-1.31,1.82-1.97,.71-.98,1.6-2.08-.82-1.92-2.17,.15-4.29,.65-6.46,.84Z"/>
            </g>
            <g>
              <path class="cls-10" d="M53.14,74.41s-.81,8.8-3.54,16.83c-2.73,8.03-2.43,5.78-2.63,8.55l-.2,2.76s-.71-.35-1.42,0c-.71,.35-1.11-.69-.81-2.68,.3-1.99-.46-4.4-1.04-8.13-.89-4.72-1.11-8.81,.03-14.23,1.15-5.46,9.61-3.11,9.61-3.11Z"/>
              <path class="cls-2" d="M46.73,83.92c0,.42-.11,.83-.22,1.23l-1.13-.24c-.34,2.86-.47,5.54-.26,8.42,.08,1.15,.28,2.28,.41,3.42,.14,1.25-.06,2.42-.15,3.65-.04,.48,.07,1.34,.04,2.12-.02,0-.04,.01-.06,.02-.71,.35-1.11-.69-.81-2.68,.3-1.99-.46-4.4-1.04-8.13-.75-4.01-1.02-7.57-.39-11.86,1.84,.31,3.66,2.2,3.62,4.04Z"/>
              <path class="cls-7" d="M52.61,102.26c1.7,.16,2.7-.84,4.27-.74,2.02,.12,1.62,1.74,.15,2.22-1.4,.45-3.32,.03-4.78-.1-1.92-.16-3.82-.4-5.75-.53,.43,1.1,2.23,1.37,3.02,2.28,.66,.76,.49,1.71-1.07,1.53-1.62-.19-1.05-.85-1.3-1.63-.21-.67-1.34-1.31-1.81-1.97-.7-.98-1.6-2.08,.82-1.92,2.16,.15,4.27,.65,6.43,.84Z"/>
            </g>
            <ellipse class="cls-12" cx="42.54" cy="37.68" rx="12.99" ry="17.84"/>
            <path class="cls-12" d="M86.45,59.54c-1.21-11.83-5.63-16.44-17.03-19.9,2.4-.4,5.01-.69,7.49-.59-5.81-4.73-13.36-3.84-20.56-4.16,1.07-4.6,11.04-5.68,15.11-7.02-2.34-1.95-5.81-1.76-8.8-2.17,1.56-2.05,4.53-2.78,6.24-4.44-3.06-.31-6.17-.14-8.82,1.23,.77-3.07,2.98-6.38,5.2-8.76-6.5,1.53-14.95,8.53-13.95,15.38l-9.79,19.89-9.06-19.89c.92-6.85-6.89-13.85-12.9-15.38,2.05,2.38,4.1,5.69,4.81,8.76-2.45-1.37-5.33-1.54-8.16-1.23,1.58,1.65,4.32,2.39,5.77,4.44-2.76,.4-5.97,.22-8.14,2.17,3.76,1.35,12.98,2.42,13.97,7.02-6.66,.33-13.64-.57-19.01,4.16,2.3-.1,4.7,.2,6.93,.59C5.2,43.1,1.12,47.71,0,59.54c2.11-4.26,5.71-8.33,11.13-8.65-.96,2.19-3.65,3.12-5.14,5.16-2.16,2.95-2.02,5.84-1.82,9.34,.24-.46,.89-1.27,1.19-1.93-2.04,5.55,.76,11.01,2.02,14.53,.18-3.76,.09-8.79,2.5-9.6-1.57,5.65-.81,11.53,2.47,16.52,.19-3.21-.38-6.57,1.15-9.52-1.39,5.24,3.56,10.83,7.52,13.79-1.64-1.23-.66-5.13,.17-6.49,1.02,2.66,2.39,5.62,4.62,7.64-1-2.56,.09-5,2.73-5.64-1.19,3.87,2.7,10.6,5.09,13.26-.19-2.72,.24-5.64,2.38-7.26,.76,.93,1.4,1.93,1.87,3.06,.05-.04,.1-.09,.15-.13,.09,.29,.18,.58,.26,.88,.17-.52,.33-1.07,.48-1.63,1.28-1.53,1.91-3.66,2.13-5.64,.19-.29,.39-.56,.61-.82,.2,.21,.38,.44,.55,.67,.23,2.35,.84,4.6,2.94,7.42-.29-1.25,1.99-3.06,1.88-4.17,2.83,1.51,3.38,4.67,3.16,7.61,2.59-2.67,6.8-9.39,5.51-13.26,2.85,.64,4.02,3.08,2.95,5.64,2.42-2.01,3.89-4.98,5-7.64,.9,1.36,1.97,5.26,.19,6.49,4.29-2.96,9.65-8.55,8.14-13.79,1.65,2.96,1.03,6.31,1.24,9.52,3.55-4.99,4.37-10.86,2.67-16.52,1.39,2.09,3.36,6.59,4.02,9.2,3-6.43,2.06-9.71,.87-14.13,.33,.66,1.71,2.08,1.97,2.54,.22-3.5-.02-8.16-2.35-11.11-1.61-2.04-4.82-1.81-5.86-4,5.86,.32,9.76,4.39,12.04,8.65Z"/>
            <path class="cls-12" d="M86.45,59.54c-1.21-11.83-5.63-16.44-17.03-19.9,2.4-.4,5.01-.69,7.49-.59-5.81-4.73-13.36-3.84-20.56-4.16,1.07-4.6,11.04-5.68,15.11-7.02-2.34-1.95-5.81-1.76-8.8-2.17,1.56-2.05,4.53-2.78,6.24-4.44-3.06-.31-6.17-.14-8.82,1.23,.77-3.07,2.98-6.38,5.2-8.76-6.5,1.53-14.95,8.53-13.95,15.38l-9.79,19.89-9.06-19.89c.92-6.85-6.89-13.85-12.9-15.38,2.05,2.38,4.1,5.69,4.81,8.76-2.45-1.37-5.33-1.54-8.16-1.23,1.58,1.65,4.32,2.39,5.77,4.44-2.76,.4-5.97,.22-8.14,2.17,3.76,1.35,12.98,2.42,13.97,7.02-6.66,.33-13.64-.57-19.01,4.16,2.3-.1,4.7,.2,6.93,.59C5.2,43.1,1.12,47.71,0,59.54c2.11-4.26,5.71-8.33,11.13-8.65-.96,2.19-3.65,3.12-5.14,5.16-2.16,2.95-2.02,5.84-1.82,9.34,.24-.46,.89-1.27,1.19-1.93-2.04,5.55,.76,11.01,2.02,14.53,.18-3.76,.09-8.79,2.5-9.6-1.57,5.65-.81,11.53,2.47,16.52,.19-3.21-.38-6.57,1.15-9.52-1.39,5.24,3.56,10.83,7.52,13.79-1.64-1.23-.66-5.13,.17-6.49,1.02,2.66,2.39,5.62,4.62,7.64-1-2.56,.09-5,2.73-5.64-1.19,3.87,2.7,10.6,5.09,13.26-.19-2.72,.24-5.64,2.38-7.26,.76,.93,1.4,1.93,1.87,3.06,.05-.04,.1-.09,.15-.13,.09,.29,.18,.58,.26,.88,.17-.52,.33-1.07,.48-1.63,1.28-1.53,1.91-3.66,2.13-5.64,.19-.29,.58,1.75,.8,1.5,.2,.21,.19-1.88,.36-1.64,.23,2.35,.84,4.6,2.94,7.42-.29-1.25,1.99-3.06,1.88-4.17,2.83,1.51,3.38,4.67,3.16,7.61,2.59-2.67,6.8-9.39,5.51-13.26,2.85,.64,4.02,3.08,2.95,5.64,2.42-2.01,3.89-4.98,5-7.64,.9,1.36,1.97,5.26,.19,6.49,4.29-2.96,9.65-8.55,8.14-13.79,1.65,2.96,1.03,6.31,1.24,9.52,3.55-4.99,4.37-10.86,2.67-16.52,1.39,2.09,3.36,6.59,4.02,9.2,3-6.43,2.06-9.71,.87-14.13,.33,.66,1.71,2.08,1.97,2.54,.22-3.5-.02-8.16-2.35-11.11-1.61-2.04-4.82-1.81-5.86-4,5.86,.32,9.76,4.39,12.04,8.65Z"/>
            <g class="cls-9">
              <path class="cls-12" d="M21.55,14.4c-.67-.28-1.33-.51-1.97-.67,.55,.64,1.09,1.34,1.62,2.09,.52-.05,1.04-.1,1.54-.18-.34-.48-.75-.88-1.19-1.24Z"/>
              <path class="cls-12" d="M57.09,24.83c2.06,.09,4.15,.09,6.22,.14,1.64-1.53,4.09-2.27,5.59-3.72-3.06-.31-6.17-.14-8.82,1.23,.09-.38,.21-.75,.35-1.14-1.7,.88-2.98,2-3.33,3.48Z"/>
              <path class="cls-12" d="M63.4,15.63c.08,.01,.16,.02,.23,.03,.33-.43,.67-.83,1.01-1.23-.46,.35-.89,.74-1.24,1.2Z"/>
              <path class="cls-12" d="M81.4,53.46s.02,.02,.03,.02c-.01-.02-.03-.05-.05-.08,0,.02,0,.03,.01,.05Z"/>
              <path class="cls-12" d="M23.76,20.52c.26,.66,.48,1.31,.63,1.96-2.45-1.37-5.33-1.54-8.16-1.23,1.4,1.46,3.7,2.21,5.21,3.77,2.36-.11,4.77-.08,7.13-.2-.43-2-2.4-3.33-4.81-4.3Z"/>
              <path class="cls-12" d="M6.74,46c1.41-1.93,3.9-2.88,4.97-4.83C4.13,44.52,.96,49.35,0,59.54c1.15-2.32,2.74-4.57,4.82-6.2-.07-2.64,.18-4.96,1.91-7.34Z"/>
              <path class="cls-12" d="M81.63,64.78c.43,.51,.85,.99,.99,1.22,.1-1.59,.1-3.41-.14-5.21-.09,1.21-.35,2.51-.85,3.99Z"/>
              <path class="cls-12" d="M83.4,55.25c1.23,1.3,2.24,2.78,3.05,4.29-.56-5.49-1.81-9.43-4.14-12.41,1.02,2.52,1.2,5.56,1.09,8.12Z"/>
              <path class="cls-12" d="M73.83,74.86c-.21-3.21,.41-6.57-1.24-9.52,1.51,5.24-3.85,10.83-8.14,13.79,1.78-1.23,.71-5.13-.19-6.49-1.11,2.66-2.58,5.62-5,7.64,1.08-2.56-.1-5-2.95-5.64,1.29,3.87-2.91,10.59-5.51,13.26,.22-2.94-.33-6.1-3.16-7.61,.11,1.1-2.17,2.91-1.88,4.17-2.1-2.82-2.71-5.07-2.94-7.42-.17-.23-.16,1.86-.36,1.64-.22,.26-.61-1.78-.8-1.5-.23,1.98-.85,4.11-2.13,5.64-.16,.56-.31,1.11-.48,1.63-.08-.3-.17-.59-.26-.88-.05,.04-.1,.09-.15,.13-.47-1.13-1.11-2.13-1.87-3.06-2.15,1.62-2.57,4.53-2.38,7.26-2.4-2.67-6.29-9.39-5.09-13.26-2.63,.64-3.72,3.08-2.73,5.64-2.23-2.01-3.6-4.98-4.62-7.64-.84,1.36-1.82,5.26-.17,6.49-3.97-2.96-8.92-8.55-7.52-13.79-1.53,2.96-.96,6.31-1.15,9.52-3.28-4.99-4.04-10.86-2.47-16.52-2.4,.81-2.32,5.84-2.5,9.6-1-2.76-2.92-6.72-2.72-10.98-1.54,2.65-1.42,5.29-1.23,8.44,.24-.46,.89-1.27,1.19-1.93-2.04,5.55,.76,11.01,2.02,14.53,.18-3.76,.09-8.79,2.5-9.6-1.57,5.65-.81,11.53,2.47,16.52,.19-3.21-.38-6.57,1.15-9.52-1.39,5.24,3.56,10.83,7.52,13.79-1.64-1.23-.66-5.13,.17-6.49,1.02,2.66,2.39,5.62,4.62,7.64-1-2.56,.09-5,2.73-5.64-1.19,3.87,2.7,10.6,5.09,13.26-.19-2.72,.24-5.64,2.38-7.26,.76,.93,1.4,1.93,1.87,3.06,.05-.04,.1-.09,.15-.13,.09,.29,.18,.58,.26,.88,.17-.52,.33-1.07,.48-1.63,1.28-1.53,1.91-3.66,2.13-5.64,.19-.29,.58,1.75,.8,1.5,.2,.21,.19-1.88,.36-1.64,.23,2.35,.84,4.6,2.94,7.42-.29-1.25,1.99-3.06,1.88-4.17,2.83,1.51,3.38,4.67,3.16,7.61,2.59-2.67,6.8-9.39,5.51-13.26,2.85,.64,4.02,3.08,2.95,5.64,2.42-2.01,3.89-4.98,5-7.64,.9,1.36,1.97,5.26,.19,6.49,4.29-2.96,9.65-8.55,8.14-13.79,1.65,2.96,1.03,6.31,1.24,9.52,3.15-4.43,4.15-9.55,3.15-14.61-.58,1.57-1.37,3.1-2.4,4.56Z"/>
              <path class="cls-12" d="M80.52,67.54c-.66-2.61-2.63-7.11-4.02-9.2,1.13,3.76,1.14,7.62-.03,11.25,1.28,2.31,2.75,5.82,3.3,8,2.44-5.24,2.27-8.4,1.48-11.78-.22,.55-.45,1.12-.73,1.73Z"/>
            </g>
            <path class="cls-6" d="M72.85,58.37c-.83-8.11-3.86-11.27-11.67-13.64,1.65-.27,3.43-.47,5.14-.41-1.74-1.42-3.71-2.1-5.78-2.43-5.63,3.4-10.46,7.94-17.59,7.49l-.87,1.77-.89-1.96c-.13-.02-.25-.05-.38-.07-.05,.25-.24,.46-.58,.44-3.54-.25-6.7-1.49-9.87-3.01-1.47-.7-3.11-1.36-4.34-2.43-1.54-.46-3.1-.81-4.7-.96-.57,.32-1.13,.7-1.66,1.17,1.57-.07,3.22,.14,4.75,.41-7.23,2.37-10.03,5.53-10.79,13.64,1.45-2.92,3.92-5.71,7.63-5.93-.66,1.5-2.5,2.14-3.52,3.54-1.48,2.02-1.39,4-1.25,6.4,.17-.31,.61-.87,.81-1.32-1.4,3.8,.52,7.54,1.39,9.96,.12-2.58,.06-6.02,1.71-6.58-1.08,3.88-.55,7.9,1.7,11.32,.13-2.2-.26-4.5,.79-6.53-.96,3.59,2.44,7.42,5.16,9.45-1.13-.84-.45-3.51,.12-4.45,.7,1.82,1.64,3.85,3.17,5.23-.68-1.76,.06-3.43,1.87-3.87-.82,2.65,1.85,7.26,3.49,9.09-.13-1.87,.16-3.87,1.63-4.97,.52,.64,.96,1.33,1.28,2.1,.04-.03,.07-.06,.1-.09,.06,.2,.13,.4,.18,.6,.12-.36,.22-.73,.33-1.12,.88-1.05,1.31-2.51,1.46-3.86,.13-.2,.39,1.2,.55,1.02,.13,.15,.13-1.29,.25-1.13,.16,1.61,.57,3.15,2.02,5.08-.2-.86,1.37-2.1,1.29-2.86,1.94,1.04,2.32,3.2,2.17,5.22,1.78-1.83,4.66-6.44,3.77-9.09,1.95,.44,2.76,2.11,2.02,3.87,1.66-1.38,2.67-3.41,3.43-5.23,.62,.93,1.35,3.61,.13,4.45,2.94-2.03,6.61-5.86,5.58-9.45,1.13,2.03,.71,4.33,.85,6.53,2.43-3.42,3-7.45,1.83-11.32,.95,1.44,2.3,4.52,2.75,6.31,2.05-4.4,1.41-6.66,.6-9.68,.23,.45,1.17,1.42,1.35,1.74,.15-2.4-.01-5.59-1.61-7.62-1.1-1.4-3.3-1.24-4.02-2.74,4.02,.22,6.69,3.01,8.25,5.93Z"/>
            <g class="cls-1">
              <path class="cls-6" d="M20.37,56.98c-1.65,.56-1.59,4-1.71,6.58-.56-1.56-1.55-3.67-1.81-5.99-.56,1.5-.49,3.04-.39,4.82,.17-.31,.61-.87,.81-1.32-1.4,3.8,.52,7.54,1.39,9.96,.12-2.55,.07-5.94,1.66-6.56-.67-2.42-.65-4.98,.05-7.48Z"/>
              <path class="cls-6" d="M17.71,48.52c.44-.61,1.04-1.07,1.63-1.53-3.57,2.26-5.19,5.53-5.74,11.38,.7-1.41,1.64-2.79,2.84-3.86-.12-2.22-.12-4.08,1.27-5.99Z"/>
              <path class="cls-6" d="M68.87,53.6c.03,.1,.05,.2,.08,.3,.07,.05,.15,.1,.22,.15-.13-.17-.24-.33-.3-.44Z"/>
              <path class="cls-6" d="M17.05,54s.08-.06,.12-.08c.03-.1,.06-.21,.1-.31-.06,.13-.14,.26-.22,.4Z"/>
              <path class="cls-6" d="M63.69,68.3c-.14-2.2,.28-4.5-.85-6.53,1.03,3.59-2.64,7.42-5.58,9.45,1.22-.84,.49-3.51-.13-4.45-.76,1.82-1.77,3.85-3.43,5.23,.74-1.76-.07-3.43-2.02-3.87,.89,2.65-2,7.26-3.77,9.09,.15-2.01-.23-4.18-2.17-5.22,.08,.76-1.49,2-1.29,2.86-1.44-1.93-1.86-3.47-2.02-5.08-.12-.16-.11,1.27-.25,1.13-.15,.18-.42-1.22-.55-1.02-.16,1.36-.58,2.82-1.46,3.86-.11,.38-.21,.76-.33,1.12-.05-.21-.11-.41-.18-.6-.03,.03-.07,.06-.1,.09-.32-.77-.76-1.46-1.28-2.1-1.47,1.11-1.76,3.11-1.63,4.97-1.64-1.83-4.31-6.44-3.49-9.09-1.8,.44-2.55,2.11-1.87,3.87-1.53-1.38-2.47-3.41-3.17-5.23-.57,.93-1.25,3.6-.12,4.45-2.72-2.03-6.11-5.86-5.16-9.45-1.05,2.03-.66,4.33-.79,6.53-.78-1.19-1.35-2.45-1.72-3.76-1.04,3.84-.51,7.83,1.72,11.22,.13-2.2-.26-4.5,.79-6.53-.96,3.59,2.44,7.42,5.16,9.45-1.13-.84-.45-3.51,.12-4.45,.7,1.82,1.64,3.85,3.17,5.23-.68-1.76,.06-3.43,1.87-3.87-.82,2.65,1.85,7.26,3.49,9.09-.13-1.87,.16-3.87,1.63-4.97,.52,.64,.96,1.33,1.28,2.1,.04-.03,.07-.06,.1-.09,.06,.2,.13,.4,.18,.6,.12-.36,.22-.73,.33-1.12,.88-1.05,1.31-2.51,1.46-3.86,.13-.2,.39,1.2,.55,1.02,.13,.15,.13-1.29,.25-1.13,.16,1.61,.57,3.15,2.02,5.08-.2-.86,1.37-2.1,1.29-2.86,1.94,1.04,2.32,3.2,2.17,5.22,1.78-1.83,4.66-6.44,3.77-9.09,1.95,.44,2.76,2.11,2.02,3.87,1.66-1.38,2.67-3.41,3.43-5.23,.62,.93,1.35,3.61,.13,4.45,2.94-2.03,6.61-5.86,5.58-9.45,1.13,2.03,.71,4.33,.85,6.53,2.41-3.39,2.98-7.37,1.86-11.22-.4,1.31-1.02,2.57-1.86,3.76Z"/>
              <path class="cls-6" d="M69.05,61.34c.36,.49,1.02,1.2,1.17,1.46,.11-1.76,.05-3.95-.62-5.79,.13,1.28,.02,2.64-.54,4.34Z"/>
              <path class="cls-6" d="M68.28,63.28c-.45-1.79-1.8-4.87-2.75-6.31,.75,2.51,.78,5.09,.04,7.52,.95,1.46,2.27,4.48,2.71,6.24,1.95-4.18,1.47-6.42,.72-9.22-.19,.55-.42,1.13-.72,1.77Z"/>
              <path class="cls-6" d="M70.24,54.92c1.08,1.01,1.94,2.22,2.61,3.45-.43-4.17-1.44-7.02-3.38-9.14,.73,1.76,.85,3.89,.77,5.68Z"/>
            </g>
            <g>
              <path class="cls-5" d="M50,32.23c-5.18,0-9.39-4.21-9.39-9.39,0-.46,.05-.93,.15-1.49,.71-4.56,4.6-7.9,9.24-7.9,5.18,0,9.39,4.21,9.39,9.39s-4.21,9.39-9.39,9.39Z"/>
              <path class="cls-4" d="M50,32.23c-5.18,0-9.39-4.21-9.39-9.39,0-.46,.05-.93,.15-1.49,.71-4.56,4.6-7.9,9.24-7.9,5.18,0,9.39,4.21,9.39,9.39s-4.21,9.39-9.39,9.39Z"/>
              <g>
                <g>
                  <path class="cls-3" d="M42.24,22.84c0,4.28,3.47,7.76,7.76,7.76s7.76-3.47,7.76-7.76-3.47-7.76-7.76-7.76-7.76,3.47-7.76,7.76Z"/>
                  <path class="cls-11" d="M42.53,20.86c.24,4.06,3.58,7.29,7.71,7.29,3.6,0,6.59-2.46,7.47-5.77,0,.16,.05,.31,.05,.47,0,4.28-3.47,7.76-7.76,7.76s-7.76-3.47-7.76-7.76c0-.69,.12-1.35,.29-1.98Z"/>
                </g>
                <g>
                  <path d="M43.97,20.86c0,2.14,1.73,3.87,3.87,3.87s3.87-1.73,3.87-3.87-1.73-3.87-3.87-3.87-3.87,1.73-3.87,3.87Z"/>
                  <path class="cls-3" d="M47.83,19.84c0,.85,.69,1.54,1.54,1.54s1.54-.69,1.54-1.54-.69-1.54-1.54-1.54-1.54,.69-1.54,1.54Z"/>
                </g>
              </g>
            </g>
            <g>
              <path class="cls-5" d="M31.84,32.23c5.18,0,9.39-4.21,9.39-9.39,0-.46-.05-.93-.15-1.49-.71-4.56-4.6-7.9-9.24-7.9-5.18,0-9.39,4.21-9.39,9.39s4.21,9.39,9.39,9.39Z"/>
              <path class="cls-4" d="M31.84,32.23c5.18,0,9.39-4.21,9.39-9.39,0-.46-.05-.93-.15-1.49-.71-4.56-4.6-7.9-9.24-7.9-5.18,0-9.39,4.21-9.39,9.39s4.21,9.39,9.39,9.39Z"/>
              <g>
                <g>
                  <path class="cls-3" d="M39.6,22.84c0,4.28-3.47,7.76-7.76,7.76s-7.76-3.47-7.76-7.76,3.47-7.76,7.76-7.76,7.76,3.47,7.76,7.76Z"/>
                  <path class="cls-11" d="M39.31,20.86c-.24,4.06-3.59,7.29-7.71,7.29-3.6,0-6.59-2.46-7.47-5.77-.01,.16-.05,.31-.05,.47,0,4.28,3.47,7.76,7.76,7.76s7.76-3.47,7.76-7.76c0-.69-.12-1.35-.29-1.98Z"/>
                </g>
                <g>
                  <path d="M37.87,20.86c0,2.14-1.73,3.87-3.87,3.87s-3.87-1.73-3.87-3.87,1.73-3.87,3.87-3.87,3.87,1.73,3.87,3.87Z"/>
                  <path class="cls-3" d="M34.01,19.84c0,.85-.69,1.54-1.54,1.54s-1.55-.69-1.55-1.54,.69-1.54,1.55-1.54,1.54,.69,1.54,1.54Z"/>
                </g>
              </g>
            </g>
            <path class="cls-4" d="M40.02,20.42c-.44-1.75-.67-3.62-.74-5.89-.02-.64-.02-1.31-.03-2-.02-3.06-.04-6.53-1.58-8.92-.78-1.21-1.71-1.79-2.73-1.72-1.59,.1-3.5,1.75-4.53,3.92l-1.69-.81C29.83,2.64,32.16,.18,34.81,0c1.21-.08,2.96,.31,4.43,2.58,1.84,2.85,1.86,6.61,1.88,9.93,0,.67,0,1.33,.03,1.95,.07,2.13,.28,3.88,.69,5.5l-1.82,.45Z"/>
            <path class="cls-4" d="M25.69,5.49c-.33,1.48,.45,.26,.89,.05,.9-.42,1.57-.93,2.54-.97-.62,.75-1.56,1.88-1.84,2.94,.21-.2,.64-.42,.87-.76-.33,1.77-1.57,4.64-1.01,6.26,.77-1.55,.97-4.09,2.25-5.09-.21,1.49-.72,3.18-.21,4.47,.56-1.46,.7-3.41,1.64-4.69,.23,.76,.16,1.78,.5,2.55,.3-.78,.62-3.63,1.33-3.67,.49-.03,1,2.19,1.42,2.62,3.11-5.98-7.07-9.65-8.39-3.71Z"/>
            <path class="cls-3" d="M28.34,45.89c.11-.55,.27-5.59,1.5-7.7,1.23-2.11,.75-1.32,.75-1.32,0,0,1.71,1.57,2.3,6.12l.59,4.54-5.15-1.65Z"/>
            <path class="cls-7" d="M60.13,41.88s-.41,.55-1.18,1.48c-.2,.23-.38,.5-.65,.75-.26,.26-.55,.53-.86,.83-.31,.29-.64,.62-1,.94-.38,.29-.78,.59-1.2,.91-.81,.68-1.83,1.21-2.88,1.83-.53,.29-1.12,.52-1.7,.79-.3,.13-.59,.26-.9,.39-.31,.12-.63,.2-.94,.31-.64,.19-1.29,.42-1.96,.57-.68,.12-1.37,.25-2.06,.37-.35,.08-.7,.09-1.05,.11l-1.07,.06-.53,.03-.27,.02h-.13s-.07,.01-.07,.01h-.03s-.07,0-.07,0l-1.02-.04c-.33,0-.7-.04-1.07-.07-.36-.04-.74-.06-1.09-.12-.71-.11-1.41-.22-2.09-.39-1.37-.31-2.69-.75-3.92-1.28-.31-.13-.61-.27-.91-.4-.29-.15-.58-.3-.86-.45-.57-.28-1.1-.63-1.62-.94-1.03-.65-1.94-1.35-2.73-2.03-.81-.67-1.48-1.37-2.05-1.98-.28-.32-.55-.61-.78-.89-.22-.29-.43-.55-.62-.79-.38-.47-.62-.89-.81-1.15-.18-.27-.27-.41-.27-.41l.04-.03s.13,.11,.38,.32c.25,.2,.59,.52,1.06,.89,.23,.18,.49,.39,.76,.61,.28,.21,.59,.44,.92,.69,.66,.48,1.43,.99,2.27,1.52,.84,.53,1.8,1.02,2.8,1.53,1.02,.48,2.11,.94,3.27,1.32,1.15,.39,2.36,.72,3.61,.94,.62,.13,1.26,.21,1.89,.29,.32,.04,.62,.05,.94,.08,.31,.03,.62,.06,.97,.06l1.02,.03,.92-.05,.96-.04c.32-.02,.64-.01,.95-.07,.63-.09,1.25-.17,1.87-.26,.61-.1,1.2-.28,1.8-.4,.29-.07,.59-.12,.88-.2,.28-.1,.56-.19,.84-.28,.55-.19,1.12-.33,1.63-.55,.52-.22,1.02-.43,1.51-.64,.5-.18,.95-.43,1.39-.66,.44-.23,.86-.45,1.27-.66,.4-.22,.75-.46,1.1-.66,.69-.43,1.31-.78,1.79-1.16,.97-.7,1.55-1.08,1.55-1.08l.04,.04Z"/>
            <path class="cls-13" d="M30.42,53.85s.02-.02,.06-.02c.25-.04,.61,.07,.49,.63,0,0-.02,.05-.03,.07-.17,.13-.34,.27-.48,.43-.15,.16-.3,.31-.42,.5-.1,.15-.23,.29-.3,.46-.1,.22-.24,.42-.31,.66,0,0-.03,.07-.08,.19-.05,.12-.14,.28-.19,.48-.05,.2-.15,.42-.19,.66-.05,.21-.1,.45-.15,.7-.14,1.52-.35,.96-.47-.05,0,.05-.04-.55,.05-1.16,.04-.31,.09-.62,.17-.85,.07-.23,.11-.39,.11-.39,.08-.23,.21-.44,.32-.66,.09-.2,.23-.37,.35-.55,.14-.22,.32-.41,.5-.59,.17-.2,.37-.36,.57-.52Z"/>
            <path class="cls-13" d="M33.66,57.84s0-.03,.04-.05c.18-.15,.55-.29,.76,.25,0,0,.02,.05,.01,.07-.15,.43-.27,.88-.38,1.33-.12,.55-.22,1.1-.27,1.65-.04,.25-.04,.51-.05,.77,0,0,0,.08-.02,.21-.02,.13-.03,.32-.04,.53-.04,.43-.01,.96,0,1.42,.23,1.5-.11,1.03-.47,.07,.01,.05-.16-.53-.23-1.13-.09-.61-.09-1.23-.09-1.23,0-.24,.01-.47,.05-.7,.05-.59,.16-1.18,.28-1.76,.12-.48,.24-.95,.4-1.41Z"/>
            <path class="cls-13" d="M37.67,60.55s0-.03,.02-.06c.11-.2,.41-.46,.8-.02,0,0,.03,.05,.04,.07,.02,.46,.03,.93,.06,1.39l.09,.84c.03,.26,.05,.52,.09,.78,0,0,.02,.29,.06,.76,.02,.37,.05,.88,.08,1.46,.09,1.56-.2,.99-.47,.05,0,.05-.15-.51-.27-1.09-.13-.6-.26-1.18-.26-1.18l-.08-.69-.1-.87c-.03-.48-.05-.97-.07-1.45Z"/>
            <path class="cls-13" d="M44.56,57.13s0-.02,0-.05c.02-.09,.05-.2,.12-.34,.07-.12,.2-.26,.54-.11,.01,0,.06,.03,.07,.05,.29,.52,.39,1,.5,1.48,.07,.35,.12,.69,.16,1.04,.03,.27,.06,.54,.07,.81,0,0,0,.34-.03,.79-.03,.45-.1,1.02-.21,1.48-.18,.78-.35,.98-.4,.89-.07-.1-.06-.49-.07-.96-.01,.05,0-.52-.04-1.09-.03-.58-.11-1.16-.11-1.16-.02-.22-.04-.44-.06-.66-.04-.33-.09-.65-.15-.97-.09-.44-.21-.9-.39-1.21Z"/>
            <path class="cls-13" d="M47.45,55.86s-.02-.02-.02-.05c-.03-.19-.08-.66,.51-.62,.01,0,.06,.01,.08,.02,.2,.17,.39,.35,.54,.58l.24,.32,.18,.35v.02c.16,.26,.23,.53,.32,.81,0,0,.03,.09,.05,.23,.02,.14,.04,.33,.07,.58,.03,.46,.02,1.04-.03,1.5-.16,1.57-.36,.93-.48-.01-.01,.05-.05-.52-.17-1.08-.04-.28-.14-.55-.18-.75-.06-.2-.12-.32-.12-.32-.06-.2-.12-.4-.23-.57v-.02s-.15-.28-.15-.28l-.19-.25c-.11-.18-.27-.32-.43-.46Z"/>
            <path class="cls-13" d="M55.33,57.57s-.01-.02,0-.06c.02-.22,.16-.62,.7-.4,.01,0,.05,.03,.06,.04,.23,.42,.46,.84,.68,1.26l.42,.87c.11,.24,.25,.48,.34,.73,0,0,.09,.29,.24,.75,.06,.2,.13,.44,.21,.71,.03,.23,.07,.48,.11,.75,.23,1.57-.13,.97-.47,.09,0,.02-.04-.1-.11-.29-.06-.2-.16-.46-.3-.72-.25-.53-.5-1.05-.5-1.05-.08-.21-.19-.4-.29-.6l-.41-.84c-.21-.42-.45-.83-.67-1.25Z"/>
            <path class="cls-13" d="M52.63,61.38s0-.03,.01-.06c.09-.22,.37-.5,.8-.11,0,0,.04,.04,.04,.06,.05,.45,.16,.9,.27,1.35l.13,.51,.21,.77s.05,.29,.13,.77c.07,.45,.12,1.02,.11,1.49-.08,1.6-.3,.93-.48,.03-.01,.05-.1-.5-.27-1.06-.16-.55-.35-1.12-.35-1.12l-.18-.66-.14-.53c-.11-.47-.23-.95-.29-1.44Z"/>
            <path class="cls-13" d="M55.03,49.97s-.02-.01-.04-.05c-.09-.19-.2-.62,.37-.71,.01,0,.06,0,.08,0,.22,.13,.44,.25,.65,.39l.6,.47c.43,.39,.83,.82,1.15,1.31,.18,.22,.3,.48,.43,.73,0,0,.03,.08,.09,.21,.07,.13,.12,.33,.18,.55,.15,.44,.22,1.02,.26,1.49,.02,1.6-.25,.95-.47,.06,0,.05-.15-.49-.36-1.01-.12-.25-.21-.52-.33-.7-.11-.18-.18-.3-.18-.3-.09-.19-.19-.38-.33-.54-.28-.43-.63-.8-1-1.14l-.52-.41c-.18-.12-.38-.23-.57-.34Z"/>
            <path class="cls-13" d="M60.19,52.1s-.02-.02-.02-.05c-.04-.21-.02-.64,.56-.58,.01,0,.06,.01,.07,.02,.35,.34,.67,.71,.99,1.08,.26,.35,.55,.69,.77,1.08,.14,.24,.3,.47,.41,.73,0,0,.03,.08,.09,.21,.05,.14,.14,.32,.19,.55,.06,.23,.14,.47,.18,.73,.03,.26,.07,.52,.09,.76,.01,1.61-.25,.95-.47,.06-.01,.05-.13-.49-.37-1.01-.11-.26-.22-.52-.34-.7-.11-.19-.18-.31-.18-.31-.08-.2-.22-.37-.33-.56-.2-.35-.47-.67-.71-.99-.3-.35-.6-.7-.93-1.02Z"/>
            <path class="cls-13" d="M26.02,50.61s.02-.02,.06-.01c.23,0,.61,.12,.43,.68,0,0-.02,.05-.04,.06-.4,.24-.77,.51-1.14,.78-.32,.27-.65,.52-.93,.82-.19,.17-.36,.35-.52,.55,0,0-.05,.05-.15,.15-.1,.09-.23,.22-.36,.39-.29,.31-.59,.75-.86,1.12-.73,1.34-.71,.75-.41-.23-.02,.05,.19-.52,.5-1.05,.3-.54,.7-1.03,.7-1.03,.15-.19,.32-.35,.49-.51,.31-.32,.67-.6,1.01-.88,.4-.29,.79-.58,1.21-.83Z"/>
            <path class="cls-13" d="M25.2,57.72s.01-.03,.05-.04c.2-.11,.59-.16,.68,.42,0,.01,0,.06,0,.07-.22,.4-.47,.78-.66,1.2l-.13,.33-.28,.71s-.04,.07-.09,.19c-.04,.12-.09,.29-.16,.5-.13,.41-.33,.92-.39,1.36-.3,1.51-.44,.93-.47-.08-.11,.1,.24-2.38,.34-2.36l.26-.66,.14-.36c.2-.45,.47-.87,.71-1.3Z"/>
            <path class="cls-13" d="M29.39,64.42s0-.01,.03-.02c.14-.07,.47-.13,.79,.16,0,0,.03,.03,.03,.04,0,.01-.05,.25-.11,.6-.05,.35-.1,.82-.11,1.29,0,.47,.03,.93,.07,1.27,.06,.34,.1,.57,.1,.57,0,0,0,.15,.03,.36,.02,.21,.03,.47,.05,.69,.09,.75-.18,.57-.45,.15-.02,.07-.51-1.06-.48-1.08,0,0-.22-.99-.18-2,.01-.5,.06-1,.12-1.38,.06-.38,.12-.63,.12-.64Z"/>
            <path class="cls-13" d="M22.15,47.17s.03,0,.06,0c.23,.05,.56,.26,.26,.76,0,0-.03,.04-.05,.05-.43,.14-.84,.33-1.25,.53-.21,.12-.43,.23-.64,.36-.21,.14-.43,.27-.63,.42,0,0-.24,.16-.62,.41-.16,.12-.35,.26-.56,.42-.17,.14-.35,.3-.55,.47-1.06,1.1-.88,.53-.34-.33-.03,.04,.3-.46,.74-.89,.2-.23,.44-.43,.61-.59,.18-.15,.29-.26,.29-.26l.59-.39c.22-.14,.46-.26,.69-.39,.44-.22,.89-.43,1.37-.58Z"/>
            <path class="cls-13" d="M46.58,65.85s0-.01,0-.03c.08-.13,.32-.38,.74-.33,0,0,.04,0,.04,.02,0,.01,.1,.25,.23,.6,.07,.17,.14,.38,.23,.59,.07,.22,.13,.46,.2,.7,.07,.24,.13,.47,.19,.7,.04,.23,.07,.44,.11,.62,.06,.36,.1,.6,.1,.6,0,0,.01,.16-.02,.38-.03,.22-.07,.49-.12,.71-.14,.75-.35,.44-.48,0-.02,.04-.21-1.05-.24-1.04,0,0-.04-.22-.09-.56-.03-.17-.05-.36-.1-.57-.06-.2-.12-.42-.18-.64-.06-.22-.12-.44-.18-.64-.08-.2-.15-.39-.21-.55-.13-.32-.21-.54-.22-.56Z"/>
            <path class="cls-13" d="M35.24,69.45s0-.03,.03-.05c.17-.16,.52-.31,.77,.22,0,0,.02,.05,.02,.07l-.16,.66c-.06,.22-.11,.44-.12,.67v.08s-.08,.76-.08,.76c0,0-.01,.07-.04,.21,0,.13-.01,.31-.02,.53-.02,.43-.07,.97-.05,1.43,.04,1.55-.23,1-.48,.03-.06,.12-.35-2.35-.26-2.36l.07-.71v-.09c.02-.25,.07-.49,.14-.73l.18-.73Z"/>
            <path class="cls-13" d="M41.4,64.73s0-.01,.02-.02c.11-.08,.41-.23,.8-.12,0,0,.03,.01,.04,.02,0,.02,.1,.75,.19,1.47,.06,.36,.08,.72,.09,1,.02,.27,.03,.46,.03,.46,0,0-.06,.48-.17,.82-.15,.56-.35,.33-.48,0-.02,.03-.21-.8-.21-.8,0,0,0-.17-.03-.43,0-.26-.04-.61-.09-.96-.09-.7-.18-1.41-.19-1.43Z"/>
            <path class="cls-13" d="M50.91,53.02s0,0,0-.03c.02-.14,.07-.49,.45-.67,0,0,.04-.01,.05,0,0,.01,.23,.16,.51,.42,.13,.14,.28,.3,.44,.47,.13,.19,.27,.39,.41,.6,.52,.84,.71,1.81,.71,1.81,0,0,0,.04,0,.11,0,.07,.01,.16,0,.27-.02,.22-.02,.49-.11,.71-.21,.73-.39,.37-.47-.02,.03,.04-.25-.94-.28-.93,0,0-.17-.81-.61-1.52-.12-.17-.23-.34-.34-.5-.13-.14-.25-.27-.35-.38-.23-.2-.4-.31-.4-.32Z"/>
            <path class="cls-13" d="M37.17,52.33s.02-.02,.06-.03c.23-.08,.61-.04,.6,.53,0,.01,0,.05-.01,.07-.3,.32-.54,.68-.72,1.07l-.08,.19c-.11,.21-.16,.46-.23,.69,0,0-.03,.07-.07,.19-.03,.12-.07,.29-.13,.51-.09,.41-.18,.95-.25,1.41-.19,1.55-.38,.93-.47-.04,0,.05-.05-.53-.03-1.14,0-.3,.05-.62,.07-.85,.03-.24,.08-.39,.08-.39,.06-.24,.13-.47,.24-.7l.1-.22c.22-.47,.51-.91,.86-1.28Z"/>
            <path class="cls-13" d="M41.48,53.5s.02-.03,.05-.05c.1-.08,.33-.14,.43-.06,.12,.08,.17,.27,.26,.47,0,0,.01,.04,0,.06-.16,.29-.23,.78-.29,1.22-.02,.16-.04,.32-.04,.49-.02,.26-.03,.51-.03,.77,0,0-.02,.29-.06,.76-.03,.37-.06,.88-.1,1.45-.07,1.56-.31,.96-.48,0,0,.05-.08-.53-.14-1.12-.06-.59-.07-1.21-.07-1.21,0-.23,.01-.46,.03-.7,.01-.17,.03-.35,.05-.52,.07-.5,.11-.98,.39-1.54Z"/>
            <path class="cls-13" d="M59.77,61.58s0-.01,.01-.03c.09-.12,.35-.33,.77-.24,0,0,.04,.01,.04,.02,0,.01,.07,.25,.17,.6,.05,.18,.11,.38,.17,.6,.05,.22,.1,.46,.15,.7,.05,.24,.1,.48,.15,.7,.03,.23,.05,.44,.07,.63,.04,.37,.07,.61,.07,.61,.03,0-.1,.65-.24,1.08-.21,.73-.39,.39-.47-.05-.03,.04-.1-1.04-.15-1.04,0,0-.02-.22-.06-.55-.02-.17-.04-.36-.06-.57-.05-.21-.1-.43-.14-.65-.09-.45-.2-.89-.31-1.23-.1-.34-.16-.57-.17-.58Z"/>
            <path class="cls-4" d="M38.03,34.46c-.79,0-.64,1.22,.15,1.22s.64-1.22-.15-1.22Z"/>
            <path class="cls-4" d="M40.73,31.44c-1.56,0-1.27,2.41,.27,2.41s1.27-2.41-.27-2.41Z"/>
            <path class="cls-4" d="M41.29,34.7c-.92,0-1.08,1.43-.15,1.43s1.08-1.43,.15-1.43Z"/>
            <path class="cls-4" d="M38.93,37.84c-.66,0-.58,1.02,.07,1.02s.58-1.02-.07-1.02Z"/>
            <path class="cls-4" d="M43.84,36.97c-1.57,0-1.27,2.41,.27,2.41s1.27-2.41-.27-2.41Z"/>
            <path class="cls-4" d="M46.31,33.91c-.35,0-.6,.41-.56,.73,.05,.38,.38,.56,.73,.56s.6-.41,.56-.73c-.05-.38-.38-.56-.73-.56Z"/>
            <path class="cls-4" d="M50.26,35.49c.02,.1,.04,.21,.07,.31,.11,.31,.47,.45,.77,.34,0,0,.01,0,.02,0,.2-.08,.32-.26,.35-.46,0,0,0,0,0,0,.02-.06,.03-.12,.04-.18,.17-.93-1.42-.92-1.25,0Z"/>
            <path class="cls-4" d="M49.01,36.92c-1.18,0-1.21,1.83-.03,1.83s1.21-1.83,.03-1.83Z"/>
            <path class="cls-4" d="M34.99,33.62c-.23-.22-.7-.39-1.02-.23-.11,.05-.22,.1-.33,.15-.66,.29-.6,1.38,.01,1.68,.05,.02,.09,.05,.14,.07,.6,.29,1.34,0,1.5-.67,.09-.36-.03-.75-.3-1Z"/>
            <path class="cls-4" d="M34.51,37.87c-.04-.13-.1-.21-.21-.29-.12-.09-.29-.04-.4,.04l-.15,.26c-.17,.62,.94,.63,.76-.01Z"/>
            <path class="cls-4" d="M27.04,36.89c-.55,0-.52,.86,.03,.86s.52-.86-.03-.86Z"/>
            <path class="cls-4" d="M30.28,34.52c-.71,0-.61,1.1,.1,1.1s.61-1.1-.1-1.1Z"/>
            <path class="cls-4" d="M30.41,34.56c-.88,0-1.05,1.37-.16,1.37s1.05-1.37,.16-1.37Z"/>
            <g>
              <path class="cls-4" d="M38.87,40.76s0,.02,0,.03c0,.13-.02,.21,0-.03Z"/>
              <path class="cls-4" d="M38.87,40.49c-.03-.14-.1-.29-.19-.39-.18-.21-.43-.28-.7-.31-.44-.05-.83,.33-.86,.76-.03,.4,.22,.68,.54,.79,.43,.33,1.12-.02,1.19-.55,0-.11,.02-.27,.01-.29Z"/>
            </g>
            <path class="cls-4" d="M47.75,40.21c-.16-.16-.37-.22-.6-.25-.44-.06-.83,.34-.86,.76-.04,.55,.46,.91,.97,.85,.19-.02,.38-.1,.52-.25,.36-.29,.33-.83-.03-1.11Z"/>
            <path class="cls-4" d="M52.05,39.35c-.72,0-.61,1.11,.11,1.11s.61-1.11-.11-1.11Z"/>
            <path class="cls-4" d="M56.06,37.93s0-.02,0-.03c0-.11-.06-.22-.13-.31,0-.01-.02-.03-.03-.04,0,0-.01-.01-.02-.02-.11-.13-.25-.21-.42-.21,0,0,0,0,0,.01-.24-.03-.49,.05-.64,.26-.23,.3-.16,.74,.14,.96,.15,.11,.34,.16,.52,.13,.03,0,.07-.02,.13-.04,.02,0,.04-.02,.07-.03,.12-.05,.25-.12,.25-.2-.01,0-.02,.01-.03,.02,.09-.1,.15-.22,.17-.35,0-.05,0-.1,0-.16Z"/>
            <path class="cls-4" d="M53.82,36.62c-.07-.06-.15-.09-.24-.1-.71-.1-.71,1-.08,.91,.21-.03,.35-.08,.47-.27,.1-.16,.05-.47-.15-.54Z"/>
            <path class="cls-4" d="M54.3,33.32c-.7,0-.6,1.08,.1,1.08s.6-1.08-.1-1.08Z"/>
          </g>
          <path d="M47.51,7.9s.17-.06,.46-.12c.19-.02,.44-.04,.72-.04,.24,.02,.52,.03,.81,.09,.58,.11,1.22,.34,1.87,.63,.32,.16,.65,.3,.97,.49,.32,.18,.64,.38,.95,.59,.31,.21,.6,.45,.87,.68,.27,.26,.53,.49,.76,.76,.24,.25,.44,.52,.63,.77,.2,.24,.33,.52,.47,.75,.14,.23,.22,.48,.32,.67,.09,.2,.15,.38,.19,.53,.09,.3,.13,.47,.13,.47,.02,.06-.02,.13-.08,.14-.05,.01-.1,0-.13-.04h0s-.1-.15-.28-.39c-.09-.12-.19-.27-.33-.41-.14-.15-.27-.33-.47-.49-.19-.16-.37-.35-.6-.51-.22-.17-.45-.35-.71-.5-.24-.17-.53-.31-.8-.45-.29-.13-.57-.27-.86-.39-.29-.12-.59-.23-.88-.31-.29-.1-.59-.16-.87-.23-.57-.11-1.1-.16-1.53-.21-.22-.03-.41-.03-.58-.07-.14,0-.25-.03-.36-.05-.3,0-.48-.04-.48-.04h0c-.66-.13-1.09-.76-.96-1.42,.08-.43,.38-.76,.77-.9Z"/>
        </g>
      </g>
    </g>
  </g>
</svg>