<?xml version="1.0" encoding="UTF-8"?>
<svg xmlns="http://www.w3.org/2000/svg" viewBox="0 0 114.54 92.44">
  <defs>
    <style>
      .cls-1 {
        fill: #fff;
      }

      .cls-2 {
        isolation: isolate;
      }

      .cls-3 {
        fill: #ff5c23;
      }

      .cls-4 {
        fill: #f0d907;
        mix-blend-mode: multiply;
      }

      .cls-5 {
        fill: #6e2810;
      }

      .cls-6 {
        fill: #e8e8e8;
      }

      .cls-7 {
        fill: #f2b93d;
      }

      .cls-8 {
        fill: #f0b65e;
      }

      .cls-9 {
        fill: #361308;
      }
    </style>
  </defs>
  <g class="cls-2">
    <g id="Ebene_2" data-name="Ebene 2">
      <g id="_Ńëîé_1" data-name="Ńëîé 1">
        <g>
          <path class="cls-5" d="M48.19,85.98c.15-2.76-.27-5.89,.76-8.53,.96-2.46,3.97-4,4.87-6.27,2.15-5.41-10.55-6.59-13.46-4.85-5.44,3.25-3.98,15.09-.64,19.39-.96,.68-1.76,.94-1.51,2.27,.43,2.33,13.71,6.54,15.86,1.93,1.18-2.51-3.54-3.99-5.88-3.95Z"/>
          <path class="cls-5" d="M71.94,86.43c-.15-2.76,.28-5.89-.78-8.53-.98-2.46-4.07-4-4.99-6.27-2.2-5.41,10.79-6.59,13.78-4.85,5.56,3.25,4.08,15.09,.66,19.39,.98,.68,1.8,.94,1.55,2.27-.44,2.33-14.03,6.54-16.24,1.93-1.2-2.51,3.62-3.99,6.01-3.95Z"/>
          <path class="cls-3" d="M91.62,56.57c-7.25-19.11-4.33-42.87-31.47-42.57h-1.49c-27.4-.3-24.45,23.46-31.77,42.57-3.68,9.6-2.67,17.55,8.11,21.52,4.96,1.83,16.55,4.75,24.41,4.71,7.78,.04,19.27-2.88,24.18-4.71,10.68-3.97,11.68-11.92,8.04-21.52Z"/>
          <path class="cls-8" d="M69.93,55.52c0-.59-.08-1.43-.24-2.42-4.86-2.35-12.37-2.4-17.29-.36-.14,1.15-.21,2.11-.21,2.78,0,4.51,3.97,5.99,8.87,5.99s8.87-1.49,8.87-5.99Z"/>
          <path class="cls-5" d="M69.93,55.52c0,4.51-3.97,5.99-8.87,5.99s-8.87-1.49-8.87-5.99,3.23-22.43,8.13-22.43,9.6,17.92,9.6,22.43Z"/>
          <path class="cls-7" d="M61.12,58.96c-4.61,0-8.4-1.32-8.82-5.24-.07,.71-.1,1.33-.1,1.79,0,4.51,3.97,5.99,8.87,5.99s8.87-1.49,8.87-5.99c0-.33-.03-.75-.08-1.22-.72,3.47-4.35,4.67-8.73,4.67Z"/>
          <g>
            <path class="cls-5" d="M23.92,49.98c-2.87,2.19-5.74,.47-8.11-2.53-2.37-3-3.35-6.16-.49-8.34,2.87-2.19,15.83-8.89,18.2-5.89,2.37,3-6.74,14.58-9.6,16.76Z"/>
            <path class="cls-9" d="M20.27,50.84c.34-.11,.66-.28,.93-.54,1.66-1.56-1.35-2.76-3.14-4.93-1.39-1.69-1.67-4.31-3.17-4.06-.8,.14-.94,.28-1.31,.93-.06,1.64,.84,3.45,2.24,5.22,1.35,1.71,2.87,3,4.46,3.39Z"/>
          </g>
          <g>
            <path class="cls-5" d="M95.66,50.44c3.1,1.99,5.84,.06,7.95-3.12,2.12-3.18,2.81-6.42-.29-8.4-3.1-1.99-16.83-7.79-18.94-4.6-2.12,3.18,8.18,14.14,11.28,16.13Z"/>
            <path class="cls-9" d="M99.43,51.04c-.35-.08-.69-.24-.99-.48-1.82-1.44,1.1-2.86,2.71-5.17,1.25-1.8,1.28-4.45,2.82-4.31,.82,.08,.98,.21,1.41,.84,.22,1.64-.52,3.53-1.77,5.39-1.21,1.82-2.62,3.22-4.18,3.72Z"/>
          </g>
          <g>
            <path class="cls-4" d="M59.25,28.86c-5.62,0-10.19-4.49-10.19-10.01,0-.49,.05-.99,.16-1.59,.77-4.86,5-8.42,10.03-8.42,5.62,0,10.19,4.49,10.19,10.01s-4.57,10.01-10.19,10.01Z"/>
            <path class="cls-5" d="M59.25,28.86c-5.62,0-10.19-4.49-10.19-10.01,0-.49,.05-.99,.16-1.59,.77-4.86,5-8.42,10.03-8.42,5.62,0,10.19,4.49,10.19,10.01s-4.57,10.01-10.19,10.01Z"/>
            <g>
              <g>
                <path class="cls-1" d="M50.83,18.85c0,4.56,3.77,8.27,8.42,8.27s8.42-3.7,8.42-8.27-3.77-8.27-8.42-8.27-8.42,3.7-8.42,8.27Z"/>
                <path class="cls-6" d="M51.14,16.74c.27,4.33,3.89,7.77,8.37,7.77,3.9,0,7.15-2.62,8.11-6.15,.01,.17,.05,.33,.05,.5,0,4.56-3.77,8.27-8.42,8.27s-8.42-3.7-8.42-8.27c0-.74,.13-1.44,.32-2.12Z"/>
              </g>
              <g>
                <path d="M56.68,24.2c1.74,1.51,4.39,1.36,5.92-.35,1.54-1.7,1.38-4.31-.35-5.82-1.74-1.51-4.39-1.36-5.93,.35-1.54,1.7-1.38,4.31,.36,5.82Z"/>
                <path class="cls-1" d="M58.63,23.16c.69,.6,1.75,.54,2.37-.14,.61-.68,.55-1.72-.14-2.32-.69-.6-1.75-.54-2.37,.14-.62,.68-.55,1.72,.14,2.32Z"/>
              </g>
            </g>
          </g>
          <path class="cls-8" d="M59.18,4.48c-6.83,0-12.37,5.44-12.37,12.15,0,.29,.02,.57,.04,.85,3.63,1.29,7.99,2.05,12.68,2.05,4.39,0,8.49-.66,11.97-1.8,.03-.36,.06-.72,.06-1.09,0-6.71-5.54-12.15-12.38-12.15Z"/>
          <path d="M49.18,33.1s-.2,.28-.5,.71c-.15,.22-.31,.47-.5,.74-.17,.28-.38,.56-.53,.88-.65,1.23-1.2,2.51-1.2,2.51h0s0,0,0,0c0,0,.56-1.27,1.01-2.59,.11-.34,.25-.65,.37-.96,.12-.31,.23-.6,.32-.84,.18-.5,.3-.84,.3-.84,.09-.26,.34-.39,.57-.29,.23,.1,.32,.38,.2,.62-.01,.02-.03,.05-.04,.07Z"/>
          <path d="M45.57,43.96s-.1,.28-.25,.69c-.08,.21-.13,.46-.19,.72-.06,.27-.14,.55-.17,.84-.02,.29-.04,.58-.06,.86-.03,.28,.02,.53,.05,.75,.06,.44,.11,.73,.11,.73h0s0,0,0,0c0,0-.05-.29-.13-.72-.04-.22-.11-.47-.11-.75-.02-.28-.04-.57-.07-.87-.03-.3,0-.59,0-.88,0-.28-.02-.55,0-.77,.01-.45,.02-.76,.02-.76,0-.24,.2-.4,.45-.36,.25,.04,.42,.25,.38,.46,0,.02-.01,.05-.02,.07Z"/>
          <path d="M49.5,39.99s-.04,.04-.08,.12c-.04,.09-.11,.21-.18,.36-.13,.32-.26,.77-.31,1.25-.06,.47-.07,.95-.08,1.31,0,.36,0,.6,0,.6h0s0-.24-.02-.6c-.02-.36-.07-.83-.11-1.32-.05-.48-.07-.98-.06-1.37,.01-.2,.03-.36,.04-.47,.01-.12,.03-.18,.03-.18,.04-.21,.26-.31,.49-.21,.23,.1,.37,.31,.31,.45,0,.01-.02,.03-.03,.04Z"/>
          <path d="M52.66,38.18s-.06,.29-.15,.71c-.09,.42-.22,.97-.3,1.53-.04,.28-.07,.56-.08,.82-.02,.26,0,.51,.02,.72,.01,.21,.06,.38,.08,.5,.02,.12,.04,.19,.04,.19h0s-.01-.07-.04-.19c-.02-.12-.07-.29-.1-.5-.02-.21-.07-.46-.08-.72-.02-.27-.04-.55-.05-.83-.02-.57-.04-1.14-.08-1.56-.04-.42-.08-.7-.08-.7-.04-.21,.13-.39,.38-.41,.25-.02,.46,.15,.45,.37,0,.02,0,.05,0,.07Z"/>
          <path d="M41.65,34.62s-.06,.04-.16,.12c-.09,.09-.22,.22-.38,.38-.3,.33-.67,.81-.96,1.34-.62,1.06-.9,2.26-.91,2.26h0s0,0,0,0c0,0,.29-1.18,.72-2.34,.2-.58,.45-1.16,.67-1.59,.11-.21,.21-.39,.28-.52,.07-.12,.12-.19,.12-.19,.14-.22,.41-.27,.6-.1,.19,.17,.23,.44,.08,.59-.01,.02-.03,.03-.05,.05Z"/>
          <path d="M39.55,30.83s-.06,.02-.16,.07c-.09,.06-.23,.14-.39,.24-.09,.05-.16,.12-.24,.19-.08,.07-.17,.15-.26,.24-.16,.18-.35,.38-.51,.6-.33,.43-.6,.9-.81,1.25-.2,.35-.34,.59-.34,.59h0s.13-.24,.32-.6c.18-.37,.41-.86,.65-1.34,.11-.25,.26-.49,.37-.72,.07-.11,.14-.22,.2-.32,.07-.1,.12-.21,.19-.29,.14-.17,.25-.32,.33-.42,.09-.09,.15-.14,.15-.14,.17-.17,.43-.14,.56,.07,.14,.21,.12,.47-.03,.57-.02,.01-.04,.02-.05,.03Z"/>
          <path d="M37.93,44.09s-.05,.06-.15,.17c-.09,.12-.2,.29-.34,.49-.15,.2-.26,.47-.42,.75-.07,.14-.12,.29-.18,.45-.06,.15-.12,.31-.16,.48-.1,.33-.17,.66-.21,.98-.06,.31-.05,.61-.07,.87,0,.26,.02,.47,.02,.62,0,.15,.01,.24,.01,.24h0s0-.09-.01-.24c0-.15-.04-.36-.04-.62,0-.26-.02-.56,0-.88,0-.32,.04-.67,.09-1.01,.01-.17,.05-.34,.08-.51,.03-.17,.06-.34,.1-.5,.09-.31,.15-.62,.25-.87,.09-.25,.16-.47,.21-.62,.06-.14,.1-.23,.1-.23,.11-.26,.37-.38,.59-.25,.22,.12,.3,.4,.16,.61-.01,.02-.03,.04-.05,.06Z"/>
          <path d="M40.88,43.97s-.14,.21-.33,.54c-.07,.18-.15,.39-.24,.62-.04,.12-.08,.24-.13,.36-.05,.12-.06,.25-.09,.38-.05,.26-.1,.52-.15,.76-.04,.24-.05,.48-.07,.67-.02,.39-.03,.66-.03,.66h0s0-.26,.01-.66c0-.2-.01-.43,0-.68,0-.25,.02-.52,.02-.78,0-.13,0-.27,.01-.4,.01-.13,.02-.26,.04-.39,.02-.26,.04-.5,.05-.7,.08-.42,.14-.7,.14-.7,.04-.22,.26-.33,.49-.23,.23,.1,.37,.33,.3,.5,0,.02-.02,.04-.03,.05Z"/>
          <path d="M40.92,52.93s-.03,.09-.09,.24c-.05,.15-.11,.38-.19,.64-.08,.27-.13,.59-.2,.93-.04,.34-.1,.72-.09,1.09-.01,.37,0,.75,.05,1.1,.02,.35,.12,.67,.17,.95,.06,.28,.15,.49,.2,.65,.05,.16,.08,.25,.08,.25h0s-.03-.09-.09-.25c-.05-.16-.15-.37-.22-.65-.07-.27-.18-.59-.23-.94-.08-.35-.13-.72-.18-1.1-.05-.38-.06-.76-.09-1.12,0-.36-.02-.7,0-.99,.01-.29,.02-.54,.03-.71,.02-.17,.03-.27,.03-.27,.03-.3,.25-.52,.5-.47,.25,.05,.4,.3,.33,.57,0,.03-.02,.06-.03,.08Z"/>
          <path d="M44.85,53.09s-.26,1.09-.4,2.16c-.15,1.07-.19,2.15-.19,2.15h0s.05-1.08-.01-2.16c-.05-1.09-.22-2.15-.22-2.15-.04-.21,.14-.38,.39-.4,.25-.02,.46,.14,.45,.35,0,.02,0,.05,0,.07Z"/>
          <path d="M48.29,52.04s-.03,.23-.08,.58c-.02,.18-.04,.38-.07,.6-.01,.22-.05,.46-.03,.7,.02,.95,.15,1.89,.15,1.89h0s-.12-.94-.35-1.87c-.07-.23-.09-.47-.15-.69-.05-.22-.1-.43-.14-.61-.09-.36-.16-.6-.16-.6-.05-.19,.1-.35,.35-.37,.25-.01,.47,.12,.48,.29,0,.02,0,.04,0,.06Z"/>
          <path d="M51.6,49.82s-.03,.1-.06,.28c-.02,.18-.05,.44-.08,.75-.04,.63-.03,1.49-.03,2.35,.01,.43,0,.86-.03,1.27,0,.4-.09,.78-.11,1.09-.02,.16-.07,.3-.09,.43-.03,.13-.06,.24-.08,.33-.04,.18-.07,.29-.07,.29h0s.02-.1,.07-.29c.02-.09,.05-.2,.07-.33,.02-.13,.07-.27,.08-.43,.01-.32,.07-.69,.05-1.09-.01-.4-.04-.83-.1-1.25-.11-.85-.27-1.7-.36-2.35-.04-.33-.07-.61-.09-.8-.01-.2,0-.31,0-.31,0-.35,.19-.64,.44-.62,.25,.02,.44,.28,.4,.59,0,.03,0,.07-.02,.1Z"/>
          <path d="M36.25,56.88s-.02,.02-.06,.06c-.04,.04-.11,.09-.17,.19-.13,.18-.32,.44-.54,.74-.11,.16-.2,.35-.31,.54-.1,.2-.22,.4-.32,.62-.09,.23-.18,.46-.28,.7-.1,.24-.18,.49-.24,.74-.07,.25-.14,.51-.21,.76-.04,.26-.09,.51-.13,.75-.1,.49-.11,.95-.15,1.34-.04,.4,0,.73,0,.96,0,.23,0,.36,0,.36h0s0,0,0,0c0,0,0-.13,0-.36,0-.23-.04-.56-.01-.96,.03-.4,.01-.86,.08-1.35,.03-.25,.05-.5,.08-.76,.05-.26,.09-.52,.14-.78,.04-.26,.09-.53,.17-.78,.06-.26,.13-.51,.19-.75,.07-.24,.16-.47,.24-.69,.08-.22,.14-.43,.23-.62,.18-.37,.34-.68,.44-.9,.05-.11,.12-.18,.15-.24,.04-.05,.06-.08,.06-.08,.25-.36,.62-.54,.82-.39,.2,.16,.16,.52-.08,.81-.03,.03-.06,.06-.08,.09Z"/>
          <path d="M33.23,52.97s-.27,.25-.64,.63c-.38,.38-.86,.91-1.23,1.51-.2,.3-.35,.62-.49,.92-.14,.3-.2,.61-.29,.87-.1,.53-.14,.88-.14,.88h0s0,0,0,0c0,0,.05-.36,.12-.89,.07-.26,.12-.57,.23-.89,.1-.32,.22-.67,.38-.99,.29-.67,.67-1.3,.95-1.77,.28-.47,.46-.78,.46-.78,.14-.24,.42-.33,.63-.19,.21,.14,.25,.43,.08,.64-.02,.02-.04,.04-.06,.06Z"/>
          <path d="M38.3,60.75s-.14,.3-.35,.75c-.1,.23-.18,.5-.28,.79-.09,.29-.21,.61-.25,.93-.05,.33-.11,.65-.16,.96-.06,.31-.02,.6-.03,.84,0,.5,.01,.83,.01,.83h0s0,0,0,0c0,0-.01-.33-.04-.83,0-.25-.06-.54-.03-.85,.01-.31,.02-.65,.04-.98,0-.34,.06-.66,.08-.98,.03-.31,.05-.61,.08-.86,.08-.5,.13-.84,.13-.84,.03-.26,.25-.43,.5-.37,.25,.06,.39,.31,.32,.54,0,.03-.02,.05-.03,.07Z"/>
          <path d="M41.17,62.77s-.1,.22-.25,.56c-.06,.17-.12,.38-.18,.6-.06,.22-.12,.46-.15,.71-.07,.49-.12,.99-.13,1.36,0,.37-.01,.62-.01,.62h0s0,0,0,0c0,0,0-.25,0-.62-.02-.37-.03-.87-.06-1.37-.02-.25-.02-.5-.02-.74,0-.24-.02-.46-.02-.66,.01-.39,.02-.66,.02-.66,0-.21,.2-.34,.45-.28,.25,.06,.42,.25,.38,.42,0,.02-.01,.04-.02,.06Z"/>
          <path d="M44.47,63.26s-.04,.5-.11,1.25c-.03,.37-.03,.81-.04,1.27,0,.47-.04,.97,.02,1.46,.05,.5,.09,.99,.14,1.46,.04,.47,.19,.88,.26,1.25,.19,.72,.31,1.21,.31,1.21h0s0,0,0,0c0,0-.13-.48-.33-1.2-.09-.36-.26-.77-.33-1.24-.08-.46-.17-.96-.26-1.45-.12-.49-.13-.99-.2-1.46-.05-.47-.12-.91-.16-1.28-.08-.75-.13-1.25-.13-1.25-.05-.39,.12-.73,.37-.76,.25-.03,.47,.25,.46,.63,0,.04,0,.08,0,.12Z"/>
          <path d="M50.18,62.33s-.1,.34-.25,.86c-.04,.13-.05,.27-.08,.42-.02,.15-.05,.31-.07,.48-.04,.33-.12,.69-.11,1.05,0,.36,0,.72-.01,1.06-.01,.34,.05,.65,.08,.92,.07,.54,.12,.89,.12,.89h0s0,0,0,0c0,0-.06-.36-.14-.89-.04-.27-.12-.58-.14-.92-.04-.34-.07-.7-.11-1.06-.06-.36-.04-.73-.07-1.07,0-.17-.02-.34-.03-.5,0-.16-.03-.31-.02-.45,0-.56,.02-.93,.02-.93,0-.29,.2-.51,.45-.48,.25,.03,.43,.27,.39,.53,0,.03-.01,.06-.02,.08Z"/>
          <path d="M54.24,64.36s-.07,.28-.17,.71c-.04,.21-.09,.47-.15,.73-.05,.27-.11,.56-.14,.85-.12,1.16-.13,2.33-.13,2.33h0s0,0,0,0c0,0,.02-1.17-.08-2.34-.02-.29-.02-.59-.04-.86-.02-.28-.04-.54-.05-.76-.04-.45-.07-.75-.07-.75-.03-.23,.15-.42,.4-.41,.25,0,.45,.2,.43,.42,0,.02,0,.05-.01,.07Z"/>
          <path d="M59.6,66.35s.01,.13,.02,.36c0,.23,0,.56,0,.95,0,.19-.02,.41-.03,.63-.01,.22-.03,.46-.04,.7-.06,.48-.09,.99-.17,1.5-.12,1.02-.32,2.02-.46,2.77-.15,.75-.26,1.25-.26,1.25h0s0,0,0,0c0,0,.11-.5,.24-1.25,.05-.38,.13-.82,.17-1.29,.05-.47,.09-.98,.1-1.49,.03-.51,0-1.01-.01-1.49-.02-.24-.04-.46-.06-.68-.03-.21-.03-.42-.07-.6-.07-.37-.12-.67-.16-.89-.05-.21-.09-.33-.09-.33-.11-.36,0-.72,.24-.81,.24-.09,.5,.16,.56,.56,0,.04,.01,.09,.01,.13Z"/>
          <path d="M36.96,71.7s-.03,.07-.07,.2c-.04,.13-.09,.32-.15,.55-.11,.46-.22,1.09-.22,1.72,0,.32,.01,.64,.06,.93,.03,.3,.12,.57,.17,.8,.06,.23,.16,.41,.2,.54,.05,.13,.09,.2,.09,.2h0s0,0,0,0c0,0-.03-.07-.09-.2-.05-.13-.15-.31-.22-.54-.07-.23-.18-.49-.24-.79-.08-.29-.14-.61-.19-.93-.11-.64-.15-1.3-.16-1.8,0-.25,0-.46,0-.61,0-.15,0-.23,0-.23,0-.26,.21-.45,.46-.41,.25,.04,.42,.26,.37,.49,0,.02-.01,.05-.02,.07Z"/>
          <path d="M29.93,69.51s-.07,.06-.2,.16c-.11,.13-.26,.3-.44,.52-.1,.1-.17,.25-.25,.39-.08,.15-.17,.3-.26,.46-.06,.17-.13,.35-.19,.53-.08,.18-.12,.37-.15,.57-.04,.2-.07,.39-.11,.58,0,.2-.01,.39-.02,.57-.01,.19,0,.37,.02,.54,.02,.17,.04,.33,.06,.48,0,.15,.06,.28,.09,.4,.03,.12,.06,.22,.08,.3,.05,.17,.08,.27,.08,.27h0s0,0,0,0c0,0-.03-.1-.08-.26-.03-.08-.06-.19-.09-.3-.03-.12-.09-.25-.1-.4-.03-.15-.05-.31-.08-.48-.04-.17-.06-.35-.06-.54-.01-.19-.02-.39-.03-.58,.01-.2,.02-.4,.04-.61,0-.21,.03-.41,.08-.61,.04-.2,.08-.4,.11-.59,.06-.19,.12-.37,.18-.54,.06-.17,.1-.34,.18-.48,.15-.29,.27-.53,.36-.69,.11-.15,.18-.24,.18-.24,.2-.28,.52-.37,.7-.2,.18,.17,.17,.49-.02,.68-.02,.02-.04,.04-.07,.06Z"/>
          <path d="M26.52,69.05s-.05,.06-.15,.17c-.09,.12-.2,.29-.34,.5-.15,.2-.27,.47-.42,.75-.12,.29-.27,.6-.36,.93-.11,.32-.19,.66-.25,.97-.07,.31-.09,.61-.12,.87-.03,.26-.02,.47-.03,.62,0,.15,0,.24,0,.24h0s0-.09,0-.24c0-.15,0-.36,.01-.62,.02-.26,.02-.56,.06-.88,.02-.32,.07-.67,.13-1.01,.05-.34,.13-.68,.2-1.01,.1-.31,.16-.62,.25-.87,.09-.25,.16-.47,.22-.62,.06-.14,.1-.23,.1-.23,.11-.26,.37-.38,.6-.25,.22,.12,.29,.4,.16,.61-.01,.02-.03,.04-.05,.06Z"/>
          <path d="M30.75,73.58s-.11,.38-.27,.95c-.07,.29-.12,.62-.19,.99-.06,.36-.15,.75-.16,1.14-.02,.39-.04,.79-.06,1.16-.02,.37,.04,.71,.06,1.01,.06,.59,.1,.98,.1,.98h0s0,0,0,0c0,0-.05-.39-.12-.98-.03-.29-.11-.64-.12-1.01-.02-.37-.04-.77-.07-1.16-.04-.4-.02-.8-.02-1.17,0-.37-.01-.73,0-1.03,.02-.6,.04-1,.04-1,0-.31,.21-.55,.46-.53,.25,.02,.42,.28,.38,.57,0,.03-.01,.06-.02,.09Z"/>
          <path d="M32.97,75.03s-.1,.29-.25,.71c-.07,.21-.12,.48-.18,.75-.05,.28-.13,.58-.16,.88-.16,1.21-.15,2.43-.15,2.43h0s0,0,0,0c0,0,0-.3,0-.76-.02-.46-.02-1.07-.05-1.68-.02-.31,0-.61-.02-.9,0-.29-.03-.56-.02-.8,0-.47,.02-.79,.02-.79,0-.25,.2-.42,.45-.39,.25,.04,.43,.25,.38,.47,0,.02-.01,.05-.02,.07Z"/>
          <path d="M41.72,76.49s-.04,.08-.09,.22c-.04,.15-.11,.36-.18,.61-.13,.51-.25,1.22-.28,1.94-.04,.72-.01,1.44,.02,1.99,.04,.54,.07,.9,.07,.9h0s0,0,0,0c0,0-.04-.36-.09-.9-.05-.54-.15-1.26-.21-1.98-.07-.72-.1-1.46-.09-2.02,0-.28,.02-.52,.02-.68,.01-.17,.03-.26,.03-.26,.03-.3,.25-.5,.5-.45,.25,.05,.4,.3,.33,.56,0,.03-.02,.05-.03,.08Z"/>
          <path d="M44.08,78.42s-.04,.26-.1,.64c-.03,.19-.03,.42-.05,.66,0,.24-.02,.51,0,.77,.02,.26,.04,.52,.06,.76,.02,.25,.08,.47,.11,.66,.09,.38,.15,.64,.15,.64h0s-.07-.25-.17-.63c-.05-.19-.13-.41-.17-.65-.06-.24-.12-.49-.19-.75-.07-.25-.11-.51-.17-.76-.05-.24-.12-.47-.16-.67-.08-.4-.14-.66-.14-.66-.05-.21,.11-.39,.36-.4,.25-.02,.47,.13,.47,.32,0,.02,0,.04,0,.06Z"/>
          <path d="M46.89,79.07s-.03,.3-.08,.75c-.02,.23-.01,.49-.02,.78,0,.29,0,.59,.02,.9,.08,1.22,.24,2.43,.24,2.43h0s0,0,0,0c0,0-.15-1.21-.44-2.4-.07-.3-.14-.6-.2-.88-.06-.28-.14-.54-.19-.77-.09-.46-.16-.77-.16-.77-.05-.24,.1-.46,.35-.48,.25-.02,.47,.15,.48,.38,0,.02,0,.05,0,.07Z"/>
          <path d="M49.94,78.84s0,.34,0,.85c0,.25-.04,.54-.06,.85-.02,.31-.03,.64-.07,.97-.13,1.31-.15,2.61-.15,2.61h0s0,0,0,0c0,0,.03-1.31-.06-2.61-.01-.33-.07-.65-.11-.95-.05-.3-.08-.58-.14-.82-.14-.46-.23-.76-.23-.76-.08-.23,.05-.47,.3-.55,.24-.08,.48,.07,.51,.33,0,.03,0,.06,0,.08Z"/>
          <path d="M52.67,79.22s-.21,1.08-.31,2.15c-.11,1.08-.1,2.15-.1,2.15h0s0,0,0,0c0,0,0-1.08-.1-2.15-.1-1.08-.31-2.15-.31-2.15-.04-.21,.12-.39,.37-.41,.25-.02,.46,.14,.46,.34,0,.02,0,.04,0,.07Z"/>
          <path d="M54.94,80s0,.23,.02,.58c0,.17-.02,.37-.03,.58-.02,.21,0,.43-.04,.65-.03,.22-.05,.43-.07,.64,0,.2-.06,.39-.08,.55-.04,.32-.07,.53-.07,.53h0s0,0,0,0c0,0,.02-.21,.05-.54,0-.16,.04-.35,.02-.55-.01-.2-.03-.41-.05-.63-.01-.21-.09-.42-.13-.61-.06-.19-.1-.37-.16-.51-.14-.28-.24-.46-.24-.46-.08-.14,.05-.32,.28-.42,.24-.1,.47-.04,.51,.14,0,.02,0,.04,0,.06Z"/>
          <path d="M57.1,80.12s-.03,.26-.07,.64c-.04,.38-.06,.88-.09,1.38-.1,.99-.08,1.98-.08,1.98h0s0,0,0,0c0,0,0-.99-.13-1.97-.07-.49-.2-.97-.29-1.33-.1-.35-.17-.59-.17-.59-.06-.18,.09-.37,.34-.42,.25-.05,.47,.06,.48,.25,0,.02,0,.04,0,.06Z"/>
          <path d="M67.17,74.09s.01,.43,.03,1.09c0,.33-.01,.71,0,1.11-.01,.41,.02,.84-.02,1.27-.02,.43-.04,.86-.07,1.26,0,.4-.08,.77-.11,1.09-.07,.64-.12,1.06-.12,1.06h0s0,0,0,0c0,0,.04-.43,.1-1.07,.02-.32,.08-.69,.05-1.09-.02-.4-.04-.83-.06-1.25,0-.43-.11-.85-.16-1.24-.07-.4-.12-.76-.19-1.07-.16-.62-.26-1.03-.26-1.03-.09-.31,.03-.62,.28-.7,.25-.07,.49,.14,.53,.47,0,.03,0,.07,0,.11Z"/>
          <path d="M69.81,68.42s.07,.28,.17,.71c.07,.2,.06,.47,.1,.73,.02,.27,.09,.54,.08,.83,0,.28,0,.56,0,.82,.02,.26-.03,.5-.04,.71-.03,.41-.05,.69-.05,.69h0s0,0,0,0c0,0,.01-.28,.03-.69,0-.21,.03-.45-.02-.71-.04-.25-.08-.53-.13-.8-.04-.27-.17-.52-.25-.76-.1-.24-.16-.46-.28-.63-.22-.34-.37-.57-.37-.57-.12-.17-.04-.4,.18-.54,.22-.13,.47-.08,.55,.13,0,.02,.02,.05,.02,.07Z"/>
          <path d="M72.47,67.81s.09,.38,.2,.95c.11,.57,.25,1.33,.33,2.1,.05,.38,.08,.76,.09,1.12,.04,.36,.01,.69,.02,.97,0,.29-.03,.52-.03,.69,0,.17-.01,.26-.01,.26h0s0,0,0,0c0,0,0-.09,.01-.26,0-.17,.03-.4,.01-.69-.02-.28-.02-.62-.09-.97-.05-.35-.12-.72-.21-1.09-.18-.73-.46-1.44-.69-1.95-.24-.51-.42-.84-.42-.84-.14-.25-.08-.55,.14-.67,.23-.12,.5,0,.6,.29,.01,.03,.02,.06,.03,.09Z"/>
          <path d="M75.24,60.57s.01,.09,.04,.25c.04,.16,.09,.39,.15,.66,.13,.55,.35,1.28,.58,2,.11,.36,.22,.73,.31,1.07,.1,.34,.15,.67,.22,.95,.06,.28,.08,.51,.1,.68,.02,.16,.04,.26,.04,.26h0s-.01-.09-.04-.26c-.03-.16-.05-.4-.12-.67-.08-.27-.15-.6-.28-.92-.12-.33-.26-.68-.42-1.02-.31-.69-.67-1.36-.93-1.87-.13-.26-.24-.47-.32-.62-.07-.16-.11-.24-.11-.24-.13-.27-.05-.57,.19-.66,.24-.09,.5,.05,.58,.32,0,.03,.02,.06,.02,.09Z"/>
          <path d="M78.19,57.97s.02,.32,.08,.79c.06,.48,.18,1.12,.28,1.76,.05,.32,.09,.64,.12,.94,.04,.3,.02,.58,.04,.82,0,.12-.01,.23-.01,.33,0,.1-.01,.18-.01,.25,0,.14,0,.22,0,.22h0s0,0,0,0c0,0,0-.08,0-.22,0-.07,0-.16,0-.25,0-.1,.01-.21,0-.33-.03-.24-.03-.52-.11-.81-.06-.29-.14-.6-.24-.91-.2-.61-.46-1.2-.65-1.65-.19-.45-.32-.76-.32-.76-.1-.24,.01-.49,.25-.56,.24-.07,.49,.06,.54,.29,0,.02,0,.05,.01,.08Z"/>
          <path d="M79.46,55.79s.08,.36,.2,.89c.07,.26,.11,.59,.17,.92,.05,.34,.15,.69,.19,1.05,.05,.36,.09,.72,.14,1.05,.06,.33,.05,.65,.07,.92,.03,.54,.05,.9,.05,.9h0s-.03-.36-.07-.89c-.03-.27-.04-.58-.13-.91-.08-.33-.17-.67-.26-1.02-.09-.34-.24-.67-.36-.99-.13-.31-.23-.6-.36-.84-.25-.47-.42-.79-.42-.79-.13-.24-.06-.52,.16-.64,.23-.12,.49,0,.59,.26,0,.03,.02,.06,.02,.09Z"/>
          <path d="M79.6,50.75s.05,.11,.13,.31c.08,.2,.2,.48,.33,.82,.27,.68,.61,1.59,.87,2.52,.07,.23,.13,.46,.2,.69,.05,.23,.11,.46,.16,.68,.12,.44,.16,.86,.23,1.21,.06,.36,.08,.66,.1,.86,.02,.21,.04,.33,.04,.33h0s0,0,0,0c0,0-.01-.12-.04-.33-.03-.21-.05-.51-.12-.86-.08-.35-.15-.77-.29-1.19-.07-.21-.14-.43-.21-.66-.09-.22-.18-.44-.26-.66-.36-.89-.83-1.72-1.21-2.33-.19-.3-.36-.55-.47-.72-.12-.17-.19-.27-.19-.27-.22-.3-.24-.66-.03-.81,.2-.16,.52-.02,.7,.3,.02,.03,.04,.07,.05,.11Z"/>
          <path d="M80.92,46.91s.02,.02,.07,.06c.04,.05,.12,.09,.18,.19,.13,.18,.31,.43,.54,.74,.11,.15,.19,.34,.29,.52,.09,.19,.21,.38,.3,.59,.08,.21,.17,.43,.26,.65,.1,.22,.16,.45,.23,.68,.07,.23,.14,.46,.2,.68,.05,.23,.1,.45,.15,.67,.12,.43,.15,.85,.22,1.19,.06,.35,.07,.65,.1,.85,.02,.21,.04,.32,.04,.32h0s-.01-.12-.04-.32c-.03-.21-.05-.5-.12-.85-.08-.35-.13-.76-.28-1.18-.07-.21-.13-.43-.2-.65-.08-.22-.18-.43-.27-.65-.09-.22-.18-.43-.3-.63-.11-.2-.22-.39-.33-.58-.11-.19-.25-.34-.37-.5-.12-.15-.22-.31-.35-.43-.25-.23-.45-.42-.6-.55-.07-.07-.14-.09-.18-.13-.04-.03-.07-.04-.07-.04-.29-.17-.42-.48-.32-.72,.1-.24,.45-.24,.76,.01,.03,.03,.07,.05,.09,.08Z"/>
          <path d="M85.44,56.91s.06,.32,.15,.79c.04,.24,.09,.52,.14,.81,.03,.3,.09,.61,.1,.93,0,.16,.02,.32,.03,.47,0,.16-.01,.31-.02,.46,0,.3-.08,.57-.11,.8-.04,.23-.14,.41-.18,.54-.05,.13-.08,.2-.08,.2h0s0,0,0,0c0,0,.03-.07,.07-.2,.04-.13,.14-.31,.16-.54,.02-.23,.08-.5,.05-.79-.01-.15-.02-.3-.04-.45-.03-.15-.06-.3-.1-.45-.06-.3-.18-.59-.27-.87-.12-.27-.22-.52-.33-.73-.21-.42-.37-.69-.37-.69-.12-.21-.05-.46,.18-.57,.23-.11,.49-.02,.57,.21,0,.02,.02,.05,.02,.07Z"/>
          <path d="M87.22,57.27s.05,.3,.13,.74c.02,.22,.03,.48,.05,.76,.01,.14,.02,.28,.04,.42,.02,.14,0,.29,.01,.43,0,.29,.02,.58,.03,.84,.01,.27,0,.52,0,.73,0,.43,.01,.71,.01,.71h0s0,0,0,0c0,0-.01-.29-.03-.71-.02-.21-.02-.46-.06-.73-.05-.26-.1-.54-.15-.83-.03-.14-.05-.28-.1-.41-.04-.13-.09-.26-.13-.39-.08-.25-.17-.48-.24-.68-.2-.37-.34-.61-.34-.61-.11-.18-.02-.42,.21-.54,.23-.12,.47-.05,.55,.18,0,.02,.01,.05,.02,.07Z"/>
          <path d="M89.1,57.32s.11,.36,.26,.89c.15,.54,.32,1.26,.43,1.98,.06,.36,.1,.72,.12,1.06,.04,.34,.01,.66,.03,.93,0,.27-.03,.5-.03,.66,0,.16-.01,.25-.01,.25h0s0,0,0,0c0,0,0-.09,.01-.25,0-.16,.02-.38,.01-.66-.03-.27-.02-.59-.09-.92-.05-.33-.13-.69-.23-1.03-.2-.69-.51-1.34-.77-1.81-.26-.47-.47-.76-.47-.76-.16-.23-.11-.51,.1-.65,.21-.14,.49-.04,.61,.21,.01,.03,.02,.06,.03,.08Z"/>
          <path d="M80.16,69.55s0,.31,0,.77c0,.23-.04,.49-.06,.77-.02,.28-.03,.58-.07,.87-.13,1.17-.15,2.34-.15,2.34h0s0,0,0,0c0,0,.03-1.17-.06-2.34-.01-.29-.07-.58-.11-.85-.05-.27-.08-.52-.14-.73-.14-.4-.23-.67-.23-.67-.08-.2,.05-.42,.3-.51s.47,.04,.51,.27c0,.02,0,.05,0,.08Z"/>
          <path d="M83.6,69.65s.03,.29,.09,.71c.04,.21,.01,.46,.03,.72,0,.26,.03,.54,.02,.82-.01,.55-.02,1.1-.03,1.51,0,.41,0,.68,0,.68h0s0-.27-.01-.68c0-.41-.07-.95-.15-1.49-.03-.27-.13-.53-.19-.77-.08-.24-.12-.47-.22-.65-.18-.36-.3-.59-.3-.59-.1-.18,0-.4,.24-.51,.23-.11,.47-.03,.53,.19,0,.02,.01,.05,.01,.07Z"/>
          <path d="M86.77,69.93s.01,.21,.03,.51c.02,.3,.02,.71,.05,1.1,0,.4,.04,.79,.03,1.08,0,.29,.01,.49,.01,.49h0s0,0,0,0c0,0-.01-.19-.03-.49-.01-.29-.11-.67-.21-1.04-.13-.37-.27-.73-.41-.98-.15-.25-.25-.42-.25-.42-.08-.12,.04-.3,.27-.39,.24-.09,.47-.05,.51,.1,0,.02,0,.03,0,.05Z"/>
          <path d="M89.53,70.04s-.03,.22-.06,.56c-.01,.16-.03,.36-.05,.56-.01,.2-.02,.42-.05,.63-.1,.86-.08,1.71-.08,1.71h0s0,0,0,0c0,0,0-.86-.13-1.7-.02-.21-.08-.42-.13-.62-.06-.19-.11-.37-.15-.53-.1-.3-.17-.5-.17-.5-.06-.15,.09-.32,.34-.38,.25-.06,.47,.03,.48,.2,0,.02,0,.04,0,.05Z"/>
          <path d="M91.77,65.79s.04,.12,.1,.34c.05,.22,.13,.52,.22,.89,.09,.37,.16,.81,.25,1.27,.04,.47,.15,.96,.16,1.46,.02,.25,.03,.5,.05,.74,0,.24,0,.49,0,.72,.02,.47-.06,.9-.07,1.27-.03,.37-.11,.67-.14,.89-.04,.21-.06,.34-.06,.34h0s0,0,0,0c0,0,.02-.12,.05-.34,.03-.21,.1-.52,.12-.89,0-.37,.06-.8,.01-1.27-.02-.23-.03-.47-.05-.71-.04-.24-.08-.48-.12-.73-.06-.49-.23-.96-.33-1.4-.16-.43-.29-.84-.44-1.18-.15-.33-.28-.61-.37-.8-.1-.19-.16-.29-.16-.29-.18-.32-.16-.69,.05-.83,.22-.14,.52,.04,.67,.4,.02,.04,.03,.08,.04,.12Z"/>
          <path d="M84.06,64.16s.03,.07,.09,.18c.04,.12,.1,.29,.18,.49,.13,.41,.25,.94,.32,1.47,.08,.53,.12,1.05,.17,1.45,.05,.39,.08,.65,.08,.65h0s0,0,0,0c0,0-.04-.26-.1-.65-.07-.39-.17-.91-.35-1.4-.16-.5-.42-.95-.64-1.25-.12-.14-.22-.26-.29-.35-.08-.07-.13-.11-.13-.11-.14-.12-.11-.35,.07-.53,.18-.18,.44-.19,.57,0,.01,.02,.03,.04,.04,.06Z"/>
          <path d="M88.62,65.09s.02,.06,.06,.15c.03,.1,.08,.24,.13,.41,.09,.34,.18,.79,.19,1.23,.02,.22,0,.44,0,.64,0,.2-.03,.39-.04,.55-.04,.32-.07,.53-.07,.53h0s.03-.21,.05-.53c0-.16,0-.35-.02-.54-.03-.2-.05-.41-.12-.61-.11-.41-.33-.77-.51-1-.1-.11-.18-.2-.24-.27-.07-.06-.11-.09-.11-.09-.12-.09-.06-.3,.12-.47,.19-.17,.43-.2,.53-.05,.01,.01,.02,.03,.03,.05Z"/>
          <path d="M73.48,45.71s.08,.43,.25,1.08c.16,.65,.4,1.51,.62,2.37,.11,.43,.21,.87,.28,1.28,.1,.41,.12,.8,.17,1.13,.04,.33,.03,.61,.05,.8,0,.19,.02,.3,.02,.3h0s0,0,0,0c0,0,0-.11-.02-.3-.02-.19-.01-.47-.07-.8-.07-.33-.11-.71-.23-1.11-.1-.4-.24-.82-.4-1.23-.31-.83-.69-1.63-.98-2.23-.29-.61-.48-1.01-.48-1.01-.15-.32-.09-.66,.14-.76,.23-.1,.51,.07,.61,.39,.01,.03,.02,.07,.03,.1Z"/>
          <path d="M75.7,37.98s.12,.32,.33,.8c.2,.48,.5,1.11,.73,1.77,.13,.32,.22,.66,.3,.97,.09,.31,.11,.62,.17,.87,.02,.13,.02,.25,.03,.35,0,.1,.01,.2,.02,.27,0,.15,.02,.23,.02,.23h0s0,0,0,0c0,0,0-.09-.02-.23,0-.08-.01-.17-.02-.27-.01-.1,0-.22-.04-.35-.07-.25-.1-.55-.23-.84-.11-.3-.24-.62-.41-.91-.32-.6-.73-1.15-1.04-1.56-.32-.41-.54-.68-.54-.68-.17-.21-.15-.49,.06-.64,.21-.14,.49-.08,.62,.15,.01,.02,.03,.05,.04,.07Z"/>
          <path d="M82.47,36.86s.09,.34,.22,.84c.13,.5,.29,1.18,.37,1.86,.02,.17,.04,.34,.06,.51,0,.17,0,.33,0,.49,.02,.32-.05,.61-.06,.87,0,.13-.05,.24-.07,.34-.02,.1-.04,.19-.06,.26-.03,.14-.05,.23-.05,.23h0s0,0,0,0c0,0,.02-.08,.05-.23,.02-.07,.03-.16,.05-.26,.01-.1,.06-.21,.05-.34,0-.25,.05-.55,0-.86-.02-.16-.04-.32-.06-.48-.04-.16-.08-.32-.12-.48-.17-.65-.47-1.25-.71-1.69-.25-.44-.43-.72-.43-.72-.14-.22-.09-.49,.14-.62,.22-.12,.49-.03,.59,.21,.01,.02,.02,.05,.03,.08Z"/>
          <path d="M86.03,46.06s.06,.29,.15,.73c.04,.22,.09,.48,.15,.75,.03,.28,.1,.57,.11,.87,.01,.15,.02,.3,.03,.44,0,.15-.01,.29-.02,.43,.01,.28-.09,.53-.11,.74-.01,.11-.07,.2-.1,.28-.03,.08-.06,.16-.08,.21-.05,.12-.07,.19-.07,.19h0s.03-.07,.07-.19c.02-.06,.05-.13,.08-.22,.02-.09,.08-.17,.08-.29,.02-.22,.09-.47,.05-.74-.01-.13-.02-.27-.04-.41-.03-.14-.07-.28-.1-.42-.06-.28-.19-.55-.28-.79-.12-.25-.22-.47-.33-.66-.21-.38-.37-.63-.37-.63-.12-.19-.04-.44,.19-.55,.23-.11,.49-.03,.56,.18,0,.02,.01,.05,.02,.07Z"/>
          <path d="M73.54,55.21s0,.18-.01,.46c0,.29,.04,.65,.06,1.03,.01,.19,.03,.37,.05,.54,.02,.17,0,.33,.01,.47,.01,.27,.02,.46,.02,.46h0s-.02-.18-.04-.46c-.02-.14-.03-.29-.08-.46-.05-.17-.11-.34-.17-.51-.12-.34-.3-.68-.43-.92-.13-.26-.23-.43-.23-.43-.08-.13,.05-.29,.3-.35,.25-.06,.47,0,.5,.13,0,.01,0,.03,0,.04Z"/>
          <path d="M70.54,39.18s.11,.17,.28,.42c.07,.13,.14,.29,.23,.44,.08,.16,.18,.32,.24,.49,.07,.17,.15,.34,.22,.49,.08,.15,.12,.31,.18,.43,.11,.25,.18,.41,.18,.41h0s-.08-.16-.2-.41c-.07-.12-.13-.26-.23-.4-.1-.14-.21-.28-.32-.42-.1-.15-.25-.26-.37-.37-.13-.11-.24-.21-.35-.28-.23-.12-.39-.19-.39-.19-.12-.05-.1-.25,.04-.47,.14-.21,.35-.31,.46-.2,.01,0,.02,.02,.03,.04Z"/>
          <path d="M77.77,47.16s.02,.22,.06,.56c.02,.17,.03,.37,.05,.58,.02,.21,.06,.43,.05,.65,0,.22,.01,.44,.02,.65,.01,.21-.03,.4-.04,.56-.02,.33-.04,.54-.04,.54h0s0-.22,.02-.54c0-.16,.02-.35-.02-.55-.04-.2-.09-.41-.14-.62-.04-.21-.14-.41-.22-.59-.08-.19-.16-.36-.24-.5-.17-.29-.28-.47-.28-.47-.09-.14,.02-.34,.25-.43,.24-.1,.47-.04,.52,.12,0,.02,0,.04,.01,.05Z"/>
          <path d="M80.96,38.77s.03,.17,.07,.43c.02,.13,.04,.28,.06,.45,.02,.16,.06,.32,.07,.5,.02,.17,.04,.34,.06,.49,.03,.15,.01,.3,.02,.43,.02,.25,.03,.41,.03,.41h0s0,0,0,0c0,0-.02-.16-.05-.41-.02-.12-.03-.27-.08-.41-.05-.15-.11-.3-.18-.45-.06-.15-.16-.29-.24-.42-.08-.13-.16-.25-.24-.34-.17-.19-.28-.31-.28-.31-.09-.09,0-.26,.23-.39,.22-.13,.45-.13,.5-.01,0,.01,0,.03,.01,.04Z"/>
          <path d="M77.86,28.06s.17,.22,.42,.55c.24,.34,.55,.79,.81,1.26,.14,.23,.25,.48,.35,.7,.11,.22,.17,.45,.25,.63,.06,.19,.1,.35,.14,.46,.03,.11,.05,.17,.05,.17h0s-.02-.06-.05-.17c-.04-.11-.08-.27-.16-.45-.09-.18-.17-.39-.31-.6-.13-.21-.28-.43-.45-.62-.33-.41-.74-.74-1.05-.96-.32-.22-.55-.35-.55-.35-.18-.09-.2-.33-.06-.54,.15-.21,.4-.27,.56-.13,.02,.01,.03,.03,.05,.05Z"/>
          <path d="M74.85,29.84s.04,.06,.12,.15c.06,.1,.16,.25,.27,.43,.11,.18,.21,.4,.32,.62,.09,.24,.21,.48,.28,.73,.09,.25,.15,.5,.21,.74,.07,.24,.09,.46,.14,.65,.06,.38,.1,.64,.1,.64h0s0,0,0,0c0,0-.04-.26-.12-.63-.06-.18-.1-.41-.2-.63-.09-.22-.19-.46-.32-.68-.11-.23-.28-.42-.42-.61-.16-.17-.3-.33-.45-.45-.14-.11-.27-.21-.35-.27-.09-.05-.15-.09-.15-.09-.16-.09-.17-.32-.03-.53,.15-.21,.39-.27,.55-.12,.02,.01,.03,.03,.05,.05Z"/>
          <path d="M71.19,32.25s.08,.21,.21,.52c.07,.15,.1,.35,.16,.54,.04,.2,.13,.39,.15,.61,.03,.21,.07,.42,.1,.61,.05,.19,.03,.38,.04,.53,.02,.31,.03,.51,.03,.51h0s0,0,0,0c0,0-.02-.2-.05-.51-.03-.15-.02-.33-.1-.52-.06-.18-.14-.38-.21-.56-.07-.19-.21-.35-.31-.51-.11-.15-.19-.3-.31-.41-.22-.2-.37-.33-.37-.33-.12-.09-.06-.3,.13-.48,.19-.17,.42-.2,.52-.06,0,.01,.02,.03,.02,.05Z"/>
          <path d="M41.64,23.72s-.33,.23-.84,.57c-.24,.18-.5,.42-.79,.67-.28,.26-.6,.52-.87,.82-.28,.3-.55,.6-.81,.89-.26,.28-.47,.58-.66,.82-.37,.49-.62,.82-.62,.82h0s0,0,0,0c0,0,.24-.33,.6-.83,.18-.25,.37-.55,.61-.85,.23-.31,.47-.64,.72-.97,.23-.34,.51-.65,.75-.96,.25-.3,.46-.6,.67-.83,.43-.46,.71-.77,.71-.77,.22-.25,.54-.3,.71-.12,.17,.18,.13,.5-.11,.7-.02,.02-.05,.04-.08,.06Z"/>
          <path d="M43.04,24.96s-.24,.16-.57,.41c-.33,.25-.76,.6-1.13,1.02-.19,.2-.36,.42-.5,.64-.16,.21-.25,.44-.35,.62-.09,.19-.13,.36-.18,.47-.04,.12-.06,.18-.06,.18h0s0,0,0,0c0,0,.02-.07,.06-.18,.04-.11,.08-.29,.16-.48,.09-.19,.16-.43,.3-.65,.12-.24,.26-.48,.41-.72,.3-.48,.63-.95,.88-1.3,.25-.35,.41-.58,.41-.58,.12-.18,.37-.2,.56-.03,.19,.17,.22,.43,.07,.58-.02,.02-.04,.03-.05,.04Z"/>
          <path d="M51.72,8.29s-.24-.33-.68-.77c-.43-.44-1.07-.98-1.79-1.39-.36-.21-.74-.38-1.11-.5-.37-.12-.73-.2-1.05-.21-.31-.03-.58,0-.76,.03-.18,.03-.28,.05-.28,.05h0s.1-.02,.28-.06c.18-.04,.44-.06,.76-.05,.32,0,.68,.06,1.07,.15,.38,.1,.79,.23,1.18,.4,1.58,.65,2.96,1.75,2.96,1.75,.28,.2,.35,.54,.18,.73-.17,.19-.48,.16-.7-.06-.02-.02-.05-.05-.07-.07Z"/>
          <path d="M52.88,6.26s-.09-.29-.24-.73c-.07-.22-.17-.46-.27-.73-.11-.26-.21-.56-.35-.82-.15-.27-.29-.53-.43-.78-.13-.26-.31-.45-.45-.63-.29-.35-.48-.59-.48-.59h0s.2,.23,.5,.58c.15,.17,.35,.36,.5,.6,.17,.23,.35,.48,.54,.73,.19,.24,.35,.51,.52,.74,.17,.24,.32,.46,.46,.65,.27,.38,.45,.63,.45,.63,.14,.19,.09,.45-.13,.58-.22,.13-.48,.07-.58-.14-.01-.02-.02-.05-.03-.07Z"/>
          <path d="M55.92,4.81s-.02-.08-.03-.22c0-.14-.02-.33-.03-.57,0-.46,.02-1.07,.07-1.66,.04-.59,.08-1.18,.11-1.62,.01-.44,.02-.74,.02-.74h0S56.06,0,56.06,0V.74c0,.44,.01,1.03,.08,1.62,.05,.59,.18,1.16,.3,1.57,.08,.2,.14,.36,.18,.48,.04,.11,.09,.17,.09,.17,.11,.17,0,.4-.21,.53-.22,.12-.48,.04-.56-.21,0-.02-.02-.05-.02-.08Z"/>
          <path d="M59.85,7.32s.15-.23,.38-.58c.11-.18,.23-.38,.37-.6,.13-.22,.26-.46,.41-.69,.59-.93,1.06-1.91,1.06-1.91h0s0,0,0,0c0,0-.49,.97-.87,1.99-.1,.25-.17,.52-.25,.76-.07,.25-.13,.48-.18,.68-.09,.4-.16,.67-.16,.67-.04,.21-.27,.31-.5,.23-.24-.09-.37-.31-.29-.5,0-.02,.02-.04,.03-.06Z"/>
          <path d="M63.64,7.92s.06-.08,.18-.21c.12-.13,.29-.32,.49-.55,.2-.22,.46-.47,.71-.74,.29-.25,.56-.54,.89-.77,.16-.12,.31-.25,.47-.36,.16-.11,.33-.21,.48-.31,.31-.21,.63-.33,.89-.48,.27-.12,.51-.2,.67-.26,.16-.06,.25-.1,.25-.1h0s-.09,.04-.25,.1c-.16,.07-.39,.15-.66,.28-.25,.16-.57,.3-.85,.53-.14,.11-.29,.23-.44,.35-.15,.12-.28,.27-.42,.41-.28,.26-.51,.59-.73,.87-.2,.31-.39,.59-.53,.84-.14,.26-.25,.47-.33,.62-.07,.15-.11,.24-.11,.24-.12,.27-.4,.41-.63,.3-.23-.11-.29-.41-.12-.67,.02-.03,.04-.05,.06-.08Z"/>
          <path d="M67.63,8.82s.3-.13,.74-.32c.45-.18,1.04-.42,1.64-.6,.3-.1,.6-.18,.89-.24,.28-.08,.56-.09,.79-.14,.23-.03,.43-.03,.56-.04,.14,0,.21-.01,.21-.01h0s-.08,0-.21,.01c-.14,.02-.33,.01-.56,.06-.23,.06-.5,.09-.77,.2-.28,.09-.56,.2-.84,.35-.55,.27-1.06,.63-1.42,.92-.36,.29-.58,.51-.58,.51-.17,.17-.43,.15-.6-.05-.16-.2-.13-.47,.07-.6,.02-.01,.04-.03,.07-.04Z"/>
          <path d="M58.47,5.15s.01-.09,.05-.25c.04-.15,.1-.38,.16-.64,.03-.13,.09-.27,.13-.42,.05-.15,.09-.3,.16-.46,.14-.31,.26-.64,.44-.95,.09-.15,.15-.32,.25-.46,.09-.15,.19-.29,.27-.43,.08-.14,.19-.26,.28-.38,.09-.12,.18-.23,.26-.33,.35-.38,.59-.64,.59-.64h0s-.24,.25-.57,.65c-.07,.11-.15,.22-.24,.35-.08,.12-.18,.25-.25,.4-.07,.14-.15,.29-.22,.45-.08,.15-.12,.32-.18,.48-.13,.32-.18,.66-.25,.97-.03,.16-.04,.31-.05,.46-.01,.15-.03,.28-.03,.41,0,.25,0,.46,0,.61,.01,.15,.02,.23,.02,.23,.03,.26-.14,.48-.39,.5-.25,.03-.46-.18-.44-.46,0-.03,0-.06,0-.09Z"/>
          <path d="M62.81,5.38s.04-.1,.11-.28c.09-.17,.21-.4,.36-.69,.07-.15,.17-.28,.27-.43,.1-.15,.21-.31,.31-.47,.26-.3,.49-.64,.78-.93,.14-.15,.28-.3,.42-.45,.15-.14,.29-.27,.43-.41,.27-.27,.56-.49,.78-.69,.23-.2,.44-.35,.57-.46,.14-.11,.22-.17,.22-.17h0s-.08,.06-.22,.18c-.14,.12-.34,.27-.56,.48-.22,.21-.49,.44-.73,.74-.12,.14-.25,.29-.39,.44-.12,.16-.24,.32-.36,.49-.25,.32-.42,.69-.61,1.01-.07,.17-.14,.34-.21,.49-.06,.16-.14,.3-.17,.45-.08,.28-.14,.52-.18,.68-.02,.17-.03,.26-.03,.26-.03,.29-.25,.51-.51,.5-.26-.01-.41-.29-.32-.61,0-.03,.02-.07,.03-.1Z"/>
          <path d="M48.6,11.37s-.07-.05-.2-.12c-.13-.07-.33-.17-.56-.28-.24-.1-.52-.22-.83-.32-.31-.08-.65-.2-1-.24-.17-.03-.35-.05-.52-.08-.17,0-.34-.01-.51-.02-.33-.03-.63,.05-.9,.07-.26,.03-.47,.13-.62,.17-.15,.05-.23,.08-.23,.08h0s.08-.03,.23-.08c.15-.04,.35-.14,.61-.19,.26-.04,.56-.13,.9-.13,.17-.01,.34-.02,.52-.04,.18,0,.36,0,.53,.01,.36,0,.71,.05,1.06,.07,.34,.05,.65,.1,.92,.14,.27,.06,.5,.11,.65,.14,.16,.03,.25,.06,.25,.06,.28,.08,.44,.33,.35,.56-.09,.24-.36,.35-.59,.24-.02-.01-.05-.02-.07-.04Z"/>
          <path d="M64.82,10.89s.03-.06,.1-.16c.07-.1,.17-.23,.3-.4,.25-.32,.61-.7,.98-1.06,.36-.36,.74-.7,1.02-.96,.28-.26,.46-.44,.46-.44h0s0,0,0,0c0,0-.18,.18-.44,.45-.26,.28-.6,.66-.87,1.08-.29,.41-.51,.87-.63,1.21-.05,.17-.09,.32-.12,.42-.02,.1-.02,.16-.02,.16-.02,.18-.23,.27-.48,.22-.25-.05-.4-.26-.32-.46,0-.02,.02-.04,.03-.06Z"/>
          <path d="M67.68,12.75s.08-.04,.22-.09c.14-.05,.34-.12,.59-.2,.49-.14,1.14-.3,1.79-.39,.32-.05,.65-.08,.96-.1,.3-.04,.59-.01,.83-.03,.24,0,.45,.03,.59,.03,.14,0,.22,.01,.22,.01h0s-.08,0-.22-.01c-.14,0-.34-.03-.59-.01-.24,.02-.53,.02-.82,.09-.3,.05-.61,.12-.92,.22-.62,.18-1.19,.48-1.59,.72-.19,.13-.35,.25-.47,.32-.11,.08-.16,.14-.16,.14-.17,.16-.44,.13-.61-.06-.17-.19-.12-.47,.11-.61,.02-.01,.05-.03,.07-.04Z"/>
          <path d="M50.23,72.75s-.07,.24-.18,.59c-.05,.18-.08,.39-.12,.62-.03,.23-.09,.48-.08,.72,0,.25,0,.5,0,.73,0,.24,.06,.44,.08,.63,.07,.37,.12,.61,.12,.61h0s-.06-.24-.14-.61c-.04-.18-.12-.39-.14-.62-.04-.23-.08-.48-.13-.73-.06-.25-.06-.5-.1-.74-.03-.24-.07-.46-.09-.65-.03-.39-.05-.65-.05-.65-.02-.2,.16-.35,.41-.33,.25,.02,.45,.19,.42,.37,0,.02,0,.04-.01,.06Z"/>
          <path d="M54.23,72.28s-.07,.18-.18,.45c-.06,.13-.09,.3-.13,.47-.04,.17-.09,.36-.11,.55-.03,.38-.06,.77-.02,1.05,.04,.29,.06,.48,.06,.48h0s0,0,0,0c0,0-.03-.19-.08-.47-.07-.28-.1-.66-.17-1.05-.03-.19-.04-.39-.07-.57-.02-.18-.06-.36-.07-.51-.03-.3-.05-.51-.05-.51-.02-.16,.16-.27,.41-.24,.25,.03,.44,.17,.42,.31,0,.01,0,.03-.01,.04Z"/>
          <path d="M61.14,77.87s-.01,.44,0,1.1c0,.66,.04,1.55,.02,2.44,0,.44-.03,.89-.07,1.3-.02,.41-.12,.79-.16,1.12-.02,.16-.07,.31-.1,.44-.03,.13-.06,.24-.09,.34-.05,.19-.07,.29-.07,.29h0s0,0,0,0c0,0,.03-.11,.07-.29,.02-.09,.05-.21,.08-.34,.03-.13,.08-.28,.09-.44,.03-.33,.1-.71,.09-1.12,0-.41,0-.85-.05-1.29-.08-.87-.26-1.74-.39-2.38-.14-.65-.24-1.09-.24-1.09-.08-.34,.06-.65,.31-.7,.25-.05,.48,.18,.51,.52,0,.04,0,.07,0,.11Z"/>
          <path d="M63.54,80.65s0,.26,0,.64c.01,.19-.05,.4-.06,.63-.03,.23-.04,.47-.08,.71-.16,.94-.32,1.88-.32,1.88h0s.03-.24,.08-.59c.05-.35,.05-.83,.04-1.3,0-.24-.06-.47-.1-.68-.05-.21-.06-.42-.13-.58-.13-.32-.22-.53-.22-.53-.07-.16,.06-.34,.3-.43,.24-.09,.47,0,.5,.19,0,.02,0,.04,0,.06Z"/>
          <path d="M70.17,79.12s0,.07,0,.2c0,.12-.01,.3-.02,.51-.04,.42-.1,.96-.23,1.48-.11,.53-.28,1.03-.41,1.4-.06,.19-.13,.34-.17,.44-.04,.11-.07,.17-.07,.17h0s.02-.06,.06-.17c.04-.11,.1-.26,.16-.45,.11-.38,.22-.9,.22-1.42,.02-.52-.06-1.04-.15-1.41-.06-.18-.1-.33-.14-.44-.04-.1-.07-.16-.07-.16-.08-.17,.04-.37,.28-.46,.24-.09,.48,0,.52,.23,0,.02,0,.05,0,.07Z"/>
          <path d="M73.53,78.25s-.02,.2-.04,.5c-.02,.3-.05,.7-.09,1.1-.02,.2-.04,.39-.08,.57-.02,.18-.07,.35-.1,.49-.03,.14-.08,.25-.11,.33-.03,.08-.04,.13-.04,.13h0s0,0,0,0c0,0,.01-.05,.04-.13,.02-.08,.07-.19,.09-.34,.02-.14,.05-.31,.04-.49,0-.18-.02-.37-.05-.56-.06-.38-.18-.75-.29-1.02-.11-.27-.19-.45-.19-.45-.07-.14,.07-.29,.32-.35,.25-.05,.47,.02,.49,.17,0,.01,0,.03,0,.05Z"/>
          <path d="M76.82,77.81s-.03,.08-.06,.22c-.02,.15-.06,.35-.1,.61-.06,.51-.08,1.21-.09,1.91,0,.35-.01,.7-.03,1.03,0,.33-.07,.63-.08,.89,0,.13-.05,.25-.07,.35-.02,.1-.04,.19-.06,.27-.03,.15-.05,.23-.05,.23h0s0,0,0,0c0,0,.02-.09,.05-.23,.02-.08,.04-.17,.06-.27,.02-.11,.06-.22,.06-.35,0-.26,.05-.57,.02-.89-.01-.33-.04-.67-.1-1.02-.1-.69-.23-1.38-.29-1.92-.03-.27-.05-.5-.07-.66,0-.16,0-.26,0-.26,0-.29,.19-.52,.44-.49,.25,.03,.43,.26,.4,.5,0,.03,0,.05-.02,.08Z"/>
          <path d="M75.89,71.83s-.04,.19-.11,.48c-.03,.14-.06,.31-.09,.49-.03,.18-.07,.37-.07,.56-.03,.76,.06,1.53,.06,1.53h0s0,0,0,0c0,0-.07-.76-.26-1.52-.05-.19-.07-.38-.11-.56-.04-.18-.08-.35-.11-.49-.08-.29-.13-.48-.13-.48-.05-.15,.12-.28,.37-.29,.25-.01,.46,.09,.46,.24,0,.01,0,.03,0,.05Z"/>
          <path d="M62.47,67.78s-.05,.24-.14,.6c-.08,.35-.18,.82-.24,1.29-.03,.23-.05,.47-.07,.69-.03,.22,0,.43,0,.6,.02,.35,.04,.59,.04,.59h0s0,0,0,0c0,0-.02-.23-.06-.59-.01-.18-.06-.38-.07-.6-.02-.22-.04-.46-.06-.7-.04-.47-.08-.95-.14-1.3-.06-.35-.1-.58-.1-.58-.04-.18,.13-.33,.38-.35,.25-.02,.46,.12,.45,.31,0,.02,0,.04,0,.06Z"/>
          <path d="M66.11,65.99s-.03,.23-.08,.58c-.02,.18-.01,.38-.02,.61,0,.22,0,.46,.02,.7,.08,.95,.24,1.89,.24,1.89h0s0,0,0,0c0,0-.15-.94-.44-1.86-.07-.23-.14-.46-.2-.68-.06-.22-.14-.42-.19-.6-.09-.37-.16-.61-.16-.61-.06-.19,.1-.36,.35-.38,.25-.01,.47,.12,.48,.29,0,.02,0,.04,0,.06Z"/>
          <path d="M70.99,61.94s.1,.95,.32,1.89c.23,.93,.57,1.82,.57,1.82h0s0,0,0,0c0,0-.33-.9-.76-1.75-.41-.86-.92-1.72-.92-1.72-.1-.16,0-.37,.24-.45,.24-.09,.48-.02,.54,.15,0,.02,.01,.04,.01,.06Z"/>
          <path d="M70.78,45.26s.02,.26,.06,.64c.02,.19,.04,.42,.06,.66,.02,.24,.06,.49,.07,.75,.02,.25,.04,.51,.06,.74,.03,.24,0,.46,.02,.65,.02,.38,.03,.63,.03,.63h0s-.02-.25-.05-.63c-.02-.19-.03-.41-.08-.64-.06-.23-.12-.47-.18-.72-.06-.24-.16-.48-.24-.7-.09-.22-.17-.42-.25-.59-.17-.34-.29-.57-.29-.57-.09-.17,.02-.38,.26-.47,.24-.09,.48,0,.53,.18,0,.02,0,.04,.01,.06Z"/>
          <path d="M65.33,31.35s-.07,.97-.03,1.93c.03,.96,.17,1.9,.17,1.9h0s-.13-.94-.38-1.87c-.23-.93-.58-1.84-.58-1.84-.07-.18,.07-.36,.32-.41,.25-.05,.47,.05,.5,.23,0,.02,0,.04,0,.06Z"/>
          <path d="M69.37,28.94s.05,.2,.14,.49c.04,.14,.07,.32,.12,.5,.04,.18,.11,.37,.14,.57,.04,.19,.08,.39,.12,.56,.05,.18,.06,.35,.09,.49,.06,.28,.09,.47,.09,.47h0s-.05-.19-.11-.47c-.04-.14-.07-.31-.15-.47-.07-.17-.15-.34-.24-.51-.08-.18-.2-.33-.29-.48-.11-.15-.2-.29-.29-.39-.2-.21-.33-.35-.33-.35-.11-.1-.03-.3,.18-.44s.44-.15,.52-.02c0,.01,.01,.03,.02,.05Z"/>
          <path d="M76.16,21.63s.17,.16,.42,.4c.13,.11,.23,.3,.37,.46,.12,.18,.29,.32,.38,.53,.11,.19,.21,.38,.31,.56,.12,.16,.15,.36,.22,.5,.12,.29,.21,.49,.21,.49h0s0,0,0,0c0,0-.09-.19-.23-.48-.08-.14-.13-.32-.28-.47-.13-.16-.26-.32-.4-.47-.13-.16-.33-.26-.49-.38-.17-.1-.3-.22-.45-.26-.29-.1-.49-.16-.49-.16-.15-.04-.18-.26-.09-.49,.1-.24,.3-.36,.46-.26,.02,0,.03,.02,.04,.04Z"/>
          <path d="M81.19,27.08s.03,.05,.07,.13c.04,.09,.09,.22,.15,.37,.06,.15,.11,.34,.16,.52,.03,.2,.09,.4,.09,.6,.03,.2,.01,.4,0,.59,0,.19-.05,.36-.07,.5-.07,.28-.13,.47-.13,.47h0s.05-.19,.11-.48c0-.15,.03-.32,0-.5-.02-.18-.05-.37-.12-.55-.05-.18-.16-.34-.24-.49-.11-.14-.2-.27-.3-.36-.1-.09-.19-.16-.25-.21-.07-.04-.1-.07-.1-.07-.12-.07-.08-.27,.09-.46,.17-.19,.4-.25,.51-.12,.01,.01,.02,.03,.03,.04Z"/>
          <path d="M81.56,25.97s.04,.04,.1,.11c.06,.08,.14,.18,.24,.31,.19,.26,.4,.62,.55,1,.08,.18,.14,.37,.2,.55,.06,.17,.09,.34,.13,.48,.06,.29,.1,.48,.1,.48h0s-.04-.19-.12-.47c-.05-.13-.1-.3-.19-.46-.08-.16-.18-.33-.3-.47-.23-.31-.53-.54-.77-.67-.12-.06-.22-.11-.3-.14-.08-.02-.12-.04-.12-.04-.13-.04-.14-.24-.03-.47,.12-.23,.32-.34,.46-.24,.01,0,.03,.02,.04,.03Z"/>
          <path d="M35.53,29.92s-.05,0-.15-.03c-.09,0-.23,0-.39,0-.16,0-.35,.05-.56,.09-.19,.07-.42,.13-.62,.25-.21,.1-.4,.23-.57,.37-.18,.13-.31,.29-.44,.4-.23,.26-.36,.46-.36,.46h0s0,0,0,0c0,0,.14-.19,.35-.47,.12-.13,.24-.3,.4-.45,.15-.16,.32-.33,.51-.48,.18-.17,.39-.29,.58-.43,.2-.11,.39-.23,.57-.3,.18-.07,.33-.14,.43-.18,.11-.03,.17-.05,.17-.05,.2-.06,.38,.09,.39,.35,.01,.25-.11,.47-.26,.48-.02,0-.03,0-.05,0Z"/>
          <path d="M83.77,29.62s.05,.03,.14,.1c.09,.07,.21,.17,.36,.29,.14,.13,.3,.28,.45,.45,.14,.19,.3,.36,.41,.58,.05,.11,.13,.2,.16,.31,.04,.11,.08,.22,.11,.32,.05,.1,.04,.21,.06,.31,.01,.1,.03,.19,.04,.28-.01,.34-.02,.57-.02,.57h0s0,0,0,0c0,0,0-.23,0-.57-.02-.08-.04-.17-.07-.27-.03-.09-.03-.2-.09-.29-.05-.09-.1-.19-.16-.28-.04-.1-.14-.17-.21-.26-.13-.17-.33-.29-.49-.41-.18-.1-.35-.18-.5-.24-.16-.04-.28-.08-.37-.1-.09-.02-.15-.02-.15-.02-.16-.02-.24-.22-.17-.47,.06-.25,.26-.4,.44-.32,.02,0,.04,.02,.05,.03Z"/>
          <path d="M80.02,22.99s.05,.01,.15,.04c.09,.03,.23,.08,.38,.13,.31,.12,.72,.29,1.08,.52,.19,.11,.35,.23,.51,.35,.16,.11,.28,.25,.4,.35,.11,.11,.19,.21,.25,.28,.06,.07,.1,.1,.1,.1h0s0,0,0,0c0,0-.04-.04-.1-.1-.06-.06-.15-.16-.26-.26-.13-.09-.26-.21-.43-.29-.17-.09-.35-.18-.55-.23-.38-.13-.79-.14-1.08-.13-.15,.02-.27,.03-.35,.04-.09,.02-.13,.03-.13,.03-.15,.04-.27-.13-.29-.39-.02-.25,.11-.46,.28-.45,.02,0,.04,0,.05,0Z"/>
          <path d="M39.1,22.44s-.23-.04-.57-.1c-.17-.03-.37-.03-.59-.04-.22,0-.45-.02-.68,0-.23,.02-.46,.04-.68,.06-.22,.02-.41,.07-.58,.11-.34,.08-.56,.13-.56,.13h0s.22-.06,.56-.15c.17-.04,.36-.12,.57-.17,.21-.06,.44-.12,.66-.19,.22-.08,.46-.12,.67-.18,.22-.05,.42-.12,.59-.16,.35-.08,.59-.14,.59-.14,.18-.05,.35,.11,.36,.36,.02,.25-.11,.47-.29,.47-.02,0-.04,0-.05,0Z"/>
          <path d="M31.01,47.74s-.38,.06-.93,.22c-.55,.15-1.27,.42-1.93,.82-.33,.2-.64,.43-.9,.68-.26,.25-.47,.51-.63,.76-.08,.12-.14,.24-.19,.35-.06,.1-.09,.2-.12,.28-.06,.16-.09,.25-.09,.25h0s.03-.09,.09-.25c.02-.08,.06-.18,.11-.28,.05-.11,.1-.23,.18-.35,.29-.51,.8-1.11,1.42-1.6,.61-.5,1.3-.91,1.82-1.2,.52-.29,.89-.46,.89-.46,.28-.14,.58-.06,.68,.18,.09,.24-.05,.5-.33,.58-.03,0-.06,.02-.09,.02Z"/>
          <path d="M27.39,57.58s-.07,.02-.2,.06c-.13,.05-.3,.12-.52,.21-.22,.08-.45,.23-.7,.37-.13,.07-.25,.17-.38,.25-.12,.09-.26,.18-.37,.29-.24,.2-.47,.42-.67,.65-.21,.21-.36,.45-.5,.64-.14,.19-.23,.37-.3,.49-.07,.12-.11,.19-.11,.19h0s0,0,0,0c0,0,.04-.07,.11-.19,.07-.12,.15-.3,.29-.5,.13-.2,.27-.44,.46-.68,.17-.25,.37-.5,.58-.74,.1-.13,.22-.24,.33-.36,.11-.11,.22-.24,.33-.34,.23-.2,.43-.42,.63-.56,.2-.16,.36-.29,.47-.38,.12-.08,.19-.13,.19-.13,.21-.15,.49-.1,.6,.12,.12,.22,.05,.49-.16,.59-.02,.01-.05,.02-.07,.03Z"/>
          <path d="M25.57,63.07s-.22,.11-.55,.27c-.09,.04-.16,.11-.25,.17-.08,.06-.17,.13-.27,.2-.18,.15-.4,.29-.55,.48-.16,.19-.33,.38-.48,.56-.16,.18-.24,.38-.34,.54-.18,.33-.3,.55-.3,.55h0s0,0,0,0c0,0,.11-.22,.29-.56,.09-.16,.16-.38,.29-.58,.12-.21,.26-.42,.39-.64,.12-.23,.3-.42,.43-.62,.07-.1,.14-.2,.21-.29,.07-.09,.12-.19,.19-.26,.27-.3,.45-.5,.45-.5,.14-.16,.38-.13,.53,.07,.15,.2,.16,.46,.01,.57-.01,.01-.03,.02-.05,.03Z"/>
          <path d="M29.84,63.36s-.12,.11-.31,.3c-.16,.21-.36,.51-.53,.84-.32,.66-.57,1.35-.57,1.35h0s0,0,0,0c0,0,.26-.68,.37-1.41,.07-.37,.14-.75,.19-1.03,.09-.29,.15-.49,.15-.49,.05-.16,.25-.18,.46-.04,.21,.15,.33,.35,.26,.46,0,.01-.02,.02-.03,.03Z"/>
          <path d="M34.52,68.01s-.12,.3-.31,.74c-.05,.11-.07,.24-.11,.38-.03,.14-.07,.28-.1,.43-.07,.3-.16,.62-.19,.94-.08,.65-.14,1.31-.15,1.8,0,.49-.02,.82-.02,.82h0s0,0,0,0c0,0,0-.33,0-.82,0-.49-.02-1.15-.04-1.81-.02-.33,0-.66,0-.98,0-.16,0-.31,0-.46,0-.14,0-.28,.01-.41,.06-.51,.09-.85,.09-.85,.02-.27,.24-.44,.48-.38,.25,.06,.4,.3,.34,.54,0,.02-.01,.05-.02,.07Z"/>
          <path d="M41.87,68.56s-.04,.24-.11,.59c-.06,.35-.14,.83-.16,1.3-.03,.94,.06,1.89,.06,1.89h0s0,0,0,0c0,0-.07-.94-.26-1.88-.05-.24-.07-.47-.11-.69-.04-.22-.08-.43-.11-.61-.08-.36-.13-.59-.13-.59-.05-.18,.12-.34,.37-.36,.25-.02,.46,.12,.46,.3,0,.02,0,.04,0,.06Z"/>
          <path d="M44.41,73.6s-.08,.11-.18,.29c-.09,.18-.19,.44-.26,.7-.14,.53-.12,1.08-.12,1.08h0s0-.54-.08-1.09c-.03-.28-.08-.56-.11-.78-.03-.22-.05-.38-.05-.38-.02-.12,.16-.18,.41-.12,.25,.05,.44,.18,.42,.27,0,0,0,.02-.01,.03Z"/>
          <path d="M47.3,59.49s-.03,.05-.09,.15c-.05,.1-.12,.24-.21,.42-.08,.18-.15,.39-.23,.63-.04,.24-.13,.49-.13,.76-.03,.26-.02,.53,0,.77,0,.25,.1,.47,.14,.67,.02,.1,.07,.18,.1,.25,.03,.07,.06,.14,.09,.19,.05,.11,.08,.17,.08,.17h0s-.03-.06-.08-.17c-.03-.05-.06-.12-.09-.19-.03-.07-.09-.15-.11-.25-.05-.19-.16-.41-.2-.66-.06-.25-.11-.51-.13-.79-.05-.27-.03-.55-.04-.81,.01-.26,.02-.51,.04-.72,.03-.21,.04-.39,.06-.51,.02-.12,.04-.19,.04-.19,.04-.22,.26-.34,.5-.25,.24,.09,.38,.3,.31,.48,0,.02-.02,.04-.03,.05Z"/>
          <path d="M34.93,39.03s-.17,.1-.41,.27c-.24,.18-.54,.43-.79,.74-.26,.3-.44,.66-.55,.94-.05,.14-.07,.26-.1,.35-.02,.09-.03,.13-.03,.13h0s.01-.05,.03-.13c.02-.08,.04-.21,.08-.35,.09-.29,.21-.68,.39-1.05,.17-.38,.37-.74,.52-1.02,.16-.28,.26-.46,.26-.46,.08-.14,.3-.13,.48,.04,.19,.17,.26,.4,.15,.5,0,.01-.02,.02-.04,.03Z"/>
          <path d="M46.77,28.2s-.06,0-.16,0c-.1,.02-.24,.05-.42,.09-.18,.04-.36,.15-.58,.24-.19,.14-.42,.26-.59,.45-.19,.17-.36,.36-.51,.56-.16,.19-.26,.39-.37,.55-.19,.34-.29,.58-.29,.58h0s0,0,0,0c0,0,.11-.24,.28-.59,.1-.17,.18-.38,.32-.59,.12-.21,.26-.44,.42-.65,.14-.23,.34-.41,.51-.61,.2-.16,.37-.35,.55-.46,.18-.11,.34-.22,.45-.28,.12-.05,.19-.08,.19-.08,.22-.09,.44,.03,.48,.28,.04,.25-.06,.49-.22,.52-.02,0-.04,0-.05,0Z"/>
          <path d="M44.31,20.66s-.23-.04-.57-.11c-.17-.03-.37-.06-.59-.09-.21-.03-.44-.07-.67-.07-.91-.03-1.83,.06-1.83,.06h0s.91-.08,1.82-.27c.23-.04,.46-.07,.67-.11,.21-.04,.41-.08,.59-.11,.34-.08,.57-.13,.57-.13,.18-.05,.33,.12,.35,.37,.02,.25-.11,.46-.29,.46-.02,0-.04,0-.05,0Z"/>
          <path d="M53.98,32.36s.02,.06,.04,.17c.01,.11,.03,.26,.06,.44,.02,.36,.02,.82-.04,1.27-.04,.45-.15,.88-.22,1.2-.04,.16-.09,.29-.11,.38-.03,.09-.04,.14-.04,.14h0s.01-.05,.04-.15c.02-.09,.07-.22,.09-.39,.05-.32,.1-.76,.04-1.19-.04-.43-.19-.84-.32-1.12-.08-.13-.14-.24-.19-.31-.05-.07-.09-.1-.08-.11-.1-.11-.01-.3,.19-.45,.21-.15,.45-.13,.54,.05,0,.02,.02,.04,.02,.06Z"/>
          <path d="M57.07,31.8s-.21,.4-.31,.81c-.11,.4-.1,.81-.1,.81h0s0,0,0,0c0,0,0-.4-.1-.81-.1-.4-.31-.81-.31-.81-.04-.08,.12-.15,.37-.15,.25,0,.46,.05,.46,.13,0,0,0,.02,0,.02Z"/>
          <path d="M73.96,24.75s.17,.15,.42,.39c.24,.24,.54,.58,.76,.96,.12,.19,.2,.38,.28,.57,.08,.18,.11,.37,.17,.52,.06,.31,.1,.52,.1,.52h0s0,0,0,0c0,0-.04-.21-.12-.51-.06-.14-.12-.32-.22-.49-.1-.17-.22-.34-.37-.48-.28-.3-.64-.5-.93-.61-.28-.11-.48-.16-.48-.16-.15-.03-.2-.24-.1-.48,.1-.24,.3-.36,.46-.28,.01,0,.03,.02,.04,.03Z"/>
          <path d="M74.07,18.34s.07-.02,.18-.04c.12-.02,.28-.04,.48-.07,.2-.02,.43-.03,.67-.04,.24,0,.5,0,.75,.03,.25,.01,.5,.06,.73,.1,.23,.03,.44,.11,.62,.15,.18,.05,.32,.12,.42,.15,.1,.04,.16,.06,.16,.06h0s-.06-.02-.16-.06c-.1-.03-.25-.09-.43-.13-.18-.03-.39-.08-.62-.09-.23,0-.47-.01-.72,.03-.24,.02-.48,.09-.69,.15-.22,.07-.41,.15-.57,.23-.16,.09-.28,.16-.37,.21-.09,.05-.13,.09-.13,.09-.14,.11-.35,.02-.48-.2-.13-.22-.08-.47,.11-.55,.02,0,.04-.01,.06-.02Z"/>
          <path d="M76.9,20.43s.14,.06,.34,.14c.1,.03,.21,.1,.34,.16,.12,.06,.25,.1,.37,.17,.12,.07,.24,.13,.35,.19,.12,.05,.21,.12,.29,.17,.17,.1,.29,.16,.29,.16h0s-.12-.06-.3-.15c-.09-.04-.19-.09-.32-.11-.12-.02-.25-.05-.38-.06-.13-.02-.26,0-.39,0-.12,.01-.23,.02-.33,.05-.19,.05-.31,.1-.31,.1-.09,.04-.17-.13-.18-.39,0-.25,.07-.46,.18-.45,.01,0,.02,0,.03,0Z"/>
          <path d="M43.7,17.98s-.18-.16-.61-.31c-.41-.15-1.02-.26-1.62-.29-.61-.03-1.23,.02-1.68,.11-.45,.09-.74,.2-.74,.2h0s.29-.11,.74-.22c.45-.11,1.06-.22,1.67-.3,.62-.07,1.25-.11,1.74-.08,.25,.01,.46,.05,.61,.08,.16,.04,.25,.07,.25,.07,.3,.09,.43,.47,.22,.62-.09,.08-.21,.13-.3,.16-.08,.03-.17,.04-.23,0l-.05-.03Z"/>
          <path d="M37.04,25.42s-.19-.01-.49,.04c-.3,.04-.71,.13-1.09,.27-.39,.13-.75,.32-1.01,.49-.13,.08-.22,.17-.3,.23-.07,.06-.11,.09-.11,.09h0s0,0,0,0c0,0,.04-.03,.11-.09,.07-.06,.16-.15,.29-.24,.25-.19,.58-.43,.93-.66,.35-.23,.7-.47,.98-.64,.27-.18,.48-.29,.48-.29,.07-.04,.19-.04,.27,.02,.08,.06,.13,.16,.14,.28,0,.12-.02,.25-.04,.34-.03,.09-.04,.14-.11,.16-.01,0-.03,0-.04,0Z"/>
          <path d="M51.35,29.12s-.1,.16-.26,.4c-.07,.13-.13,.28-.2,.45-.06,.17-.15,.35-.17,.54-.04,.19-.07,.38-.1,.56-.03,.18,0,.35,0,.5,.02,.29,.03,.49,.03,.49h0s-.02-.19-.05-.48c-.01-.15-.06-.31-.06-.5,0-.18-.01-.38-.03-.58-.02-.2,0-.4,0-.59,0-.19,0-.37,0-.53,.03-.31,.05-.52,.05-.52,.01-.17,.21-.24,.45-.16,.24,.08,.4,.26,.35,.39,0,.01-.01,.03-.02,.04Z"/>
          <path d="M44.97,35.9s-.29,.25-.72,.65c-.21,.2-.44,.44-.68,.71-.22,.28-.49,.57-.68,.9-.1,.16-.21,.33-.3,.49-.08,.17-.15,.34-.22,.51-.08,.16-.13,.33-.16,.49-.04,.16-.08,.31-.11,.46-.04,.14-.02,.28-.03,.39,0,.12,0,.22,0,.31,0,.17,0,.27,0,.27h0s0,0,0,0c0,0,0-.1,0-.27,0-.08,0-.19,0-.31,0-.12-.02-.25,.02-.4,.03-.14,.05-.3,.08-.46,.02-.17,.06-.34,.13-.51,.06-.17,.12-.36,.18-.54,.08-.18,.16-.35,.24-.53,.15-.37,.37-.69,.54-1.03,.2-.31,.38-.61,.54-.86,.33-.49,.55-.82,.55-.82,.17-.25,.46-.34,.67-.19,.21,.15,.22,.45,.02,.67-.02,.02-.04,.05-.07,.07Z"/>
          <path class="cls-1" d="M60.32,33.09c-.79,0-1.54,.47-2.23,1.27-.4,2.63-.75,6.7-.02,10.84,1.22,6.97,2.34,4.79,2.34,4.79,0,0,1.83-2.46,3.25-5.58,.63-1.39,.7-4.66,.59-7.86-1.23-2.08-2.57-3.46-3.93-3.46Z"/>
          <path class="cls-9" d="M19.68,72.77c-2.06-.54-3.78-2.06-4.97-4.39-1.84-3.61-2.21-8.97-.85-12.47,.53-1.37,1.34-2.42,2.04-3.34,1.37-1.77,2.36-3.06,.96-5.72l.61-.32c1.6,3.05,.38,4.63-1.03,6.46-.71,.93-1.45,1.88-1.95,3.16-1.3,3.34-.94,8.46,.82,11.91,1.1,2.15,2.67,3.54,4.53,4.03l-.17,.67Z"/>
          <path class="cls-9" d="M20.99,66.17c-2.32-1.27-9.76-5.99-8.19-13.17,.22-1.01,.62-2.01,1.01-2.97,.82-2.02,1.59-3.92,.81-5.98l.65-.25c.88,2.31,.02,4.43-.81,6.49-.38,.93-.77,1.9-.98,2.85-1.46,6.72,5.64,11.21,7.85,12.42l-.33,.61Z"/>
          <path class="cls-9" d="M100.13,68.77c-2.03-4.54-.15-8.82,1.67-12.95,.19-.43,.38-.86,.56-1.29,1.57-3.67,.82-6.26-.51-9.78l.65-.24c1.35,3.57,2.17,6.4,.5,10.3-.19,.43-.38,.87-.57,1.3-1.76,4-3.58,8.14-1.67,12.39l-.63,.28Z"/>
          <path class="cls-9" d="M11.55,71.95c-3.96-5.16-4.03-9.45-.27-15.3,.61-.94,1.24-1.8,1.86-2.63,1.91-2.58,3.56-4.81,3.52-8.37h.69c.04,3.78-1.76,6.21-3.66,8.78-.61,.82-1.24,1.67-1.83,2.59-3.62,5.63-3.56,9.56,.23,14.5l-.55,.42Z"/>
          <path class="cls-9" d="M100.79,73.49c-.18-2.85,1.04-5.29,2.22-7.65,1.43-2.86,2.78-5.57,1.94-9.04-.29-1.21-1.05-2.46-1.85-3.78-1.19-1.96-2.42-3.99-2.13-6.03l.68,.1c-.25,1.8,.91,3.72,2.04,5.58,.79,1.31,1.61,2.66,1.93,3.98,.9,3.72-.57,6.66-1.99,9.51-1.19,2.38-2.31,4.63-2.14,7.3l-.69,.04Z"/>
          <path class="cls-9" d="M1.32,73.96c-4.27-8.95,2.57-13.61,9.94-17.62,.37-.2,.8-.42,1.27-.66,3-1.51,7.55-3.79,5.89-7.12l.62-.31c1.96,3.94-2.95,6.41-6.2,8.05-.46,.23-.89,.45-1.25,.64-7.08,3.85-13.66,8.3-9.65,16.71l-.62,.3Z"/>
          <path class="cls-9" d="M106.63,66.72l-.61-.32c1.99-3.86,3.71-8.39,1.35-12.69-.34-.61-1.09-1.42-1.89-2.27-1.83-1.95-3.91-4.17-3.1-6.1l.64,.27c-.63,1.52,1.36,3.65,2.97,5.36,.83,.88,1.61,1.72,1.99,2.41,2.52,4.58,.73,9.31-1.34,13.34Z"/>
          <path class="cls-9" d="M5.44,56.07c-.48-3.67,2.29-5.46,4.97-7.2,2.4-1.56,4.68-3.03,4.36-5.76l.69-.08c.37,3.16-2.2,4.82-4.67,6.42-2.61,1.69-5.08,3.29-4.66,6.53l-.69,.09Z"/>
          <path class="cls-9" d="M114.25,57.5l-.66-.2c1.26-4.27-2.45-5.95-5.72-7.43-.34-.16-.68-.31-1.01-.46-2.33-1.1-3.28-2.61-4.47-4.8l.61-.33c1.16,2.13,2.01,3.49,4.16,4.5,.32,.15,.66,.3,1,.46,3.36,1.52,7.53,3.41,6.1,8.26Z"/>
        </g>
      </g>
    </g>
  </g>
</svg>