<?xml version="1.0" encoding="UTF-8"?>
<svg xmlns="http://www.w3.org/2000/svg" viewBox="0 0 89.18 105.86">
  <defs>
    <style>
      .cls-1 {
        fill: #fff;
      }

      .cls-2, .cls-3 {
        fill: #f0d907;
      }

      .cls-4 {
        opacity: .3;
      }

      .cls-4, .cls-5 {
        mix-blend-mode: screen;
      }

      .cls-4, .cls-5, .cls-6 {
        fill: #e51f26;
      }

      .cls-7 {
        isolation: isolate;
      }

      .cls-8 {
        fill: #c71b21;
      }

      .cls-3 {
        mix-blend-mode: multiply;
      }

      .cls-9 {
        fill: #ff9cde;
      }

      .cls-10 {
        fill: #faff3e;
      }

      .cls-11 {
        fill: #e8e8e8;
      }

      .cls-12 {
        fill: #b0181d;
      }
    </style>
  </defs>
  <g class="cls-7">
    <g id="Ebene_2" data-name="Ebene 2">
      <g id="_Ńëîé_1" data-name="Ńëîé 1">
        <g>
          <path class="cls-8" d="M89.12,60.82c.16-.57-.06-1.08-.43-1.41-.01-.06-.03-.12-.06-.18-.82-1.5-2.82-1.16-4.19-1.29-1.9-.18-3.86-.65-5.75-1.23-1.29-.45-2.58-.92-3.86-1.4-1.82-.86-3.48-2.07-5.24-3.07-1.96-1.12-3.74-2.39-5.01-4.41-.08-.12-.26-.01-.23,.12,.37,1.75,.82,2.48,1.78,3.46-.27-.12-.56-.23-.87-.32-.03,0-.06,.03-.06,.06,.04,.19,.12,.4,.22,.61-.08-.06-.16-.12-.23-.17-.26-.2-.7,.02-.56,.41,.62,1.73,2.56,2.73,3.87,3.73,1.34,1.03,3.74,1.47,5.32,1.69,1.03,.14,2.04,.39,3.04,.71,.23,.08,.46,.16,.69,.23,1.3,.45,2.57,.99,3.83,1.53,.93,.4,2.29,.85,3.45,.87,.13,.03,.25,.06,.38,.09-1.43,.6-2.8,1.06-4.44,1.14-1.14,.05-2.46,1.99-.88,2.64,.67,.28,1.42,.18,2.05-.2,.77-.47,2.09-.49,2.96-.72,.73-.2,1.38-.67,1.9-1.26,.07-.08,.13-.16,.17-.25-.15,1.45-.09,3.09-1.21,3.22-.68,.08-1.18,.44-1.88,.58-.56,.12-1.1,.1-1.65,.26-.79,.24-.97,1.21-.8,1.97,.08,.36,.43,.57,.75,.56,.87-.02,1.56-.03,2.46-.26,.59-.15,1.14-.48,1.66-.81,.61-.39,1.35-.36,1.92-.8,.62-.48,.67-1.46,.66-2.22,0-1.01,.03-2.28-.14-3.36,.17-.09,.32-.26,.39-.53Zm-1.69-.3s-.03,.04-.04,.07c0-.02-.02-.03-.03-.05,.02-.08,.04-.18,.07-.3,0,0,0,0,.01,0-.01,.09-.02,.18,0,.27Z"/>
          <path class="cls-6" d="M75.43,8.98c-.33-2.04-.19-3.66-1.34-5.45-1.01-1.57-2.76-2.95-4.56-3.43-.6-.16-1.34-.13-2.1,.05-1.55-.08-2.93,.6-3.88,1.86-.61,.81-1.59,1.91-1.94,3.03-.03,.03-.06,.06-.09,.09-.77,.28-1.7-.15-2.46-.35-1.37-.37-2.7-.44-4.12-.36-2.77,.15-2.69,4.93-2.22,6.76,.24,.93,1.31,1.5,2.2,1.34,1.2-.22,1.34-1.9,1.34-2.85,0-1.06,.02-1.44,1.23-1.54,.51-.04,.99,.03,1.48,.11-.65,1.01-.87,2.52,.22,3.04,1.53,.74,2.46-1.65,2.79-2.68,.1-.3,.32-.5,.59-.67,.06,.75,.04,1.51-.1,2.23-.23,1.12-.06,1.92,.85,2.7,.34,.29,.92,.27,1.25-.02,.5-.43,.56-1.05,.79-1.62,.42-1.05,.27-2.09-.24-3.07-.37-.71-.42-1.43-.63-2.15,.07-.31,.09-.64,.1-.97,.75-1.33,1.51-2.08,3.04-2.73,.01,0,.02,0,.04-.01,.15,0,.3,0,.47,0,1.51,.11,2.54,1.41,3.73,2.16,1.63,1.04-.41,5.76-.98,6.86-1.44,2.77-1.81,6-3.72,8.59-.8,1.08-2.56,1.98-3.65,2.8-.35,.26-2.02,1.61-2.3,1.63-.64,.05-.6,1.07,.03,1.12,.25,.02,.51-.03,.75-.11-.13,.29-.12,.65,.08,.91,.02,.03,.05,.06,.07,.1-.82,.5-1.54,1.08-1.71,1.79-.11,.47,.51,.68,.8,.37,.44-.47,1.16-.61,1.76-.71,.86-.15,2.09-1.35,2.86-1.86,1.86-1.24,3.45-2.88,4.76-4.67,1.28-1.74,2.51-3.47,3.17-5.53,.66-2.04,2-4.5,1.64-6.76Zm-11.88,15.5c-.08,.07-.07,.16-.02,.23-.15,.04-.29,.06-.45,.07,.17-.11,.33-.22,.49-.33,0,0-.02,.02-.03,.02Z"/>
          <path class="cls-8" d="M29.85,41.72s-.03-.09-.05-.14c-.07-.2-.37-.22-.45,0-.13,.35-5.47,.14-6.15,.15-2.82,.05-5.94-.55-8.56-1.47-3.04-1.06-4.88-3.02-5.51-5.9-.2-.94-.23-1.9-.26-2.85,.04-.04,.08-.08,.08-.15,.01-.57-.04-1.12-.13-1.65,.01-.03,.04-.04,.04-.08,.02-.08,.03-.16,.05-.24,0,0,0,0,0,0,.02,0,.04,.02,.05,.02,.01,.02,.05,.02,.06,0,0-.04,.02-.09,.03-.13,0-.04-.02-.08-.06-.1,.12,.04,.25-1.68,.39-3.88,.07-.83,.16-1.66,.32-2.48,.52-2.64,1.84-5.11,3.18-7.39,.2-.34,.24-.86-.16-1.1,.44,.27-.31-.5-.4-.65-.17-.28-.36-.42-.69-.48-.8-.15-1.75,.42-2.31,.99-1.68,1.7-2.57,4.8-2.26,7.37-.04,.25-.08,.51-.12,.78-.83-1.38-1.98-2.43-3.59-2.66-.69-.1-2.45-.18-2.48,.92-.03,1.49,.58,1.76,1.58,2.61,.53,.45,1.29-.07,1.36-.66,.1-.84,.08-.5,.52-.62,.17,.12,.33,.27,.5,.46,.66,.76,1.12,1.66,1.46,2.61-.63-.18-1.29-.29-1.61-.41-.68-.25-1.3-.33-1.83-.28-.88-.25-2.28-.52-2.71,.56-.36,.89,.11,2.31,.72,2.96,.46,.48,1.41,.33,1.45-.43,.09-1.68,3.87-1.37,4.1,.06,.09,.56,.4,1.19,.73,1.71-.77,3.23,0,6.61,2.06,9.17,1.06,1.84,2.72,3.37,5.05,4.37,2.55,1.09,5.11,1.07,7.79,1.55,1.65,.3,4.81,.96,6.46,.26,.44-.18,.4-.73-.02-.9-.21-.09-.42-.17-.64-.24,.06-.17,.02-.34-.09-.48,.76-.18,1.46-.46,2.04-.94,.07-.06,.1-.17,.07-.25Z"/>
          <path class="cls-12" d="M37.2,98.36c-.04-1.29-.14-2.57-.2-3.86-.01-.26-.03-.54-.06-.83,.04-.09,.07-.19,.08-.31,.27-3.11,0-6.23,.39-9.35,.26-2.12,1.07-4.6,.41-6.7,.05-.39,.09-.78,.11-1.17,.01-.23-.3-.3-.42-.13-.81,1.15-1.38,2.46-1.81,3.82,.02-.8,.04-1.6,.03-2.4,0-.12-.17-.21-.25-.09-.75,1.18-1.05,2.63-1.19,4.09-.19-.56-.4-1.12-.62-1.66-.61-1.49-1.99-2.83-2.37-4.38,0-.03-.05-.02-.05,.01,.02,1.33,.56,2.69,1.13,4.03-.14-.26-.29-.52-.45-.78-.06-.1-.26-.07-.22,.07,.41,1.48,.62,3.03,.95,4.55,.05,2.05,.41,4.13-.02,6.2-.25,1.19,1.24,3.1,1.76,4.13,.6,1.2,.45,3.73,.5,5.16-.28,.09-.64,.05-1.44,.1-1.42,.08-2.89,.26-4.32,.26-.33,0-.65-2.03-1.2-2.4-.6-.4-1.91-.38-2.49,.08-1.25,.99-.27,4.58,1.23,5.01,3.33,.97,6.92-.26,10.26-.78,.94,.92,2.77,1.25,3.59,.1,1.59-2.21-1.7-2.96-3.31-2.77Z"/>
          <path class="cls-12" d="M56.38,103.07c0-.06,0-.12-.01-.18-.09-.49-.43-.78-.9-.88-.49-.1-.9-.02-1.38,.1-.28,.07-1.54-1.83-1.8-2.07-.91-.86-1.69-1.83-2.41-2.84,.09-.94,.06-1.89,.06-2.86,0-1.38,.59-2.23,.99-3.52,.59-1.88,.01-3.98-.9-5.77,.07-.49,.13-.92,.16-1.17,.23-1.8,.27-3.58-.34-5.3-.04-.11-.21-.09-.24,.01-.03,.09-.06,.19-.08,.28-.02-.03-.06-.05-.1-.04-.6,.31-.92,1.11-1.1,2.08-.06-.49-.16-.98-.34-1.49-.03-.09-.16-.08-.19,0-.17,.51-.31,1.04-.44,1.59-.15-.46-.33-.91-.51-1.35-.06-.14-.25-.11-.3,.02-.55,1.42-.11,2.96,.02,4.43,.05,.56,0,1.12,0,1.68-.57,1.61-.83,3.54,.11,4.83,1.07,1.49,.64,3.46,.74,5.28-.44-.12-.91-.03-1.23,.38-.79,1.02,.23,2.79,1.47,2.86,.03,0,.04,0,.07,.01,.14,1.03,1.37,2.01,1.97,2.72,.46,.55,.91,1.13,1.36,1.7,.48,.61,1.17,.97,1.64,1.59,.66,.87,2.5,.91,3.32,.23,.69-.58,.77-1.6,.37-2.32Z"/>
          <path class="cls-12" d="M69.1,96.5c-1.22-.02-1.91,.98-2.79,1.33-.68-.22-1.35-.45-1.95-.73-.75-.35-1.46-.51-2.14-.63,0,0-.02,0-.03-.02-.45-.22-2.34-.8-3-1.31,0-.15-.01-.31-.02-.46,.09-.73,.2-1.46,.18-2.18-.02-.6,.04-1.21-.03-1.78,.46-1.02,.34-2.01,.1-3.08,0-.89-.23-1.75-.41-2.62-.06-.75-.1-1.5-.17-2.24,.09-.7,.76-5.03,.1-5.08-.76-.06-1.19,1.57-1.45,2.82,0-.42,0-.85-.08-1.27-.07-.37-.38-.51-.66-.47-.05-.73-.12-1.45-.27-2.19,0-.03-.04-.03-.05,0-.3,.51-.47,1.06-.58,1.64-.37-.83-1.15-2.38-1.69-2.33-.02,0-.04,0-.06,0-.13,.01-.25,.08-.28,.22-.11,.49-.06,.91,.15,1.4,.66,1.55,.92,3.18,1.19,4.82,.24,1.41,.26,2.93,.36,4.36,.05,.7-.24,3.99,.62,4.95-.08,1.07,.11,2.21,.35,3.31-.22,.02-.44,.06-.67,.12-.9,.25-1.62,1.54-.89,2.36,1.41,1.61,3.71,.49,5.6,1.27,1.37,.56,3.42,1.55,4.87,1.55,1.08,0,3.96,1.29,4.59-.34,.39-1,1-3.39-.87-3.42Z"/>
          <path class="cls-6" d="M67.47,55.13c-3.88-4.42,2.65-6.34,5.92-7.75,5.97-2.57,10.79-7.32,9.4-14.38-1.39-7.07-8-9.51-14.45-8.18-.93,.19-3.52,1.42-4.24,.45-.63-.87,.93-4.47,1.08-5.43,.98-6.27-2.9-8.79-8.73-6.95-3.03,.96-7.58,5.15-10.8,3.91-1.43-.55-2.68-1.99-4.06-2.71-1.98-1.03-4.24-1.74-6.48-1.82-2.96-.1-4.93,1.29-5.42,4.22-.44,2.63,1.48,6.16-2.07,6.57-3.32,.38-6.3-1.52-9.42,.71-2.58,1.85-3.7,5.44-2.36,8.36,1.89,4.11,6.73,2.85,9.58,5.52,1.55,1.46,1.79,3.43,1.88,5.46-.04,.08-.07,.17-.12,.25-1.25,2.42-3.48,4.04-4.05,6.85-.84,4.17,1.7,5.64,4.29,7.16-3.39,4.41-8.71,8.44-7.89,14.57,1.24,9.21,10.11,12.54,17.33,8.64,.82,1.25,1.21,2.86,2.74,3.68,6.05,3.26,8.55-4.94,13.44-6.12,.46-.1,1.1-.16,1.41-.04,.77,.29,1.45,.93,2.24,1.59,4.52,3.77,8.77,6.54,14.63,3.43,5.26-2.79,11.55-10.07,9.35-16.49-2.05-5.98-9.39-7.18-13.22-11.53Z"/>
          <path class="cls-4" d="M66.3,54.72c-3.64-4.14,2.48-5.94,5.54-7.25,5.59-2.41,10.1-6.85,8.8-13.46-1.3-6.62-7.48-8.9-13.52-7.66-.87,.18-3.3,1.33-3.97,.42-.59-.81,.87-4.18,1.01-5.09,.92-5.87-2.71-8.23-8.17-6.5-2.84,.9-7.1,4.82-10.11,3.66-1.34-.52-2.5-1.86-3.8-2.54-1.85-.96-3.97-1.63-6.06-1.7-2.77-.09-4.61,1.2-5.08,3.95-.41,2.46,1.38,5.77-1.93,6.15-3.11,.35-5.9-1.42-8.82,.67-2.42,1.73-3.46,5.1-2.21,7.83,1.77,3.84,6.3,2.66,8.96,5.17,1.45,1.37,1.68,3.21,1.76,5.11-.04,.08-.07,.16-.11,.23-1.17,2.26-3.26,3.78-3.79,6.42-.79,3.9,1.59,5.28,4.02,6.7-3.18,4.12-8.15,7.9-7.38,13.64,1.16,8.62,9.46,11.74,16.22,8.09,.77,1.17,1.13,2.68,2.56,3.45,5.67,3.05,8.01-4.62,12.58-5.72,.43-.09,1.03-.15,1.32-.04,.72,.27,1.36,.87,2.1,1.49,4.23,3.53,8.21,6.12,13.69,3.21,4.92-2.61,10.81-9.43,8.75-15.44-1.92-5.59-8.79-6.72-12.37-10.79Z"/>
          <path class="cls-4" d="M64.61,54.12c-3.28-3.73,2.24-5.35,4.99-6.54,5.04-2.17,9.1-6.17,7.93-12.13-1.17-5.96-6.74-8.02-12.18-6.9-.79,.16-2.97,1.2-3.57,.38-.53-.73,.79-3.77,.91-4.58,.83-5.29-2.45-7.42-7.36-5.86-2.56,.81-6.4,4.35-9.11,3.3-1.21-.47-2.26-1.68-3.43-2.29-1.67-.87-3.57-1.47-5.46-1.53-2.5-.08-4.16,1.08-4.57,3.56-.37,2.22,1.25,5.2-1.74,5.54-2.8,.32-5.32-1.28-7.95,.6-2.18,1.56-3.12,4.59-1.99,7.05,1.59,3.46,5.68,2.4,8.08,4.66,1.31,1.23,1.51,2.89,1.58,4.61-.03,.07-.06,.14-.1,.21-1.05,2.04-2.93,3.41-3.41,5.78-.71,3.51,1.44,4.76,3.62,6.04-2.86,3.71-7.34,7.12-6.65,12.29,1.04,7.77,8.53,10.58,14.62,7.29,.69,1.06,1.02,2.41,2.31,3.11,5.11,2.75,7.21-4.16,11.34-5.16,.39-.08,.93-.13,1.19-.04,.65,.24,1.22,.78,1.89,1.34,3.81,3.18,7.4,5.52,12.34,2.89,4.44-2.35,9.74-8.5,7.88-13.91-1.73-5.04-7.92-6.05-11.15-9.73Z"/>
          <g>
            <path class="cls-3" d="M22.71,34.06c-2.77,0-5.03-2.26-5.03-5.03,0-.25,.03-.5,.08-.8,.38-2.44,2.47-4.23,4.95-4.23,2.77,0,5.03,2.26,5.03,5.03s-2.26,5.03-5.03,5.03Z"/>
            <path class="cls-9" d="M22.71,34.06c-2.77,0-5.03-2.26-5.03-5.03,0-.25,.03-.5,.08-.8,.38-2.44,2.47-4.23,4.95-4.23,2.77,0,5.03,2.26,5.03,5.03s-2.26,5.03-5.03,5.03Z"/>
            <g>
              <g>
                <path class="cls-1" d="M18.56,29.03c0,2.29,1.86,4.15,4.16,4.15s4.16-1.86,4.16-4.15-1.86-4.16-4.16-4.16-4.16,1.86-4.16,4.16Z"/>
                <path class="cls-11" d="M18.71,27.97c.13,2.18,1.92,3.91,4.13,3.91,1.93,0,3.53-1.31,4-3.09,0,.08,.02,.16,.02,.25,0,2.29-1.86,4.15-4.16,4.15s-4.16-1.86-4.16-4.15c0-.37,.06-.72,.16-1.06Z"/>
              </g>
              <g>
                <path d="M21.16,29.8c.86,.76,2.16,.68,2.92-.17,.76-.86,.68-2.16-.17-2.93-.86-.76-2.17-.68-2.93,.17-.76,.86-.68,2.16,.17,2.92Z"/>
                <path class="cls-1" d="M22.13,27.89c.34,.3,.87,.27,1.17-.07,.3-.34,.27-.86-.07-1.17-.34-.3-.86-.27-1.17,.07-.3,.34-.27,.86,.07,1.17Z"/>
              </g>
            </g>
          </g>
          <g>
            <path class="cls-3" d="M37.24,26.28c-2.48,0-4.5-2.02-4.5-4.5,0-.22,.02-.45,.07-.71,.34-2.19,2.21-3.79,4.43-3.79,2.48,0,4.5,2.02,4.5,4.5s-2.02,4.5-4.5,4.5Z"/>
            <path class="cls-9" d="M37.24,26.28c-2.48,0-4.5-2.02-4.5-4.5,0-.22,.02-.45,.07-.71,.34-2.19,2.21-3.79,4.43-3.79,2.48,0,4.5,2.02,4.5,4.5s-2.02,4.5-4.5,4.5Z"/>
            <g>
              <g>
                <path class="cls-1" d="M33.52,21.78c0,2.05,1.66,3.72,3.72,3.72s3.72-1.66,3.72-3.72-1.66-3.72-3.72-3.72-3.72,1.67-3.72,3.72Z"/>
                <path class="cls-11" d="M33.66,20.83c.12,1.95,1.72,3.5,3.69,3.5,1.72,0,3.16-1.18,3.58-2.77,0,.08,.02,.15,.02,.22,0,2.05-1.66,3.72-3.72,3.72s-3.72-1.66-3.72-3.72c0-.33,.06-.65,.14-.95Z"/>
              </g>
              <g>
                <path d="M35.85,22.47c.77,.68,1.94,.61,2.62-.16,.68-.77,.61-1.94-.16-2.62-.77-.68-1.94-.61-2.62,.16-.68,.77-.61,1.94,.16,2.62Z"/>
                <path class="cls-1" d="M36.72,20.76c.31,.27,.77,.24,1.05-.06,.27-.31,.24-.77-.06-1.05-.3-.27-.77-.24-1.04,.06-.27,.31-.24,.77,.06,1.04Z"/>
              </g>
            </g>
          </g>
          <g>
            <path class="cls-3" d="M54.45,29.42c-2.99,0-5.42-2.43-5.42-5.42,0-.26,.03-.54,.08-.86,.41-2.63,2.66-4.56,5.33-4.56,2.99,0,5.42,2.43,5.42,5.42s-2.43,5.42-5.42,5.42Z"/>
            <path class="cls-9" d="M54.45,29.42c-2.99,0-5.42-2.43-5.42-5.42,0-.26,.03-.54,.08-.86,.41-2.63,2.66-4.56,5.33-4.56,2.99,0,5.42,2.43,5.42,5.42s-2.43,5.42-5.42,5.42Z"/>
            <g>
              <g>
                <path class="cls-1" d="M49.97,24c0,2.47,2,4.48,4.48,4.48s4.48-2,4.48-4.48-2-4.48-4.48-4.48-4.48,2-4.48,4.48Z"/>
                <path class="cls-11" d="M50.14,22.86c.14,2.34,2.07,4.21,4.45,4.21,2.08,0,3.8-1.42,4.31-3.33,0,.09,.03,.18,.03,.27,0,2.47-2,4.48-4.48,4.48s-4.48-2-4.48-4.48c0-.4,.07-.78,.17-1.14Z"/>
              </g>
              <g>
                <path d="M52.78,24.83c.92,.82,2.33,.73,3.15-.19,.82-.92,.74-2.33-.19-3.15-.92-.82-2.33-.73-3.15,.19-.82,.92-.73,2.33,.19,3.15Z"/>
                <path class="cls-1" d="M53.82,22.77c.37,.33,.93,.29,1.26-.08,.33-.37,.29-.93-.08-1.26-.37-.33-.93-.29-1.26,.08-.33,.37-.29,.93,.08,1.26Z"/>
              </g>
            </g>
          </g>
          <g>
            <path class="cls-3" d="M69.67,73.32c-3.19,0-5.78-2.59-5.78-5.78,0-.28,.03-.57,.09-.92,.44-2.81,2.83-4.86,5.69-4.86,3.19,0,5.78,2.59,5.78,5.78s-2.59,5.78-5.78,5.78Z"/>
            <path class="cls-2" d="M69.67,73.32c-3.19,0-5.78-2.59-5.78-5.78,0-.28,.03-.57,.09-.92,.44-2.81,2.83-4.86,5.69-4.86,3.19,0,5.78,2.59,5.78,5.78s-2.59,5.78-5.78,5.78Z"/>
            <g>
              <g>
                <path class="cls-1" d="M64.89,67.54c0,2.64,2.14,4.77,4.78,4.77s4.78-2.14,4.78-4.77-2.14-4.77-4.78-4.77-4.78,2.14-4.78,4.77Z"/>
                <path class="cls-11" d="M65.07,66.32c.15,2.5,2.21,4.49,4.75,4.49,2.21,0,4.05-1.51,4.6-3.55,0,.1,.03,.19,.03,.29,0,2.64-2.14,4.77-4.78,4.77s-4.78-2.14-4.78-4.77c0-.42,.08-.83,.18-1.22Z"/>
              </g>
              <g>
                <path d="M67.89,68.42c.98,.87,2.49,.78,3.36-.2,.87-.98,.79-2.49-.2-3.36-.98-.87-2.49-.78-3.36,.2-.87,.98-.78,2.49,.2,3.36Z"/>
                <path class="cls-1" d="M69,66.22c.39,.35,.99,.31,1.34-.08,.35-.39,.31-.99-.08-1.34-.39-.35-.99-.31-1.34,.08-.35,.39-.31,.99,.08,1.34Z"/>
              </g>
            </g>
          </g>
          <g>
            <path class="cls-3" d="M71.85,42c-3.19,0-5.78-2.59-5.78-5.78,0-.28,.03-.57,.09-.92,.44-2.81,2.83-4.86,5.69-4.86,3.19,0,5.78,2.59,5.78,5.78s-2.59,5.78-5.78,5.78Z"/>
            <path class="cls-9" d="M71.85,42c-3.19,0-5.78-2.59-5.78-5.78,0-.28,.03-.57,.09-.92,.44-2.81,2.83-4.86,5.69-4.86,3.19,0,5.78,2.59,5.78,5.78s-2.59,5.78-5.78,5.78Z"/>
            <g>
              <g>
                <path class="cls-1" d="M67.07,36.22c0,2.64,2.14,4.77,4.77,4.77s4.78-2.14,4.78-4.77-2.14-4.77-4.78-4.77-4.77,2.14-4.77,4.77Z"/>
                <path class="cls-11" d="M67.25,35c.15,2.5,2.21,4.49,4.75,4.49,2.21,0,4.05-1.51,4.6-3.55,0,.1,.03,.19,.03,.29,0,2.64-2.14,4.77-4.78,4.77s-4.77-2.14-4.77-4.77c0-.42,.07-.83,.18-1.22Z"/>
              </g>
              <g>
                <path d="M70.07,37.11c.98,.87,2.49,.78,3.36-.2,.87-.98,.78-2.49-.2-3.36-.98-.87-2.49-.78-3.36,.2-.87,.98-.78,2.49,.2,3.36Z"/>
                <path class="cls-1" d="M71.18,34.91c.39,.35,1,.31,1.34-.08,.35-.39,.31-.99-.08-1.34-.39-.35-.99-.31-1.34,.08-.35,.39-.31,.99,.08,1.34Z"/>
              </g>
            </g>
          </g>
          <g>
            <path class="cls-3" d="M38.32,33.83c-1.34,0-2.42-1.09-2.42-2.42,0-.12,.01-.24,.04-.38,.18-1.18,1.19-2.04,2.39-2.04,1.34,0,2.42,1.09,2.42,2.42s-1.09,2.42-2.42,2.42Z"/>
            <path class="cls-2" d="M38.32,33.83c-1.34,0-2.42-1.09-2.42-2.42,0-.12,.01-.24,.04-.38,.18-1.18,1.19-2.04,2.39-2.04,1.34,0,2.42,1.09,2.42,2.42s-1.09,2.42-2.42,2.42Z"/>
            <g>
              <g>
                <path class="cls-1" d="M36.32,31.41c0,1.1,.9,2,2,2s2-.9,2-2-.9-2-2-2-2,.9-2,2Z"/>
                <path class="cls-11" d="M36.39,30.9c.06,1.05,.92,1.88,1.99,1.88,.93,0,1.7-.63,1.93-1.49,0,.04,.01,.08,.01,.12,0,1.1-.9,2-2,2s-2-.9-2-2c0-.18,.03-.35,.08-.51Z"/>
              </g>
              <g>
                <path d="M37.57,31.78c.41,.37,1.04,.33,1.41-.08,.37-.41,.33-1.04-.08-1.41-.41-.37-1.04-.33-1.41,.08-.37,.41-.33,1.04,.08,1.41Z"/>
                <path class="cls-1" d="M38.04,30.86c.16,.15,.42,.13,.56-.03,.15-.16,.13-.42-.03-.56-.16-.15-.41-.13-.56,.03-.15,.16-.13,.42,.03,.56Z"/>
              </g>
            </g>
          </g>
          <g>
            <path class="cls-3" d="M46.79,33.87c-1.34,0-2.42-1.09-2.42-2.42,0-.12,.01-.24,.04-.38,.18-1.18,1.19-2.04,2.38-2.04,1.34,0,2.42,1.09,2.42,2.42s-1.09,2.42-2.42,2.42Z"/>
            <path class="cls-2" d="M46.79,33.87c-1.34,0-2.42-1.09-2.42-2.42,0-.12,.01-.24,.04-.38,.18-1.18,1.19-2.04,2.38-2.04,1.34,0,2.42,1.09,2.42,2.42s-1.09,2.42-2.42,2.42Z"/>
            <g>
              <g>
                <path class="cls-1" d="M44.79,31.44c0,1.1,.9,2,2,2s2-.9,2-2-.9-2-2-2-2,.9-2,2Z"/>
                <path class="cls-11" d="M44.87,30.93c.06,1.05,.92,1.88,1.99,1.88,.93,0,1.7-.63,1.93-1.49,0,.04,.01,.08,.01,.12,0,1.1-.9,2-2,2s-2-.9-2-2c0-.18,.03-.35,.08-.51Z"/>
              </g>
              <g>
                <path d="M46.05,31.81c.41,.37,1.04,.33,1.41-.08,.37-.41,.33-1.04-.08-1.41-.41-.37-1.04-.33-1.41,.08-.37,.41-.33,1.04,.08,1.41Z"/>
                <path class="cls-1" d="M46.51,30.89c.16,.15,.42,.13,.56-.03,.15-.17,.13-.42-.03-.56-.16-.15-.42-.13-.56,.03-.15,.17-.13,.42,.03,.56Z"/>
              </g>
            </g>
          </g>
          <g>
            <path class="cls-3" d="M49.6,42.15c-1.34,0-2.42-1.09-2.42-2.42,0-.12,.01-.24,.04-.39,.18-1.18,1.19-2.04,2.39-2.04,1.34,0,2.42,1.09,2.42,2.42s-1.09,2.42-2.42,2.42Z"/>
            <path class="cls-2" d="M49.6,42.15c-1.34,0-2.42-1.09-2.42-2.42,0-.12,.01-.24,.04-.39,.18-1.18,1.19-2.04,2.39-2.04,1.34,0,2.42,1.09,2.42,2.42s-1.09,2.42-2.42,2.42Z"/>
            <g>
              <g>
                <path class="cls-1" d="M47.6,39.72c0,1.1,.9,2,2,2s2-.9,2-2-.9-2-2-2-2,.9-2,2Z"/>
                <path class="cls-11" d="M47.67,39.21c.06,1.05,.92,1.88,1.99,1.88,.93,0,1.7-.63,1.93-1.49,0,.04,.01,.08,.01,.12,0,1.1-.9,2-2,2s-2-.9-2-2c0-.18,.03-.35,.08-.51Z"/>
              </g>
              <g>
                <path d="M48.86,40.09c.41,.37,1.04,.33,1.41-.08,.37-.41,.33-1.04-.08-1.41-.41-.37-1.04-.33-1.41,.08-.37,.41-.33,1.04,.08,1.41Z"/>
                <path class="cls-1" d="M49.32,39.17c.16,.15,.42,.13,.56-.03,.15-.17,.13-.42-.03-.56-.16-.14-.42-.13-.56,.03-.15,.16-.13,.42,.03,.56Z"/>
              </g>
            </g>
          </g>
          <g>
            <path class="cls-3" d="M36.27,40.2c-1.07,.81-2.59,.59-3.39-.47-.07-.09-.14-.2-.2-.33-.56-1.05-.28-2.34,.68-3.07,1.07-.8,2.59-.59,3.39,.48,.81,1.07,.59,2.59-.47,3.39Z"/>
            <path class="cls-2" d="M36.27,40.2c-1.07,.81-2.59,.59-3.39-.47-.07-.09-.14-.2-.2-.33-.56-1.05-.28-2.34,.68-3.07,1.07-.8,2.59-.59,3.39,.48,.81,1.07,.59,2.59-.47,3.39Z"/>
            <g>
              <g>
                <path class="cls-1" d="M33.22,39.47c.67,.88,1.92,1.06,2.81,.39,.88-.67,1.06-1.92,.39-2.81-.67-.88-1.92-1.06-2.81-.39-.88,.67-1.06,1.92-.39,2.8Z"/>
                <path class="cls-11" d="M32.97,39.02c.68,.8,1.87,.94,2.72,.3,.74-.56,.98-1.53,.64-2.35,.03,.03,.06,.06,.08,.09,.67,.88,.49,2.14-.39,2.81-.88,.67-2.14,.49-2.81-.39-.11-.14-.18-.3-.25-.45Z"/>
              </g>
              <g>
                <path d="M34.44,39.01c.55,.04,1.03-.37,1.07-.91,.04-.55-.36-1.03-.91-1.07-.55-.04-1.03,.37-1.07,.92-.04,.55,.37,1.03,.91,1.07Z"/>
                <path class="cls-1" d="M34.26,37.99c.22,.02,.41-.15,.43-.37,.02-.22-.15-.41-.37-.43-.22-.02-.41,.15-.43,.37-.02,.22,.15,.41,.37,.43Z"/>
              </g>
            </g>
          </g>
          <g>
            <path class="cls-3" d="M41.85,37.39c-.86-.45-1.19-1.5-.74-2.36,.04-.08,.09-.15,.15-.23,.51-.69,1.44-.91,2.2-.51,.85,.44,1.19,1.5,.74,2.36-.44,.85-1.5,1.19-2.35,.74Z"/>
            <path class="cls-2" d="M41.85,37.39c-.86-.45-1.19-1.5-.74-2.36,.04-.08,.09-.15,.15-.23,.51-.69,1.44-.91,2.2-.51,.85,.44,1.19,1.5,.74,2.36-.44,.85-1.5,1.19-2.35,.74Z"/>
            <g>
              <g>
                <path class="cls-1" d="M41.37,35.18c-.37,.71-.09,1.58,.62,1.95,.71,.37,1.58,.09,1.95-.61,.37-.71,.09-1.58-.61-1.95-.71-.37-1.58-.09-1.95,.61Z"/>
                <path class="cls-11" d="M41.59,34.87c-.31,.69-.04,1.51,.65,1.86,.59,.31,1.3,.16,1.73-.31-.01,.03-.02,.05-.03,.08-.37,.71-1.24,.98-1.95,.61-.71-.37-.98-1.24-.62-1.95,.06-.11,.14-.21,.22-.3Z"/>
              </g>
              <g>
                <path d="M42.06,35.83c.14,.37,.56,.56,.93,.42,.37-.14,.56-.56,.42-.93-.14-.37-.56-.56-.93-.42-.37,.14-.56,.56-.41,.93Z"/>
                <path class="cls-1" d="M42.66,35.4c.06,.15,.22,.22,.37,.16,.15-.06,.22-.22,.16-.37-.06-.15-.22-.22-.37-.17-.15,.06-.22,.22-.17,.37Z"/>
              </g>
            </g>
          </g>
          <g>
            <path class="cls-3" d="M54.29,37.81c-.85-.44-1.19-1.5-.74-2.35,.04-.08,.09-.15,.15-.23,.51-.69,1.44-.91,2.2-.51,.85,.44,1.19,1.5,.74,2.36-.45,.85-1.5,1.19-2.36,.74Z"/>
            <path class="cls-2" d="M54.29,37.81c-.85-.44-1.19-1.5-.74-2.35,.04-.08,.09-.15,.15-.23,.51-.69,1.44-.91,2.2-.51,.85,.44,1.19,1.5,.74,2.36-.45,.85-1.5,1.19-2.36,.74Z"/>
            <g>
              <g>
                <path class="cls-1" d="M53.81,35.6c-.37,.71-.09,1.58,.61,1.95,.71,.37,1.58,.09,1.95-.61,.37-.71,.09-1.58-.61-1.95-.71-.37-1.58-.09-1.95,.61Z"/>
                <path class="cls-11" d="M54.03,35.29c-.31,.69-.03,1.51,.65,1.86,.59,.31,1.3,.16,1.73-.31-.01,.03-.02,.05-.03,.08-.37,.71-1.24,.98-1.95,.61-.71-.37-.98-1.24-.61-1.95,.06-.11,.14-.21,.22-.3Z"/>
              </g>
              <g>
                <path d="M54.49,36.25c.14,.37,.56,.56,.93,.42,.37-.14,.56-.56,.42-.93-.14-.37-.56-.56-.93-.42-.37,.14-.56,.56-.41,.93Z"/>
                <path class="cls-1" d="M55.1,35.82c.06,.15,.22,.22,.37,.16,.15-.06,.22-.22,.16-.37-.06-.15-.22-.22-.37-.17-.15,.06-.22,.22-.17,.37Z"/>
              </g>
            </g>
          </g>
          <g>
            <path class="cls-3" d="M56.03,42.32c-.86-.44-1.19-1.5-.74-2.35,.04-.08,.09-.15,.15-.23,.51-.69,1.44-.91,2.2-.51,.85,.44,1.19,1.5,.74,2.36-.44,.85-1.5,1.19-2.36,.74Z"/>
            <path class="cls-2" d="M56.03,42.32c-.86-.44-1.19-1.5-.74-2.35,.04-.08,.09-.15,.15-.23,.51-.69,1.44-.91,2.2-.51,.85,.44,1.19,1.5,.74,2.36-.44,.85-1.5,1.19-2.36,.74Z"/>
            <g>
              <g>
                <path class="cls-1" d="M55.56,40.11c-.37,.71-.09,1.58,.62,1.95,.71,.37,1.58,.09,1.95-.61,.37-.71,.09-1.58-.61-1.95-.71-.37-1.58-.09-1.95,.61Z"/>
                <path class="cls-11" d="M55.78,39.81c-.31,.69-.04,1.51,.65,1.87,.59,.31,1.3,.16,1.73-.31-.01,.03-.02,.05-.03,.08-.37,.71-1.24,.98-1.95,.61-.71-.37-.98-1.24-.62-1.95,.06-.11,.14-.21,.22-.3Z"/>
              </g>
              <g>
                <path d="M56.24,40.76c.14,.37,.56,.56,.93,.41,.37-.14,.56-.56,.42-.93-.14-.37-.56-.56-.93-.42-.37,.14-.56,.56-.41,.93Z"/>
                <path class="cls-1" d="M56.84,40.33c.06,.15,.22,.22,.37,.17,.15-.06,.22-.22,.17-.37-.06-.15-.22-.22-.37-.16-.15,.06-.22,.22-.17,.37Z"/>
              </g>
            </g>
          </g>
          <g>
            <path class="cls-3" d="M59.69,66.85c-1.36-.71-1.89-2.39-1.18-3.75,.06-.12,.14-.24,.24-.37,.81-1.1,2.29-1.45,3.51-.81,1.36,.71,1.89,2.39,1.18,3.75-.71,1.36-2.39,1.89-3.75,1.18Z"/>
            <path class="cls-2" d="M59.69,66.85c-1.36-.71-1.89-2.39-1.18-3.75,.06-.12,.14-.24,.24-.37,.81-1.1,2.29-1.45,3.51-.81,1.36,.71,1.89,2.39,1.18,3.75-.71,1.36-2.39,1.89-3.75,1.18Z"/>
            <g>
              <g>
                <path class="cls-1" d="M58.94,63.32c-.59,1.12-.15,2.51,.98,3.1,1.13,.59,2.52,.15,3.1-.98,.59-1.13,.15-2.52-.98-3.1-1.12-.59-2.52-.15-3.1,.98Z"/>
                <path class="cls-11" d="M59.28,62.83c-.49,1.1-.05,2.41,1.03,2.97,.95,.49,2.07,.26,2.75-.49-.02,.04-.03,.09-.05,.13-.59,1.12-1.97,1.56-3.1,.98-1.13-.59-1.56-1.98-.98-3.1,.09-.18,.22-.34,.35-.48Z"/>
              </g>
              <g>
                <path d="M60.02,64.36c.23,.59,.89,.89,1.48,.66,.59-.22,.89-.89,.66-1.48-.23-.59-.89-.89-1.48-.66-.59,.23-.89,.89-.66,1.48Z"/>
                <path class="cls-1" d="M60.98,63.67c.09,.24,.36,.35,.59,.26,.24-.09,.35-.35,.26-.59-.09-.23-.35-.35-.59-.26-.24,.09-.35,.36-.26,.59Z"/>
              </g>
            </g>
          </g>
          <path class="cls-10" d="M32.07,42.25c3.17,3.21,15.73,7.39,23.45,3.72,2.06-.98,4.7-2.32,5.81-4.33-1.14,7.08-6.81,14.97-10.24,16.92-1.64,.93-6.75,2.17-9.87,.5-2.82-1.52-3.19-4.96-4.57-8.38-1.55-3.82-4.58-8.43-4.58-8.43Z"/>
          <path class="cls-9" d="M59.9,43.35c-2.13,5.76-6.35,11.21-9.13,12.78-1.64,.93-6.75,2.17-9.86,.5-2.82-1.52-3.19-4.96-4.58-8.38-.6-1.49-1.44-3.1-2.22-4.51-.86-.5-1.56-1-2.03-1.49,0,0,3.03,4.61,4.58,8.43,1.39,3.42,1.75,6.86,4.57,8.38,3.11,1.67,8.23,.43,9.87-.5,3.44-1.95,9.11-9.85,10.24-16.92-.35,.63-.85,1.2-1.44,1.71Z"/>
          <g>
            <path class="cls-1" d="M49.16,47.38c-.09,1.18-.16,2.63-.14,4.25,.06,4.21,1.11,4.63,1.49,2.55,.34-1.86,1.37-3.5,1.93-7.19-1.06,.22-2.16,.35-3.28,.39Z"/>
            <path class="cls-1" d="M38.38,45.64c.2,1.48,.44,3.29,.72,5.22,.71,4.87,1.22,4.46,1.22,4.46,0,0,.28-4.42,.47-8.95-.83-.22-1.64-.46-2.41-.73Z"/>
            <path class="cls-1" d="M43.2,46.91c.11,.8,.23,1.64,.36,2.5,.71,4.87,1.22,4.46,1.22,4.46,0,0,.19-3.04,.37-6.67-.65-.08-1.3-.18-1.94-.29Z"/>
          </g>
          <path d="M15.46,19.14s-.06,.49,.02,1.21c.07,.72,.3,1.68,.85,2.48,.12,.21,.29,.38,.45,.56,.17,.16,.34,.33,.53,.44,.18,.14,.38,.22,.57,.32,.19,.09,.38,.13,.56,.2,.18,.04,.35,.06,.5,.09,.15,.04,.28,.02,.39,.03,.22,0,.34,.01,.34,.01h0s-.12,0-.34,.02c-.11,0-.24,.03-.4,0-.15-.01-.33-.02-.51-.05-.18-.05-.39-.08-.6-.15-.2-.09-.42-.16-.62-.29-.21-.11-.4-.27-.6-.44-.18-.18-.37-.36-.51-.57-.63-.83-.9-1.86-.98-2.62-.09-.77-.02-1.28-.02-1.28,.03-.39,.18-.72,.27-.74,.09-.01,.13,.28,.11,.65,0,.04,0,.08,0,.12Z"/>
          <path d="M17.74,17.76s-.1,.48-.15,1.21c-.02,.36-.02,.79,0,1.25,.04,.45,.09,.94,.22,1.4,.05,.24,.14,.46,.22,.68,.1,.21,.2,.43,.32,.61,.13,.19,.25,.37,.41,.5,.13,.16,.3,.26,.45,.37,.14,.12,.31,.15,.44,.23,.13,.07,.26,.09,.37,.12,.21,.05,.33,.08,.33,.08h0s-.12-.02-.34-.04c-.11-.01-.24-.02-.39-.08-.14-.06-.32-.08-.48-.19-.16-.1-.35-.19-.51-.35-.18-.14-.32-.31-.47-.5-.15-.19-.26-.41-.38-.63-.1-.23-.21-.46-.27-.71-.31-.98-.35-2-.3-2.76,.04-.76,.15-1.25,.15-1.25,.07-.39,.25-.69,.34-.7,.1,0,.1,.29,.05,.65,0,.04-.01,.08-.02,.12Z"/>
          <path d="M19.15,18.06s-.09,.4-.15,1.02c-.06,.62-.09,1.45,.02,2.27,.1,.82,.39,1.61,.8,2.08,.09,.13,.2,.22,.3,.3,.09,.09,.18,.15,.27,.19,.16,.09,.25,.14,.25,.14h0s-.1-.04-.27-.11c-.09-.03-.19-.09-.29-.16-.11-.07-.23-.15-.34-.27-.12-.11-.23-.24-.34-.4-.12-.15-.19-.33-.3-.5-.16-.37-.31-.78-.38-1.21-.17-.85-.16-1.71-.1-2.35,.06-.64,.16-1.06,.16-1.06,.06-.33,.23-.59,.32-.59,.1,0,.11,.25,.07,.56,0,.03-.01,.07-.02,.1Z"/>
          <path d="M20.96,18.2s-.1,.4-.26,1c-.08,.3-.16,.64-.25,1.01-.08,.37-.16,.77-.18,1.17-.04,.4-.02,.8,.06,1.15,.05,.17,.1,.35,.2,.48,.07,.16,.2,.25,.3,.36,.1,.11,.24,.15,.34,.22,.1,.07,.21,.08,.3,.11,.17,.05,.27,.08,.27,.08h0s0,0,0,0c0,0-.1-.02-.28-.05-.09-.02-.2-.02-.32-.08-.11-.06-.26-.09-.38-.19-.12-.1-.27-.2-.37-.36-.12-.14-.2-.32-.27-.51-.12-.38-.18-.81-.16-1.23,0-.42,.07-.84,.14-1.22,.07-.38,.16-.74,.23-1.04,.15-.59,.26-.99,.26-.99,.08-.3,.21-.55,.3-.56,.09-.02,.14,.24,.08,.56,0,.03-.01,.07-.02,.1Z"/>
          <path d="M22.48,19.04s-.06,.06-.14,.19c-.09,.13-.2,.32-.32,.56-.11,.24-.23,.54-.32,.86-.04,.16-.1,.33-.12,.51-.04,.17-.07,.35-.08,.53-.09,.72,0,1.45,.25,1.94,.05,.13,.12,.23,.19,.32,.06,.09,.12,.17,.18,.22,.12,.11,.18,.18,.18,.18h0s0,0,0,0c0,0-.08-.05-.21-.15-.07-.04-.14-.11-.22-.2-.08-.08-.17-.18-.24-.31-.08-.12-.15-.26-.21-.41-.07-.15-.1-.32-.15-.49-.07-.35-.11-.73-.09-1.11,0-.19,.02-.38,.05-.57,.02-.19,.07-.37,.11-.54,.09-.35,.21-.66,.32-.93,.12-.26,.25-.47,.34-.61,.09-.14,.17-.21,.16-.22,.18-.25,.46-.35,.53-.3,.08,.06-.03,.25-.18,.46l-.05,.07Z"/>
          <path d="M28.8,13.49s0,.02-.01,.07c0,.05-.03,.11-.02,.2,0,.09,.01,.2,.02,.32,.03,.12,.07,.26,.11,.41,.07,.14,.12,.3,.21,.46,.1,.15,.18,.33,.31,.48,.23,.33,.54,.64,.86,.93,.33,.29,.68,.54,1.03,.75,.35,.21,.7,.38,1.01,.48,.15,.06,.3,.11,.43,.13,.13,.03,.25,.06,.34,.06,.19,.02,.3,.02,.3,.02h0s0,0,0,0c0,0-.11,0-.31,.01-.1,.01-.22-.01-.35-.03-.14,0-.29-.04-.45-.09-.33-.07-.7-.22-1.08-.41-.38-.19-.77-.43-1.12-.71-.36-.28-.69-.6-.95-.95-.14-.16-.24-.35-.35-.52-.1-.18-.17-.35-.24-.52-.04-.17-.09-.33-.12-.47,0-.15-.02-.28-.02-.38-.01-.11,.01-.19,.02-.25,0-.06,.01-.09,.01-.09,.02-.19,.1-.35,.19-.46,.08-.11,.15-.17,.19-.16,.05,0,.06,.08,.06,.19,0,.11-.05,.23-.06,.39,0,.03,0,.07-.01,.1Z"/>
          <path d="M30.81,12.35s0,.08,0,.22c.02,.14,.04,.34,.07,.58,.02,.24,.11,.51,.17,.81,.05,.14,.1,.29,.15,.44,.05,.15,.1,.3,.18,.44,.07,.15,.14,.29,.21,.43,.09,.13,.17,.26,.26,.39,.15,.27,.37,.45,.53,.65,.08,.1,.17,.16,.25,.23,.08,.06,.15,.12,.2,.17,.11,.09,.18,.15,.18,.15h0s0,0,0,0c0,0-.07-.04-.2-.12-.06-.04-.14-.08-.23-.14-.08-.06-.19-.11-.28-.19-.18-.17-.44-.34-.62-.6-.1-.12-.2-.25-.31-.38-.08-.14-.17-.29-.26-.44-.09-.14-.16-.3-.22-.46-.06-.16-.13-.31-.18-.46-.07-.31-.17-.6-.2-.85-.03-.25-.05-.47-.07-.62,0-.15,0-.23,0-.23,0-.26,.09-.49,.18-.51,.09-.01,.17,.18,.19,.42,0,.03,0,.05,0,.08Z"/>
          <path d="M32.75,10.94s-.02,.09-.06,.25c-.03,.16-.06,.4-.11,.68-.06,.28-.04,.61-.08,.97,0,.18,.02,.36,.02,.54,0,.19,.02,.38,.06,.56,.04,.19,.07,.37,.1,.56,.06,.18,.12,.35,.17,.52,.1,.35,.3,.62,.41,.89,.06,.13,.15,.23,.22,.33,.07,.1,.13,.18,.18,.25,.1,.14,.15,.22,.15,.22h0s-.07-.07-.18-.2c-.06-.06-.13-.14-.21-.23-.08-.09-.18-.18-.26-.31-.15-.25-.38-.52-.51-.87-.07-.17-.15-.35-.23-.53-.06-.19-.1-.38-.15-.57-.06-.19-.08-.39-.1-.59-.02-.19-.05-.39-.05-.57,.02-.37,0-.72,.06-1.02,.05-.29,.08-.54,.11-.71,.04-.17,.07-.26,.07-.26,.08-.3,.22-.53,.31-.53,.09,0,.12,.24,.07,.53,0,.03-.01,.06-.02,.09Z"/>
          <path d="M35.41,10.82s-.04,.09-.11,.25c-.06,.16-.14,.39-.25,.67-.11,.28-.18,.62-.29,.97-.04,.18-.07,.37-.11,.56-.04,.19-.07,.38-.08,.58-.02,.2-.03,.39-.05,.59,0,.19,.01,.39,.02,.57-.01,.38,.09,.71,.12,1.01,.01,.15,.07,.28,.1,.4,.03,.12,.06,.22,.09,.3,.05,.17,.08,.27,.08,.27h0s0,0,0,0c0,0-.04-.09-.11-.25-.04-.08-.08-.18-.13-.29-.04-.12-.12-.24-.15-.39-.06-.3-.2-.64-.23-1.02-.02-.19-.04-.39-.07-.59,0-.2,0-.41,0-.61,0-.21,.02-.41,.05-.61,.03-.2,.05-.4,.09-.59,.1-.37,.16-.73,.28-1.01,.1-.29,.19-.53,.26-.7,.07-.16,.12-.25,.12-.25,.13-.29,.32-.5,.41-.49,.09,.02,.07,.26-.03,.55-.01,.03-.02,.06-.04,.09Z"/>
          <path d="M37.62,11.77s-.08,.05-.19,.17c-.12,.11-.27,.28-.44,.5-.17,.22-.34,.5-.5,.81-.15,.31-.29,.66-.39,1.03-.1,.36-.17,.73-.19,1.09-.03,.35-.01,.69,.03,.97,0,.14,.05,.27,.07,.38,.02,.12,.05,.21,.08,.29,.06,.16,.09,.25,.09,.25h0s0,0,0,0c0,0-.04-.09-.12-.24-.04-.07-.08-.17-.12-.28-.04-.11-.09-.24-.12-.38-.07-.28-.13-.63-.13-1,0-.37,.03-.77,.11-1.15,.08-.39,.21-.77,.36-1.11,.15-.34,.34-.64,.52-.89,.18-.24,.36-.43,.49-.55,.13-.12,.21-.18,.21-.18,.24-.21,.54-.26,.59-.2,.03,.03,.01,.1-.04,.17-.05,.08-.15,.15-.25,.26l-.07,.06Z"/>
          <path d="M39.08,12.35s-.05,.06-.13,.17c-.07,.12-.17,.29-.29,.49-.12,.2-.21,.46-.34,.72-.08,.28-.21,.57-.26,.88-.03,.15-.06,.31-.09,.46-.02,.15-.02,.31-.03,.45-.04,.3,.01,.57,.02,.81,.01,.24,.09,.43,.11,.57,.03,.14,.05,.22,.05,.22h0s0,0,0,0c0,0-.03-.08-.08-.21-.04-.13-.15-.32-.2-.56-.04-.24-.13-.52-.12-.83,0-.15-.01-.32-.01-.48,.02-.16,.04-.33,.06-.49,.03-.33,.15-.65,.22-.95,.12-.29,.21-.56,.34-.78,.13-.22,.23-.4,.31-.52,.09-.12,.14-.18,.14-.18,.16-.2,.36-.33,.44-.28,.08,.04,.03,.24-.1,.44l-.04,.06Z"/>
          <path d="M48.36,12.36s-.02,.02-.05,.07c-.03,.05-.1,.1-.14,.2-.04,.1-.09,.21-.15,.35-.04,.14-.06,.31-.1,.49,0,.19-.02,.39,0,.6,.04,.21,.04,.44,.12,.67,.1,.47,.31,.94,.55,1.4,.24,.46,.53,.9,.83,1.28,.31,.38,.62,.72,.93,.96,.15,.13,.29,.24,.43,.32,.13,.09,.25,.17,.36,.21,.21,.1,.33,.15,.33,.15h0s0,0,0,0c0,0-.12-.04-.34-.12-.12-.03-.23-.11-.38-.18-.15-.07-.3-.17-.46-.29-.33-.23-.68-.55-1.02-.91-.34-.37-.66-.81-.93-1.27-.26-.47-.5-.96-.62-1.46-.09-.24-.1-.5-.14-.73-.02-.24-.01-.47,0-.68,.04-.21,.07-.4,.12-.57,.07-.16,.13-.3,.18-.41,.05-.12,.13-.18,.17-.24,.04-.05,.06-.08,.06-.08,.13-.19,.31-.29,.45-.36,.14-.07,.24-.09,.28-.07,.04,.03,0,.11-.06,.21-.06,.11-.2,.2-.31,.36-.02,.03-.05,.07-.07,.09Z"/>
          <path d="M50.55,12.85s-.06,.07-.12,.22c-.07,.15-.15,.37-.22,.64-.06,.28-.11,.61-.11,.97,0,.36,.04,.75,.12,1.13,.08,.38,.2,.76,.35,1.09,.14,.34,.32,.64,.49,.88,.17,.24,.34,.43,.47,.54,.13,.12,.2,.19,.2,.19h0s0,0,0,0c0,0-.08-.06-.23-.16-.15-.1-.34-.27-.54-.49-.21-.23-.42-.52-.59-.86-.19-.34-.33-.72-.44-1.12-.11-.4-.17-.81-.18-1.2-.01-.39,.03-.75,.09-1.06,.07-.31,.17-.55,.25-.72,.08-.17,.14-.26,.14-.26,.16-.29,.45-.43,.52-.39,.04,.02,.04,.09,0,.18-.02,.1-.1,.19-.16,.33-.01,.03-.03,.05-.04,.08Z"/>
          <path d="M52.49,13.59s-.04,.06-.09,.18c-.04,.12-.1,.29-.18,.5-.04,.1-.05,.22-.08,.35-.02,.12-.05,.25-.08,.39,0,.27-.07,.57-.02,.87,.01,.15,.02,.3,.03,.44,.03,.14,.07,.28,.1,.42,.02,.14,.06,.27,.12,.38,.05,.12,.1,.23,.14,.34,.03,.11,.11,.19,.15,.27,.05,.08,.1,.14,.13,.2,.08,.11,.12,.18,.12,.18h0s-.05-.05-.14-.15c-.05-.05-.1-.11-.17-.18-.06-.07-.15-.14-.2-.25-.06-.1-.12-.21-.19-.33-.08-.11-.13-.25-.17-.39-.05-.14-.1-.29-.15-.43-.02-.15-.05-.31-.07-.47-.07-.31-.02-.63-.03-.93,.02-.15,.05-.29,.07-.43,.03-.13,.04-.27,.08-.38,.08-.23,.15-.41,.19-.55,.06-.13,.11-.2,.11-.2,.13-.22,.3-.36,.38-.33,.08,.03,.07,.23-.02,.44l-.03,.06Z"/>
          <path d="M54.28,13.68s-.05,.05-.13,.15c-.07,.1-.17,.25-.26,.45-.09,.2-.17,.45-.22,.72-.05,.28-.1,.58-.11,.89-.04,.61,0,1.24,.04,1.7,.05,.47,.08,.78,.08,.78h0s0,0,0,0c0,0-.09-.3-.2-.76-.1-.46-.21-1.09-.22-1.73-.01-.32,.02-.64,.06-.95,.05-.3,.13-.58,.23-.81,.1-.23,.22-.41,.31-.53,.09-.12,.16-.18,.16-.18,.18-.2,.44-.25,.49-.19,.03,.03,.02,.09,0,.16-.03,.07-.1,.14-.16,.23l-.04,.05Z"/>
          <path d="M56.03,14.64s-.05,.04-.11,.13c-.06,.1-.14,.23-.24,.4-.05,.08-.08,.19-.13,.29-.04,.1-.1,.21-.13,.32-.06,.24-.16,.48-.19,.75-.02,.13-.05,.26-.07,.39,0,.13-.02,.26-.03,.38-.03,.25,0,.48,0,.69,0,.2,.04,.37,.05,.49,.02,.12,.02,.19,.02,.19h0s0,0,0,0c0,0-.02-.06-.06-.18-.03-.11-.1-.28-.14-.48-.03-.2-.09-.44-.09-.7,0-.13,0-.27-.01-.4,.01-.14,.02-.28,.03-.41,0-.28,.1-.55,.15-.81,.03-.13,.09-.24,.13-.36,.05-.11,.08-.22,.13-.32,.11-.18,.2-.34,.27-.44,.07-.1,.13-.15,.13-.15,.16-.17,.34-.25,.41-.19,.07,.06,.03,.23-.08,.39l-.04,.05Z"/>
          <path d="M57.99,16.24s-.04,.04-.1,.1c-.06,.07-.13,.18-.23,.31-.1,.12-.16,.3-.27,.48-.04,.09-.07,.19-.11,.29-.03,.1-.08,.2-.1,.31-.05,.21-.1,.43-.11,.63-.03,.21-.01,.4-.01,.57,0,.17,.04,.3,.05,.4,.02,.1,.03,.16,.03,.16h0s0,0,0,0c0,0-.02-.05-.06-.14-.03-.09-.11-.22-.14-.39-.03-.17-.09-.37-.09-.59-.02-.22,0-.45,.03-.69,0-.12,.04-.23,.07-.35,.03-.11,.06-.23,.1-.33,.1-.2,.17-.4,.28-.55,.11-.15,.2-.27,.26-.35,.08-.07,.12-.11,.12-.11,.14-.13,.31-.17,.38-.11,.06,.06,.03,.22-.08,.34l-.04,.04Z"/>
          <path d="M59.87,17.61s-.18,.12-.44,.32c-.13,.1-.27,.23-.43,.36-.14,.15-.31,.29-.44,.46l-.2,.25c-.06,.09-.11,.18-.16,.27-.12,.17-.16,.36-.23,.51-.04,.08-.04,.15-.06,.22-.01,.07-.03,.12-.04,.17-.02,.1-.03,.15-.03,.15h0s0-.06,0-.16c0-.05,0-.11,0-.18,0-.07-.01-.15,.01-.24,.04-.16,.05-.38,.15-.58,.04-.1,.09-.21,.13-.31l.19-.29c.26-.39,.61-.71,.88-.93,.27-.21,.47-.34,.47-.34,.15-.09,.32-.11,.38-.04,.06,.07,0,.21-.13,.32l-.04,.03Z"/>
          <path d="M64.78,25.61s-.05,.1-.14,.29c-.02,.1-.05,.22-.08,.36-.05,.13-.02,.3-.04,.47-.02,.17,.04,.36,.06,.56,.06,.2,.11,.41,.2,.61,.17,.42,.42,.84,.73,1.22,.15,.19,.32,.37,.49,.54,.18,.16,.35,.34,.54,.47,.18,.14,.36,.28,.55,.38,.18,.12,.36,.21,.53,.28,.16,.09,.33,.14,.47,.19,.14,.05,.27,.09,.38,.1,.22,.04,.34,.06,.34,.06h0s0,0,0,0c0,0-.13,0-.34-.03-.11,0-.24-.03-.39-.07-.15-.03-.32-.07-.5-.15-.18-.06-.37-.14-.57-.25-.2-.09-.39-.22-.59-.35-.21-.12-.39-.29-.59-.45-.18-.17-.37-.35-.54-.54-.34-.39-.63-.82-.83-1.27-.1-.22-.16-.46-.23-.67-.03-.23-.09-.44-.07-.64,.01-.2-.01-.39,.04-.55,.04-.16,.07-.3,.1-.41,.1-.21,.16-.33,.16-.33,.08-.2,.23-.32,.34-.42,.11-.09,.2-.14,.25-.12,.04,.02,.04,.1,0,.21-.04,.11-.12,.25-.21,.41-.01,.03-.03,.07-.04,.1Z"/>
          <path d="M68.99,25.91s-.05,.06-.13,.16c-.04,.06-.08,.12-.13,.2-.06,.07-.09,.17-.14,.27-.2,.41-.34,1.02-.34,1.65-.01,.63,.13,1.25,.31,1.7,.09,.22,.18,.4,.26,.52,.08,.12,.12,.19,.12,.19h0s0,0,0,0c0,0-.05-.06-.15-.16-.09-.11-.22-.27-.34-.49-.25-.43-.47-1.07-.5-1.74-.05-.67,.08-1.35,.3-1.82,.06-.11,.1-.23,.16-.31,.06-.09,.11-.16,.15-.23,.1-.12,.16-.18,.16-.18,.18-.2,.43-.27,.49-.22,.07,.06-.02,.24-.17,.41l-.04,.06Z"/>
          <path d="M71.9,26.15s-.05,.04-.13,.14c-.08,.09-.18,.24-.29,.43-.21,.38-.41,.94-.52,1.52-.12,.58-.12,1.19-.04,1.63,.03,.22,.1,.4,.14,.52,.05,.12,.09,.19,.09,.19h0s0,0,0,0c0,0-.04-.06-.12-.18-.07-.11-.16-.29-.23-.51-.15-.44-.22-1.08-.14-1.7,.07-.62,.26-1.23,.49-1.66,.12-.21,.23-.38,.33-.49,.08-.12,.15-.17,.15-.17,.18-.19,.44-.23,.49-.17,.06,.08-.04,.22-.17,.38l-.05,.05Z"/>
          <path d="M74.95,26.85s-.06,.02-.17,.07c-.1,.06-.26,.13-.41,.27-.16,.13-.33,.3-.48,.51-.15,.21-.28,.46-.39,.73-.21,.53-.29,1.12-.3,1.55,0,.44,.05,.74,.05,.74h0s0,0,0,0c0,0-.02-.07-.06-.2-.04-.12-.08-.31-.11-.53-.06-.45-.05-1.07,.13-1.66,.09-.3,.22-.58,.38-.83,.16-.25,.35-.46,.54-.61,.18-.16,.37-.25,.49-.31,.13-.05,.21-.08,.21-.08,.24-.09,.47-.03,.5,.05,.03,.09-.12,.2-.31,.28l-.06,.03Z"/>
          <path d="M77.56,28.18s-.06,.03-.16,.09c-.09,.07-.22,.17-.38,.29-.16,.12-.32,.29-.5,.45-.16,.19-.36,.37-.5,.59l-.23,.32c-.07,.11-.12,.23-.19,.34-.14,.21-.19,.44-.27,.63-.08,.19-.08,.36-.11,.48-.02,.12-.04,.19-.04,.19h0s0-.07,0-.19c0-.12-.02-.3,.03-.5,.05-.2,.07-.45,.18-.69,.05-.12,.09-.25,.15-.38,.07-.12,.14-.24,.21-.36,.14-.25,.33-.46,.5-.67,.19-.18,.36-.37,.53-.5,.17-.13,.31-.23,.41-.31,.11-.06,.17-.1,.17-.1,.19-.11,.4-.13,.45-.06s-.04,.23-.2,.35l-.05,.03Z"/>
          <path d="M78.81,31.03s-.06,0-.16,0c-.1,.02-.25,.05-.43,.09-.09,0-.18,.07-.28,.1-.1,.04-.2,.08-.3,.13-.1,.06-.2,.13-.3,.2-.11,.06-.2,.14-.29,.23-.09,.09-.19,.17-.27,.26-.08,.1-.15,.2-.22,.29-.17,.18-.23,.4-.33,.56-.05,.08-.06,.17-.09,.25-.02,.08-.04,.14-.06,.2-.03,.11-.05,.17-.05,.17h0s0,0,0,0c0,0,0-.07,.02-.18,0-.06,.01-.13,.02-.21,.01-.08,0-.18,.05-.27,.08-.18,.11-.43,.26-.64,.07-.11,.13-.22,.2-.34,.08-.11,.18-.21,.27-.31,.09-.11,.18-.21,.3-.28,.11-.08,.22-.16,.32-.24,.11-.06,.23-.11,.34-.16,.11-.04,.21-.11,.32-.12,.21-.04,.38-.08,.5-.1,.12,0,.2,0,.2,0,.22,.02,.4,.11,.4,.19,0,.09-.16,.17-.34,.18h-.06Z"/>
          <path d="M79.7,33.97s-.27-.08-.7-.14c-.42-.06-.99-.09-1.55,0-.28,.05-.55,.13-.79,.24-.24,.11-.44,.26-.61,.4-.09,.07-.14,.15-.21,.21-.06,.06-.11,.13-.14,.18-.07,.11-.12,.17-.12,.17h0s.03-.07,.09-.18c.03-.06,.06-.13,.11-.21,.05-.07,.1-.17,.18-.25,.15-.17,.34-.36,.59-.51,.24-.16,.53-.27,.83-.35,.59-.16,1.22-.15,1.66-.08,.45,.06,.74,.15,.74,.15,.23,.06,.39,.21,.38,.3-.01,.09-.2,.12-.41,.08h-.07Z"/>
          <path d="M79,36.71s-.03-.03-.11-.04c-.04-.01-.08-.02-.13-.04-.05-.01-.11-.04-.18-.04-.14,0-.29-.06-.47-.04-.17,0-.36,0-.54,.03-.19,.01-.37,.07-.54,.11-.17,.04-.32,.12-.46,.17-.13,.06-.23,.14-.3,.18-.07,.05-.12,.07-.12,.07h0s.03-.04,.09-.1c.06-.06,.14-.16,.26-.25,.13-.08,.27-.2,.44-.27,.18-.07,.36-.17,.57-.2,.2-.06,.4-.08,.6-.09,.19-.03,.38,.02,.54,.03,.08,0,.15,.04,.21,.05,.06,.02,.12,.04,.16,.05,.09,.02,.14,.06,.14,.06,.15,.09,.23,.23,.19,.31-.05,.07-.19,.09-.31,.05l-.04-.02Z"/>
          <path d="M55.5,59.67s-.01,.32,.13,.76c.13,.45,.46,.99,.95,1.4,.24,.2,.51,.39,.78,.51,.27,.14,.54,.23,.78,.29,.24,.06,.44,.1,.58,.11,.14,.02,.23,.03,.23,.03h0s-.08,0-.23,0c-.15,0-.35,0-.61-.03-.25-.04-.54-.09-.84-.21-.3-.1-.6-.28-.88-.48-.28-.2-.52-.46-.71-.72-.18-.27-.33-.55-.4-.8-.09-.25-.11-.47-.13-.62,0-.15,0-.24,0-.24,0-.27,.11-.5,.2-.51,.09,0,.16,.18,.17,.42,0,.02,0,.05,0,.08Z"/>
          <path d="M58.35,58.63s-.12,.21-.17,.58c-.06,.36-.02,.88,.13,1.37,.14,.5,.39,.96,.62,1.28,.23,.32,.43,.5,.43,.5h0s0,0,0,0c0,0-.24-.13-.53-.42-.29-.29-.62-.74-.82-1.26-.21-.52-.28-1.09-.21-1.52,.05-.43,.21-.69,.21-.69,.1-.21,.29-.31,.37-.27,.08,.04,.06,.21,0,.38l-.02,.06Z"/>
          <path d="M61.13,59.03s-.03,.05-.08,.14c-.04,.1-.09,.23-.15,.39-.04,.08-.05,.18-.07,.27-.02,.1-.05,.2-.07,.31,0,.22-.06,.46-.04,.69,0,.12,.01,.24,.02,.35,.02,.11,.04,.23,.06,.34,.03,.23,.13,.41,.19,.59,.06,.17,.17,.29,.22,.38,.06,.09,.09,.15,.09,.15h0s-.04-.04-.12-.12c-.07-.08-.2-.18-.3-.35-.09-.17-.23-.35-.29-.58-.04-.11-.08-.23-.12-.35-.02-.13-.04-.25-.06-.38-.05-.26,0-.51-.01-.76,.02-.12,.04-.24,.06-.35,.02-.11,.03-.22,.07-.31,.07-.18,.13-.34,.17-.44,.05-.1,.09-.16,.09-.16,.11-.17,.27-.28,.35-.24,.08,.04,.08,.21,0,.37l-.03,.05Z"/>
          <path d="M63.87,59.55s-.03,.04-.09,.11c-.05,.07-.11,.19-.19,.32-.09,.13-.12,.3-.21,.48-.03,.09-.04,.19-.07,.29-.02,.1-.05,.2-.05,.3l-.02,.31c0,.1,.02,.2,.03,.3,0,.2,.09,.36,.13,.52,.05,.15,.13,.26,.17,.35,.04,.09,.07,.13,.07,.13h0s-.04-.04-.1-.11c-.06-.08-.17-.17-.25-.32-.07-.15-.2-.32-.24-.53-.03-.1-.06-.21-.08-.32,0-.11-.01-.23-.02-.34-.01-.12,0-.23,.02-.34,.02-.11,.02-.23,.06-.33,.08-.2,.12-.41,.21-.55,.09-.15,.15-.28,.21-.36,.07-.08,.1-.12,.1-.12,.12-.14,.28-.2,.35-.15,.07,.05,.06,.21-.03,.34l-.03,.04Z"/>
          <path d="M66.72,60.47s-.22,.1-.53,.3c-.3,.2-.69,.49-.96,.88-.14,.19-.25,.4-.3,.62-.07,.21-.06,.43-.05,.61,.03,.18,.06,.33,.1,.44,.04,.1,.06,.16,.06,.16h0s0,0,0,0c0,0-.03-.05-.09-.15-.06-.09-.12-.24-.19-.43-.05-.19-.09-.42-.05-.67,.03-.25,.12-.51,.26-.74,.27-.47,.69-.81,1.01-1.03,.33-.22,.57-.32,.57-.32,.18-.09,.38-.08,.42,0,.05,.08-.05,.21-.21,.31l-.05,.03Z"/>
          <path d="M69.13,58.82s-.15,.24-.27,.66c-.13,.41-.22,.99-.14,1.55,.04,.28,.11,.56,.24,.8,.06,.12,.13,.23,.21,.33,.07,.11,.17,.17,.24,.25,.17,.14,.33,.24,.45,.29,.12,.06,.19,.09,.19,.09h0s0,0,0,0c0,0-.07-.02-.2-.06-.13-.03-.31-.11-.51-.23-.09-.07-.21-.13-.29-.24-.09-.1-.19-.2-.27-.33-.17-.24-.29-.55-.35-.85-.13-.62-.06-1.26,.08-1.71,.13-.46,.3-.73,.3-.73,.11-.22,.32-.34,.4-.3,.08,.04,.05,.22-.04,.42l-.03,.06Z"/>
          <path d="M72.04,58.53s-.15,.23-.34,.61c-.19,.37-.41,.89-.52,1.43-.06,.27-.07,.54-.05,.8,.03,.25,.11,.48,.22,.65,.04,.1,.12,.15,.18,.22,.05,.07,.12,.11,.17,.15,.1,.08,.16,.12,.16,.12h0s-.06-.03-.18-.09c-.06-.03-.13-.06-.2-.12-.06-.06-.16-.11-.22-.21-.15-.17-.28-.41-.34-.69-.06-.28-.08-.59-.03-.88,.07-.6,.29-1.16,.48-1.55,.19-.4,.36-.64,.36-.64,.12-.19,.31-.3,.39-.27,.08,.04,.06,.22-.04,.41l-.03,.06Z"/>
          <path d="M73.89,60.02s-.19,.2-.4,.56c-.21,.36-.42,.89-.5,1.45-.05,.28-.05,.56-.03,.82,.03,.26,.08,.51,.17,.7,.08,.2,.17,.36,.26,.45,.08,.1,.13,.16,.13,.16h0s0,0,0,0c0,0-.06-.05-.15-.13-.1-.08-.22-.23-.34-.42-.12-.19-.22-.44-.28-.72-.06-.28-.08-.59-.06-.89,.04-.61,.24-1.2,.47-1.6,.22-.41,.45-.63,.45-.63,.16-.18,.39-.25,.45-.19,.07,.06,0,.23-.13,.39l-.04,.05Z"/>
          <path d="M76.05,61.58s-.21,.1-.48,.32c-.28,.21-.61,.54-.88,.92-.27,.38-.45,.82-.49,1.17-.02,.09-.01,.17-.02,.24,0,.07,0,.14,0,.19,.01,.11,.02,.17,.02,.17h0s0,0,0,0c0,0-.02-.06-.05-.16-.02-.05-.04-.11-.05-.19,0-.07-.03-.16-.03-.25-.02-.38,.09-.89,.35-1.33,.25-.44,.6-.82,.9-1.05,.3-.24,.53-.35,.53-.35,.18-.1,.38-.08,.42,0,.04,.08-.05,.21-.19,.31l-.05,.03Z"/>
          <path d="M77.6,64.32s-.27-.1-.71-.13c-.43-.04-1.03,.03-1.57,.27-.27,.12-.53,.27-.75,.44-.23,.17-.4,.37-.54,.55-.08,.09-.12,.18-.17,.26-.05,.08-.09,.15-.12,.21-.06,.12-.09,.19-.09,.19h0s0,0,0,0c0,0,.02-.07,.06-.21,.02-.07,.04-.15,.08-.23,.04-.09,.07-.19,.14-.29,.12-.21,.27-.44,.49-.65,.21-.22,.47-.41,.76-.56,.57-.31,1.24-.41,1.73-.37,.49,.03,.8,.15,.8,.15,.24,.08,.41,.26,.38,.34-.02,.09-.22,.09-.43,.04l-.07-.02Z"/>
          <path d="M77.63,67.25s-.26-.09-.65-.2c-.39-.1-.93-.22-1.46-.2-.27,0-.53,.05-.76,.14-.12,.04-.22,.1-.32,.16-.1,.05-.17,.14-.25,.2-.14,.15-.25,.28-.3,.39-.06,.11-.1,.17-.1,.17h0s0,0,0,0c0,0,.02-.07,.07-.18,.04-.12,.12-.28,.24-.46,.07-.08,.14-.18,.24-.26,.1-.08,.2-.16,.33-.23,.24-.14,.54-.22,.83-.25,.59-.07,1.17,.04,1.58,.14,.42,.11,.68,.21,.68,.21,.21,.08,.36,.22,.34,.31-.02,.09-.19,.11-.4,.06l-.06-.02Z"/>
          <path d="M33.97,29.55s.09,.1,.24,.26c.16,.14,.39,.33,.63,.52,.24,.19,.48,.38,.65,.54,.17,.16,.27,.28,.27,.28h0s-.14-.07-.34-.18c-.21-.1-.48-.23-.75-.39-.27-.15-.53-.33-.72-.49-.09-.09-.16-.16-.21-.21-.05-.05-.07-.09-.07-.09-.08-.11-.07-.24,0-.3,.07-.05,.2-.03,.27,.04l.02,.02Z"/>
          <path d="M35.03,28.94s0,.03,.02,.09c.02,.05,.05,.13,.09,.22,.08,.18,.22,.42,.39,.64,.33,.45,.78,.84,.78,.84h0s-.57-.2-1.01-.63c-.22-.21-.4-.47-.51-.68-.05-.11-.08-.2-.11-.26-.02-.07-.03-.11-.03-.11-.03-.12,.03-.24,.11-.26s.19,.04,.24,.13v.03Z"/>
          <path d="M42.02,28.2s-.08,.6-.38,1.14c-.08,.13-.16,.26-.26,.37-.08,.12-.2,.2-.29,.27-.08,.07-.18,.11-.24,.14-.06,.03-.09,.05-.09,.05h0s.03-.03,.07-.08c.04-.05,.11-.1,.17-.2,.06-.09,.14-.18,.19-.31,.06-.11,.11-.24,.16-.37,.19-.52,.29-1.09,.29-1.09,.02-.11,.12-.19,.21-.18,.09,0,.16,.1,.16,.22v.04Z"/>
          <path d="M42.79,28.7s-.13,.14-.32,.35c-.1,.1-.23,.21-.36,.33-.14,.11-.27,.25-.44,.35-.16,.1-.32,.21-.47,.3-.15,.1-.31,.16-.43,.22-.26,.12-.43,.2-.43,.2h0s.14-.12,.36-.3c.11-.09,.24-.18,.37-.3,.13-.12,.27-.24,.4-.36,.14-.11,.26-.26,.39-.37,.12-.12,.24-.23,.33-.33,.18-.2,.31-.34,.31-.34,.1-.1,.24-.14,.32-.09,.08,.05,.07,.18-.01,.31l-.03,.04Z"/>
          <path d="M44.08,27.69s-.03,.13-.03,.33c0,.05,.01,.11,.02,.16,0,.06,.02,.12,.03,.18,.05,.12,.06,.27,.13,.39,.05,.13,.12,.26,.2,.37,.06,.12,.16,.21,.23,.3,.07,.09,.15,.14,.2,.19,.05,.05,.08,.07,.08,.07h0s-.04-.01-.1-.04c-.06-.03-.16-.06-.26-.12-.09-.07-.22-.14-.32-.25-.11-.11-.21-.23-.3-.37-.1-.13-.14-.3-.21-.44-.02-.08-.03-.15-.05-.22,0-.07-.03-.14-.03-.2,0-.26,.03-.43,.04-.43,.04-.13,.15-.21,.23-.19,.08,.03,.15,.14,.14,.24v.03Z"/>
          <path d="M44.73,27.86s-.02,.1-.04,.24c-.01,.14-.02,.33,.02,.52,.01,.1,.05,.19,.08,.27,.03,.09,.08,.16,.12,.23,.09,.13,.16,.22,.16,.22h0s-.1-.05-.24-.14c-.06-.06-.15-.12-.22-.2-.07-.09-.14-.18-.18-.3-.1-.22-.12-.47-.11-.65,.01-.18,.05-.29,.05-.29,.03-.09,.12-.14,.21-.12,.09,.02,.16,.1,.16,.18v.02Z"/>
          <path d="M50.18,29.58s-.05,.11-.13,.27c-.04,.08-.11,.16-.18,.25-.08,.08-.14,.19-.24,.25-.09,.07-.19,.14-.28,.21-.08,.07-.19,.1-.26,.14-.16,.07-.26,.11-.26,.11h0s.08-.08,.19-.21c.05-.06,.13-.12,.19-.21,.06-.08,.13-.16,.2-.25,.08-.07,.11-.18,.17-.26,.05-.08,.11-.15,.14-.22,.07-.14,.12-.23,.12-.23,.04-.07,.14-.1,.23-.08,.09,.02,.14,.12,.12,.21v.03Z"/>
          <path d="M50.59,29.99s-.01,.03-.05,.08c-.04,.04-.09,.11-.15,.18-.14,.14-.34,.29-.57,.39-.22,.11-.47,.16-.65,.19-.18,.02-.3,.01-.3,.01h0s.11-.05,.27-.13c.15-.08,.35-.2,.53-.33,.18-.13,.34-.28,.45-.39,.1-.12,.16-.2,.16-.2,.04-.06,.15-.09,.23-.06,.09,.03,.13,.12,.1,.23v.03Z"/>
          <path d="M31.07,34.92s.06,.13,.16,.32c.04,.1,.12,.19,.19,.3,.08,.1,.13,.24,.24,.33,.1,.1,.2,.2,.29,.29,.09,.1,.21,.15,.29,.22,.18,.13,.3,.21,.3,.21h0s-.14-.04-.36-.11c-.1-.04-.24-.06-.36-.14-.12-.08-.25-.17-.38-.26-.14-.08-.21-.23-.31-.33-.09-.12-.19-.22-.23-.32-.1-.21-.17-.34-.17-.34-.05-.11-.02-.23,.06-.27,.08-.04,.2,0,.26,.08l.02,.03Z"/>
          <path d="M32,34.64s0,.03,0,.08c0,.05,.02,.12,.03,.2,.03,.17,.1,.38,.21,.59,.2,.42,.58,.78,.58,.78h0s-.12-.04-.29-.14c-.16-.1-.39-.26-.55-.48-.17-.21-.28-.47-.32-.68-.04-.2-.04-.34-.04-.34,0-.11,.08-.2,.17-.2,.09,0,.18,.07,.2,.16v.03Z"/>
          <path d="M40.32,34.11s.03,.05,.05,.14c.05,.08,.1,.19,.16,.31,.07,.11,.13,.24,.2,.32,.06,.09,.1,.16,.1,.16h0s-.07-.03-.17-.06c-.11-.04-.23-.12-.35-.22-.12-.1-.2-.23-.27-.33-.04-.11-.07-.19-.07-.19-.02-.06,.04-.13,.13-.16,.08-.02,.18-.01,.22,.02h0Z"/>
          <path d="M40.78,33.95s0,.06-.04,.15c-.02,.04,0,.1,0,.16,0,.06-.02,.13,0,.19,.02,.13,.02,.28,.06,.39,.02,.12,.04,.19,.04,.19h0s-.06-.05-.15-.13c-.1-.08-.17-.23-.25-.38-.04-.08-.04-.17-.05-.25,0-.08-.03-.16,0-.22,.03-.13,.06-.22,.06-.22,.02-.07,.11-.09,.19-.06,.08,.03,.15,.11,.16,.16v.02Z"/>
          <path d="M45.61,34.89s-.04,.12-.14,.29c-.1,.17-.28,.37-.5,.5-.22,.15-.48,.19-.66,.2-.19,0-.3-.03-.3-.03h0s.12-.03,.28-.09c.16-.07,.35-.17,.5-.33,.32-.28,.48-.69,.48-.69,.03-.07,.13-.12,.22-.1,.09,.02,.15,.11,.13,.21v.03Z"/>
          <path d="M46.1,35.63s-.1,.06-.26,.14c-.16,.08-.39,.2-.64,.26-.12,.04-.25,.06-.38,.06-.12,.02-.24-.02-.33-.04-.09-.02-.16-.08-.21-.1-.05-.03-.07-.04-.07-.04h0s.03,0,.09,0c.05,0,.12,.03,.21,.02,.09-.02,.18-.01,.28-.06,.1-.03,.21-.07,.31-.13,.21-.1,.41-.22,.57-.31,.16-.09,.27-.14,.27-.14,.09-.04,.2,0,.24,.07,.04,.08,.02,.19-.05,.25l-.02,.02Z"/>
          <path d="M46.53,37.44s.02,.07,.06,.16c.04,.1,.12,.22,.22,.34,.2,.24,.52,.42,.52,.42h0s-.09,0-.23,0c-.14-.02-.33-.07-.49-.18-.17-.1-.3-.27-.37-.41-.07-.14-.08-.25-.08-.25-.01-.08,.05-.16,.14-.17,.09-.01,.18,.02,.22,.07v.02Z"/>
          <path d="M45.71,38.35s.07,.07,.2,.17c.14,.09,.35,.19,.58,.26,.46,.15,.98,.21,.98,.21h0s-.51,.16-1.05,.09c-.27-.03-.54-.12-.72-.24-.18-.13-.29-.24-.28-.25-.07-.1-.06-.22,.01-.27,.08-.05,.19-.04,.25,0l.02,.02Z"/>
          <path d="M52.59,37.49s-.03,.1-.07,.24c-.02,.07-.08,.14-.13,.22-.06,.08-.1,.17-.18,.23-.08,.07-.15,.13-.23,.19-.07,.06-.16,.08-.23,.11-.13,.05-.22,.08-.22,.08h0s.06-.07,.16-.18c.04-.06,.11-.09,.14-.17,.04-.07,.09-.14,.14-.21,.06-.06,.07-.15,.11-.22,.03-.07,.07-.13,.09-.19,.04-.12,.06-.2,.06-.2,.02-.06,.12-.1,.21-.09,.09,0,.16,.08,.16,.16v.02Z"/>
          <path d="M52.98,38.26s-.01,.03-.04,.08c-.03,.04-.07,.1-.13,.18-.12,.14-.3,.29-.52,.36-.21,.09-.44,.11-.6,.11-.16-.01-.27-.04-.27-.04h0s.11-.03,.25-.08c.14-.06,.32-.14,.48-.26,.16-.11,.29-.24,.37-.34,.08-.1,.12-.18,.12-.18,.03-.06,.13-.08,.22-.06,.09,.02,.14,.11,.12,.2v.03Z"/>
          <path d="M52.89,33.7s.02,.08,.07,.2c.05,.12,.12,.28,.22,.44,.09,.16,.21,.31,.3,.42,.09,.11,.17,.18,.17,.18h0s-.1-.02-.24-.09c-.14-.07-.32-.18-.46-.33-.15-.15-.27-.33-.33-.48-.06-.15-.08-.27-.08-.27-.01-.09,.05-.17,.14-.19,.09-.01,.18,.03,.22,.08v.02Z"/>
          <path d="M53.81,33.35s0,.02,0,.06c0,.04,0,.09,0,.16,0,.13,.05,.31,.14,.49,.08,.18,.21,.35,.31,.48,.1,.13,.17,.21,.17,.21h0s-.1-.04-.25-.12c-.14-.09-.34-.21-.48-.4-.16-.18-.25-.43-.26-.61-.02-.19,.01-.31,.01-.31,.02-.1,.11-.16,.2-.14,.09,.02,.16,.1,.17,.17v.02Z"/>
          <path d="M58.46,34.48s-.06,.12-.17,.29c-.12,.16-.31,.37-.56,.5-.12,.07-.25,.11-.38,.14-.12,.03-.25,.02-.34,.03-.2-.03-.32-.06-.32-.06h0s.13-.02,.31-.06c.09-.04,.19-.06,.28-.12,.1-.05,.19-.11,.28-.19,.18-.14,.32-.32,.42-.46,.1-.14,.15-.25,.15-.25,.04-.08,.15-.12,.24-.09,.09,.03,.13,.13,.11,.23v.03Z"/>
          <path d="M58.48,35.32s-.02,.03-.07,.07c-.05,.04-.11,.1-.19,.17-.17,.13-.42,.28-.69,.36-.14,.04-.27,.07-.41,.07-.13,.02-.26-.01-.36-.03-.1-.01-.18-.08-.23-.1-.05-.03-.08-.05-.08-.05h0s.03,0,.09,.01c.06,0,.13,.04,.23,.01,.1-.01,.2-.02,.31-.06,.11-.03,.22-.08,.33-.14,.22-.11,.42-.26,.57-.37,.07-.06,.13-.11,.17-.14,.04-.03,.05-.06,.06-.06,.06-.06,.18-.08,.26-.03s.1,.16,.04,.26l-.02,.03Z"/>
          <path d="M53.9,38.96s.24,.38,.58,.69c.08,.08,.17,.15,.26,.21,.08,.07,.18,.1,.26,.15,.08,.04,.15,.05,.21,.07,.05,.01,.08,.02,.08,.02h0s-.03,0-.08,.01c-.05,0-.14,.03-.23,.02-.09-.02-.22-.02-.33-.07-.12-.04-.24-.09-.35-.16-.23-.13-.41-.32-.54-.47-.12-.16-.18-.27-.18-.27-.05-.09-.02-.21,.06-.25,.08-.04,.19-.02,.25,.04l.02,.02Z"/>
          <path d="M53.78,39.93s.05,.05,.14,.12c.1,.06,.24,.14,.41,.19,.33,.12,.71,.19,.71,.19h0s-.37,.15-.78,.11c-.2-.02-.4-.09-.54-.17-.14-.09-.22-.17-.22-.18-.06-.07-.04-.18,.03-.23,.07-.05,.17-.07,.23-.04h.01Z"/>
          <path d="M59.04,38.56s-.03,.11-.08,.26c-.03,.08-.08,.15-.13,.24-.06,.08-.1,.18-.18,.25-.08,.08-.16,.15-.23,.21-.07,.07-.16,.1-.24,.14-.14,.06-.24,.1-.24,.1h0s.07-.08,.17-.19c.05-.06,.11-.11,.15-.19,.04-.08,.09-.16,.14-.24,.06-.07,.08-.17,.12-.25,.03-.08,.08-.15,.1-.21,.04-.13,.07-.22,.07-.22,.02-.06,.12-.11,.21-.1,.09,0,.16,.08,.16,.17v.03Z"/>
          <path d="M59.45,39.24s-.07,.07-.18,.18c-.12,.11-.26,.26-.44,.38-.09,.06-.19,.11-.27,.17-.09,.05-.19,.06-.27,.09-.16,.03-.26,.06-.26,.06h0s.08-.07,.21-.17c.06-.05,.13-.09,.2-.16,.06-.07,.13-.14,.2-.21,.13-.14,.26-.31,.37-.41,.11-.11,.19-.19,.19-.19,.06-.05,.17-.05,.23,.02,.06,.06,.08,.17,.04,.24v.02Z"/>
          <g>
            <path class="cls-5" d="M32.13,77.55c-.96-.54-1.96-.59-3.03-.82-1.45-.31-2.73-1.2-3.84-2.14-1.21-1.02-1.63-2.63-1.76-4.13-.09-1.01,.03-3.25,.57-4.19,.1-.17-.1-.34-.25-.22-2.59,1.98-2.07,6.27-.68,8.77,1.42,2.57,6.19,4.98,8.95,3.6,.37-.19,.4-.65,.03-.86Z"/>
            <path class="cls-5" d="M34.07,55.41c-.78-1.2-2.07-1.96-3.17-2.85-2.49-2.03-.31-4.08,.59-6.26,.06-.15-.12-.27-.25-.21-2.09,.88-3.41,3.12-3.08,5.37,.32,2.17,3.53,4.19,5.55,4.42,.25,.03,.52-.21,.35-.47Z"/>
            <path class="cls-5" d="M49.86,63.28c-1.95-2.06-4.39-2.14-6.88-1.12-3.53,1.45-4.21,8.01-9.2,5.52-.29-.14-.52,.23-.26,.42,2.16,1.6,4.34,1.18,6.34-.49,1.34-1.12,1.54-2.89,3.09-3.89,2.41-1.56,4.21-.21,6.61,.09,.31,.04,.53-.29,.3-.54Z"/>
            <path class="cls-5" d="M49.42,74.63c-2,.95-3.27,2.25-5.67,2.1-1.69-.11-4.2-1.84-4.63-3.61-.1-.41-.67-.26-.69,.12-.09,2.14,1.76,4.38,3.81,4.99,2.95,.88,6.44,0,7.89-2.9,.21-.42-.3-.9-.71-.7Z"/>
            <path class="cls-5" d="M76.44,74.85c-.09-.37-.55-.65-.88-.35-1.62,1.48-2.61,3.3-4.55,4.55-1.67,1.07-4.23,1.5-6.18,1.65-.13,.01-.13,.18-.05,.25,1.67,1.46,4.81,.7,6.57-.19,1.83-.92,5.66-3.5,5.09-5.9Z"/>
          </g>
        </g>
      </g>
    </g>
  </g>
</svg>