<?xml version="1.0" encoding="UTF-8"?>
<svg xmlns="http://www.w3.org/2000/svg" viewBox="0 0 102 96.97">
  <defs>
    <style>
      .cls-1 {
        fill: #f2c82c;
      }

      .cls-2 {
        fill: #315400;
      }

      .cls-3 {
        fill: #fff;
      }

      .cls-4, .cls-5 {
        fill: #f0d907;
      }

      .cls-6 {
        fill: #89c23a;
      }

      .cls-7 {
        isolation: isolate;
      }

      .cls-5 {
        mix-blend-mode: multiply;
      }

      .cls-8 {
        mix-blend-mode: screen;
        opacity: .2;
      }

      .cls-8, .cls-9 {
        fill: #5057b8;
      }

      .cls-10 {
        fill: #f0be07;
      }

      .cls-11 {
        fill: #e8e8e8;
      }
    </style>
  </defs>
  <g class="cls-7">
    <g id="Ebene_2" data-name="Ebene 2">
      <g id="_Ńëîé_1" data-name="Ńëîé 1">
        <g>
          <g>
            <path class="cls-10" d="M27.71,92.61c.3-2.18,.56-4.57,.23-6.73-.01-.1-.17-.12-.22-.03-1.06,1.95-1.08,4.31-1.45,6.48-.21-.1-.42-.2-.64-.3-.43-.19-.94-.28-1.45-.38-.05-.02-.08-.05-.14-.06-.27-.05-.55-.1-.83-.15-.46-.13-.82,.05-1.05,.35,0,0,0,0,0,0-.03,.05-.07,.1-.09,.15,0,.01-.01,.03-.02,.04-.29,.58-.14,1.41,.67,1.56,.27,.05,.55,.1,.82,.14,.21,.03,.39,0,.55-.06,.46,.03,.92,.1,1.26,.29,.57,.32,1.09,.35,1.72,.37,.43,.01,.77-.28,.82-.71,.04-.39,0-.71-.17-.97Z"/>
            <path class="cls-10" d="M36.86,94.43c.07-2.2,.08-4.6-.48-6.72-.03-.1-.18-.1-.22-.01-.85,2.05-.62,4.4-.76,6.6-.22-.08-.44-.16-.67-.23-.45-.14-.97-.18-1.48-.22-.05-.01-.09-.04-.15-.04-.28-.02-.56-.04-.84-.06-.47-.08-.81,.14-1.01,.46,0,0,0,0,0,0-.03,.05-.06,.1-.08,.16,0,.01-.01,.03-.02,.04-.22,.61,.01,1.42,.83,1.48,.28,.02,.56,.04,.83,.05,.21,.01,.39-.04,.54-.12,.46-.02,.92,0,1.28,.16,.61,.26,1.12,.24,1.75,.19,.43-.03,.74-.36,.74-.79,0-.39-.07-.71-.28-.95Z"/>
            <path class="cls-10" d="M46.01,94.79c-.24-2.19-.58-4.57-1.43-6.58-.04-.09-.19-.08-.22,.02-.55,2.15,.02,4.44,.19,6.64-.23-.05-.46-.09-.7-.13-.46-.08-.98-.04-1.5,0-.05,0-.09-.02-.15-.02-.28,.02-.56,.04-.83,.06-.48,0-.79,.25-.93,.6,0,0,0,0,0,0-.02,.05-.04,.11-.06,.17,0,.02,0,.03,0,.05-.13,.64,.22,1.4,1.03,1.34,.28-.02,.56-.04,.83-.07,.21-.02,.38-.09,.52-.19,.45-.08,.91-.13,1.29-.03,.64,.17,1.14,.08,1.76-.06,.42-.09,.68-.47,.62-.89-.06-.39-.17-.69-.41-.9Z"/>
            <path class="cls-10" d="M55.37,94.74c-.28-2.19-.66-4.56-1.55-6.55-.04-.09-.19-.07-.22,.02-.51,2.16,.09,4.44,.3,6.63-.23-.04-.46-.09-.7-.12-.46-.07-.98-.03-1.5,.02-.05,0-.09-.02-.15-.02-.28,.02-.56,.05-.83,.08-.48,0-.78,.27-.92,.62,0,0,0,0,0,0-.02,.05-.04,.11-.05,.17,0,.02,0,.03,0,.05-.12,.64,.24,1.4,1.06,1.32,.28-.02,.55-.05,.83-.08,.21-.02,.37-.1,.52-.2,.45-.09,.91-.15,1.29-.05,.64,.16,1.14,.06,1.76-.09,.42-.1,.67-.48,.6-.9-.06-.39-.18-.69-.43-.89Z"/>
            <path class="cls-10" d="M64.57,92.08c-.84-2.04-1.81-4.23-3.18-5.93-.06-.08-.21-.02-.2,.08,.06,2.22,1.24,4.27,2,6.33-.24,.02-.47,.04-.71,.06-.46,.05-.96,.23-1.44,.4-.05,.01-.1,0-.15,.02-.26,.09-.53,.19-.79,.29-.46,.12-.69,.46-.73,.83,0,0,0,0,0,0,0,.06-.01,.12,0,.18,0,.02,0,.03,0,.05,.05,.65,.59,1.29,1.36,1.01,.26-.09,.52-.19,.78-.29,.2-.08,.34-.19,.45-.33,.41-.2,.84-.38,1.23-.38,.66,0,1.12-.24,1.68-.54,.37-.2,.52-.63,.35-1.03-.16-.36-.35-.62-.64-.75Z"/>
            <path class="cls-10" d="M72.89,88.3c-1.17-1.87-2.5-3.87-4.13-5.31-.08-.07-.21,.01-.19,.11,.43,2.18,1.93,4,3.04,5.9-.23,.06-.46,.11-.69,.18-.45,.13-.9,.39-1.35,.64-.05,.02-.09,.02-.14,.05-.24,.13-.49,.27-.73,.42-.44,.2-.6,.57-.58,.94,0,0,0,0,0,0,0,.06,0,.12,.02,.17,0,.02,0,.03,.01,.05,.15,.63,.8,1.17,1.51,.76,.24-.14,.48-.28,.72-.42,.18-.11,.3-.25,.39-.4,.37-.27,.77-.51,1.15-.58,.65-.12,1.06-.42,1.56-.82,.33-.26,.41-.71,.17-1.07-.22-.32-.45-.55-.76-.64Z"/>
            <path class="cls-9" d="M39.24,41.92c-1.06-10.9-2.89-17.65-3.8-18.33,.02,.02,.12,.07,.26,.05l-.16-1.7c.94-.09,1.99,.59,3.29,6.12,.85,3.63,1.6,8.49,2.1,13.69l-1.7,.17Z"/>
            <path class="cls-9" d="M46.92,40.12h-1.7c0-4.98,.21-9.67,.6-13.2,.57-5.17,1.27-6.18,2.29-6.18v1.7c.21,0,.35-.11,.38-.14-.66,.8-1.58,7.44-1.58,17.83Z"/>
            <path class="cls-9" d="M53.49,42.25h-1.7c0-9.95,5.27-18.04,11.75-18.04v1.7c-5.54,0-10.05,7.33-10.05,16.34Z"/>
            <path class="cls-9" d="M94.4,42.15s-.2-.1-.58-.28c-.19-.09-.42-.2-.7-.3-.27-.1-.58-.24-.95-.34-.72-.25-1.62-.44-2.66-.58-1.04-.11-2.23-.12-3.48,.09-1.25,.21-2.55,.66-3.72,1.43-.59,.38-1.12,.86-1.61,1.39-.25,.26-.45,.58-.68,.86l-.04,.05c.07-.1,.01-.02,.03-.04v.02s-.03,.03-.03,.03l-.08,.13-.16,.27-.32,.54-.16,.27-.1,.26-.21,.51c-.16,.32-.26,.71-.37,1.09l-.17,.57-.12,.6c-.08,.4-.17,.8-.21,1.21-.23,1.65-.26,3.38-.24,5.14,.01,1.77,.07,3.58,0,5.42-.07,1.83-.26,3.71-.78,5.53-.16,.45-.31,.9-.46,1.35l-.06,.17-.09,.21-.12,.28-.25,.56c-.19,.39-.45,.84-.67,1.25-.25,.39-.5,.76-.75,1.14-1.07,1.46-2.44,2.66-3.91,3.46-1.47,.81-3.01,1.19-4.35,1.33-1.35,.13-2.5,.01-3.43-.12-.92-.16-1.62-.33-2.09-.48-.47-.14-.72-.22-.72-.22l1.79-4.77s.17,.07,.5,.19c.33,.14,.81,.29,1.42,.45,.61,.13,1.36,.28,2.2,.26,.83-.02,1.75-.17,2.67-.58,.93-.41,1.86-1.08,2.7-2.04,.2-.25,.4-.51,.6-.77,.17-.27,.34-.5,.53-.82l.29-.54,.15-.27,.04-.07,.02-.03v-.02s.05-.08-.01,.05l.05-.12c.14-.32,.29-.65,.43-.98,.51-1.38,.81-2.96,1.01-4.64,.19-1.68,.28-3.45,.41-5.26,.12-1.81,.3-3.66,.69-5.49,.08-.46,.21-.91,.34-1.36l.19-.67,.25-.66c.17-.44,.32-.86,.57-1.3l.33-.64,.17-.32,.18-.26,.36-.52,.18-.26,.09-.13,.08-.12,.06-.06c.31-.34,.58-.69,.91-1,.65-.61,1.34-1.14,2.09-1.54,1.47-.82,3.02-1.21,4.43-1.33,1.42-.13,2.71-.01,3.82,.19,1.11,.24,2.05,.52,2.8,.84,.38,.14,.71,.31,.99,.44,.29,.13,.52,.26,.7,.37,.36,.21,.56,.32,.56,.32l-.32,.61Z"/>
            <path class="cls-9" d="M76.2,77.17c0,20.67-60.6,20.67-60.6,0s14.91-37.36,29.75-37.36,30.85,16.7,30.85,37.36Z"/>
            <path class="cls-8" d="M46.12,45.59c12.84,0,26.53,12.49,30,29.24-1.15-19.57-16.49-35.02-30.77-35.02S15.6,56.5,15.6,77.17c0,1.4,.29,2.71,.81,3.92,.86-19.8,15.31-35.5,29.71-35.5Z"/>
            <path class="cls-9" d="M33.19,51.04h-1.7c0-10.25-5.43-18.58-12.1-18.58v-1.7c7.61,0,13.8,9.1,13.8,20.29Z"/>
            <path class="cls-9" d="M33.19,51.04h-1.7c0-10.25-5.43-18.58-12.1-18.58v-1.7c7.61,0,13.8,9.1,13.8,20.29Z"/>
            <path class="cls-9" d="M58.94,50.62h-1.7c0-9.58,7.14-17.37,15.91-17.37v1.7c-7.84,0-14.21,7.03-14.21,15.67Z"/>
            <g>
              <path class="cls-5" d="M18.03,37.08c-4.25,0-7.71-3.46-7.71-7.71,0-.38,.04-.76,.12-1.22,.59-3.75,3.78-6.49,7.59-6.49,4.25,0,7.71,3.46,7.71,7.71s-3.46,7.71-7.71,7.71Z"/>
              <path class="cls-4" d="M18.03,37.08c-4.25,0-7.71-3.46-7.71-7.71,0-.38,.04-.76,.12-1.22,.59-3.75,3.78-6.49,7.59-6.49,4.25,0,7.71,3.46,7.71,7.71s-3.46,7.71-7.71,7.71Z"/>
              <g>
                <g>
                  <path class="cls-3" d="M11.66,29.37c0,3.52,2.85,6.37,6.37,6.37s6.37-2.85,6.37-6.37-2.85-6.37-6.37-6.37-6.37,2.85-6.37,6.37Z"/>
                  <path class="cls-11" d="M11.9,27.74c.2,3.34,2.94,5.99,6.33,5.99,2.95,0,5.41-2.02,6.13-4.74,0,.13,.04,.25,.04,.38,0,3.52-2.85,6.37-6.37,6.37s-6.37-2.85-6.37-6.37c0-.57,.1-1.11,.24-1.63Z"/>
                </g>
                <g>
                  <path d="M15.66,30.56c1.31,1.16,3.32,1.04,4.48-.27,1.16-1.31,1.05-3.32-.27-4.48-1.31-1.16-3.32-1.04-4.48,.27-1.16,1.31-1.04,3.32,.27,4.48Z"/>
                  <path class="cls-3" d="M17.13,27.62c.52,.46,1.33,.42,1.79-.11,.46-.52,.42-1.32-.11-1.79-.52-.46-1.33-.42-1.79,.11-.47,.52-.42,1.33,.1,1.79Z"/>
                </g>
              </g>
            </g>
            <g>
              <path class="cls-5" d="M47.01,28.09c-4.16,0-7.54-3.38-7.54-7.54,0-.37,.04-.75,.12-1.19,.57-3.66,3.69-6.34,7.42-6.34,4.16,0,7.54,3.38,7.54,7.54s-3.38,7.54-7.54,7.54Z"/>
              <path class="cls-4" d="M47.01,28.09c-4.16,0-7.54-3.38-7.54-7.54,0-.37,.04-.75,.12-1.19,.57-3.66,3.69-6.34,7.42-6.34,4.16,0,7.54,3.38,7.54,7.54s-3.38,7.54-7.54,7.54Z"/>
              <g>
                <g>
                  <path class="cls-3" d="M40.78,20.56c0,3.44,2.79,6.23,6.23,6.23s6.23-2.79,6.23-6.23-2.79-6.23-6.23-6.23-6.23,2.79-6.23,6.23Z"/>
                  <path class="cls-11" d="M41.02,18.96c.2,3.26,2.88,5.85,6.19,5.85,2.88,0,5.29-1.97,5.99-4.63,0,.13,.04,.25,.04,.37,0,3.44-2.79,6.23-6.23,6.23s-6.23-2.79-6.23-6.23c0-.55,.1-1.08,.23-1.59Z"/>
                </g>
                <g>
                  <path d="M44.69,21.71c1.28,1.14,3.24,1.02,4.38-.26,1.14-1.28,1.02-3.24-.26-4.38-1.28-1.14-3.24-1.02-4.38,.26-1.14,1.28-1.02,3.24,.26,4.38Z"/>
                  <path class="cls-3" d="M46.13,18.85c.51,.45,1.3,.41,1.75-.11,.45-.51,.41-1.29-.1-1.75-.51-.45-1.29-.41-1.75,.1-.46,.51-.41,1.3,.1,1.75Z"/>
                </g>
              </g>
            </g>
            <g>
              <path class="cls-5" d="M73.14,40.13c-4.16,0-7.54-3.38-7.54-7.54,0-.37,.04-.75,.12-1.19,.57-3.66,3.69-6.34,7.42-6.34,4.16,0,7.54,3.38,7.54,7.54s-3.38,7.54-7.54,7.54Z"/>
              <path class="cls-4" d="M73.14,40.13c-4.16,0-7.54-3.38-7.54-7.54,0-.37,.04-.75,.12-1.19,.57-3.66,3.69-6.34,7.42-6.34,4.16,0,7.54,3.38,7.54,7.54s-3.38,7.54-7.54,7.54Z"/>
              <g>
                <g>
                  <path class="cls-3" d="M66.91,32.6c0,3.44,2.79,6.23,6.23,6.23s6.23-2.79,6.23-6.23-2.79-6.23-6.23-6.23-6.23,2.79-6.23,6.23Z"/>
                  <path class="cls-11" d="M67.15,31.01c.2,3.26,2.88,5.85,6.19,5.85,2.88,0,5.29-1.97,5.99-4.63,0,.13,.04,.25,.04,.37,0,3.44-2.79,6.23-6.23,6.23s-6.23-2.79-6.23-6.23c0-.55,.1-1.08,.23-1.59Z"/>
                </g>
                <g>
                  <path d="M70.82,33.75c1.28,1.14,3.24,1.02,4.38-.26,1.14-1.28,1.02-3.24-.26-4.38-1.28-1.14-3.24-1.02-4.38,.26-1.14,1.28-1.02,3.24,.26,4.38Z"/>
                  <path class="cls-3" d="M72.27,30.89c.51,.45,1.3,.41,1.75-.11,.45-.51,.41-1.29-.1-1.75-.51-.45-1.29-.41-1.75,.1-.46,.51-.41,1.3,.1,1.75Z"/>
                </g>
              </g>
            </g>
            <g>
              <path class="cls-5" d="M34.59,33.17c-5.25,0-9.52-4.27-9.52-9.52,0-.46,.05-.94,.15-1.51,.72-4.62,4.66-8.01,9.37-8.01,5.25,0,9.52,4.27,9.52,9.52s-4.27,9.52-9.52,9.52Z"/>
              <path class="cls-4" d="M34.59,33.17c-5.25,0-9.52-4.27-9.52-9.52,0-.46,.05-.94,.15-1.51,.72-4.62,4.66-8.01,9.37-8.01,5.25,0,9.52,4.27,9.52,9.52s-4.27,9.52-9.52,9.52Z"/>
              <g>
                <g>
                  <path class="cls-3" d="M26.73,23.66c0,4.34,3.52,7.86,7.86,7.86s7.86-3.52,7.86-7.86-3.52-7.86-7.86-7.86-7.86,3.52-7.86,7.86Z"/>
                  <path class="cls-11" d="M27.03,21.64c.25,4.12,3.63,7.39,7.81,7.39,3.64,0,6.68-2.49,7.57-5.85,.01,.16,.05,.31,.05,.47,0,4.34-3.52,7.86-7.86,7.86s-7.86-3.52-7.86-7.86c0-.7,.12-1.37,.29-2.01Z"/>
                </g>
                <g>
                  <path d="M31.67,25.11c1.62,1.44,4.09,1.29,5.53-.33,1.44-1.62,1.29-4.1-.33-5.53-1.62-1.44-4.1-1.29-5.53,.33-1.44,1.62-1.29,4.09,.33,5.53Z"/>
                  <path class="cls-3" d="M33.49,21.5c.65,.57,1.64,.51,2.21-.13,.57-.65,.51-1.64-.13-2.21-.65-.57-1.64-.51-2.21,.13-.57,.65-.51,1.64,.13,2.21Z"/>
                </g>
              </g>
            </g>
            <g>
              <path class="cls-5" d="M60.25,33.8c-5.3,0-9.62-4.32-9.62-9.62,0-.47,.05-.95,.15-1.53,.73-4.67,4.72-8.09,9.47-8.09,5.3,0,9.62,4.32,9.62,9.62s-4.31,9.62-9.62,9.62Z"/>
              <path class="cls-4" d="M60.25,33.8c-5.3,0-9.62-4.32-9.62-9.62,0-.47,.05-.95,.15-1.53,.73-4.67,4.72-8.09,9.47-8.09,5.3,0,9.62,4.32,9.62,9.62s-4.31,9.62-9.62,9.62Z"/>
              <g>
                <g>
                  <path class="cls-3" d="M52.3,24.18c0,4.39,3.56,7.95,7.95,7.95s7.95-3.56,7.95-7.95-3.56-7.95-7.95-7.95-7.95,3.56-7.95,7.95Z"/>
                  <path class="cls-11" d="M52.6,22.14c.25,4.16,3.67,7.47,7.9,7.47,3.68,0,6.75-2.52,7.65-5.91,.01,.16,.05,.31,.05,.48,0,4.39-3.56,7.95-7.95,7.95s-7.95-3.56-7.95-7.95c0-.71,.12-1.38,.3-2.03Z"/>
                </g>
                <g>
                  <path d="M57.29,25.65c1.64,1.45,4.14,1.3,5.59-.33,1.45-1.64,1.31-4.14-.33-5.59-1.64-1.45-4.14-1.3-5.59,.33-1.45,1.64-1.3,4.14,.33,5.59Z"/>
                  <path class="cls-3" d="M59.13,21.99c.65,.58,1.65,.52,2.24-.13,.58-.65,.52-1.65-.13-2.23-.65-.58-1.65-.52-2.23,.13-.58,.65-.52,1.65,.13,2.23Z"/>
                </g>
              </g>
            </g>
            <g>
              <path class="cls-2" d="M46.39,61.32c-2.56,0-4.93-.53-6.9-1.44,0,.04,0,.07,0,.11,0,4.6,3.25,8.34,7.26,8.34s7.26-3.73,7.26-8.34c0-.16-.01-.31-.02-.46-2.09,1.12-4.72,1.8-7.59,1.8Z"/>
              <path class="cls-6" d="M53.97,59.55c-.33,4.25-3.44,7.59-7.22,7.59s-6.7-3.14-7.18-7.21c-.02,0-.05-.02-.07-.03,0,.04,0,.07,0,.11,0,4.6,3.25,8.34,7.26,8.34s7.26-3.73,7.26-8.34c0-.16-.01-.31-.02-.46,0,0,0,0-.01,0Z"/>
              <g>
                <path class="cls-3" d="M44.49,61.22c-.66-.07-1.3-.18-1.92-.32,.32,.95,.66,1.92,.8,2.5,.26,1.07,.76-1.02,1.12-2.19Z"/>
                <path class="cls-3" d="M48.67,61.17c.36,1.18,.83,3.12,1.08,2.08,.14-.56,.47-1.5,.78-2.42-.6,.15-1.22,.26-1.86,.34Z"/>
                <path class="cls-3" d="M47.66,61.27c-.42,.03-.84,.05-1.27,.05-.25,0-.49,0-.73-.02,.21,.48,.47,1.03,.71,1.63,.54,1.33,.86-.43,1.28-1.66Z"/>
              </g>
            </g>
            <path class="cls-9" d="M63.12,67.38s-.04,.07,0,.07,.04-.07,0-.07Z"/>
            <path class="cls-4" d="M88.52,40.12c2.56,.94,1.03,5.79,1.61,8.01,.71-.5,1.13-1.35,1.85-1.71-.03,3.49,2.63,6.56,6.29,6.76-.53-1.58-2.09-3.2-2.05-5.01,1.32-.17,2.56,1.59,3.61,2.22-1.24-1.41-.28-3.14,.23-4.67,.4,.63,.84,1.42,1.51,1.71,.27-2.15,.98-4.78-.39-6.67-1.58-2.18-4.98-2.51-7.38-1.86,.67,.03,1.55-.44,2.43-.52-.21-.41-.65-.41-1.06-.32,.54-.4,.7-.8,1.36-.96-3.29-1.8-8.02,3.01-8.02,3.01Z"/>
            <path class="cls-4" d="M39.85,51.39c-1.05,0-1.16,1.63-.1,1.63s1.16-1.63,.1-1.63Z"/>
            <path class="cls-4" d="M44.1,53.68c-.55,0-.52,.86,.03,.86s.52-.86-.03-.86Z"/>
            <path class="cls-4" d="M44.27,56.6c-.57,0-.53,.89,.04,.89s.53-.89-.04-.89Z"/>
            <path class="cls-4" d="M41.99,55.45c-.72,0-.61,1.11,.11,1.11s.61-1.11-.11-1.11Z"/>
            <path class="cls-4" d="M37.33,57.2c-1.37,0-1.27,2.12,.1,2.12s1.27-2.12-.1-2.12Z"/>
            <path class="cls-4" d="M42.99,57.89c-.39,0-.74,.22-.78,.63-.04,.36,.24,.78,.63,.78s.74-.22,.79-.63c.04-.35-.24-.78-.63-.78Z"/>
            <path class="cls-4" d="M47.4,57.47c-1.23,0-1.23,1.91,0,1.91s1.23-1.91,0-1.91Z"/>
            <path class="cls-4" d="M47.59,56.15c-.26,0-.29,.4-.02,.4s.29-.4,.02-.4Z"/>
            <path class="cls-4" d="M47.27,52.92c-1.08,0-1.17,1.68-.08,1.68s1.17-1.68,.08-1.68Z"/>
            <path class="cls-4" d="M50.41,55.28c-.48-.05-1.07,.55-.74,1.03,.04,.07,.09,.13,.13,.2,.31,.4,.96,.32,1.16-.16-.06,.11-.07,.14-.03,.08,.3-.46,.05-1.1-.52-1.15Z"/>
            <path class="cls-4" d="M50.32,58.49c-.58,0-.54,.91,.04,.91s.54-.91-.04-.91Z"/>
            <path class="cls-4" d="M52.76,58.26c-.44,0-.44,.68,0,.68s.44-.68,0-.68Z"/>
            <path class="cls-4" d="M52.06,56.14c-.5,0-.49,.78,.02,.78s.49-.78-.02-.78Z"/>
            <path class="cls-4" d="M44.08,50.48c-.68,0-.59,1.05,.08,1.05s.59-1.05-.08-1.05Z"/>
            <path class="cls-4" d="M50.66,52.79c-.6,0-.55,.92,.05,.92s.55-.92-.05-.92Z"/>
            <path class="cls-4" d="M54.89,53.32c-1.02,0-1.14,1.58-.11,1.58s1.14-1.58,.11-1.58Z"/>
            <path class="cls-4" d="M55.41,57.77c-1.52,0-1.28,2.35,.23,2.35s1.28-2.35-.23-2.35Z"/>
            <path class="cls-4" d="M51.13,51.65s-.01,0-.02-.01c-.37-.15-.81,.07-.87,.48-.07,.47,.41,.84,.85,.67,.02-.01,.04-.02,.06-.03,.56-.12,.61-1.04-.02-1.1Z"/>
            <path class="cls-4" d="M53.7,51.16c-.91,0-1.07,1.42-.15,1.42s1.07-1.42,.15-1.42Z"/>
            <path class="cls-4" d="M48.61,48.82c-.53,0-.97,.45-.97,.98,0,.53,.45,.97,.98,.97s.97-.45,.97-.98c0-.53-.45-.97-.98-.97Z"/>
            <path class="cls-4" d="M36.3,53.59c-.68,0-.59,1.05,.08,1.05s.59-1.05-.08-1.05Z"/>
            <path class="cls-4" d="M39.59,55.01c-.12-.52-.86-.39-.97,.06-.02,.09-.02,.17-.02,.26,0,.67,1.03,.59,1.03-.08,0-.08-.02-.16-.04-.24Z"/>
            <path class="cls-4" d="M33.41,57.57c-.5-.26-1.08,.09-1.12,.63-.03,.4,.29,.84,.71,.84,.87,0,1.2-1.05,.41-1.46Z"/>
            <path class="cls-4" d="M35.48,61.87c-.03-.07-.06-.14-.09-.21-.14-.39-.66-.51-.98-.27-.36,.27-.33,.94,.13,1.1,.06,.02,.12,.05,.18,.07,.42,.17,.95-.21,.75-.69Z"/>
            <path class="cls-4" d="M38.54,62.18s-.03-.02-.05-.03c-.32-.2-.71,.11-.69,.45,.02,.36,.43,.56,.73,.37,.01,0,.02-.02,.04-.02,.29-.19,.25-.59-.03-.77Z"/>
            <path class="cls-4" d="M34.64,51.8c-.32,0-.55,.35-.52,.64,.04,.34,.32,.52,.64,.52s.55-.35,.52-.64c-.04-.34-.32-.52-.64-.52Z"/>
            <path class="cls-4" d="M58.13,55.47l-.02-.07c-.16-.57-.92-.38-1.05,.09l-.02,.09c-.1,.36,.27,.69,.61,.66,.39-.04,.57-.41,.48-.76Z"/>
            <path class="cls-4" d="M42.81,47.01c-.91,0-1.07,1.42-.15,1.42s1.07-1.42,.15-1.42Z"/>
            <path class="cls-4" d="M37.96,47.27c-1.02,0-1.14,1.58-.11,1.58s1.14-1.58,.11-1.58Z"/>
            <path class="cls-4" d="M46.37,47.48c-.08,0-.1,.13-.02,.13s.1-.13,.02-.13Z"/>
            <path class="cls-4" d="M46.13,45.82c-.75,0-1.43,.47-1.49,1.27-.06,.71,.51,1.49,1.27,1.49s1.43-.47,1.49-1.27c.06-.71-.51-1.49-1.27-1.49Z"/>
            <path class="cls-4" d="M51.01,51.49c-.19,0-.39,0-.58-.01-.82,.04-1.29,1.02-.99,1.72,.17,.4,.54,.69,.97,.75,.38,.05,.97-.1,1.16-.47,.12-.22,.27-.42,.29-.68,.05-.64-.22-1.11-.85-1.3Z"/>
            <path class="cls-4" d="M52.18,47.84c-.31,0-.54,.34-.51,.63,.03,.34,.32,.51,.63,.51s.54-.34,.51-.63c-.04-.34-.32-.51-.63-.51Z"/>
            <path class="cls-4" d="M56.08,53.77c-.1-.75-.72-1.08-1.41-1.08s-1.16,.8-1.08,1.41c.1,.75,.72,1.08,1.41,1.08s1.16-.8,1.08-1.41Z"/>
            <path class="cls-4" d="M57.13,50.16c-1.54,0-1.28,2.37,.24,2.37s1.28-2.37-.24-2.37Z"/>
            <path class="cls-4" d="M32.53,54.8s0-.01-.01-.02c-.31-.43-1.01-.25-1.09,.27-.09,.56,.72,1,1.07,.48,0,0,0,0,0,0,.15-.22,.19-.48,.02-.71Z"/>
            <path class="cls-4" d="M32.33,54.85c-.08-.4-.44-.75-.87-.76-.42,0-.79,.2-.99,.57-.21,.39-.16,.88,.17,1.19,.37,.36,.87,.34,1.27,.08-.01,0-.01,.01,.01,0,.03-.02,.05-.04,.08-.06,.01,0,.02-.02,.03-.03-.02,.01-.02,.01-.03,.02,.31-.25,.44-.66,.32-1.01Z"/>
            <path class="cls-4" d="M59.32,57.65c-1.23,0-1.23,1.91,0,1.91s1.23-1.91,0-1.91Z"/>
            <path class="cls-4" d="M59.05,61.48c-.09-.01-.17-.02-.26,0-.42,.06-.58,.74-.08,.81,.09,.01,.17,.03,.26,.02,.43-.06,.59-.75,.08-.82Z"/>
            <path class="cls-4" d="M61.02,55.35c-.63,0-.56,.97,.06,.97s.56-.97-.06-.97Z"/>
            <path class="cls-10" d="M99.24,40.62c-.89-1.18-2.45-1.64-3.96-1.64-.2,.05-.75-.07-1.46-.13,0-.14,0-.29,.06-.44,.18-.44,.65-.79,1.08-.98-.8-.02-1.48,.35-2.09,.84-.16,.13-.39,.35-.65,.57-.86,.1-1.77,.39-2.52,1.1,.94,.74,1.47,3.25,1.59,4.16,.08,.58,.09,1.14,.05,1.7,.19-.21,.38-.41,.62-.54,.03,2.79,1.58,6.12,4.5,6.22-.44-1.25-1.1-3.44-1.09-4.89,1.05-.16,2.07,1.23,2.92,1.72-1.01-1.11-.27-2.5,.12-3.73,.33,.49,.69,1.12,1.23,1.34,.18-1.72,.71-3.83-.41-5.32Z"/>
            <path class="cls-1" d="M32.17,.22s.06-.02,.14-.03c.27-.05,.49-.13,.5-.17,.05-.03-.14-.03,.26,.43,.02,.02,.1,.12,.12,.13,.03,.03,.17,.26,.41,.63,.14,.19,.26,.4,.39,.63,.12,.22,.33,.49,.46,.75,.3,.52,.58,1.1,.82,1.67,.25,.58,.43,1.16,.55,1.73,.12,.57,.18,1.11,.19,1.62,.02,.5-.03,.97-.08,1.36-.07,.41-.13,.72-.21,.97-.07,.24-.11,.37-.11,.37,0,0-.07,.1-.2,.27-.12,.17-.32,.43-.5,.73-.2,.3-.42,.67-.6,1.05-.09,.19-.17,.39-.26,.59-.07,.19-.11,.38-.15,.56-.12,.63,0,.98,.06,1.19,.08,.19,.14,.21,.09,.17-.04-.04-.18-.11-.47-.18-.28-.07-.68-.17-1.11-.34,.02,.03-.2-.06-.6-.23-.18-.09-.41-.2-.64-.33-.24-.13-.51-.29-.74-.45-.49-.32-.98-.71-1.31-1.01-.33-.31-.56-.51-.56-.51,0,0-.13-.19-.29-.52-.16-.33-.4-.83-.57-1.42-.19-.6-.3-1.29-.34-2.04-.02-.74,.05-1.54,.24-2.31,.19-.77,.5-1.52,.92-2.19,.42-.67,.88-1.26,1.42-1.73,.25-.24,.53-.43,.77-.61,.24-.18,.46-.32,.67-.42,.41-.22,.68-.33,.72-.33Z"/>
            <path class="cls-1" d="M18.96,8.42s.04-.05,.1-.1c.2-.17,.34-.35,.33-.39,.03-.05-.14,.05,.45,.18,.03,0,.15,.03,.17,.04,.04,0,.29,.11,.68,.26,.22,.07,.43,.16,.66,.26,.22,.1,.52,.19,.77,.31,.52,.22,1.04,.48,1.53,.75,.5,.27,.93,.57,1.3,.88,.38,.31,.69,.63,.93,.97,.13,.16,.24,.32,.33,.49,.1,.16,.19,.31,.26,.47,.15,.3,.25,.57,.31,.79,.07,.19,.1,.32,.1,.32,0,0-.03,.47-.01,1.16,.01,.16,0,.38,.03,.56,.02,.18,.05,.39,.08,.59,.07,.41,.17,.82,.32,1.14,.24,.56,.51,.79,.65,.92,.15,.11,.21,.09,.16,.09-.05,0-.2,.01-.45,.12-.25,.09-.6,.27-1,.4,.03,.01-.18,.08-.56,.19-.19,.06-.41,.12-.66,.16-.25,.05-.52,.1-.8,.13-.27,.03-.55,.06-.82,.07-.26,.01-.54,.03-.74,.02-.43-.02-.72-.03-.72-.03,0,0-.21-.06-.53-.2-.31-.15-.79-.37-1.26-.73-.49-.34-.99-.81-1.44-1.37-.22-.28-.42-.59-.62-.91-.18-.33-.34-.67-.48-1.03-.13-.36-.23-.73-.31-1.1-.07-.37-.1-.76-.12-1.13,0-.75,.07-1.47,.28-2.11,.08-.31,.23-.62,.34-.87,.11-.26,.22-.48,.34-.67,.24-.38,.4-.6,.43-.62Z"/>
            <path class="cls-1" d="M45.73,1.88s.04-.04,.1-.09c.2-.16,.35-.33,.34-.37,.03-.05-.14,.04,.44,.16,.03,0,.15,.03,.17,.03,.04,0,.29,.1,.67,.26,.21,.08,.41,.18,.64,.3,.22,.12,.51,.24,.74,.4,.51,.3,.99,.7,1.44,1.16,.45,.46,.81,1.01,1.09,1.62,.28,.61,.45,1.27,.52,1.93,.07,.66,.03,1.31-.06,1.86-.12,.57-.26,1.02-.41,1.35-.14,.32-.24,.5-.24,.5,0,0-.1,.11-.3,.29-.18,.18-.49,.42-.82,.67-.34,.25-.75,.5-1.15,.73-.38,.23-.85,.4-1.15,.58-.55,.28-.85,.44-.98,.55-.13,.12-.12,.17-.1,.12,.04-.08-.06-.65-.44-1.31,0,.03-.09-.15-.26-.42-.09-.14-.19-.29-.31-.45-.12-.16-.26-.33-.39-.49-.27-.32-.58-.61-.79-.8-.21-.2-.38-.32-.38-.32,0,0-.06-.1-.16-.25-.09-.16-.22-.39-.33-.66-.06-.14-.11-.29-.14-.45-.05-.17-.08-.34-.1-.53-.05-.38-.06-.82,0-1.31,.05-.49,.17-1.03,.36-1.58,.19-.56,.42-1.11,.71-1.63,.13-.25,.31-.5,.44-.72,.13-.22,.26-.41,.4-.58,.25-.33,.43-.53,.46-.55Z"/>
            <path class="cls-1" d="M55.28,4.25s.05-.04,.11-.08c.21-.15,.36-.32,.35-.36,.03-.04-.14,.04,.43,.17,.03,0,.15,.04,.17,.05,.04,0,.28,.12,.67,.35,.2,.11,.39,.27,.6,.45,.2,.19,.48,.4,.67,.65,.44,.5,.79,1.13,1.06,1.83,.26,.69,.39,1.44,.4,2.16,0,.72-.11,1.41-.31,2.03-.2,.61-.47,1.15-.76,1.58-.57,.86-1.16,1.3-1.16,1.3,0,0-.13,.05-.36,.15-.21,.09-.56,.2-.93,.32-.38,.11-.81,.23-1.25,.33-.42,.11-.88,.18-1.22,.28-.58,.17-.91,.28-1.05,.38-.15,.1-.14,.15-.12,.11,.06-.07,.03-.64-.21-1.39-.01,.02-.06-.17-.16-.48-.11-.32-.26-.75-.41-1.16-.18-.43-.33-.82-.47-1.12-.13-.3-.23-.49-.23-.49,0,0-.01-.13-.04-.36-.03-.22-.02-.53-.01-.87,.03-.34,.07-.72,.2-1.1,.11-.38,.27-.76,.51-1.14,.22-.37,.52-.74,.87-1.09,.34-.35,.72-.71,1.11-1.06,.19-.18,.41-.35,.57-.51,.17-.16,.33-.31,.49-.45,.28-.26,.46-.45,.5-.47Z"/>
            <path class="cls-1" d="M69.21,2.98s.06-.03,.13-.06c.25-.1,.45-.22,.45-.27,.05-.04-.15,0,.34,.37,.03,.02,.12,.09,.14,.11,.04,.02,.23,.23,.52,.52,.17,.15,.35,.33,.53,.51,.18,.19,.42,.37,.62,.61,.43,.43,.83,.96,1.19,1.64,.36,.69,.62,1.55,.67,2.56,.02,.51,.03,1.03-.07,1.5-.07,.47-.2,1.03-.28,1.28-.17,.59-.47,1.28-.77,1.81-.32,.55-.62,.96-.88,1.26-.25,.29-.41,.45-.41,.45,0,0-.14,.08-.38,.22-.25,.14-.64,.31-1.05,.49-.41,.18-.94,.36-1.43,.49-.46,.16-1.03,.22-1.42,.32-.33,.09-.62,.11-.83,.15-.21,.04-.36,.06-.46,.1-.19,.07-.22,.12-.17,.09,.04-.04,.14-.19,.2-.47,.03-.14,.07-.28,.09-.45,.03-.16,0-.39,0-.58-.02,.02-.02-.19-.06-.52-.04-.32-.16-.82-.27-1.23-.14-.44-.29-.89-.41-1.18-.12-.31-.22-.53-.22-.53,0,0-.01-.15-.02-.39,0-.24-.02-.61,.02-1.01,.01-.21,.04-.44,.08-.68,.04-.23,.11-.55,.19-.84,.03-.11,.06-.22,.1-.33,.03-.08,.06-.16,.1-.24,.11-.16,.13-.32,.25-.49,.11-.15,.19-.42,.31-.63,.12-.23,.25-.55,.39-.81,.29-.6,.61-1.26,1-1.86,.17-.28,.43-.57,.61-.8,.19-.24,.36-.43,.56-.59,.37-.32,.61-.48,.65-.5Z"/>
            <path class="cls-1" d="M76.53,15.48s.06-.01,.14-.02c.27-.04,.5-.12,.5-.15,.05-.02-.16-.03,.37,.3,.03,.02,.14,.09,.15,.1,.04,.02,.25,.21,.54,.58,.15,.19,.28,.41,.41,.68,.13,.27,.29,.6,.35,.93,.19,.69,.19,1.49,.04,2.25-.04,.19-.09,.38-.14,.58-.06,.19-.12,.36-.2,.54-.15,.36-.33,.69-.53,.99-.2,.31-.42,.58-.66,.81-.24,.25-.48,.45-.73,.62-.5,.36-.99,.58-1.44,.72-.44,.14-.84,.19-1.11,.2-.28,.02-.45,0-.45,0,0,0-.13-.05-.35-.13-.21-.08-.54-.23-.89-.39-.36-.17-.75-.37-1.15-.58-.38-.19-.79-.44-1.11-.57-.54-.24-.86-.32-1.02-.33-.16,0-.18,.04-.14,.02,.08-.02,.26-.55,.38-1.34-.02,.01,.02-.18,.08-.52,.05-.35,.12-.8,.19-1.26,.06-.47,.11-.92,.15-1.25,.04-.33,.05-.55,.05-.55,0,0,.05-.12,.14-.31,.1-.19,.22-.44,.4-.68,.16-.25,.39-.48,.63-.67,.13-.09,.25-.17,.39-.24,.15-.06,.29-.11,.44-.14,.16-.04,.33-.04,.5-.05,.19,0,.38,.02,.58,.03,.42,.04,.87,.08,1.36,.09,.55,.03,.95-.04,1.4-.1,.38-.07,.64-.15,.68-.15Z"/>
            <path class="cls-1" d="M4.64,16.39s.05-.03,.12-.06c.24-.11,.42-.21,.42-.25,.04-.04-.14,.01,.38,.26,.03,.01,.14,.06,.15,.07,.04,.01,.26,.15,.58,.31,.38,.15,.77,.31,1.25,.36,.45,.05,.86,.03,1.22,0,.38-.03,.69-.02,1.01,.06,.32,.08,.63,.24,.93,.45,.3,.21,.59,.48,.83,.74,.5,.54,.81,1.08,.81,1.08,0,0,.11,.49,.27,1.22,.07,.35,.16,.76,.25,1.2,.09,.4,.17,.86,.27,1.19,.17,.56,.29,.88,.39,1.02,.1,.14,.15,.13,.11,.12-.07-.05-.62,0-1.35,.28,.02,.01-.16,.06-.47,.18-.32,.12-.74,.28-1.17,.43-.44,.16-.87,.31-1.21,.42-.34,.1-.56,.17-.56,.17,0,0-.15,0-.42-.02-.28-.04-.65-.09-1.1-.23-.23-.07-.47-.17-.71-.28-.25-.12-.52-.28-.78-.45-.53-.36-1.08-.85-1.56-1.48-.24-.3-.46-.7-.65-1.05-.19-.37-.33-.83-.44-1.22-.1-.42-.15-.88-.16-1.28,0-.41,.07-.83,.15-1.18,.06-.34,.27-.68,.4-.94,.14-.26,.27-.47,.45-.64,.32-.33,.54-.48,.58-.5Z"/>
            <path class="cls-1" d="M.1,31.03s0-.06-.01-.13c0-.25-.05-.46-.08-.47-.02-.05-.04,.14,.37-.28,.02-.02,.11-.11,.12-.12,.03-.03,.24-.19,.55-.42,.16-.14,.34-.26,.53-.39,.09-.07,.19-.14,.3-.22,.11-.09,.22-.17,.33-.24,.45-.32,.9-.56,1.36-.79,.48-.25,.93-.38,1.37-.47,.45-.1,.88-.1,1.29-.05,.4,.03,.78,.13,1.1,.27,.32,.13,.59,.26,.78,.37,.19,.11,.3,.2,.3,.2,0,0,.29,.38,.71,.93,.21,.28,.46,.58,.72,.9,.13,.15,.26,.3,.4,.46,.13,.14,.26,.26,.39,.37,.43,.35,.72,.5,.88,.55,.16,.04,.19,0,.15,.02-.09,0-.41,.41-.86,1.07,.03,0-.09,.15-.3,.44-.2,.28-.49,.63-.81,.99-.16,.19-.32,.37-.47,.53-.16,.17-.3,.34-.43,.45-.26,.25-.43,.41-.43,.41,0,0-.14,.07-.4,.18-.25,.1-.62,.25-1.06,.32-.44,.08-.96,.12-1.51,.08-.55-.06-1.13-.2-1.69-.42-.57-.24-1.11-.6-1.59-1.01-.48-.44-.9-.93-1.2-1.43-.16-.23-.28-.52-.39-.76-.11-.23-.2-.45-.26-.66-.12-.39-.18-.64-.18-.68Z"/>
            <path class="cls-1" d="M85.93,21.54s.05-.03,.12-.05c.24-.09,.43-.2,.43-.24,.04-.04-.14,0,.37,.27,.03,.02,.13,.07,.15,.08,.04,.02,.24,.18,.55,.49,.17,.15,.32,.34,.48,.55,.15,.22,.38,.48,.51,.75,.15,.28,.28,.59,.4,.92,.09,.33,.19,.69,.23,1.05,.04,.37,.06,.75,.03,1.13-.03,.38-.1,.76-.2,1.14-.21,.75-.56,1.45-.99,2.05-.23,.29-.46,.56-.7,.8-.25,.23-.5,.44-.74,.61-.5,.34-.94,.56-1.27,.69-.33,.13-.53,.17-.53,.17,0,0-.15,0-.41,0-.26-.01-.64-.07-1.04-.13-.41-.07-.87-.2-1.3-.34-.42-.12-.86-.33-1.19-.44-.57-.2-.89-.31-1.06-.32-.17,0-.2,.03-.16,.01,.08-.02,.4-.49,.6-1.23-.02,.01,.04-.17,.12-.48,.08-.31,.14-.75,.18-1.15,.03-.42,.02-.83,0-1.12-.02-.29-.05-.49-.05-.49,0,0,.02-.11,.06-.27,.03-.18,.09-.39,.17-.63,.04-.12,.09-.23,.15-.35,.05-.12,.12-.24,.21-.35,.07-.12,.17-.23,.28-.34,.1-.12,.23-.23,.37-.34,.27-.23,.63-.46,1.04-.69,.2-.12,.41-.25,.64-.37,.21-.13,.44-.26,.67-.38,.25-.13,.47-.26,.67-.37,.2-.12,.4-.23,.58-.32,.34-.19,.56-.32,.6-.33Z"/>
          </g>
          <path class="cls-10" d="M66.52,67.33c1.96-.14,3.49,1.14,5.1,1.8-.25-1.39-.92-2.76-1.97-3.72-.86-.79-2.29-.82-3.05-1.55-1.67-1.6,2.73-.85,3.65-.86-.7-1.03-3.36-2.2-5.25-2.38-2.18,5.68-18.52,12.36-18.52,12.36,0,0-17.7-7.07-19.1-12.86-1.88,.28-4.62,1.76-5.25,2.9,.92-.08,5.23-1.24,3.72,.51-.69,.8-2.12,.96-2.9,1.83-.95,1.05-1.5,2.48-1.62,3.88,1.55-.81,2.95-2.23,4.92-2.27-.57,1.37-1.83,1.82-2.06,3.59-.17,1.28-.17,4.9,1.25,5.48,.09-1.82,1.64-5.23,3.92-4.92-.09,.9-.76,1.44-.79,2.49-.06,1.74,.57,3.5,1.28,5.06,0-.68,1.18-2.96,2.07-2.62,.38,.14,.49,2.58,.92,3.14,.4-1.05,1.02-1.82,2.05-2.39-.06,1.19,.28,3.02,.92,3.98,.07-1.31,.51-3.05,1.29-4.24-.02,1.07,.19,2.14,.77,3.17-.08-.57-.08-1.18,.32-1.56-.27,1.3,.34,2.88,1.29,3.86,.03-.83,.33-1.73,.78-2.37,.21,1.34,1.08,2.58,1.85,3.64-.43-1.42,1.86-2.68,2.22-4.11,.01,.82,.12,1.63,.32,2.38,1.27-.98,2.65-1.89,2.77-3.61-.19,1.35,.53,1.73,1.18,.62,.12-.2,.21-.44,.3-.69,.16,1.41,.65,2.71,2,3.71-.31-.88,.13-1.65,.38-2.5,.76,.24,1.18,1.18,1.38,1.91,.72-.78,1.74-2.03,1.7-3.15,.11,.27,.18,.55,.25,.84,.05,.28,.09,.55,.12,.83,0,0,.02-.01,.03-.02,.13,1.05,.08,2.17,.07,3.22,1.02-.94,2.19-1.37,3.04-2.53,.21,.61,.37,1.23,.45,1.77,.54-1.01,.71-2.87,.54-4.05,1.07,.47,1.77,1.19,2.26,2.19,.38-.59,.26-3.03,.62-3.21,.86-.42,2.24,1.74,2.31,2.42,.56-1.62,1.02-3.43,.8-5.16-.13-1.04-.85-1.51-1.02-2.4,2.23-.52,4.1,2.73,4.36,4.54,1.36-.71,1.02-4.31,.74-5.57-.4-1.74-1.69-2.07-2.39-3.38Z"/>
        </g>
      </g>
    </g>
  </g>
</svg>