<?xml version="1.0" encoding="UTF-8"?>
<svg xmlns="http://www.w3.org/2000/svg" viewBox="0 0 83.66 108.28">
  <defs>
    <style>
      .cls-1 {
        fill: #ff2377;
      }

      .cls-2 {
        fill: #315400;
      }

      .cls-3 {
        fill: #fff;
      }

      .cls-4, .cls-5 {
        fill: #f0d907;
      }

      .cls-6 {
        fill: #599100;
      }

      .cls-7 {
        isolation: isolate;
      }

      .cls-5 {
        mix-blend-mode: multiply;
      }

      .cls-8 {
        fill: #5057b8;
      }

      .cls-9 {
        fill: #242424;
      }

      .cls-10 {
        fill: #e8e8e8;
      }

      .cls-11 {
        fill: #ff3381;
      }
    </style>
  </defs>
  <g class="cls-7">
    <g id="Ebene_2" data-name="Ebene 2">
      <g id="_Ńëîé_1" data-name="Ńëîé 1">
        <g>
          <path class="cls-8" d="M36.28,101.93c-1.67-1.19-3.52-.99-5.38-.57-.07-.13-.14-.27-.18-.42-.49-1.94-.21-4.37,0-6.36,.34-3.24,1.16-6.47,1.79-9.66,.07-.37-.38-.56-.6-.26-1.57,2.25-2.42,5.04-2.94,7.8-1.01-3.22-2.43-6.39-3.12-9.54-.08-.35-.64-.28-.63,.08,.08,2.95,1.42,5.81,2.15,8.64,.74,2.86,1.18,6.33,.65,9.37-2.19,1.35-5.95,.75-8.4,1.55-.45,.15-.82,.72-.72,1.19,.62,2.99,2.86,2.99,5.22,2.33-.16,.54-.05,1.06,.51,1.54,2.16,1.83,3.58-.57,4.85-2.39,1.12,1.56,2.88,3.59,4.73,2.16,1.11-.86,.98-1.84,.31-2.72,.8-.14,1.5-.47,1.92-1.13,.32-.5,.39-1.22-.16-1.61Z"/>
          <path class="cls-8" d="M45.69,101.93c1.74-1.19,3.65-.99,5.59-.57,.08-.13,.14-.27,.18-.42,.51-1.94,.21-4.37,0-6.36-.35-3.24-1.21-6.47-1.85-9.66-.08-.37,.4-.56,.62-.26,1.63,2.25,2.52,5.04,3.05,7.8,1.04-3.22,2.52-6.39,3.24-9.54,.08-.35,.66-.28,.65,.08-.08,2.95-1.48,5.81-2.24,8.64-.77,2.86-1.23,6.33-.67,9.37,2.28,1.35,6.18,.75,8.71,1.55,.46,.15,.85,.72,.75,1.19-.65,2.99-2.96,2.99-5.42,2.33,.17,.54,.06,1.06-.53,1.54-2.25,1.83-3.72-.57-5.03-2.39-1.16,1.56-2.99,3.59-4.91,2.16-1.15-.86-1.02-1.84-.32-2.72-.83-.14-1.55-.47-2-1.13-.33-.5-.4-1.22,.17-1.61Z"/>
          <g>
            <path class="cls-5" d="M43.56,41.77c-4.47-.21-7.93-4.01-7.72-8.48,.02-.4,.08-.8,.19-1.28,.8-3.91,4.29-6.63,8.29-6.45,4.47,.21,7.93,4.01,7.73,8.48-.21,4.47-4.01,7.93-8.48,7.73Z"/>
            <path class="cls-4" d="M43.56,41.77c-4.47-.21-7.93-4.01-7.72-8.48,.02-.4,.08-.8,.19-1.28,.8-3.91,4.29-6.63,8.29-6.45,4.47,.21,7.93,4.01,7.73,8.48-.21,4.47-4.01,7.93-8.48,7.73Z"/>
            <g>
              <g>
                <path class="cls-3" d="M37.24,33.35c-.17,3.7,2.69,6.83,6.38,7,3.7,.17,6.83-2.69,7.01-6.38,.17-3.7-2.68-6.83-6.38-7.01-3.7-.17-6.83,2.69-7.01,6.38Z"/>
                <path class="cls-10" d="M37.57,31.65c.05,3.52,2.8,6.44,6.36,6.6,3.1,.14,5.78-1.86,6.68-4.68,0,.14,.03,.27,.02,.4-.17,3.7-3.31,6.55-7.01,6.38-3.7-.17-6.55-3.31-6.38-7,.03-.59,.16-1.16,.33-1.7Z"/>
              </g>
              <g>
                <path d="M38.81,31.71c-.08,1.84,1.34,3.41,3.18,3.49,1.84,.09,3.41-1.34,3.49-3.18,.09-1.84-1.34-3.41-3.18-3.49-1.84-.08-3.41,1.34-3.49,3.18Z"/>
                <path class="cls-3" d="M42.19,30.98c-.04,.74,.53,1.36,1.27,1.39,.74,.03,1.36-.53,1.4-1.27,.03-.74-.54-1.36-1.27-1.39-.74-.03-1.36,.54-1.39,1.27Z"/>
              </g>
            </g>
          </g>
          <path class="cls-8" d="M65.67,60.26c-.91,19.66-12.73,25.18-26.96,24.51-14.23-.66-25.48-7.26-24.56-26.91,.92-19.66,13.65-44.93,27.88-44.27,14.23,.66,24.56,27.01,23.64,46.67Z"/>
          <g>
            <path class="cls-1" d="M28.27,10.26c-1.08,0-1.55,.5-1.73,1.63-.85-1.2-1.54-3.08-1.15-4.55-2.63,.68-3,2.79-2.32,4.72-.18-.23-.35-.46-.44-.64-.74-1.53-1.1-5.05-.45-7.02-1.36,.89-1.94,1.7-2.43,2.61-.52,.98-.89,1.98-.98,3.09-.02,.29,0,.58,.02,.88-1.15-.92-2.17-2.46-2.97-5.13-2.22,1.24-3.04,4.46-3.17,6.67-2.04-1.24-3.11-4.47-3.35-5.88-1.26,1.03-2.32,3.33-2,5.75-1.32-.65-2.42-2.18-3.86-4.24-1.75,3.42-.25,6.8,.74,7.4-1.22,.2-2.48-.72-4.17-1.94,1.39,5.7,3.93,10.24,10.92,8.15,4.3-1.29,9.25-4.31,18.65,1.73,0,0,3.58-.48,3.99-4.75-2.28-2.68-5.52-2.08-5.3-8.49Z"/>
            <path class="cls-1" d="M55.83,11.54c1.08,.11,1.5,.64,1.57,1.78,.96-1.12,1.82-2.93,1.57-4.42,2.56,.92,2.73,3.05,1.87,4.92,.21-.22,.39-.42,.5-.6,.88-1.46,1.57-4.93,1.1-6.95,1.27,1.01,1.78,1.88,2.17,2.83,.43,1.02,.7,2.05,.69,3.17,0,.29-.05,.58-.11,.88,1.23-.81,2.39-2.24,3.44-4.83,2.1,1.44,2.61,4.72,2.54,6.93,2.15-1.04,3.51-4.16,3.88-5.54,1.16,1.14,2,3.53,1.46,5.91,1.37-.52,2.61-1.95,4.24-3.86,1.42,3.57-.38,6.79-1.42,7.3,1.2,.32,2.54-.49,4.34-1.54-1.91,5.55-4.86,9.83-11.63,7.1-4.16-1.68-8.81-5.15-18.74-.01,0,0-3.53-.81-3.54-5.1,2.52-2.45,5.69-1.56,6.06-7.96Z"/>
          </g>
          <g>
            <path class="cls-1" d="M46.49,10.43c.33-1.75,.09-3.88-.89-5.4,.11,1.16-.41,2.39-1.46,3.01,.23-1.21-1.29-6.55-3.21-8.05,.35,1.76-.34,2.91-.59,4.53-.16-.43-.48-1.87-.55-2.39-1.06,1.31-2.65,4.37-2.07,6.22-.25-.74-.7-1.66-1.27-2.21-1.23,2.98-.59,5.64,2.74,6.91-.65,.59-2.17,.32-3.04,.13,1.67,1.5,4.49,1.53,6.6,1.33,1.87-.18,3.36-2.1,3.74-4.1Z"/>
            <path class="cls-9" d="M45.87,17.64s-5.04-3.58-9.81-1c-2.3,1.24-.24,2.42,.26,2.16,4.23-2.22,9.55-1.16,9.55-1.16Z"/>
            <g>
              <path class="cls-2" d="M39.29,40.58c-5.84-1.03-9.75-6.61-8.72-12.45,.09-.53,.24-1.06,.46-1.67,1.71-4.99,6.76-7.97,11.99-7.05,5.56,.98,9.42,6.16,8.77,11.8,0,.24-.02,.44-.06,.64-1.03,5.84-6.61,9.75-12.45,8.72Z"/>
              <g>
                <g>
                  <path class="cls-3" d="M32.83,28.53c-.81,4.6,2.26,8.98,6.86,9.79,4.59,.81,8.98-2.26,9.79-6.86,.81-4.6-2.26-8.98-6.85-9.79-4.6-.81-8.98,2.26-9.79,6.85Z"/>
                  <path class="cls-10" d="M33.52,26.45c-.51,4.41,2.46,8.5,6.89,9.28,3.86,.68,7.53-1.39,9.11-4.78-.02,.17,0,.34-.04,.51-.81,4.6-5.19,7.67-9.79,6.86-4.6-.81-7.67-5.19-6.86-9.79,.13-.74,.38-1.42,.69-2.08Z"/>
                </g>
                <g>
                  <path d="M35.06,26.72c-.4,2.3,1.12,4.48,3.41,4.89,2.29,.4,4.48-1.13,4.88-3.42,.4-2.29-1.12-4.47-3.42-4.88-2.29-.4-4.47,1.12-4.88,3.42Z"/>
                  <path class="cls-3" d="M39.4,26.36c-.16,.91,.45,1.79,1.37,1.95,.91,.16,1.78-.45,1.95-1.36,.16-.91-.45-1.79-1.36-1.95-.92-.16-1.79,.45-1.95,1.36Z"/>
                </g>
              </g>
            </g>
            <g>
              <path class="cls-6" d="M57.59,38.94c-1.74-1.33-3.7,.56-3.7,.56-3.66,3.03-8.07,4.75-12.95,4.75v-.05c-.63-.02-1.27-.05-1.9-.12-5.53-.62-10.1-3.31-13.46-7.4,0,0-1.56-2.23-3.52-1.26-1.81,.9-3.63,19.17,12.82,22.68v.04c.44,.11,.89,.22,1.35,.3,.61,.11,1.25,.19,1.87,.24,19.22,1.61,21.17-18.45,19.48-19.75Z"/>
              <path class="cls-2" d="M39.19,45.63c-6.3-.51-11.78-3.39-15.46-7.58-.21,.78-.37,1.58-.44,2.41-.65,8.11,6.08,15.27,15.03,15.99,8.95,.72,16.73-5.27,17.38-13.39,.07-.83,.04-1.65-.04-2.45-4.3,3.55-10.16,5.53-16.47,5.02Z"/>
              <g>
                <path class="cls-3" d="M46.69,49.06c-2.52,4.58-13.16,2.97-13.16,2.97,0,0-.2,1.89-.35,3.22,1.59,.63,3.31,1.06,5.14,1.2,5.8,.46,11.09-1.9,14.29-5.82-1.3-2.55-3.89-5.26-5.92-1.57Z"/>
                <path class="cls-3" d="M30.75,54.06c-.95-3.22,.45-8.38-1.21-6.98-.99,.84-1.97,2.41-2.69,3.73,1.1,1.25,2.41,2.36,3.9,3.25Z"/>
              </g>
              <g>
                <path class="cls-3" d="M51.39,43.33c.54,.7,1.13,1.6,1.41,2.55,.54,1.82,1.87-2.54,1.68-4.39-.97,.7-2,1.31-3.09,1.84Z"/>
                <path class="cls-3" d="M29.78,42.83c-.93-.5-1.81-1.06-2.65-1.68-.42,1.06-.96,2.72-.97,4.16-.01,2.15,1.6-1.3,3.62-2.48Z"/>
              </g>
            </g>
          </g>
          <g>
            <path class="cls-1" d="M73.69,54.33c1.46,.32,.51,.43,3.53,1.2-.47-3.36-1.44-6.12-2.7-8.43,.17,.06,.34,.12,.52,.16-.03-.58-.28-1.18-.78-1.52,.56,.36,1.13,.75,1.65,1.21-.9-2.38-2.25-5.79-5.73-7.55-1.56-.79-7.49-3.63-8.82-4.92,.5,.76,.39,1.77,.85,2.54,0,0-1.29-.55-1.84-.59,.11,1.08,2.02,3.65,3,3.91-1.11,.13-1.21-.49-3.78-.61,1.08,1.21,2.76,3.51,3.94,4.63-1.27-.1-2.79-.01-3.91,.63,1.39,1.82,3.05,2.91,4.22,4.52-.4-.17-2.18,.04-2.62-.12,.76,3.74,2.51,4.36,3.21,8.29-.51-.89-2-1.68-3.15-2.19,1.11,2.39,.94,6.47,.28,9.68-1.14-.42-2.41-.9-3.09-1.94,.36,2.91,.1,4.93-1.41,7.5-.36-1.52-.39-3.43-1.38-4.72,.98,2.7-2.31,9.6-5.17,9.91-.26-.9-.39-1.91-.89-2.73-1.06,.7-1.76,2.09-2.23,3.23-.6-.79-1.07-1.76-1.26-2.72-.65,1.93-.44,3.59-1.99,5.38-2.63-4.18-1.93,1.08-3.41,3.15-.8-6.11-4.43-6.34-3.95-11.68-1.24,.16-2.57,1.84-3.02,3.02-.5-1.18-.19-4.67-.99-5.53-.94,.99-1.52,.54-2.58,2.07-.55-1.4-.68-3.84-.67-5.36-1.45,0-2.26,1.21-2.51,2.54-.95-2.71-2.17-6.74-.77-9.35-2.66,.19-3.99,2.13-5.69,3.79-1.3-2.52-.45-4.62,1.65-6.77-1.09-1.21-2.2-2.12-4.41-2.61,.72-.66,1.66-2.16,2.91-2.66-.71-2.39-1.66-4.34-3.14-5.57,1.05,.25,1.93,.11,2.81,.67,.13-2.27-1.25-3.66-.68-5.04,.22,.78,.44,.93,.79,1.07,.03-1.17,.16-2.22,.1-3.38-.11-2.1-.56-2.91-.28-3.91-2.53,1.6-4.57,3.3-5.62,4.5-2.22,2.55-6.62,6.05-9.17,8.37,1.97,.25,2.28-.22,1.18,1.08-1.5,1.78-2.87,3.54-3.26,5.99,2.74-1.01,5.84-2.51,4.7,1.36-1.21,4.12-5.49,12.58-1.45,16.38,.09-.93,.55-1.93,1.54-2.11,.45,3.34,1.22,7.45,3.71,9.99-.2-3.03,1.47-2.67,2.44-.38,1.33,3.15,2.4,10.57,6.89,11.06-1.2-1.45-.32-1.63,.81-.78,.89,.67,1.47,2.22,2,3.17,.02,0,.04-.02,.06-.03,.96,1.79,2.04,3.28,2.76,3.78-.17-.41-.18-.85-.12-1.3,.32,.24,.63,.48,.92,.73,.09,.08,.2,.16,.31,.25,.61,.61,1.24,1.22,1.89,1.72,.06-.14,.11-.29,.16-.44,1.37,.81,2.79,1.66,3.19,2.51,.65-.86,.96-1.95,1.44-2.96,.28,.5,.57,1.02,.79,1.26,.47,.51,1.01,1.05,1.6,1.53,1.55,2.03,3.7,4.2,4.63,5.4,.09,.35,.19,.69,.33,1.02,.82-1.52,3.98-5.34,5.02-7.99,.34-.34,.66-.69,.95-1.03,.54,.98,.92,2.06,1.61,2.89,.51-1.47,3.64-3.15,4.83-4.45,.5-.55,1.12-1.08,1.67-1.66,.07,1.34-.05,2.67-.46,3.94,2.01-1.54,3.6-4.22,3.69-6.83,.11,.77,.43,1.72,.54,2.39,.9-1.55,2.09-3.23,2.36-5.09,.08-.53,.09-1.06,.06-1.57,.83-.46,1.31-.16,.36,1.11,.38-.07,.74-.19,1.07-.34,.15,.59,.24,1.18,.26,1.77,.4-1.08,1.46-1.89,1.99-2.96,.43-.87,.78-1.77,.97-2.71,1.04-2.53,1.47-5.58,2.09-7.36,.83-2.36,2.58-2.85,2.63,.18,2.43-2.74,2.89-6.9,3.07-10.27,1.08,.1,1.65,1.06,1.83,1.98,3.98-4.12-1.21-9.3-2.87-13.3Z"/>
            <path class="cls-1" d="M75.92,46.95s0,0,0,0c0,0,0,0,0,0,.04,.05,.04,.04,0,0Z"/>
          </g>
          <path class="cls-11" d="M67,58.62c-.37,1.56-.78,3.39-1.44,5.01-.19,.92-.53,1.8-.95,2.64-.51,1.04-1.55,1.84-1.94,2.88-.01-.58-.11-1.15-.25-1.72-.32,.15-.67,.26-1.04,.33,.92-1.24,.46-1.53-.35-1.08,.03,.5,.02,1.01-.05,1.53-.27,1.82-1.42,3.45-2.3,4.96-.1-.65-.41-1.58-.52-2.33-.09,2.54-1.63,5.14-3.59,6.65,.4-1.23,.52-2.54,.45-3.84-.53,.56-1.14,1.08-1.63,1.61-1.16,1.27-4.21,2.91-4.71,4.34-.67-.81-1.04-1.86-1.57-2.81-.28,.33-.59,.67-.92,1-1.02,2.59-4.09,6.3-4.89,7.78-.13-.33-.23-.66-.32-1-.9-1.16-3-3.27-4.51-5.25-.57-.47-1.1-1-1.55-1.49-.21-.24-.49-.75-.76-1.23-.46,.98-.76,2.04-1.4,2.88-.39-.83-1.78-1.66-3.11-2.45-.05,.14-.1,.29-.16,.43-.63-.49-1.24-1.08-1.84-1.68-.11-.08-.21-.16-.3-.24-.28-.24-.59-.47-.9-.71-.06,.44-.05,.87,.12,1.27-.7-.49-1.76-1.93-2.69-3.68-.02,0-.04,.02-.06,.03-.52-.92-1.08-2.43-1.95-3.08-1.1-.83-1.96-.66-.79,.76-4.37-.48-5.42-7.71-6.71-10.78-.29-.68-.63-1.18-.98-1.47-1.18,3.58-4.21,10.05-1.02,13.05,.07-.77,.45-1.6,1.28-1.75,.37,2.78,1.02,6.19,3.08,8.31-.17-2.52,1.22-2.22,2.02-.32,1.1,2.62,2,8.78,5.73,9.19-1-1.21-.26-1.36,.68-.65,.74,.56,1.22,1.84,1.66,2.63,.02,0,.04-.02,.05-.03,.79,1.49,1.7,2.73,2.3,3.14-.14-.34-.15-.7-.1-1.08,.26,.2,.53,.4,.76,.61,.08,.07,.16,.13,.26,.2,.51,.51,1.03,1.01,1.57,1.43,.05-.12,.09-.24,.14-.37,1.14,.67,2.32,1.38,2.65,2.09,.54-.72,.8-1.62,1.19-2.46,.24,.41,.47,.85,.65,1.05,.39,.43,.84,.87,1.33,1.27,1.29,1.69,3.08,3.49,3.84,4.48,.08,.29,.16,.57,.27,.85,.68-1.27,3.31-4.43,4.17-6.64,.28-.28,.55-.57,.79-.86,.45,.81,.76,1.71,1.34,2.4,.42-1.22,3.03-2.62,4.02-3.7,.42-.46,.93-.9,1.39-1.38,.06,1.11-.04,2.22-.38,3.28,1.67-1.28,2.99-3.5,3.06-5.67,.09,.64,.36,1.43,.45,1.99,.75-1.29,1.73-2.68,1.96-4.23,.07-.44,.07-.88,.05-1.31,.69-.38,1.08-.13,.3,.92,.32-.06,.61-.16,.89-.28,.12,.49,.2,.98,.21,1.47,.33-.89,1.22-1.57,1.65-2.46,.35-.72,.65-1.47,.81-2.25,.86-2.11,1.22-4.64,1.74-6.11,.69-1.96,2.14-2.37,2.19,.15,2.02-2.28,2.4-5.74,2.55-8.53,.89,.08,1.37,.88,1.52,1.64,2.76-2.86,.21-6.33-1.5-9.33h-1.92Z"/>
          <path class="cls-8" d="M22.53,82.63s-.04,.07,0,.07,.04-.07,0-.07Z"/>
          <path class="cls-8" d="M25.7,82.96s-.04,.07,0,.07,.04-.07,0-.07Z"/>
          <path class="cls-8" d="M8.55,72.13c.56-3.31,2.58-5.48,4.38-8.16,2.19-3.25,4.02-6.44,4.13-10.4,0-.25-.32-.34-.46-.14-.01,.02-.02,.03-.03,.05-.13-.57-.79-1.01-1.29-.48-.04,.04-.07,.09-.1,.13-.07-.1-.14-.19-.23-.28-.03-.03-.09-.03-.12,0-.15,.15-.29,.32-.43,.5-.03-.13-.06-.26-.09-.38-.2-.8-1.22-.72-1.4,.03,0,0-.02,.01-.03,.02-.05,.02-.09,.05-.13,.1,0,0-.01,.02-.02,.03-.42,.38-.76,1.03-1.06,1.73-.49,.98-.91,2.06-1.29,3.14-1.46,2.77-3.29,5.34-4.68,8.15-1.29,2.61-1.58,5.47-1.52,8.32,.02,.8,.17,1.96,.46,3.14-.23,1.5-.99,2.86-1.54,4.38-.78,2.17,1.52,5.49,3.72,5.82,.64,.1,1.36-.39,1.13-1.12-.23-.71-.6-1.36-1.04-1.97-.89-1.24-1.18-2.32-1-3.4,.74,1.34,.86,2.91,2.41,3.71,1.02,.52,2-.3,1.91-1.35-.06-.65-.27-1.26-.54-1.84,.73,.12,1.59-.59,1.27-1.45-.56-1.48-1.4-2.74-2.75-3.41-.1-1.64,.07-3.31,.33-4.86Z"/>
          <path class="cls-8" d="M76.5,71.6c-.71-3.31-3.26-5.48-5.54-8.16-2.77-3.25-5.08-6.44-5.23-10.4,0-.25,.4-.34,.58-.15,.01,.02,.03,.04,.04,.05,.16-.57,1-1.01,1.63-.48,.05,.04,.08,.09,.12,.13,.08-.1,.17-.2,.29-.29,.04-.03,.12-.03,.16,0,.19,.15,.37,.32,.54,.5,.04-.13,.08-.26,.11-.38,.25-.8,1.54-.72,1.77,.03,.01,0,.02,.01,.04,.02,.06,.02,.12,.05,.16,.1,0,0,.02,.02,.02,.03,.53,.38,.97,1.03,1.34,1.73,.62,.97,1.15,2.06,1.64,3.14,1.85,2.77,4.16,5.34,5.92,8.15,1.64,2.61,2,5.47,1.92,8.32-.02,.8-.21,1.96-.59,3.14,.29,1.5,1.25,2.86,1.94,4.38,.98,2.17-1.91,5.49-4.7,5.82-.81,.1-1.72-.39-1.43-1.12,.29-.72,.76-1.36,1.31-1.97,1.12-1.24,1.49-2.32,1.26-3.4-.94,1.34-1.08,2.91-3.05,3.71-1.29,.53-2.52-.3-2.41-1.35,.07-.65,.34-1.25,.68-1.84-.92,.12-2.01-.59-1.6-1.45,.71-1.48,1.77-2.74,3.48-3.41,.13-1.64-.08-3.31-.42-4.86Z"/>
          <path class="cls-1" d="M13.1,51.15c-2.17,1.97-2.66,4.7-3.71,7.26,.34-.62,.58-1.49,1.19-1.9,.09,.05,.23,.12,.31,.19-.76,1.11-.53,3.01-.45,4.29,.65-1.09,1.68-2.42,3.01-2.7-.42,.99-.78,1.88-.8,3.1-.01,.9,.15,4.4,1.28,4.64,.05-1.26-.09-3.68,1.44-4.14,.09,.93,.98,2.63,1.68,3.18-.19-1.54-.43-3.15-.15-4.76,.2-1.12,.93-3.07,.04-4.04,.53,.44,.74,1.07,1.39,1.36,.95-1.25-.06-3.91-.9-4.91-.47-.56-1.09-.86-.78-1.59,.31-.73,2.88-2.99,.29-2.51-1.39,.26-2.82,1.6-3.83,2.52Z"/>
          <path class="cls-1" d="M72.86,56.02c-.25-2.52-1.28-4.48-4.01-5.41-1.18-.4-2.99,.03-4.39,.9,.44,.89,.65,1.92,.79,2.91,.21,1.43,.45,2.86,.54,4.3,.2,.61,.35,1.23,.59,1.82,.15,.37,1.34,1.94,1.27,2.21,.28-1.08,.5-2.23,.78-3.31,.37,.55,.85,1.25,1.39,1.64,.7-2.22,.69-4.17-1.18-5.83,1.02,.58,2.52,2.51,2.76,3.56,.17-1.05,.44-2.5,.08-3.41,.36,.37,.84,.58,1.37,.64Z"/>
          <path class="cls-1" d="M26.17,29.54c-.36,0-.69,.19-.74,.58-.04,.33,.22,.74,.58,.74s.69-.19,.74-.58c.04-.33-.22-.74-.58-.74Z"/>
          <path class="cls-1" d="M28.57,33.45c-.29,0-.31,.45-.02,.45s.31-.45,.02-.45Z"/>
          <path class="cls-1" d="M28.48,35.72c0-.12-.08-.23-.21-.23-.05,0-.11,0-.16,0-.32,0-.47,.41-.25,.63,.23,.23,.63,.06,.62-.27,0-.04,0-.09,0-.13Z"/>
          <path class="cls-1" d="M31.68,37.38c-.84,0-1.01,1.32-.16,1.32s1.01-1.32,.16-1.32Z"/>
          <path class="cls-1" d="M34.34,39.83c-1.24,0-1.2,1.92,.03,1.92s1.2-1.92-.03-1.92Z"/>
          <path class="cls-1" d="M37.76,42.22c-.01-.05-.1-.05-.12,0-.01,.04-.02,.09-.04,.13-.05,.18,.23,.16,.19,.02-.01-.05-.03-.1-.04-.15Z"/>
          <path class="cls-1" d="M37.56,42.84c-.03-.41-.06-.83-.09-1.24-.11,.02-.21,.06-.3,.13,0,0,0,.01-.02,.02-.03,0-.07,.04-.13,.12-.1,.13-.15,.29-.13,.45,.02,.14,.1,.29,.22,.39,.1,.1,.22,.17,.37,.17-.06,0-.1-.02-.14-.05,.07,.02,.15,.02,.22,0Z"/>
          <path class="cls-1" d="M40.02,42.62c-.44,0-.44,.69,0,.69s.44-.69,0-.69Z"/>
          <path class="cls-1" d="M42.46,41.48c-.61,0-.55,.95,.06,.95s.55-.95-.06-.95Z"/>
          <path class="cls-1" d="M45.42,41.54c-1.09,0-1.15,1.7-.05,1.7s1.15-1.7,.05-1.7Z"/>
          <path class="cls-1" d="M48.07,39.3c-.8,0-.63,1.24,.17,1.24s.63-1.24-.17-1.24Z"/>
          <path class="cls-1" d="M49.67,40.63c-.77,0-.62,1.19,.15,1.19s.62-1.19-.15-1.19Z"/>
          <path class="cls-1" d="M52.21,37.98c-.51,0-.93,.43-.93,.93,0,.51,.42,.93,.93,.93s.93-.43,.93-.93c0-.51-.43-.92-.93-.92Z"/>
          <path class="cls-1" d="M54.69,33.3c-.3,0-.32,.47-.02,.47s.32-.47,.02-.47Z"/>
          <path class="cls-1" d="M56.57,36.12c-.41,0-.42,.64,0,.64s.42-.64,0-.64Z"/>
          <path class="cls-1" d="M53.79,36.32s0-.02,0-.03c.11-.36-.24-.78-.63-.73-.54,.06-.63,.68-.3,1.02,0,0,0,0,0,0,.23,.24,.59,.12,.79-.07,0,0,.02-.02,.02-.02,.01-.01,.01-.03,.03-.04,.03-.04,.06-.08,.07-.12Z"/>
          <path class="cls-1" d="M53.68,30.35c-.18,0-.21,.28-.02,.28s.21-.28,.02-.28Z"/>
          <path class="cls-1" d="M56.27,31.87c-.46,0-.45,.72,0,.72s.45-.72,0-.72Z"/>
          <path class="cls-1" d="M58.16,32.54c-.08-.68-.65-1.03-1.28-1.03s-1.09,.7-1.03,1.28c.08,.68,.65,1.03,1.28,1.03s1.09-.7,1.03-1.28Z"/>
          <path class="cls-1" d="M25.62,33.04c-.63,0-.56,.98,.07,.98s.56-.98-.07-.98Z"/>
          <path class="cls-1" d="M25.67,32.17c-.51,0-.93,.43-.93,.94,0,.51,.43,.93,.94,.93s.93-.43,.93-.94c0-.51-.43-.93-.94-.93Z"/>
          <path class="cls-1" d="M28.85,29.37c-.2,0-.36,.27-.19,.42l.05,.04c.05,.09,.19,.13,.25,.02,.02-.02,.03-.03,.05-.05,.16-.15,.06-.43-.16-.43Z"/>
          <path class="cls-1" d="M27.41,35.18c-.2-.18-.45-.15-.7-.13-.76,.07-.72,1.26,.03,1.33,.05,0,.11,.01,.16,.01,.3,0,.6-.12,.71-.43,0,0,0,0,0-.01,.11-.29,.02-.57-.21-.77Z"/>
          <path class="cls-1" d="M30.44,38.08c.03,.11,.03,.13,0,.06,0,0,0-.02,0-.03-.1-.46-.77-.37-.87,.04,0,.02-.01,.05-.02,.07-.08,.37,.38,.75,.71,.49l.17-.14c.14-.11,.14-.38,0-.49Z"/>
          <path class="cls-1" d="M30.12,33.68c-.08-.09-.19-.13-.3-.15-.69-.16-.72,1.05,.04,.87,.11-.03,.19-.07,.27-.15,.15-.16,.14-.41,0-.56Z"/>
          <path class="cls-1" d="M50.85,37.94s-.02-.03-.02-.05c-.14-.28-.57-.24-.71,.02-.01,.02-.02,.04-.03,.06-.16,.3,.08,.67,.42,.65,.36-.02,.5-.39,.35-.68Z"/>
          <path class="cls-1" d="M48.1,41.78c-.04-.3-.45-.21-.49,.05,0,.04,0,.08,0,.12,.02,.32,.48,.35,.5,.02,0-.06,0-.12,0-.19Z"/>
          <path class="cls-1" d="M39.2,41.04c-.99,0-1.1,1.54-.11,1.54s1.1-1.54,.11-1.54Z"/>
          <path class="cls-1" d="M37.17,41.49c-.41,0-.78,.26-.81,.7-.03,.39,.28,.81,.7,.81s.78-.26,.81-.7c.03-.39-.29-.81-.7-.81Z"/>
          <path class="cls-1" d="M27.68,31.91s-.04,.07,0,.07,.03-.07,0-.07Z"/>
          <path class="cls-1" d="M27.67,31.55c-.5,0-.48,.78,.02,.78s.48-.78-.02-.78Z"/>
          <path class="cls-1" d="M52.66,32.69s-.03-.01-.04-.02c-.88-.41-1.2,1.18-.33,1.19,.04,0,.07,0,.11,0,.01,0,.03,0,.04,0h.05c.27,0,.48-.19,.49-.45,.08-.27-.02-.58-.32-.73Z"/>
          <path class="cls-1" d="M55.73,36.93c-.06-.5-.86-.62-.93-.07,0,.02,0,.04,0,.06-.09,.72,1.02,.73,.94,.06,0-.02,0-.04,0-.06Z"/>
          <path class="cls-1" d="M43.07,42.97c-.02-.06-.03-.08-.04-.07,0-.02,0-.04-.02-.05,0,0,.01,0,.02,0-.13-.23-.43-.17-.52,.05-.02,.04-.03,.08-.04,.12-.11,.52,.72,.52,.62,0,0-.02,0-.04-.01-.07Z"/>
          <path class="cls-1" d="M46.55,40.13s-.1-.08-.16-.1c-.23-.1-.5-.02-.56,.24-.06,.26,.2,.58,.48,.46,.11-.03,.2-.09,.28-.17,.15-.11,.09-.33-.04-.43Z"/>
          <path class="cls-1" d="M29.26,26.46c-.34,0-.58,.4-.54,.7,.05,.37,.36,.54,.7,.54s.58-.4,.54-.7c-.05-.37-.36-.54-.7-.54Z"/>
          <path class="cls-1" d="M53.48,27.78c-.43,0-.81,.29-.84,.74-.02,.41,.31,.83,.74,.83s.81-.29,.83-.74c.02-.41-.31-.83-.74-.83Z"/>
          <path class="cls-1" d="M53.19,31.64c-.04,.06-.07,.13-.09,.2-.1,.36,.28,.62,.59,.53,.08-.02,.14-.06,.21-.11,.63-.4-.25-1.34-.71-.63Z"/>
          <path class="cls-1" d="M55.28,30.99c-.41,0-.42,.64,0,.64s.42-.64,0-.64Z"/>
          <path class="cls-1" d="M51.35,36.19s0,0,0,0c0-.11-.09-.17-.18-.17-.01,0-.02,0-.04,0,0,0,0,0,0,0-.12,0-.25,.08-.25,.22,0,.13,.1,.24,.22,.24,.04,0,.07,0,.09-.01-.01,.03,0,.02,.07-.04,.05-.04,.08-.1,.08-.17,0-.02,0-.04,0-.06Z"/>
          <path class="cls-1" d="M31.56,39.83s-.05,0-.07,.01c-.27,.05-.36,.41-.23,.61,.07,.12,.21,.18,.34,.19,0,0,0,0,0,.01,.66,.13,.68-.96-.03-.83Z"/>
          <path class="cls-1" d="M33.66,39.17c-.27,0-.3,.42-.02,.42s.3-.42,.02-.42Z"/>
          <path class="cls-1" d="M29.97,35.96s.02,.04,.03,.07c.02,.04,.07,.04,.08,0l.03-.07c.06-.13-.2-.14-.14,0Z"/>
          <path class="cls-1" d="M30.12,35.56c-.49,0-.47,.75,.02,.75s.47-.75-.02-.75Z"/>
          <path class="cls-1" d="M28.02,37.47c-.33,0-.35,.51-.02,.51s.35-.51,.02-.51Z"/>
          <path class="cls-1" d="M28.04,27.97s-.02,0-.04-.01c-.38-.12-.36,.54-.02,.44h.03c.19-.07,.24-.36,.02-.42Z"/>
          <path class="cls-1" d="M29.47,31.62s-.03,0-.04,0c-.62-.07-.63,.86-.08,.8,.01,0,.03,0,.04,0,.42-.05,.56-.74,.08-.79Z"/>
          <path class="cls-1" d="M54.7,34.22c-.58,0-.53,.9,.05,.9s.53-.9-.05-.9Z"/>
          <path class="cls-1" d="M53.78,38.08c-.56,0-.52,.86,.04,.86s.52-.86-.04-.86Z"/>
          <path class="cls-1" d="M9.29,63.69s-.09-.03-.14-.04c-.28-.08-.5,.23-.37,.47,.09,.17,.25,.21,.42,.22,.12,.01,.25-.1,.24-.22,0,0,0-.02,0-.03,.08-.14,.04-.34-.15-.4Z"/>
          <path class="cls-1" d="M8.16,65.52c-.48,0-.47,.75,.02,.75s.47-.75-.02-.75Z"/>
          <path class="cls-1" d="M8.29,63.67c-.4,.02-.52,.49-.28,.76,0,.01,.02,.02,.03,.03,.16,.15,.39,.14,.54,0,.02-.01,.03-.03,.04-.04,.26-.28,.04-.75-.34-.73Z"/>
          <path class="cls-1" d="M6.22,66.92s.04,.06,.06,.09c.05,.07,.15,.06,.2,0,.02-.04,.05-.07,.07-.11,.27-.39-.64-.42-.33,.02Z"/>
          <path class="cls-1" d="M6.16,69.37s-.1-.02-.14-.03c-.47-.1-.47,.66-.01,.56,.04,0,.09-.02,.14-.03,.24-.05,.28-.44,.02-.5Z"/>
          <path class="cls-1" d="M7.9,66.83c-.46,0-.86,.35-.88,.82-.01,.45,.36,.88,.82,.88s.86-.35,.88-.82c.01-.45-.36-.88-.82-.88Z"/>
          <path class="cls-1" d="M5.75,69.58c-.65,0-.57,1,.08,1s.56-1-.08-1Z"/>
          <path class="cls-1" d="M5.93,72.95c-.48,0-.47,.75,.02,.75s.47-.75-.02-.75Z"/>
          <path class="cls-1" d="M74.28,61.91s0,.1,0,.15c.03,.62,.91,.53,.93-.06v-.15c.04-.6-.97-.56-.94,.06Z"/>
          <path class="cls-1" d="M75.57,63.48c-.59,0-1.04,.61-1,1.16,.05,.62,.57,1,1.16,1s1.04-.61,1-1.16c-.04-.62-.57-1-1.16-1Z"/>
          <path class="cls-1" d="M79.89,67.03c-.36,0-.68,.18-.73,.57-.04,.32,.21,.73,.57,.73s.68-.18,.73-.57c.04-.32-.21-.73-.57-.73Z"/>
          <path class="cls-1" d="M75.85,66.86c-.16-.08-.29-.05-.46-.01-.39,.1-.35,.67,.02,.77,.02,0,.04,0,.06,0,.17,.1,.39,.05,.51-.13,.01-.02,.03-.04,.04-.06,.11-.19,.03-.47-.17-.57Z"/>
          <path class="cls-1" d="M78.04,69.06c-.33,0-.35,.52-.02,.52s.35-.52,.02-.52Z"/>
          <path class="cls-1" d="M80.7,70.03s-.1,0-.15,0c-.16,0-.34,.14-.32,.32,.04,.29,.29,.45,.56,.33,0,0,.01,0,.02-.01,.31-.09,.28-.66-.1-.64Z"/>
          <path class="cls-1" d="M79.36,72.38c.11-.7-.99-.69-.89-.07,0,.02,0,.05,.01,.07,.07,.42,.67,.57,.83,.18,.02-.04,.03-.07,.04-.11v-.08Z"/>
          <path class="cls-1" d="M77.59,63.23c-.33,0-.56,.38-.52,.67,.04,.35,.34,.52,.67,.52s.56-.38,.52-.67c-.04-.36-.34-.52-.67-.52Z"/>
          <path class="cls-1" d="M78.29,64.39c-.5,0-.48,.78,.02,.78s.48-.78-.02-.78Z"/>
          <path class="cls-1" d="M78.06,65.47c-.64,0-.56,1,.08,1s.56-1-.08-1Z"/>
        </g>
      </g>
    </g>
  </g>
</svg>