<?xml version="1.0" encoding="UTF-8"?>
<svg xmlns="http://www.w3.org/2000/svg" viewBox="0 0 89.32 82.92">
  <defs>
    <style>
      .cls-1 {
        fill: #fff;
      }

      .cls-2, .cls-3 {
        fill: #d9400b;
      }

      .cls-3 {
        opacity: .3;
      }

      .cls-3, .cls-4 {
        mix-blend-mode: multiply;
      }

      .cls-5 {
        isolation: isolate;
      }

      .cls-6, .cls-7 {
        fill: #ff5c23;
      }

      .cls-7 {
        mix-blend-mode: screen;
        opacity: .4;
      }

      .cls-4 {
        fill: #f0d907;
      }

      .cls-8 {
        fill: #e40028;
      }

      .cls-9 {
        fill: #ff8787;
      }

      .cls-10 {
        fill: #c93b0b;
      }

      .cls-11 {
        fill: #e8e8e8;
      }

      .cls-12 {
        fill: #a83209;
      }
    </style>
  </defs>
  <g class="cls-5">
    <g id="Ebene_2" data-name="Ebene 2">
      <g id="_Ńëîé_1" data-name="Ńëîé 1">
        <g>
          <path class="cls-2" d="M72.15,11.18c3.33-.97,7.6-.02,10.92,.62,2.08,.4,4.18,.86,6.24,1.34-4.79,2.84-6.5,4.68-8.57,9.86-1.8,4.5-4.6,8.45-9.72,9.24-2.67,.41-5.21-.63-7.69-1.48,.23-2.3,1.38-4.43,1.82-6.69,.5-2.55-.36-3.49-.83-5.75-.81-3.93,4.33-6.11,7.83-7.13Z"/>
          <path class="cls-3" d="M70.84,16.15c2.14-.67,4.88-.01,7.02,.43,1.33,.28,2.68,.59,4.01,.92-3.08,1.96-4.18,3.24-5.5,6.82-1.16,3.11-2.95,5.84-6.24,6.39-1.71,.28-3.34-.43-4.94-1.02,.15-1.59,.89-3.06,1.17-4.63,.32-1.76-.23-2.41-.53-3.98-.52-2.72,2.78-4.23,5.03-4.93Z"/>
          <path class="cls-2" d="M20.62,2.51C16.97-.01,11.05-.43,6.84,.37,4.55,.8,2.27,1.4,0,1.93,5.06,6.01,4.3,12.83,6.11,18.55c1.8,5.71,8.63,10.55,13.24,4.76,2.05-2.58,6.23-7.18,6.26-10.52,.03-3.21-2.35-8.46-4.99-10.29Z"/>
          <path class="cls-3" d="M20.77,11.15c-2.33-2.15-6.62-3.36-9.81-3.52-1.74-.09-3.49-.08-5.22-.11,3.15,3.36,1.68,7.51,2.22,11.39,.54,3.86,4.9,7.98,9.06,5.08,1.85-1.29,5.54-3.51,6.02-5.6,.46-2.01-.58-5.67-2.27-7.24Z"/>
          <path class="cls-6" d="M63.76,37.51c7.79-5.41,3.38-20.27-2.15-25.68-7.64-7.48-20.46-8.88-30.25-5.51-10.74,3.69-18.1,12.15-20.19,23.33-1.07,5.76-.89,11.71,.28,17.43,1.06,5.18,3.61,10.12,4.36,15.32,1.3,9-12.93,5.76-12.76,12.55,.18,7.3,20.1,3.02,23.92,2.76,9.4-.66,17.34,2.26,26.3,4.42,8.77,2.12,20.83,.46,18.57-11.45-1.74-9.18-10.18-15.81-18.34-19.21-3.23-1.34-7.19-1.5-6.97-5.9,.12-2.33,1.27-3.34,3.33-4.25,4.4-1.93,9.81-1,13.89-3.83Z"/>
          <path class="cls-7" d="M67.26,65.43c-1.22-2.03-3.34-3.87-5.39-5.03-1.31-.74-4.01-1.91-5.45-1.23-.19,.09-.13,.34,0,.44,1.19,.92,2.74,1.31,4.06,2.01,1.86,.99,3.87,3.08,4.93,4.89,.7,1.19,2.57,.11,1.86-1.08Z"/>
          <path class="cls-7" d="M67.94,70.49c-.12-.16-.33-.13-.41,.05-.43,1.05,.05,2.36,.06,3.45,.01,1.09-.23,1.8-.97,2.6-.45,.48-.89,.91-1.09,1.54-.09,.29,.15,.56,.44,.57,1.6,.09,2.83-1.65,3.27-3,.57-1.75-.3-3.88-1.29-5.21Z"/>
          <path class="cls-7" d="M5.07,2.53c-.09,.06-.09,.18,0,.23,1.81,1.18,4.54,.54,6.6,.84,3.09,.45,4.56,2.95,6.8,4.67,.43,.33,1.17-.11,1.11-.64C18.97,2,9.19-.16,5.07,2.53Z"/>
          <path class="cls-7" d="M81.58,15.19c-2.78-2.77-12.67-3.55-14.16,1.14-.05,.16,.17,.28,.28,.16,1.54-1.67,4.79-1.94,6.87-1.86,2.34,.1,4.44,.97,6.71,1.27,.38,.05,.54-.48,.3-.72Z"/>
          <path class="cls-7" d="M65.48,29.97c-.02-.23-.32-.22-.35,0-.2,1.67-1.67,3.48-2.99,4.41-1.51,1.05-3.46,1.39-4.98,2.48-.16,.12-.19,.46,.06,.49,1.96,.27,4.8-.68,6.26-2.02,1.59-1.46,2.19-3.25,1.99-5.35Z"/>
          <path class="cls-7" d="M15.99,36.54c-.29-.43-.7-.16-.79-.05-3.05,3.79,.12,11.09,1.5,11.91,.11,.06,.24,.02,.19-.08-3.44-6.63,.06-10.38-.91-11.78Z"/>
          <path class="cls-7" d="M31.28,10.05c-3.2-1.79-14.03,6.82-11.3,15.73,.37,1.22,.62,1.2,1.03,1.54,.25,.21,.82,.04,1-.26,.1-.17,.19-.32,.27-.83,.7-8.61,5.62-10.49,7.1-11.41,.98-.61,4.48-3.33,1.9-4.78Z"/>
          <g>
            <path class="cls-4" d="M44.72,35.2c-7.5,0-13.61-6.11-13.61-13.61,0-.66,.07-1.35,.21-2.16,1.04-6.61,6.67-11.45,13.4-11.45,7.51,0,13.61,6.11,13.61,13.61s-6.1,13.61-13.61,13.61Z"/>
            <path class="cls-12" d="M44.72,35.2c-7.5,0-13.61-6.11-13.61-13.61,0-.66,.07-1.35,.21-2.16,1.04-6.61,6.67-11.45,13.4-11.45,7.51,0,13.61,6.11,13.61,13.61s-6.1,13.61-13.61,13.61Z"/>
            <g>
              <g>
                <path class="cls-1" d="M33.48,21.59c0,6.21,5.04,11.24,11.25,11.24s11.25-5.04,11.25-11.24-5.03-11.25-11.25-11.25-11.25,5.04-11.25,11.25Z"/>
                <path class="cls-11" d="M33.9,18.71c.35,5.89,5.2,10.57,11.17,10.57,5.21,0,9.55-3.56,10.83-8.37,.01,.23,.07,.45,.07,.68,0,6.21-5.03,11.24-11.25,11.24s-11.25-5.04-11.25-11.24c0-1,.18-1.95,.42-2.88Z"/>
              </g>
              <g>
                <path d="M35.98,18.71c0,3.1,2.51,5.6,5.6,5.6s5.61-2.51,5.61-5.6-2.51-5.61-5.61-5.61-5.6,2.51-5.6,5.61Z"/>
                <path class="cls-1" d="M41.58,17.23c0,1.24,1,2.24,2.24,2.24s2.24-1,2.24-2.24-1-2.24-2.24-2.24-2.24,1-2.24,2.24Z"/>
              </g>
            </g>
          </g>
          <path class="cls-7" d="M36.95,70.87c-2.77-.73-8.19-.54-10.21,2.17-.34,.47-.15,1.38,.47,1.33,2.89-.25,5.63-1.11,8.6-.99,1.79,.07,5.26,.86,6.55,2.48,.46,.57,1.07,.67,1.06-.02-.04-1.73-2.76-4-6.47-4.98Z"/>
          <path class="cls-10" d="M46.38,51.82c-1.53-3.9-2.05-6.59-1.01-10.68-8.68,1.6-18.07-4-19.94-11.69-1.28,4.32-2.06,8.74-.77,13.19,2.01,6.94,9.79,15.24,18.46,15.48,5.56,.16,4.73-2.53,3.26-6.29Z"/>
          <g>
            <path class="cls-1" d="M28.85,35.57s-.04,.06-.06,.1c-.93,1.66-1.18,3.29-.56,3.64,.57,.32,1.67-.54,2.56-1.94-.7-.55-1.35-1.15-1.95-1.79Z"/>
            <path class="cls-1" d="M25.95,36.04c.48,.27,1.35-.3,2.14-1.34-.6-.74-1.12-1.53-1.55-2.36-.01,.02-.03,.04-.04,.06-.93,1.66-1.18,3.29-.56,3.64Z"/>
            <path class="cls-1" d="M32.2,42.03c.62,.25,1.63-.8,2.34-2.38-.79-.37-1.56-.78-2.28-1.25-.69,1.75-.71,3.36-.05,3.63Z"/>
            <path class="cls-1" d="M37,43.77c.65,.11,1.4-1.08,1.78-2.73-.85-.17-1.68-.4-2.49-.69-.27,1.79,.04,3.29,.72,3.41Z"/>
            <path class="cls-1" d="M40.61,41.32c0,1.77,.51,3.19,1.2,3.21,.68,.02,1.28-1.37,1.38-3.15-.86,.04-1.72,.02-2.58-.06Z"/>
          </g>
          <path class="cls-8" d="M26.87,47.46c3.38,5.46,9.55,10.46,16.25,10.65,2.96,.08,4.1-.64,4.31-1.9,.1-2.74-2.59-5.37-4.36-7.08-.97-.93-1.61-1.57-3.03-1.31-1.39,.26-2.39,1.18-3.89,.78-1.37-.37-2.25-1.62-3.53-2.16-1.73-.72-4.03-.35-5.5,.8-.09,.07-.17,.14-.25,.22Z"/>
          <path class="cls-9" d="M46.71,52.68c.11,1.69-.87,2.7-4.34,2.6-8.24-.23-15.67-7.74-18.11-14.44,.1,.6,.24,1.19,.41,1.79,2.01,6.94,9.79,15.24,18.46,15.48,5.12,.14,4.82-2.13,3.59-5.43Z"/>
        </g>
      </g>
    </g>
  </g>
</svg>