<?xml version="1.0" encoding="UTF-8"?>
<svg xmlns="http://www.w3.org/2000/svg" viewBox="0 0 89.36 97.97">
  <defs>
    <style>
      .cls-1 {
        fill: #fff;
      }

      .cls-2, .cls-3 {
        fill: #f0d907;
      }

      .cls-4 {
        isolation: isolate;
      }

      .cls-5 {
        fill: #213e00;
      }

      .cls-6 {
        fill: #207410;
      }

      .cls-3 {
        mix-blend-mode: multiply;
      }

      .cls-7 {
        fill: #e8e8e8;
      }

      .cls-8 {
        fill: #004700;
      }

      .cls-9 {
        fill: #1f5914;
      }
    </style>
  </defs>
  <g class="cls-4">
    <g id="Ebene_2" data-name="Ebene 2">
      <g id="_Ńëîé_1" data-name="Ńëîé 1">
        <g>
          <path class="cls-9" d="M89.35,47.82c-.34-2.03-1.07-3.96-1.42-5.97-.36-2.09-.43-4.23-.85-6.32-.35-1.75-.27-3.38-1.12-5-1.07-2.04-2.34-3.8-4.03-5.37-3.43-3.17-8.99-3.09-13.33-3.42-1.81-.14-4.75,.24-6.54-.59-.17-.56-.78-.95-1.32-.88-1.37-.99-2.84-1.95-4.08-3.08-.14-.13-.38,.06-.3,.23,.57,1.24,1.93,2.91,3.4,4.12-1.31,3.4-1.91,7.25-.2,10.6,2.29,4.48,9.34,3.15,10.15,8.45,.47,3.12,3.43,4.42,6.31,4.29,.7-.04,1.54-.39,2.17-.65,1.85-.75,4.17,1.18,5.49,2.31,1.36,1.16,2.38,2.25,4.17,2.64,.76,.17,1.63-.55,1.5-1.36Z"/>
          <path class="cls-9" d="M40.81,19.24c.06-.06,0-.18-.08-.15-.89,.32-.58,.12-1.27,.93-.17,.2-.35,.39-.53,.57-.08,0-.17,0-.25,0-.65,.05-.94,.51-.94,1-1.55,1.08-3.36,1.47-5.43,.88-.95-.27-2.12-1.14-3.11-1.13-1.23,0-3.54-.1-4.67-.32-2.22-.43-4.32-.84-6.59-.78-2.84,.07-5.2,1.38-7.62,2.77-4.1,2.35-7.33,7.61-8.88,11.95-1.42,3.98-2.36,9.84,.07,13.55,.29,.44,.96,.5,1.39,.31,1.46-.64,1.73-2.45,2.47-3.74,1.21-2.11,2.88-3.34,5.5-2.5,.64,.21,2.03,.85,2.73,.41,2.56-1.61,3.67-4.04,7-4.44,3-.36,6.38,.08,9.4,.25,5.07,.29,8.56-5.24,9.39-9.64,.28-1.5,3.35-7.88,.19-8.53,.36-.49,.75-.97,1.24-1.4ZM2.54,45.14c-.02-.07-.02-.15-.03-.22,.05,0,.1,0,.16-.02-.05,.07-.09,.15-.12,.25ZM37.38,26.86c-.02,3.13-1.84,6.02-3.87,8.27-.59,.66-1.47,1-2.46,1.18,.27-.29,.52-.6,.75-.94,1.5-2.24,3.7-8.1,2.13-11.23,1.2-.02,2.32-.27,3.38-1.01,.29-.2,.53-.42,.76-.64,.23,.26,.57,.44,1,.41-.25,.02-1.68,3-1.68,3.97Z"/>
          <path class="cls-6" d="M28.12,26.54c-6.03,7.96-4.02,18.28-2.6,27.45,1.22,7.96,6.03,22.39-2.42,27.39-4.18,2.47-22.28,1.08-17.63,10.29,4.96,9.81,19.68,3,26.34,.29,10.36-4.22,17.76-1.25,27.62,2.6,3.9,1.52,22.47,7.51,23.5-1.25,.77-6.59-15.82-10.16-18.2-16.48-3.21-8.5,2.91-22.01,2.66-31.25-.27-10.28-3.21-20.42-12.21-25.56-8.27-4.73-21.14-1.31-27.05,6.5Z"/>
          <path class="cls-9" d="M25.86,76.78c-.9-1.06-1.66-1.74-1.54-2.81,.25,.27,.5,.51,.51,.53,.65,.53,1.82-.2,1.55-1.03-.24-.72-1.25-2.3-2.25-2.6,0-.19,.01-.38,.03-.57,0-.14,.01-.28,.02-.43,.07-.51,.09-1.04,.07-1.57,.07-2.41-.03-4.82-.28-7.19-.43-4.01-1.11-7.96-.6-12.09,.47-3.82,2.36-5.91,4.28-8,.05-.05,.04-.18-.02-.21-.35-.18-.71-.16-1.08,0,.23-.42,.43-.87,.54-1.35,.01-.05,0-.11-.05-.1-.35,.06-.66,.21-.95,.43-.11-.21-.27-.36-.44-.39,.26-.47,.51-.96,.7-1.5,.03-.07-.02-.15-.07-.14-.29,.04-.56,.16-.82,.31,.21-.31,.42-.62,.63-.93,.06-.08,0-.22-.07-.15-2.33,2.36-4.3,5.65-4.77,9.7-.36,2.32-.22,4.79-.05,7.14,.22,3.07,.38,6.3,.77,9.31,.27,2.02,.46,4.1,.42,6.17-.57,1.65-1.3,3.26-1.95,4.82-.86,2.09,1,4.04,2.07,5.49,.84,1.14,3.07,1.34,3.85-.02,.48-.83,.08-2.16-.49-2.82Z"/>
          <path class="cls-9" d="M61.44,77.53c1.22-.98,2.22-1.6,2.18-2.68-.34,.25-.66,.47-.68,.49-.85,.47-2.22-.34-1.8-1.15,.36-.7,1.77-2.19,3.03-2.42,.01-.19,.02-.38,.02-.57,0-.14,.01-.28,.02-.43-.03-.52,0-1.04,.08-1.57,.16-2.41,.53-4.8,1.08-7.14,.94-3.97,2.18-7.85,1.98-12.01-.19-3.85-2.3-6.08-4.44-8.31-.06-.06-.03-.19,.04-.21,.45-.15,.89-.1,1.32,.08-.24-.44-.44-.9-.53-1.39-.01-.05,.02-.11,.07-.1,.43,.09,.79,.27,1.12,.5,.15-.2,.37-.33,.58-.35-.27-.49-.52-1-.7-1.55-.02-.07,.04-.15,.1-.13,.35,.07,.67,.2,.97,.37-.23-.33-.45-.65-.68-.97-.06-.09,.03-.22,.11-.15,2.62,2.54,4.7,5.97,4.87,10.05,.21,2.35-.22,4.79-.67,7.13-.58,3.05-1.11,6.25-1.9,9.21-.54,1.99-.98,4.06-1.15,6.12,.53,1.69,1.27,3.35,1.9,4.96,.84,2.15-1.64,3.95-3.1,5.31-1.14,1.07-3.9,1.09-4.73-.32-.5-.87,.13-2.16,.89-2.77Z"/>
          <path class="cls-8" d="M32.8,46.5s.07-.12,.2-.35c.15-.24,.38-.59,.73-.98,.68-.79,1.9-1.76,3.6-2.41,.85-.31,1.8-.56,2.83-.68,1.03-.11,2.13-.12,3.26,.04,1.12,.17,2.29,.46,3.4,1.02,.49,.25,.97,.46,1.51,.79l.78,.46,.73,.5c.98,.66,1.85,1.47,2.67,2.29,.79,.85,1.53,1.71,2.12,2.64,.62,.9,1.12,1.82,1.57,2.71,.21,.45,.4,.89,.59,1.31,.17,.43,.33,.85,.49,1.25,.28,.81,.52,1.55,.69,2.22,.19,.66,.31,1.25,.42,1.73,.19,.97,.29,1.52,.29,1.52,.03,.19-.09,.37-.28,.4-.16,.03-.32-.07-.38-.22h0s-.2-.52-.55-1.43c-.19-.45-.39-1-.66-1.61-.25-.62-.57-1.3-.93-2.03-.18-.36-.38-.74-.58-1.13-.22-.38-.43-.77-.67-1.17-.49-.78-1-1.6-1.63-2.38-.6-.79-1.3-1.54-2.03-2.27-.75-.7-1.56-1.37-2.43-1.95l-.65-.44-.66-.38c-.41-.26-.94-.49-1.43-.73-.86-.41-1.79-.71-2.73-.86-.93-.15-1.86-.24-2.74-.2-.88,.03-1.71,.13-2.45,.31-1.5,.33-2.65,.95-3.4,1.47-.38,.27-.64,.5-.83,.66-.19,.18-.29,.28-.29,.28-.14,.13-.36,.13-.49,0-.11-.11-.13-.28-.05-.41Z"/>
          <path class="cls-1" d="M52.49,47.19c.67,.72,1.3,1.45,1.84,2.22,.11-1.91,.15-3.81,.07-5.32-.25-4.6,.22-4.31-1.68-1.37-.54,.84-.97,2.09-1.3,3.45,.37,.33,.73,.68,1.07,1.03Z"/>
          <path class="cls-5" d="M35.65,57.78s0-.01,0-.02c-.09-.37-.42-.48-.73-.43-.01,0-.04,0-.09,0-.1,.01-.19,.04-.27,.08-.1,.05-.2,.11-.29,.19-.07-.14-.15-.28-.27-.41-.27-.3-.77-.2-1.02,.06-.53,.57-.43,1.77,.2,2.25,.44,.42,1.07,.51,1.64,.15,.63-.4,1.19-1.17,.84-1.87Z"/>
          <path class="cls-5" d="M42.07,57.62c-.21-.38-.82-.43-1.14-.18-.09,.07-.18,.14-.28,.21-.17-.15-.35-.21-.54-.22-.21-.07-.44-.05-.6,.12-.04,.04-.07,.08-.11,.12-.21,.23-.22,.52-.1,.76,0,.03,.01,.06,.03,.1,0,.01,0,.03,0,.06,.03,.19,.07,.37,.16,.54,.24,.44,.71,.76,1.24,.65,.45-.09,.79-.39,1.1-.72,.38-.41,.5-.94,.22-1.45Z"/>
          <path class="cls-5" d="M47.07,58.8c-.01-.31-.26-.57-.56-.64-.47-.1-.9,.08-1.24,.4-.3-.25-.68-.4-1.04-.36-.2,.02-.32,.24-.29,.42-.06,.35-.05,.7,.06,1.05,.03,.1,.03,.3,.1,.5,.18,.49,.69,.84,1.22,.75,.44-.08,.97-.45,1.21-.83,.12-.2,.27-.37,.38-.58,.04-.08,.18-.47,.08-.24,.07-.16,.07-.3,.06-.47Z"/>
          <path class="cls-5" d="M52.8,59.8c-.04-.54-.72-.9-1.17-.55-.14,.11-.25,.22-.36,.33-.03-.02-.06-.04-.09-.05-.26-.12-.63-.13-.87,.03-.06,.04-.1,.09-.14,.14,0,0,0-.01,0-.02-.01,.02-.02,.04-.04,.06-.01,.01-.02,.03-.03,.05-.04,.07-.08,.15-.1,.23,0,0,0,.04,0,.07,0,.08,0,.17,.02,.25,.01,.09,.03,.17,.06,.2,.04,.12,.11,.25,.16,.36,.02,.03,.03,.07,.05,.1,.06,.11,.06,.12,0,.03,.02,.39,.45,.76,.83,.78,1.1,.03,1.75-1,1.68-2.01Z"/>
          <path class="cls-5" d="M42,51.59c-.1-.22-.45-.36-.67-.27-.46,.19-.69,.43-.98,.8-.05,.06-.1,.12-.16,.17,0,0,0,0,0,0-.16-.07-.51-.26-.68-.18-.46,.21-.34,.71-.21,1.1,.01,.24,.1,.46,.3,.63,.39,.32,.98,.27,1.38,.02,.3-.19,.55-.47,.76-.75,.38-.51,.53-.9,.25-1.51Z"/>
          <path class="cls-5" d="M48.51,52.47c-.18-.42-.6-.58-1-.36-.22,.12-.39,.31-.52,.53-.26-.13-.51-.14-.82-.03-.17,.06-.24,.27-.22,.43,.05,.31,.01,.59,.13,.88,.08,.18,.21,.35,.32,.51,.17,.24,.54,.4,.83,.33,.57-.13,.89-.44,1.17-.93,.21-.38,.28-.95,.11-1.36Z"/>
          <path class="cls-5" d="M39,65.05c-.03-.1-.04-.15-.05-.19-.02-.14-.07-.25-.13-.39-.17-.34-.63-.36-.92-.21h0s-.05-.05-.07-.08c-.07-.07-.15-.14-.22-.21-.02-.01-.03-.02-.05-.03-.24-.12-.28-.15-.12-.08-.08-.11-.19-.2-.31-.26-.22-.07-.27-.08-.15-.04-.24-.1-.42-.09-.65,.02-.13,.07-.24,.23-.29,.37-.02,.06-.01,.12,0,.19-.06,.24-.02,.49,.05,.74,.04,.15,.1,.27,.21,.39-.14-.16,.02,.06,.05,.14,.18,.46,.52,.95,.96,1.18,.46,.25,1.1,.24,1.4-.27,.17-.28,.28-.55,.31-.88,0-.13,0-.26,0-.39Z"/>
          <path class="cls-5" d="M43.9,66.56c.32-.54,.43-1.4-.26-1.7-.08-.03-.5-.02-.51,.12,0,.01-.15,.09-.31,.18-.09-.09-.21-.17-.31-.21-.03-.01-.52-.21-.24-.07-.31-.16-.64-.05-.83,.23-.23,.34-.14,1.02,.04,1.37,.24,.47,.67,.9,1.22,.93,.32,.02,.61-.1,.85-.3,.16-.14,.23-.28,.32-.46,.01-.02,.12-.26,.02-.09Z"/>
          <path class="cls-5" d="M48.46,64.95c-.22,.13-.4,.25-.58,.4-.01,0-.02-.02-.03-.03-.24-.24-.6-.22-.86-.05,.03-.03-.01,0-.13,.1,0,.01-.01,.02-.02,.03-.03,.04-.06,.07-.08,.11,0,0,0,0,.01,0-.08,.16-.11,.35-.14,.53-.04,.2,0,.42,.07,.62,0,.47,.25,.93,.74,1.08,.45,.14,.88,0,1.2-.34,.13-.14,.25-.28,.38-.42,.04-.05,.33-.36,.11-.14,.27-.27,.51-.5,.62-.88,.24-.83-.53-1.47-1.29-1.01Z"/>
          <path class="cls-5" d="M52.43,66.23c-.24-.02-.3,.34-.06,.37,.24,.02,.3-.35,.06-.37Z"/>
          <path class="cls-5" d="M53.65,65.2c-.29-.35-.82-.46-1.19-.16-.21,.17-.32,.34-.39,.58-.02,0-.04,0-.07,0-.23,.05-.36,.27-.33,.49-.08,.28-.11,.49-.04,.82,.08,.4,.39,.72,.8,.77,1.13,.11,1.91-1.66,1.22-2.49Z"/>
          <path class="cls-5" d="M42.81,71.85c-.1-.57-.48-.96-1.06-.99-.33-.01-.5,.22-.62,.47-.03-.02-.05-.03-.08-.05-.04-.02-.08-.04-.13-.06,.08,.07,.07,.07-.01,0-.07-.06-.15-.1-.23-.13-.13-.05-.26-.1-.4-.16-.01,0-.02,0-.02,0-.14-.11-.36-.04-.46,.08-.31,.41-.19,1.08,.11,1.46,.09,.11,.27,.43,.46,.62,.33,.34,.71,.54,1.18,.61,.57,.09,.99-.42,1.07-.92-.02,.14,.07-.16,.07-.15,.1-.24,.15-.54,.11-.8Z"/>
          <path class="cls-5" d="M46.97,71.15c0-.31-.26-.58-.56-.64-.18-.04-.32-.03-.47,0-.1,0-.2,.03-.3,.07,0,0,0,0,0,0,0,0,0,0,0,0-.16,.07-.3,.16-.4,.3-.11,.14-.18,.29-.26,.45-.33,.06-.6,.32-.59,.76-.02,.06-.04,.12-.05,.18-.05,.21,.03,.43,.16,.62,.15,.39,.58,.65,1.02,.59,.56-.08,.83-.6,1.04-1.06,.08-.18,.17-.36,.24-.54,.02-.05,.12-.24-.02-.02,.15-.25,.18-.43,.17-.71Z"/>
          <path class="cls-5" d="M51.13,70.74c-.21-.35-.67-.41-1.03-.26,.03-.03-.03,0-.19,.1,0,0,0,0-.01,.01-.05,.04-.1,.09-.14,.14-.04,.06-.08,.12-.11,.19-.09,0-.18,0-.27,.03,0,0-.02,0-.02,0,0,0,0,0,.01,0-.25,.09-.46,.32-.46,.63,0-.16-.03,.13-.03,.17-.01,.08-.02,.16-.03,.25-.03,.42,.13,.87,.48,1.12,.46,.34,1.01,.35,1.48,.02,.35-.24,.46-.67,.54-1.06,.1-.49,.03-.92-.22-1.35Z"/>
          <path class="cls-5" d="M38.89,32.51c-.31-.03-.38,.45-.07,.48,.31,.03,.38-.45,.07-.48Z"/>
          <path class="cls-5" d="M42.65,32.65s-.1-.05-.15-.07c-.28-.13-.35,.41-.01,.33,0,0,.01,0,.02,0,0,.01,0,.03,.01,.04,.01,.05,.1,.06,.12,.01,.02-.05,.04-.1,.07-.15,.03-.06,0-.13-.05-.16Z"/>
          <path class="cls-5" d="M41.91,30.48c-.66-.06-.68,.98-.02,1.04,.67,.06,.68-.98,.02-1.04Z"/>
          <path class="cls-5" d="M41.24,34.53c-.39-.04-.46,.58-.07,.61,.39,.04,.46-.58,.07-.61Z"/>
          <path class="cls-5" d="M45.09,34.43c-.76-.07-.73,1.11,.02,1.18,.76,.07,.73-1.11-.02-1.18Z"/>
          <path class="cls-5" d="M44.11,31.9l-.17-.02c-.95-.13-1.08,1.27-.11,1.31,.05,0,.11,0,.17,0,.74,.04,.85-1.19,.11-1.3Z"/>
          <path class="cls-5" d="M41.99,36.47c-.83-.08-.77,1.22,.05,1.29,.83,.08,.77-1.22-.05-1.29Z"/>
          <path class="cls-5" d="M37.58,34.95c-.74-.07-.72,1.08,.01,1.15,.74,.07,.72-1.08-.01-1.15Z"/>
          <path class="cls-5" d="M33.94,35.81c-.73-.07-.71,1.07,0,1.13,.73,.07,.71-1.07,0-1.13Z"/>
          <path class="cls-5" d="M45.7,36.51c-.99-.09-1.26,1.44-.26,1.53,.99,.09,1.26-1.44,.26-1.53Z"/>
          <path class="cls-5" d="M49.56,38.52c.02-.16,0-.32-.07-.46,0,0,0,0,.01,0,0-.02-.02-.02-.02-.04,0-.02-.02-.03-.03-.05-.1-.21-.27-.34-.46-.4-.06-.02-.12-.03-.18-.04,0,0,0,0,0,0-.51-.02-1.07,.38-.98,.99,.05,.39,.37,.69,.75,.74,.08,0,.16,0,.25-.01,0,0,0,0-.01,.01,.15-.02,.29-.08,.41-.17h0c.2-.14,.35-.34,.33-.58Z"/>
          <path class="cls-5" d="M49.71,33.72c-.89-.08-1.19,1.3-.28,1.38,.89,.08,1.19-1.3,.28-1.38Z"/>
          <path class="cls-5" d="M47.85,33.77c-.36-.03-.7,.11-.79,.49-.07,.31,.14,.75,.5,.79,.36,.03,.7-.11,.79-.5,.07-.31-.14-.75-.49-.79Z"/>
          <path class="cls-5" d="M51.9,36.3c-.68-.06-.69,1.01,0,1.07,.69,.06,.69-1.01,0-1.07Z"/>
          <path class="cls-5" d="M55.48,35.23h0c.18-.62-.82-.72-.76-.06,0,.05,0,.11,.01,.16,.02,.21,.24,.31,.42,.29,.12-.01,.21-.11,.29-.2,.05-.05,.05-.12,.04-.19Z"/>
          <path class="cls-5" d="M49.61,35.79c-.42-.04-.48,.61-.06,.64,.42,.04,.48-.61,.06-.64Z"/>
          <path class="cls-5" d="M47.55,36.06c-.38-.03-.53,.45-.25,.67,0,0,.02,.01,.03,.02,.08,.06,.21,.08,.3,.04,.01,0,.03-.02,.05-.02,.33-.17,.25-.68-.13-.71Z"/>
          <path class="cls-5" d="M40.98,37.53c-.22-.02-.28,.31-.06,.33,.22,.02,.28-.31,.06-.33Z"/>
          <path class="cls-5" d="M38.01,37.17c-.97-.09-1.25,1.41-.27,1.5,.97,.09,1.25-1.41,.27-1.5Z"/>
          <path class="cls-5" d="M39.95,37.72c-1.15-.11-1.37,1.68-.21,1.79,1.15,.11,1.37-1.68,.21-1.79Z"/>
          <path class="cls-5" d="M39.77,35.16c-.3-.03-.56,.28-.56,.56,0,.33,.26,.53,.56,.56,.3,.03,.56-.28,.56-.56,0-.33-.26-.53-.56-.56Z"/>
          <path class="cls-5" d="M43.34,38.93c-.66-.06-.67,.96-.02,1.02,.65,.06,.67-.96,.02-1.02Z"/>
          <path class="cls-5" d="M45.56,40.17c-.33,.01-.5,.24-.62,.51-.05,.12-.02,.41,.11,.48,0,0,.01,0,.02,.01,.35,.47,1.18,.27,1.15-.39-.01-.35-.32-.63-.67-.62Z"/>
          <path class="cls-5" d="M50.52,40.28c-.64-.06-.66,.95-.02,1,.65,.06,.67-.94,.02-1Z"/>
          <path class="cls-5" d="M53.69,38.57c-.82-.08-.76,1.2,.05,1.28,.82,.08,.76-1.2-.05-1.28Z"/>
          <path class="cls-5" d="M36.86,39.49c-.17-.17-.39-.2-.59-.12-.07,.03-.13,.06-.19,.11,0,0-.01,.01-.02,.02-.03,.01-.06,.03-.09,.05-.05,.03-.08,.05-.01,.01h0s-.08,.06-.1,.12c0-.02,0-.03,0-.05-.19,.16-.18,.42-.05,.61,.09,.18,.31,.29,.5,.3,.23,.01,.39-.13,.55-.27,.22-.2,.21-.57,0-.78Z"/>
          <path class="cls-9" d="M27.84,38.05c-.16-.4-.63-.35-.84-.14-.1,.1-.16,.24-.16,.38,0,.31,.24,.51,.53,.54,.15-.09,.31-.17,.46-.26,.08-.19,.09-.33,.01-.52Z"/>
          <path class="cls-9" d="M27.34,36.64s0,.01,0,.02c.03,.19,.32,.27,.4,.06,0,0,0-.01,0-.02,.13-.36-.47-.39-.41-.06Z"/>
          <path class="cls-9" d="M25.76,39.27c-.61-.06-.64,.9-.03,.96,.61,.06,.64-.9,.03-.96Z"/>
          <path class="cls-9" d="M28.04,39.61c-.59-.05-.63,.87-.04,.92,.59,.05,.63-.87,.04-.92Z"/>
          <path class="cls-9" d="M28.69,39.04c-.55-.05-.6,.81-.05,.86,.55,.05,.6-.81,.05-.86Z"/>
          <path class="cls-9" d="M28.65,38.05c-.27-.02-.33,.39-.06,.42,.27,.02,.33-.39,.06-.42Z"/>
          <path class="cls-9" d="M26.6,36.15c-.3-.03-.37,.44-.06,.46,.3,.03,.37-.44,.06-.46Z"/>
          <path class="cls-9" d="M27.46,34.33c-.63-.06-.66,.93-.02,.99,.63,.06,.66-.93,.02-.99Z"/>
          <path class="cls-9" d="M28.54,36.23c-.17-.02-.23,.25-.05,.27,.17,.02,.23-.25,.05-.27Z"/>
          <path class="cls-9" d="M29.08,36.83c-.58-.05-.62,.85-.04,.91,.58,.05,.62-.85,.04-.91Z"/>
          <path class="cls-9" d="M29.67,38.7v.02c-.04,.45,.65,.51,.69,.06v-.02c.04-.45-.65-.51-.69-.06Z"/>
          <path class="cls-9" d="M27.5,42.46c-.63-.06-.66,.93-.03,.99,.63,.06,.66-.93,.03-.99Z"/>
          <path class="cls-9" d="M26.01,43.72c-.45-.04-.51,.65-.06,.69,.45,.04,.51-.65,.06-.69Z"/>
          <path class="cls-9" d="M25.67,45.33c-.34-.03-.41,.5-.07,.53,.34,.03,.41-.5,.07-.53Z"/>
          <path class="cls-9" d="M26.33,46.02c-.57-.05-.61,.83-.04,.88,.57,.05,.61-.83,.04-.88Z"/>
          <path class="cls-9" d="M26.77,44.65s-.01,0-.02-.02c-.01-.01-.03-.03-.05-.03,0,0-.02,0-.03,0,0,0-.01,0-.02,0,0,0,0,0-.01,0,0,0,0,0,0,0-.01,0-.01,.01-.02,.01-.03,0-.05,.01-.07,.03-.01,.01-.02,.03-.02,.04,0,.02,0,.03-.01,.04,0,.03,0,.05,.01,.07,0,.01,0,.02,.02,.03,.01,.02,.03,.03,.06,.04,.01,0,.01,.02,.03,.02,0,0,0,0,0,0,0,0,.01,0,.02,0s0,0,.01,0c0,0,.02,0,.03,0,.02,0,.03-.01,.05-.02,0,0,.01,0,.02,0,.07-.05,.08-.15,.02-.21Z"/>
          <path class="cls-9" d="M27.83,43.89c-.44-.04-.5,.64-.06,.68,.44,.04,.5-.64,.06-.68Z"/>
          <path class="cls-9" d="M28.67,41.24c-.19-.02-.24,.27-.05,.29,.19,.02,.24-.27,.05-.29Z"/>
          <path class="cls-9" d="M29.73,41.93c-.42-.04-.49,.62-.06,.66,.43,.04,.49-.62,.06-.66Z"/>
          <path class="cls-9" d="M25.18,35.74c-.46-.04-.52,.67-.06,.71,.46,.04,.52-.67,.06-.71Z"/>
          <path class="cls-9" d="M24.63,36.98c-.82-.08-.76,1.2,.05,1.28,.82,.08,.76-1.2-.05-1.28Z"/>
          <path class="cls-9" d="M63.94,38.22c-.44-.04-.5,.64-.06,.68,.44,.04,.5-.64,.06-.68Z"/>
          <path class="cls-9" d="M64.59,36.54c-.37-.03-.44,.54-.07,.58s.44-.54,.07-.58Z"/>
          <path class="cls-9" d="M65.87,37.21c-.3-.03-.37,.44-.06,.47,.3,.03,.37-.44,.06-.47Z"/>
          <path class="cls-9" d="M64.73,38.88c-.2-.02-.25,.28-.05,.3,.2,.02,.25-.29,.05-.3Z"/>
          <path class="cls-9" d="M65.11,37.42c-.39-.04-.46,.58-.07,.61,.39,.04,.46-.58,.07-.61Z"/>
          <path class="cls-9" d="M63.47,37.05c-.48-.04-.54,.7-.06,.75,.48,.04,.54-.7,.06-.75Z"/>
          <path class="cls-9" d="M62.59,39.93c-.44-.04-.5,.64-.06,.68,.44,.04,.5-.64,.06-.68Z"/>
          <path class="cls-9" d="M64.2,39.69s-.04,.06,0,.07c.04,0,.04-.06,0-.07Z"/>
          <path class="cls-9" d="M63.65,39.3c-.35-.03-.42,.51-.07,.55,.35,.03,.42-.51,.07-.55Z"/>
          <path class="cls-9" d="M62.7,38.8c-.06,0-.08,.09-.02,.09,.06,0,.08-.09,.02-.09Z"/>
          <path class="cls-9" d="M62.04,41.95c-.58-.05-.62,.85-.04,.91,.58,.05,.62-.85,.04-.91Z"/>
          <path class="cls-9" d="M63.72,43.55s-.03-.01-.04-.02c-.43-.19-.49,.62-.07,.51,.01,0,.03,0,.04-.01,.23-.06,.31-.37,.07-.48Z"/>
          <path class="cls-9" d="M62.78,38.42c-.39-.04-.45,.57-.07,.6,.39,.04,.45-.56,.07-.6Z"/>
          <path class="cls-9" d="M65,44.84s0-.02,0-.02c-.08-.53-.82-.46-.97-.02,0,0,0,.02,0,.02-.26,.74,1.12,.92,.98,.02Z"/>
          <path class="cls-9" d="M65.44,45.62c-.46-.13-.94,.51-.52,.85,.04,.03,.07,.06,.11,.09,.13,.11,.36,.1,.5,.02,0,0,.01,0,.02,0,.39-.22,.34-.82-.1-.95Z"/>
          <path class="cls-9" d="M66.18,48.48c-.07,.01-.14,.04-.2,.11,0,.01-.02,.02-.02,.03-.1,.13-.08,.29,.01,.42,0,0,.02,.02,.02,.03,.17,.24,.54,.14,.64-.11,.1-.27-.18-.58-.45-.48Z"/>
          <path class="cls-9" d="M64.23,48.15c-.2-.02-.25,.29-.05,.3,.2,.02,.25-.29,.05-.3Z"/>
          <path class="cls-9" d="M63.75,46.16c-.47-.04-.53,.68-.06,.73,.47,.04,.53-.68,.06-.73Z"/>
          <path class="cls-9" d="M61.22,38.84c-.21-.03-.36,.22-.23,.39,0,.01,.02,.02,.03,.03,.07,.09,.18,.11,.27,.05,.02,0,.03-.02,.05-.03,.19-.12,.09-.41-.11-.44Z"/>
          <path class="cls-9" d="M62.92,36.49c-.25-.02-.31,.36-.06,.38,.25,.02,.31-.36,.06-.38Z"/>
          <path class="cls-9" d="M64.9,35.36c-.4-.04-.47,.59-.07,.62,.4,.04,.47-.59,.07-.62Z"/>
          <path class="cls-9" d="M61.07,40.29c-.29-.03-.46,.31-.29,.54,0,0,0,0,0,.01,.1,.13,.32,.16,.44,.05,0,0,0,0,.01-.01,.21-.19,.13-.56-.18-.59Z"/>
          <path class="cls-9" d="M62.37,43.77c-.57-.05-.61,.83-.04,.88,.57,.05,.61-.83,.04-.88Z"/>
          <path class="cls-9" d="M66.22,46.98c-.66-.06-.67,.96-.02,1.02,.65,.06,.67-.96,.02-1.02Z"/>
          <path class="cls-9" d="M65.16,49.85c-.67-.06-.68,.98-.02,1.04,.67,.06,.68-.98,.02-1.04Z"/>
          <path class="cls-9" d="M64.96,53.19c-.03,.06-.03,.13,0,.19,.01,.04,.03,.07,.05,.1,.1,.16,.33,.12,.44,0l.02-.02c.27-.29-.29-.68-.5-.28Z"/>
          <path class="cls-9" d="M65.4,48.46s0,0-.01-.01c-.14-.15-.34-.17-.51-.05,0,0-.01,0-.02,.01-.28,.21-.1,.65,.22,.68,.31,.02,.56-.38,.32-.63Z"/>
          <path class="cls-9" d="M63.97,47.17c-.34-.03-.41,.5-.07,.53,.34,.03,.41-.5,.07-.53Z"/>
          <path class="cls-9" d="M62.91,47.71c-.48-.04-.54,.7-.06,.74,.48,.04,.54-.7,.06-.74Z"/>
          <path class="cls-9" d="M63.97,49.43c-.38-.01-.69,.52-.37,.8,.04,.03,.07,.06,.11,.09,.14,.12,.41,.09,.54-.04,0,0,.02-.02,.03-.03,.29-.29,.12-.82-.31-.83Z"/>
          <path class="cls-9" d="M66.4,50.39c-.37-.03-.44,.54-.07,.58,.37,.03,.44-.54,.07-.58Z"/>
          <path class="cls-9" d="M25.94,48.04c-.31-.03-.57,.28-.56,.57,0,.33,.26,.54,.57,.56,.31,.03,.57-.28,.56-.57,0-.33-.26-.54-.57-.56Z"/>
          <path class="cls-9" d="M26,50.54c-.49-.04-.55,.71-.06,.76,.49,.05,.55-.71,.06-.76Z"/>
          <path class="cls-9" d="M27.17,49.8c-.4-.04-.47,.59-.07,.63,.4,.04,.47-.59,.07-.63Z"/>
          <path class="cls-9" d="M28.23,47.61c-.3-.03-.37,.44-.06,.47,.3,.03,.37-.44,.06-.47Z"/>
          <path class="cls-9" d="M25.08,46.54c-.29-.03-.35,.42-.06,.45,.29,.03,.35-.42,.06-.45Z"/>
          <path class="cls-9" d="M28.3,45.1s-.05-.05-.08-.07c-.14-.12-.37-.02-.39,.16-.03,.22,.21,.33,.38,.23l.07-.04c.1-.06,.09-.2,.01-.27Z"/>
          <path class="cls-9" d="M27.69,45.97c-.79-.07-.75,1.16,.03,1.23,.79,.07,.75-1.16-.03-1.23Z"/>
          <path class="cls-9" d="M26.73,51.89c-.49-.04-.55,.71-.06,.76s.55-.71,.06-.76Z"/>
          <path class="cls-9" d="M26.11,54.09s0,.04,0,.06c.03,.21,.35,.29,.43,.06,0-.02,.01-.04,.02-.06,.14-.4-.53-.44-.46-.07Z"/>
          <g>
            <path class="cls-6" d="M19.1,33.77c-.71,1.51-1.87,3.99-1.4,5.86,.44-.3,.92-.55,1.47-.75-.09-1.65-.06-3.32,.39-4.92,.09-.3-.32-.5-.46-.2Z"/>
            <path class="cls-6" d="M23.28,33.62c.12-.36-.36-.54-.54-.22-.24,.44-.76,.98-.87,1.47-.17,.76-.29,1.52-.43,2.28-.08,.44-.15,.9-.15,1.34,.5-.04,1-.07,1.51-.07,.1-1.61-.04-3.23,.47-4.8Z"/>
            <path class="cls-6" d="M15.15,40.95c-.2-.85-.12-1.64-.02-2.5,.17-1.5,.04-3.08,.52-4.52,.04-.14-.12-.28-.23-.15-1.57,1.91-3.13,6.63-1.24,8.82,.41-.3,.78-.61,1.13-.93-.05-.24-.1-.47-.16-.72Z"/>
            <path class="cls-6" d="M4.09,43.01c.02-1.25,.06-2.51,.25-3.74,.04-.27-.4-.41-.48-.13-.74,2.67-1.44,5.68,.06,8.23,.06,.1,.17,.16,.28,.18,.12-.21,.24-.44,.34-.67-.07-1.3-.47-2.54-.45-3.86Z"/>
            <path class="cls-6" d="M11.32,39.63c-.01-1.34-.15-3.03,.26-4.33,.08-.24-.22-.37-.35-.16-1.15,1.87-1.91,5.25-.71,7.34,.12,.03,.23,.06,.35,.1,.19,.06,.46,.16,.74,.26,.15-1.06-.28-2.14-.29-3.22Z"/>
            <path class="cls-6" d="M7.1,40.68c-.05-1.32,.17-2.62,.54-3.89,.06-.22-.28-.3-.37-.11-.94,2.05-1.78,4.73-.8,6.89,.29-.3,.61-.55,.95-.75-.15-.7-.29-1.4-.32-2.14Z"/>
          </g>
          <g>
            <path class="cls-6" d="M77.28,37.37c-.03-.34-.54-.37-.65-.06-.45,1.26-.8,2.46-1.06,3.78-.24,1.25-.81,2.48-.9,3.75,.45,.05,.9,.07,1.35,.05,.05,0,.11-.02,.17-.02,1.31-2.04,1.28-5.35,1.09-7.49Z"/>
            <path class="cls-6" d="M80.11,37.5s-.07-.04-.1-.01c-.81,.78-.78,2.2-.92,3.25-.17,1.22-.68,2.32-.96,3.51,.02,0,.04-.02,.05-.02,.37-.15,.77-.19,1.17-.15,.56-.7,.78-1.68,.94-2.57,.21-1.17,.54-2.99-.19-4Z"/>
            <path class="cls-6" d="M71.57,36.51c0-.82-.28-1.47-.33-2.27-.02-.28-.48-.29-.5,0-.12,1.97-.73,3.91-1.13,5.86,.04,.16,.07,.32,.1,.5,.08,.51,.23,.96,.42,1.37,1.09-.44,1.11-1.97,1.3-3,.15-.81,.12-1.64,.13-2.46Z"/>
            <path class="cls-6" d="M87.7,44.76c-.54,1.07-1.55,2.39-1.63,3.7,.33,.2,.68,.38,1.07,.52,.94-.98,1.01-2.96,.96-4.15-.01-.22-.31-.24-.4-.06Z"/>
            <path class="cls-6" d="M84.72,47.44c1.58-1.51,1.05-4.47,1.49-6.38,.05-.22-.27-.35-.4-.18-.65,.87-.9,1.79-1.11,2.84-.19,.96-.74,1.84-1.09,2.75,.02,.02,.05,.04,.07,.06,.36,.31,.7,.61,1.04,.9Z"/>
            <path class="cls-6" d="M82.23,45.37c.6-.51,.83-1.33,1.06-2.08,.44-1.44-.17-2.94,.28-4.34,.06-.2-.2-.34-.31-.14-.52,.99-.66,2-.88,3.08-.19,.94-.88,1.98-.93,2.96,.27,.16,.53,.34,.79,.52Z"/>
            <path class="cls-6" d="M74.3,36.27c0-.24-.36-.23-.4,0-.28,1.39-.57,2.76-.8,4.16-.21,1.24-.72,2.4-1,3.6,.28,.16,.57,.29,.87,.41,1.93-2,1.4-5.66,1.33-8.16Z"/>
          </g>
          <path class="cls-5" d="M59.39,10.43c-2.14-2.3-7.91,.05-9.94,1.39-.7,.46-1.49,1.06-2.26,1.74,.25-.89,.59-1.77,1.11-2.67,2.16-3.76,6.62-5.56,8.76-9.28,.12-.2-.22-.38-.37-.21-1.46,1.62-3.51,2.7-5.36,3.91-1.68,1.1-3.04,2.44-4.18,3.96,.12-3.31-.65-6.63-2.77-9.24-.04-.05-.15-.02-.12,.05,1.26,2.52,1.67,5.29,1.64,8.03-.02,1.53-.45,3.07-.8,4.6-1.17-5.63-4.82-11.41-11.09-11.91-.09,0-.08,.11-.01,.13,4.82,1.47,6.59,4.98,8.45,8.97,.95,2.03,1.19,4.07,1.53,6.21,.07,.45,.11,.79,.18,1.1-.19,.37-.34,.74-.46,1.12-.04-.05-.08-.1-.12-.16,0-.04,.02-.08,.02-.12-.04-4.07-4.76-8.48-8.18-10.69-2.16-1.39-7.62-1.04-9.31,.96-.12,.14,.09,.29,.22,.18,.5-.41,2.26-.42,2.88-.47,3.1-.27,5.39,.09,7.66,2.42,1.17,1.2,2.11,2.46,2.99,3.76-.52-.35-1.08-.66-1.68-.93-2.16-.94-6.9-2.06-8.63,.07-.16,.2,.12,.48,.34,.32,2.16-1.52,7.09,.41,9,1.61,2,1.26,2.8,3.51,4.62,4.91,.04,.38,.12,.75,.28,1.12,.11,.27,.5,.25,.67,.06,.59-.69,.96-1.49,1.31-2.29,.06,.03,.12,.07,.19,.1,.26,.1,.55-.1,.56-.35,.03-.53,.06-1.05,.1-1.56,0,0,0-.02,.01-.03,.97-1.72,3.04-3.32,4.79-4.35,1.48-.88,3.24-1.3,4.97-1.58,1.06-.17,2.16-.12,3.01-.75,.05-.04,.05-.08,.01-.13Z"/>
          <g>
            <path class="cls-3" d="M51.77,32.96c-4.97-.46-8.64-4.87-8.18-9.83,.04-.44,.13-.89,.27-1.42,1.09-4.31,5.11-7.17,9.56-6.77,4.97,.46,8.64,4.87,8.18,9.84-.46,4.96-4.87,8.64-9.84,8.18Z"/>
            <path class="cls-2" d="M51.77,32.96c-4.97-.46-8.64-4.87-8.18-9.83,.04-.44,.13-.89,.27-1.42,1.09-4.31,5.11-7.17,9.56-6.77,4.97,.46,8.64,4.87,8.18,9.84-.46,4.96-4.87,8.64-9.84,8.18Z"/>
            <g>
              <g>
                <path class="cls-1" d="M45.15,23.27c-.38,4.11,2.65,7.75,6.76,8.12,4.11,.38,7.75-2.65,8.12-6.76,.38-4.11-2.65-7.75-6.76-8.13-4.11-.38-7.75,2.65-8.12,6.76Z"/>
                <path class="cls-7" d="M45.61,21.39c-.12,3.92,2.8,7.31,6.75,7.67,3.45,.32,6.54-1.78,7.67-4.88,0,.15,.02,.3,0,.45-.38,4.11-4.01,7.13-8.12,6.76-4.11-.38-7.13-4.02-6.76-8.12,.06-.66,.23-1.28,.45-1.88Z"/>
              </g>
              <g>
                <path d="M46.98,21.51c-.19,2.05,1.32,3.86,3.37,4.05,2.05,.19,3.86-1.32,4.05-3.37,.19-2.05-1.32-3.86-3.37-4.05-2.05-.19-3.86,1.32-4.05,3.37Z"/>
                <path class="cls-1" d="M50.78,20.87c-.08,.82,.53,1.54,1.34,1.62,.82,.07,1.54-.53,1.62-1.34,.08-.82-.53-1.54-1.35-1.62-.82-.08-1.54,.53-1.62,1.34Z"/>
              </g>
            </g>
          </g>
          <g>
            <path class="cls-3" d="M36.89,30.76c-3.91-.36-6.8-3.84-6.44-7.75,.03-.35,.1-.7,.21-1.12,.86-3.4,4.03-5.65,7.53-5.33,3.91,.36,6.8,3.84,6.44,7.75-.36,3.91-3.83,6.8-7.75,6.44Z"/>
            <path class="cls-2" d="M36.89,30.76c-3.91-.36-6.8-3.84-6.44-7.75,.03-.35,.1-.7,.21-1.12,.86-3.4,4.03-5.65,7.53-5.33,3.91,.36,6.8,3.84,6.44,7.75-.36,3.91-3.83,6.8-7.75,6.44Z"/>
            <g>
              <g>
                <path class="cls-1" d="M31.68,23.12c-.3,3.24,2.09,6.1,5.32,6.4,3.24,.3,6.1-2.09,6.4-5.32,.3-3.24-2.08-6.1-5.32-6.4-3.24-.3-6.1,2.09-6.4,5.33Z"/>
                <path class="cls-7" d="M32.03,21.64c-.1,3.09,2.2,5.76,5.32,6.05,2.72,.25,5.15-1.4,6.05-3.84,0,.12,.01,.23,0,.36-.3,3.24-3.16,5.62-6.4,5.32-3.24-.3-5.62-3.16-5.32-6.4,.05-.52,.18-1.01,.36-1.48Z"/>
              </g>
              <g>
                <path d="M33.12,21.74c-.15,1.61,1.04,3.04,2.65,3.19,1.62,.15,3.04-1.04,3.19-2.65,.15-1.62-1.04-3.04-2.66-3.19-1.61-.15-3.04,1.04-3.19,2.65Z"/>
                <path class="cls-1" d="M36.11,21.24c-.06,.64,.41,1.21,1.06,1.27,.64,.06,1.21-.41,1.27-1.06,.06-.64-.42-1.21-1.06-1.27-.64-.06-1.22,.42-1.27,1.06Z"/>
              </g>
            </g>
          </g>
        </g>
      </g>
    </g>
  </g>
</svg>