<?xml version="1.0" encoding="UTF-8"?>
<svg xmlns="http://www.w3.org/2000/svg" viewBox="0 0 121.95 102.97">
  <defs>
    <style>
      .cls-1 {
        fill: #d60051;
      }

      .cls-2 {
        fill: #fff;
      }

      .cls-3, .cls-4 {
        fill: #f0d907;
      }

      .cls-5, .cls-6 {
        fill: #f04646;
      }

      .cls-7 {
        fill: #ff8585;
      }

      .cls-8 {
        isolation: isolate;
      }

      .cls-9 {
        fill: #bf3838;
      }

      .cls-4, .cls-6 {
        mix-blend-mode: multiply;
      }

      .cls-10 {
        fill: #f0b607;
      }

      .cls-6 {
        opacity: .3;
      }

      .cls-11 {
        fill: #cc3b3b;
      }

      .cls-12 {
        fill: #e8e8e8;
      }
    </style>
  </defs>
  <g class="cls-8">
    <g id="Ebene_2" data-name="Ebene 2">
      <g id="_Ńëîé_1" data-name="Ńëîé 1">
        <g>
          <path class="cls-5" d="M60.83,98.76c.29-3.26,.23-10.28-2.61-11.76-3.43-1.78-6.22,1.03-7.36,3.73-1.13,2.69-1.01,6.34-.31,8.8-.16,.1-.29,.24-.39,.43-.15,.72-.25,1.92,.41,2.54,1.13,.77,8.11,.53,10.13-.48,.91-.88,.99-2.84,.13-3.27Z"/>
          <g>
            <path class="cls-5" d="M33.25,96.73c1.81,.85,3.58,1.16,5.57,1.05,1.33-.07,4.82-.05,4.04-2.35-.5-1.46-3.54-1.93-4.82-2.21-1.18-.26-2.36-.38-3.53-.68-1.46-.37-2.34-.17-2.7,1.34-.32,1.35,.17,2.26,1.45,2.86Z"/>
            <path class="cls-5" d="M32.25,94.61c-.27,2.39,4.89,4.33,9.2,2.41,1.46-1.53,1.72-9.22-.76-12.83-1.69-2.45-5.09-4.68-8.26-2.3-2.84,2.14-1.1,10.02-.19,12.72Z"/>
          </g>
          <g>
            <path class="cls-5" d="M33.25,96.73c1.81,.85,3.58,1.16,5.57,1.05,1.33-.07,4.82-.05,4.04-2.35-.5-1.46-3.54-1.93-4.82-2.21-1.18-.26-2.36-.38-3.53-.68-1.46-.37-2.34-.17-2.7,1.34-.32,1.35,.17,2.26,1.45,2.86Z"/>
            <path class="cls-5" d="M32.25,94.61c-.27,2.39,4.89,4.33,9.2,2.41,1.46-1.53,1.72-9.22-.76-12.83-1.69-2.45-5.09-4.68-8.26-2.3-2.84,2.14-1.1,10.02-.19,12.72Z"/>
          </g>
          <path class="cls-5" d="M47.43,64.36s-.33,.04-.95,.08c-.31,.02-.65,.09-1.05,.14-.41,.09-.88,.15-1.38,.31-1.01,.28-2.16,.73-3.35,1.46-1.2,.73-2.43,1.74-3.65,3.03-.31,.32-.62,.65-.92,1.01-.16,.17-.3,.36-.45,.54l-.23,.28-.06,.07-.03,.03c.07-.09,.01-.01,.02-.03v.02s-.13,.16-.13,.16c-.15,.21-.31,.42-.47,.64-.12,.19-.25,.39-.37,.58-.25,.38-.5,.85-.74,1.3-.97,1.84-1.78,3.99-2.77,6.28-.99,2.27-2.21,4.76-4.28,6.83-2.12,2.12-5.14,3.39-8.21,3.24-1.52-.06-3.05-.46-4.38-1.2-.34-.17-.65-.4-.97-.6-.31-.22-.59-.46-.89-.69l-.03-.02-.08-.08-.04-.04-.09-.09-.17-.17-.34-.34c-.11-.1-.24-.26-.37-.41l-.38-.46c-.93-1.2-1.55-2.58-1.83-4.02-.28-1.43-.23-2.86,.02-4.17,.25-1.32,.68-2.54,1.2-3.68,.51-1.14,1.14-2.18,1.69-3.12,1.09-1.88,2.02-3.68,2.5-5.44,.27-.87,.37-1.73,.43-2.55,.02-.82,0-1.61-.14-2.35-.24-1.48-.68-2.75-1.1-3.78-.41-1.03-.79-1.83-1.06-2.37-.27-.54-.41-.83-.41-.83l.6-.35s.17,.28,.5,.79c.33,.52,.8,1.29,1.34,2.31,.55,1.02,1.12,2.32,1.53,3.93,.21,.8,.33,1.7,.37,2.64,0,.94-.06,1.95-.29,2.96-.41,2.03-1.27,4.08-2.31,6.1-.52,1.01-1.03,1.96-1.42,2.98-.39,1.02-.7,2.08-.84,3.16-.14,1.07-.14,2.16,.11,3.17,.24,1.01,.73,1.97,1.39,2.75,1.41,1.73,3.43,2.71,5.56,2.74,2.13,.06,4.26-.9,5.7-2.42,1.51-1.59,2.57-3.69,3.49-5.85,.92-2.16,1.74-4.43,2.83-6.53,.28-.53,.55-1.03,.88-1.56,.17-.26,.33-.52,.49-.77,.16-.22,.31-.43,.46-.64l.11-.16,.1-.13,.07-.08,.26-.32c.17-.21,.34-.43,.53-.63,.36-.41,.72-.8,1.11-1.17,1.51-1.47,3.2-2.57,4.85-3.22,1.65-.65,3.2-.86,4.45-.81,.62,0,1.17,.1,1.64,.17,.47,.12,.88,.2,1.18,.3,.58,.22,.89,.35,.89,.35l-.1,.68Z"/>
          <g>
            <path class="cls-11" d="M13.44,57.15c.42,1.03,.86,2.3,1.1,3.78,.13,.74,.16,1.53,.14,2.35-.03,.35-.07,.72-.12,1.09,.21-.78,.3-1.55,.37-2.29,.02-.82,0-1.61-.14-2.35-.24-1.48-.68-2.75-1.1-3.78-.29-.73-.57-1.34-.8-1.83-.21-.33-.33-.51-.33-.51l-.6,.35s.14,.29,.41,.83c.27,.54,.65,1.33,1.06,2.37Z"/>
            <path class="cls-11" d="M12.53,74.12c-.37,.95-.66,1.95-.81,2.96,.15-.6,.34-1.19,.56-1.76,.39-1.02,.89-1.97,1.42-2.98,1.05-2.01,1.91-4.07,2.31-6.1,.06-.24,.1-.48,.14-.72-.44,1.87-1.24,3.76-2.2,5.61-.52,1.01-1.03,1.96-1.42,2.98Z"/>
            <path class="cls-11" d="M46.47,63.27c-.24,.03-.49,.07-.79,.11-.41,.09-.88,.15-1.38,.31-1.01,.28-2.16,.73-3.36,1.46-1.2,.73-2.43,1.74-3.65,3.03-.31,.32-.62,.65-.92,1.01-.16,.17-.3,.36-.45,.54l-.23,.28-.06,.07-.02,.02h0s-.12,.16-.12,.16c-.15,.21-.31,.42-.47,.64-.12,.19-.25,.39-.37,.58-.25,.38-.5,.85-.74,1.29-.97,1.84-1.78,3.99-2.78,6.28-.99,2.27-2.21,4.76-4.28,6.83-2.12,2.12-5.14,3.39-8.21,3.24-1.52-.06-3.05-.46-4.38-1.2-.34-.17-.65-.4-.97-.6-.31-.22-.59-.46-.89-.69l-.03-.02-.08-.08-.04-.04-.09-.08-.17-.17-.34-.34c-.11-.1-.24-.26-.37-.41l-.38-.46c-.93-1.2-1.55-2.58-1.83-4.02-.25-1.3-.23-2.6-.03-3.82-.07,.28-.14,.56-.19,.84-.25,1.32-.3,2.74-.02,4.17,.28,1.44,.9,2.82,1.83,4.02l.38,.46c.13,.15,.26,.31,.37,.41l.34,.34,.17,.17,.09,.09,.04,.04,.08,.08,.03,.02c.29,.23,.58,.48,.89,.69,.32,.2,.63,.42,.97,.6,1.34,.73,2.86,1.13,4.38,1.2,3.07,.15,6.08-1.12,8.21-3.24,2.07-2.08,3.29-4.56,4.28-6.83,.99-2.29,1.8-4.44,2.77-6.28,.24-.45,.5-.92,.74-1.3,.13-.2,.25-.39,.37-.58,.16-.21,.31-.43,.47-.64l.12-.16h0s.02-.03,.02-.03l.06-.07,.23-.28c.15-.18,.3-.37,.45-.54,.3-.36,.61-.69,.92-1.01,1.22-1.28,2.46-2.3,3.65-3.03,1.2-.73,2.35-1.18,3.35-1.46,.5-.17,.97-.22,1.38-.31,.4-.05,.74-.12,1.05-.14,.62-.04,.95-.08,.95-.08l.1-.68s-.31-.13-.89-.35c-.05-.02-.12-.04-.18-.05Z"/>
          </g>
          <path class="cls-3" d="M15.35,48.18c-.13,.47-.68,1.1-.83,1.38-.07-2.12-.95-3.89-2.94-4.8-.03,.76,.22,1.52,.47,2.2-1.95-.09-8.05-4.43-9.46-1.91,1.45,.49,3.6,.42,4.27,2.06-1.68,.67-6.75,.36-6.86,3.13,2.3,.11,4.71,.09,6.69,1.46-1.61,.92-5.42,.51-5.64,3.21-.18,2.22,4.08,0,5.93,.54-.86,.43-2.82,1.73-1.33,2.7,.99,.65,2.49-1.06,3.8-.63-.47-.15-1.19,2.43,.42,2.91,1.13,.34,3.35-.83,4.11-1.61,2.05-2.12,3.71-8.31,1.37-10.64Z"/>
          <path class="cls-5" d="M71.03,69.38s.3-.03,.85-.08c.56-.05,1.44-.07,2.51,.04,1.08,.11,2.39,.42,3.79,1.03,1.39,.62,2.86,1.54,4.28,2.72,1.42,1.18,2.81,2.58,4.23,4.05,1.41,1.48,2.88,3.01,4.51,4.36,1.63,1.36,3.44,2.51,5.52,3.07,1.89,.5,4.22,.35,6.05-.54,.92-.44,1.72-1.07,2.29-1.84,.12-.21,.27-.4,.38-.61,.1-.22,.21-.43,.3-.66l.1-.35,.05-.17,.03-.09v-.04s.02-.02,.02-.02c0-.02-.02,.11,0,.04l.14-.87c.09-.9,0-2-.24-3.02-.24-1.03-.58-2.07-.96-3.08-.77-2.04-1.69-4.03-2.24-6.11-.15-.53-.24-1.02-.34-1.6-.05-.5-.12-.96-.16-1.47-.05-1.06-.06-2.05,.16-3.02,.31-1.95,1.73-3.63,3.24-4.19,1.49-.63,2.85-.64,3.92-.62,.54,.02,1.01,.06,1.42,.13,.41,.05,.76,.1,1.03,.16,.56,.11,.85,.17,.85,.17l-.12,.68s-.29-.03-.84-.08c-.27-.03-.61-.05-1-.06-.39-.03-.85-.02-1.35,0-.99,.05-2.23,.17-3.38,.76-.31,.12-.54,.35-.82,.53-.22,.24-.49,.45-.66,.76-.22,.26-.33,.62-.49,.94-.08,.37-.23,.71-.25,1.12-.15,.78-.09,1.66-.01,2.52,.05,.45,.15,.95,.23,1.43,.1,.38,.21,.88,.36,1.33,.58,1.84,1.53,3.76,2.41,5.85,.44,1.05,.86,2.16,1.15,3.35,.29,1.21,.48,2.44,.35,3.87l-.12,.87-.02,.1v.03s-.03,.06-.03,.06l-.03,.12-.07,.25-.14,.5c-.12,.33-.27,.64-.41,.96-.16,.31-.36,.6-.54,.9-.8,1.16-1.94,2.03-3.15,2.63-1.22,.59-2.53,.93-3.84,1.04-1.32,.11-2.61,.03-3.95-.32-2.46-.67-4.61-2.09-6.36-3.59-1.77-1.53-3.21-3.18-4.57-4.7-1.35-1.53-2.6-2.95-3.86-4.12-1.24-1.2-2.5-2.11-3.7-2.78-1.2-.67-2.34-1.06-3.31-1.28-.98-.21-1.74-.3-2.3-.33-.56-.02-.85-.04-.85-.04l-.02-.69Z"/>
          <path class="cls-9" d="M71.03,69.36s.3-.03,.85-.08c.56-.05,1.44-.07,2.51,.04,1.08,.11,2.39,.42,3.79,1.04,1.39,.62,2.86,1.55,4.28,2.72,1.42,1.18,2.81,2.58,4.23,4.05,1.41,1.48,2.87,3.01,4.5,4.37,1.62,1.37,3.44,2.51,5.51,3.07,1.89,.5,4.22,.35,6.05-.53,.92-.44,1.72-1.07,2.29-1.84,.12-.21,.27-.4,.39-.61,.1-.22,.21-.43,.3-.66l.1-.35,.05-.17,.03-.09v-.04s.02-.02,.02-.02c0-.02-.02,.11,0,.04l.14-.87c.09-.9,0-2-.24-3.02-.24-1.04-.58-2.07-.96-3.09-.76-2.04-1.68-4.03-2.24-6.11-.15-.53-.24-1.02-.34-1.6-.05-.5-.12-.96-.16-1.47-.05-1.05-.06-2.05,.17-3.02,.31-1.95,1.74-3.63,3.25-4.18,1.49-.62,2.85-.64,3.92-.62,.54,.02,1.01,.07,1.42,.13,.41,.05,.76,.1,1.03,.16,.56,.11,.85,.17,.85,.17l-.12,.68s-.29-.03-.84-.08c-.27-.04-.61-.05-1-.07-.39-.03-.85-.02-1.35,0-.99,.04-2.23,.17-3.38,.76-.31,.12-.54,.35-.82,.53-.22,.24-.49,.45-.66,.76-.22,.26-.33,.61-.49,.94-.08,.37-.23,.71-.25,1.12-.15,.78-.09,1.66-.01,2.52,.05,.45,.15,.95,.23,1.43,.1,.38,.21,.88,.36,1.33,.58,1.84,1.52,3.76,2.4,5.85,.44,1.05,.85,2.16,1.15,3.35,.29,1.2,.48,2.44,.35,3.87l-.12,.87-.02,.1v.03s-.02,.06-.02,.06l-.03,.12-.07,.25-.14,.5c-.12,.33-.27,.64-.41,.96-.16,.31-.36,.6-.54,.9-.8,1.16-1.95,2.03-3.16,2.62-1.22,.59-2.53,.92-3.84,1.04-1.32,.11-2.61,.03-3.95-.32-2.46-.67-4.61-2.09-6.36-3.6-1.77-1.53-3.21-3.19-4.57-4.7-1.35-1.53-2.6-2.95-3.86-4.12-1.24-1.2-2.5-2.11-3.7-2.79-1.2-.68-2.34-1.06-3.31-1.29-.98-.21-1.74-.3-2.29-.34-.56-.02-.85-.04-.85-.04l-.02-.69Z"/>
          <path class="cls-5" d="M71.28,68.18s.3-.03,.85-.09c.56-.05,1.44-.07,2.51,.04,1.08,.11,2.39,.42,3.79,1.04,1.4,.62,2.86,1.54,4.28,2.72,1.42,1.18,2.81,2.58,4.23,4.05,1.41,1.48,2.88,3.01,4.51,4.36,1.63,1.36,3.44,2.51,5.52,3.07,1.89,.5,4.22,.35,6.04-.54,.92-.44,1.72-1.07,2.29-1.84,.12-.2,.27-.4,.39-.61,.1-.22,.21-.43,.3-.66l.1-.35,.05-.17,.03-.09v-.04s.02-.02,.02-.02c0-.02-.02,.11,0,.04l.14-.87c.09-.9,0-2-.24-3.02-.24-1.04-.58-2.07-.96-3.08-.77-2.04-1.69-4.03-2.24-6.11-.15-.53-.24-1.02-.34-1.6-.05-.5-.12-.96-.16-1.47-.05-1.05-.06-2.05,.16-3.02,.31-1.95,1.73-3.63,3.24-4.19,1.49-.62,2.85-.64,3.92-.62,.54,.02,1.01,.06,1.42,.13,.41,.05,.76,.1,1.03,.16,.56,.11,.85,.16,.85,.16l-.12,.68s-.29-.03-.84-.08c-.27-.03-.61-.05-1-.06-.4-.03-.85-.02-1.35,0-.99,.04-2.23,.17-3.38,.76-.31,.12-.54,.35-.82,.53-.22,.24-.49,.45-.66,.76-.22,.26-.33,.62-.49,.94-.08,.37-.23,.71-.25,1.12-.15,.78-.09,1.66-.01,2.52,.05,.45,.15,.95,.23,1.43,.1,.38,.21,.88,.36,1.33,.58,1.84,1.53,3.76,2.41,5.85,.44,1.05,.86,2.16,1.15,3.35,.29,1.21,.48,2.44,.35,3.87l-.12,.87-.02,.1v.03s-.03,.06-.03,.06l-.03,.12-.07,.25-.14,.5c-.12,.33-.27,.64-.41,.96-.16,.31-.36,.6-.54,.9-.8,1.16-1.94,2.03-3.16,2.63-1.22,.59-2.53,.93-3.84,1.04-1.32,.11-2.61,.03-3.95-.32-2.46-.67-4.61-2.09-6.36-3.59-1.77-1.53-3.21-3.19-4.57-4.7-1.35-1.53-2.6-2.95-3.86-4.12-1.24-1.2-2.5-2.11-3.7-2.78-1.2-.67-2.34-1.06-3.31-1.28-.98-.21-1.74-.3-2.29-.34-.56-.02-.85-.04-.85-.04l-.02-.69Z"/>
          <path class="cls-3" d="M112.2,52.85c-.5,.47-.46,.84-.65,1.2,1.22-.92,6.45-2.44,6.73,0-1.31-.33-3.21,.08-3.94,1.25,2.09,.37,6.64,1,6.69,3.94-.96-.39-2.41-.86-3.27-.15,2.33,1.77,3.21,3.48,4.18,6.22-1.11,.86-3.12-1.66-4.13-2.22-.09,1.87,1.26,4.37,1.5,6.36-1.71-1.33-1.3-4.52-2.91-5.84-.67,1.29-.2,4.75-2.22,4.96-.05-1.23,.77-7.44-1.4-5.95-.46,.31,.43,3.03-1.34,1.45-.71-.63-.36-2.35-.6-3.22-.84,.16-1.43,.91-2.23,1.29,.13-.65,.1-1.34,.16-1.98-.08,.88-1.38,.04-1.53-.24-.21-.39,.49-2.16,.61-2.58,.61-1.99,1.77-4.72,4.34-4.47Z"/>
          <ellipse class="cls-5" cx="58.01" cy="58.93" rx="35.46" ry="37.04"/>
          <path class="cls-7" d="M40.78,5.16s.48-.11,1.33-.29c.41-.11,.97-.15,1.59-.23,.63-.1,1.32-.09,2.09-.11,.38-.02,.78,.01,1.19,.05,.41,.04,.84,.05,1.28,.11,.87,.16,1.8,.28,2.73,.58,.95,.23,1.87,.65,2.82,1.06,.46,.25,.91,.5,1.38,.75,.46,.26,.87,.6,1.31,.9,.45,.29,.84,.66,1.22,1.03,.38,.37,.8,.71,1.12,1.14,.33,.41,.67,.82,1,1.23,.27,.44,.54,.88,.81,1.31,.13,.22,.27,.43,.38,.65,.1,.23,.2,.45,.3,.67,.19,.45,.39,.89,.57,1.32,.27,.88,.52,1.73,.72,2.51,.12,.8,.24,1.52,.34,2.17,.1,.65,.07,1.21,.1,1.68,.03,.93,.05,1.47,.05,1.47l-3.67-.22s.03-.46,.07-1.26c0-.4,.09-.89,.05-1.44-.03-.55-.07-1.18-.11-1.86-.11-.66-.25-1.39-.4-2.15-.12-.37-.25-.74-.37-1.13-.06-.19-.13-.39-.19-.59-.07-.19-.18-.37-.27-.56-.19-.38-.37-.77-.56-1.16-.24-.36-.49-.73-.74-1.1-.22-.39-.56-.7-.85-1.05-.3-.34-.59-.69-.96-.98-.35-.29-.68-.63-1.06-.89-.38-.26-.76-.52-1.14-.77-.8-.43-1.6-.9-2.44-1.18-.81-.36-1.66-.55-2.45-.77-.4-.09-.8-.14-1.18-.21-.38-.07-.75-.14-1.11-.15-.72-.05-1.39-.12-1.96-.08-.58,.02-1.09,0-1.52,.07-.86,.1-1.35,.16-1.35,.16l-.12-.68Z"/>
          <g>
            <path class="cls-5" d="M80.01,97.96c-1.74,.85-3.43,1.16-5.34,1.05-1.28-.07-4.62-.05-3.87-2.35,.48-1.46,3.4-1.93,4.63-2.21,1.13-.26,2.27-.39,3.39-.68,1.4-.37,2.25-.17,2.59,1.34,.3,1.35-.16,2.26-1.39,2.86Z"/>
            <path class="cls-5" d="M80.97,95.84c.25,2.39-4.7,4.33-8.83,2.41-1.4-1.53-1.65-9.22,.73-12.83,1.62-2.45,4.89-4.68,7.92-2.3,2.72,2.14,1.05,10.02,.18,12.72Z"/>
          </g>
          <ellipse class="cls-5" cx="58.01" cy="58.93" rx="35.46" ry="37.04"/>
          <g>
            <path class="cls-4" d="M37.43,42.25c-4.99,0-9.05-4.06-9.05-9.05,0-.44,.05-.9,.14-1.43,.69-4.4,4.44-7.61,8.9-7.61,4.99,0,9.05,4.06,9.05,9.05s-4.06,9.05-9.05,9.05Z"/>
            <path class="cls-3" d="M37.43,42.25c-4.99,0-9.05-4.06-9.05-9.05,0-.44,.05-.9,.14-1.43,.69-4.4,4.44-7.61,8.9-7.61,4.99,0,9.05,4.06,9.05,9.05s-4.06,9.05-9.05,9.05Z"/>
            <g>
              <g>
                <path class="cls-2" d="M29.96,33.2c0,4.13,3.35,7.47,7.47,7.47s7.47-3.35,7.47-7.47-3.34-7.47-7.47-7.47-7.47,3.35-7.47,7.47Z"/>
                <path class="cls-12" d="M30.23,31.29c.24,3.92,3.45,7.02,7.43,7.02,3.46,0,6.35-2.37,7.2-5.56,0,.15,.04,.29,.04,.45,0,4.13-3.34,7.47-7.47,7.47s-7.47-3.35-7.47-7.47c0-.66,.12-1.3,.28-1.91Z"/>
              </g>
              <g>
                <path d="M31.62,31.29c0,2.06,1.67,3.72,3.72,3.72s3.73-1.67,3.73-3.72-1.67-3.73-3.73-3.73-3.72,1.67-3.72,3.73Z"/>
                <path class="cls-2" d="M35.34,30.3c0,.82,.67,1.49,1.49,1.49s1.49-.67,1.49-1.49-.67-1.49-1.49-1.49-1.49,.67-1.49,1.49Z"/>
              </g>
            </g>
          </g>
          <g>
            <path class="cls-4" d="M52.22,32.1c-4.99,0-9.05-4.06-9.05-9.05,0-.44,.05-.9,.14-1.43,.69-4.4,4.44-7.61,8.9-7.61,4.99,0,9.05,4.06,9.05,9.05s-4.06,9.05-9.05,9.05Z"/>
            <path class="cls-3" d="M52.22,32.1c-4.99,0-9.05-4.06-9.05-9.05,0-.44,.05-.9,.14-1.43,.69-4.4,4.44-7.61,8.9-7.61,4.99,0,9.05,4.06,9.05,9.05s-4.06,9.05-9.05,9.05Z"/>
            <g>
              <g>
                <path class="cls-2" d="M44.75,23.06c0,4.12,3.35,7.47,7.47,7.47s7.47-3.35,7.47-7.47-3.34-7.47-7.47-7.47-7.47,3.35-7.47,7.47Z"/>
                <path class="cls-12" d="M45.03,21.14c.24,3.91,3.45,7.02,7.43,7.02,3.46,0,6.35-2.37,7.2-5.56,0,.15,.04,.3,.04,.45,0,4.12-3.34,7.47-7.47,7.47s-7.47-3.35-7.47-7.47c0-.67,.12-1.3,.28-1.91Z"/>
              </g>
              <g>
                <path d="M46.41,21.14c0,2.06,1.67,3.72,3.72,3.72s3.73-1.67,3.73-3.72-1.67-3.73-3.73-3.73-3.72,1.67-3.72,3.73Z"/>
                <circle class="cls-2" cx="51.62" cy="20.16" r="1.49"/>
              </g>
            </g>
          </g>
          <g>
            <path class="cls-4" d="M71.98,34.86c-5.79,0-10.5-4.71-10.5-10.5,0-.51,.05-1.04,.16-1.67,.8-5.1,5.15-8.84,10.34-8.84,5.79,0,10.5,4.71,10.5,10.5s-4.71,10.5-10.5,10.5Z"/>
            <path class="cls-3" d="M71.98,34.86c-5.79,0-10.5-4.71-10.5-10.5,0-.51,.05-1.04,.16-1.67,.8-5.1,5.15-8.84,10.34-8.84,5.79,0,10.5,4.71,10.5,10.5s-4.71,10.5-10.5,10.5Z"/>
            <g>
              <g>
                <path class="cls-2" d="M63.3,24.36c0,4.79,3.89,8.67,8.67,8.67s8.67-3.88,8.67-8.67-3.88-8.67-8.67-8.67-8.67,3.88-8.67,8.67Z"/>
                <path class="cls-12" d="M63.63,22.15c.27,4.54,4.01,8.15,8.62,8.15,4.02,0,7.37-2.75,8.35-6.46,.01,.18,.05,.34,.05,.52,0,4.79-3.88,8.67-8.67,8.67s-8.67-3.88-8.67-8.67c0-.77,.14-1.51,.33-2.22Z"/>
              </g>
              <g>
                <path d="M65.23,22.15c0,2.39,1.94,4.32,4.32,4.32s4.33-1.93,4.33-4.32-1.94-4.33-4.33-4.33-4.32,1.94-4.32,4.33Z"/>
                <path class="cls-2" d="M69.56,21c0,.95,.77,1.73,1.73,1.73s1.73-.77,1.73-1.73-.77-1.73-1.73-1.73-1.73,.77-1.73,1.73Z"/>
              </g>
            </g>
          </g>
          <g>
            <path class="cls-4" d="M85.31,44.15c-4.99,0-9.05-4.06-9.05-9.05,0-.44,.05-.9,.14-1.43,.69-4.4,4.44-7.61,8.9-7.61,4.99,0,9.05,4.06,9.05,9.05s-4.06,9.05-9.05,9.05Z"/>
            <path class="cls-3" d="M85.31,44.15c-4.99,0-9.05-4.06-9.05-9.05,0-.44,.05-.9,.14-1.43,.69-4.4,4.44-7.61,8.9-7.61,4.99,0,9.05,4.06,9.05,9.05s-4.06,9.05-9.05,9.05Z"/>
            <g>
              <g>
                <path class="cls-2" d="M77.84,35.1c0,4.12,3.35,7.47,7.47,7.47s7.47-3.35,7.47-7.47-3.34-7.47-7.47-7.47-7.47,3.35-7.47,7.47Z"/>
                <path class="cls-12" d="M78.12,33.19c.24,3.92,3.45,7.02,7.43,7.02,3.46,0,6.35-2.37,7.2-5.56,0,.15,.04,.3,.04,.45,0,4.12-3.34,7.47-7.47,7.47s-7.47-3.35-7.47-7.47c0-.67,.12-1.3,.28-1.91Z"/>
              </g>
              <g>
                <path d="M79.5,33.19c0,2.06,1.67,3.72,3.72,3.72s3.73-1.67,3.73-3.72-1.67-3.73-3.73-3.73-3.72,1.67-3.72,3.73Z"/>
                <path class="cls-2" d="M83.22,32.21c0,.82,.67,1.49,1.49,1.49s1.49-.66,1.49-1.49-.67-1.49-1.49-1.49-1.49,.67-1.49,1.49Z"/>
              </g>
            </g>
          </g>
          <g>
            <path class="cls-4" d="M36,14.72c-3.72,0-6.74-3.02-6.74-6.74,0-.33,.03-.67,.11-1.07,.51-3.27,3.3-5.67,6.63-5.67,3.72,0,6.74,3.02,6.74,6.74s-3.02,6.74-6.74,6.74Z"/>
            <path class="cls-3" d="M36,14.72c-3.72,0-6.74-3.02-6.74-6.74,0-.33,.03-.67,.11-1.07,.51-3.27,3.3-5.67,6.63-5.67,3.72,0,6.74,3.02,6.74,6.74s-3.02,6.74-6.74,6.74Z"/>
            <g>
              <g>
                <path class="cls-2" d="M30.44,7.98c0,3.07,2.49,5.57,5.57,5.57s5.57-2.49,5.57-5.57-2.49-5.57-5.57-5.57-5.57,2.49-5.57,5.57Z"/>
                <path class="cls-12" d="M30.64,6.56c.18,2.92,2.57,5.23,5.53,5.23,2.58,0,4.73-1.76,5.36-4.14,0,.11,.03,.22,.03,.33,0,3.07-2.49,5.57-5.57,5.57s-5.57-2.49-5.57-5.57c0-.5,.09-.97,.21-1.42Z"/>
              </g>
              <g>
                <path d="M37.33,6.44c-.25-1.51-1.68-2.53-3.19-2.28-1.51,.25-2.54,1.68-2.28,3.19,.25,1.51,1.68,2.54,3.2,2.28,1.51-.25,2.53-1.68,2.28-3.2Z"/>
                <path class="cls-2" d="M34.71,7.62c-.1-.6-.67-1.01-1.28-.91-.6,.1-1.01,.67-.91,1.28,.1,.6,.67,1.01,1.28,.91,.6-.1,1.01-.67,.91-1.28Z"/>
              </g>
            </g>
          </g>
          <path class="cls-1" d="M50.77,49.46c-8.55,2.38-14.3,8.16-13.41,17.33,.71,7.38,4.65,12.43,11.88,14.39,7.43,2.01,17.88,1.75,23.63-4.1,4.52-4.59,6.32-16.42,2.53-21.92-5.07-7.36-17.01-7.82-24.64-5.7Z"/>
          <path class="cls-3" d="M57.93,66.17c-1.27,.49-2.91,1.95-4.29,1.93-.76-.01-1.44-.62-2.07-.98-1.32-.75-2.71-1.36-4.24-1.51-4.42-.43-6.93,3.22-6.4,7.36,.31,2.43,1.46,4.12,2.82,5.71,1.55,1.08,3.38,1.93,5.5,2.5,7.43,2.01,17.88,1.75,23.63-4.1,1.3-1.32,2.38-3.25,3.16-5.45-2.83-5.07-12.66-7.55-18.1-5.46Z"/>
          <g>
            <path class="cls-2" d="M71.97,61.99c-.1,.34-.16,.54-.16,.54,0,0,.07,.54,.16-.54Z"/>
            <path class="cls-2" d="M67.84,54.6c.37-1.23,.84-2.74,1.35-4.35-.61-.26-1.24-.5-1.88-.71-.03,.68-.06,1.41-.08,2.22-.02,1.14-.04,2.08-.06,2.84h.67Z"/>
            <path class="cls-2" d="M74.44,53.95c-.62-.7-1.31-1.32-2.06-1.88-.12,1.21-.2,2.67-.23,4.44-.06,3.15-.12,4.72-.18,5.48,.36-1.23,1.32-4.46,2.48-8.04Z"/>
            <path class="cls-2" d="M56.4,53.95c.09,.35,.14,.54,.14,.54,0,0,.33,.43-.14-.54Z"/>
            <path class="cls-2" d="M60.04,58.7c-.1,.34-.16,.54-.16,.54,0,0,.07,.54,.16-.54Z"/>
            <path class="cls-2" d="M60.5,48.39c-.13,1.28-.24,2.87-.27,4.83-.06,3.15-.12,4.72-.18,5.48,.43-1.46,1.7-5.73,3.14-10.07-.89-.12-1.79-.2-2.69-.24Z"/>
            <path class="cls-2" d="M70.25,69.72c-.31-.1-4.38-2.92-5.02-2.92s-3.95,.52-4.29,4.07c-.26,2.66,.48,8.32,.83,11.2,3.95-.52,7.69-1.9,10.5-4.44-.75-3.27-1.83-7.84-2.03-7.9Z"/>
            <path class="cls-2" d="M42.97,53.24c.41,1.26,.97,2.8,1.78,4.7,1.24,2.9,1.81,4.36,2.07,5.08-.22-1.62-.87-6.55-1.34-11.42-.9,.5-1.74,1.04-2.51,1.65Z"/>
            <path class="cls-2" d="M53.62,48.83c.06,.1,.11,.2,.16,.3,1.54,2.75,2.28,4.13,2.61,4.82-.23-.91-.71-2.9-1.28-5.34-.51,.06-1.01,.14-1.5,.22Z"/>
            <path class="cls-2" d="M53.86,72.43c-.43-.73-1.64-4.9-1.64-4.9,0,0-1.26-1.46-1.78,1.35-.44,2.39,.54,10.41,.84,12.77,1.4,.28,2.87,.48,4.37,.58-.5-3.21-1.48-9.27-1.8-9.8Z"/>
            <path class="cls-2" d="M49.99,49.7c-.81,.25-1.59,.52-2.34,.83,.09,.81,.21,1.71,.37,2.71h1.5c.14-1.12,.3-2.32,.47-3.55Z"/>
            <path class="cls-2" d="M45.44,74.13c-1.56-4.35-1.15-3.05-2.87-5.66-1.72-2.61-1.3-3.96-1.72,0-.27,2.62,.63,6.46,1.23,8.86,1.32,1.25,2.91,2.28,4.79,3.05-.17-1.53-.56-3.81-1.43-6.25Z"/>
            <path class="cls-2" d="M46.82,63.02c.05,.35,.08,.55,.08,.55,0,0,.28,.46-.08-.55Z"/>
          </g>
          <path class="cls-7" d="M73.24,74.24c-5.89,5.85-16.59,6.11-24.2,4.1-6.41-1.69-10.29-5.72-11.69-11.55,0,0,0,0,0,.01,.71,7.38,4.65,12.43,11.88,14.39,7.43,2.01,17.88,1.75,23.63-4.1,2.35-2.39,3.96-6.74,4.44-11.15-.76,3.36-2.18,6.43-4.07,8.3Z"/>
          <g>
            <path class="cls-3" d="M42.85,95.43c-.09-.25-.26-.48-.48-.67-.07,.09-.12,.18-.16,.29-.02,.06-.04,.12-.05,.18-.04,.09-.07,.18-.09,.27-.04,.28-.05,.33-.02,.14-.03,.11-.04,.22-.04,.33,0,.41,.2,.76,.5,1.02,.4-.34,.58-.83,.33-1.55Z"/>
            <path class="cls-3" d="M34.98,97.38c.09,.03,.18,.05,.27,.08,.13-.04,.26-.11,.38-.23,.05-.05,.09-.1,.12-.16,.22-.17,.37-.43,.37-.71-.01-.52,0-1.02-.2-1.5-.23-.53-.86-.83-1.4-.85-.51-.02-1.12,.13-1.43,.56-.05,.07-.1,.16-.13,.26-.35,.38-.55,.9-.5,1.4,.22,.19,.48,.35,.8,.5,.58,.27,1.15,.48,1.73,.65Z"/>
            <path class="cls-3" d="M38.82,97.78c.47-.03,1.21-.04,1.93-.15,.26-.55,.09-1.14-.33-1.58-.42-.43-.79-.66-1.39-.76-1.28-.21-2.29,1.29-1.7,2.4,.02,.04,.06,.06,.08,.09,.12,0,.24,.01,.36,.01,.34,0,.68,0,1.04-.01Z"/>
          </g>
          <g>
            <path class="cls-3" d="M52.26,101.04c-.88-.35-1.81,.49-1.69,1.4,0,.03,.02,.06,.03,.09,.48,.29,1.83,.44,3.42,.44,0-.09,.01-.17,0-.26-.11-.91-1.01-1.37-1.76-1.67Z"/>
            <path class="cls-3" d="M60.18,100.45c-.16,.33-.05,.72,.05,1.04,.08,.25,.26,.42,.48,.53,.63-.63,.84-1.77,.62-2.54-.5,.14-.94,.52-1.15,.97Z"/>
            <path class="cls-3" d="M58.87,102.39c-.23-.63-.64-1-1.24-1.29-.39-.19-.98-.22-1.36,.11-.17,.06-.33,.12-.5,.24-.28,.19-.42,.74-.36,1.05,.02,.15,.07,.3,.14,.44,1.18-.06,2.37-.18,3.36-.37-.01-.06-.02-.12-.04-.17Z"/>
          </g>
          <g>
            <path class="cls-3" d="M78.61,98.38s0-.03,.01-.06c.01-.11,.02-.22,.03-.34,.03-.28-.19-.62-.3-.86-.18-.38-.56-.64-.95-.77-.68-.23-1.58,.25-1.93,.83-.19,.33-.23,.78-.1,1.15,.11,.3,.26,.51,.5,.68,.89-.02,1.74-.16,2.47-.41,.08-.02,.17-.06,.25-.09,0-.05,0-.09,0-.14Z"/>
            <path class="cls-3" d="M79.8,95.79c-.11,.25-.13,.3-.06,.13-.06,.09-.1,.18-.11,.28-.07,.4,.01,.74,.21,1.09,.1,.18,.25,.36,.41,.52,1.04-.6,1.42-1.46,1.14-2.72-.02-.1-.05-.18-.08-.26-.46,.08-.91,.33-1.25,.62-.11,.09-.19,.22-.27,.34Z"/>
            <path class="cls-3" d="M70.7,97.42c.11,1.05,1.4,1.38,2.57,1.5,.14-.43,.11-.92-.11-1.3-.34-.56-.91-.68-1.52-.63-.39,.03-.7,.17-.93,.42Z"/>
          </g>
          <path class="cls-6" d="M49.21,87.54c-11.44-3.57-17.5-7.47-26.05-21.8,3.06,17.2,17.5,30.22,34.85,30.22,12.62,0,23.71-6.89,29.99-17.27-5.25,5.61-22.02,14.08-38.79,8.85Z"/>
          <path class="cls-3" d="M62.41,35.53c-.41,0-.77,.24-.81,.67-.03,.38,.27,.81,.67,.81s.77-.24,.81-.67c.03-.38-.27-.81-.67-.81Z"/>
          <path class="cls-3" d="M55.58,32.74c-.71,0-1.35,.37-1.44,1.13-.08,.64,.42,1.44,1.13,1.44s1.35-.37,1.44-1.13c.08-.64-.42-1.44-1.13-1.44Z"/>
          <path class="cls-3" d="M56.72,37.66c-.88,0-1.05,1.37-.16,1.37s1.05-1.37,.16-1.37Z"/>
          <path class="cls-3" d="M60.56,39.36c-.7,0-.6,1.08,.09,1.08s.6-1.08-.09-1.08Z"/>
          <path class="cls-3" d="M49.43,38.03c-.05,0-.1,.01-.16,.03-.51,.11-.94,.39-1.04,.94-.11,.63,.31,1.23,.93,1.35,.06,.01,.12,.03,.18,.03,.64,.08,1.26-.31,1.37-.97,.13-.75-.52-1.47-1.29-1.38Z"/>
          <path class="cls-3" d="M55.82,41.99c-.65,0-1.13,.72-1.06,1.32,.07,.7,.67,1.07,1.32,1.07s1.13-.72,1.06-1.32c-.07-.7-.67-1.07-1.32-1.07Z"/>
          <path class="cls-3" d="M45.27,44.07c-.09-.73-.7-1.07-1.37-1.07s-1.15,.76-1.07,1.37c.09,.73,.7,1.07,1.37,1.07s1.15-.76,1.07-1.37Z"/>
          <path class="cls-3" d="M66.24,40.61s-.06,0-.09-.01c-.66-.09-1.29,.36-1.39,1.02-.12,.77,.56,1.51,1.35,1.4,.03,0,.05,0,.08-.01,.54-.08,.98-.47,1.06-1.01,.1-.64-.35-1.29-1.01-1.39Z"/>
          <path class="cls-3" d="M74.81,45.78c.02-.12,.01-.25,0-.37,0-.01,0-.03-.01-.04-.06-.3-.21-.57-.46-.76-.13-.1-.27-.16-.43-.2-.04-.01-.08-.02-.12-.03-.02,0-.03-.01-.05-.01-.02,0-.06,0-.08,0-.12-.01-.25,0-.37,.02-.03,0-.05,0-.08,.01-.04,.01-.07,.02-.11,.04-.12,.04-.24,.1-.3,.18-.02,.01-.03,.03-.05,.04-.55,.48-.69,1.34-.07,1.84,.01,0,.02,.01,.03,.02,.1,.1,.2,.18,.31,.23,.04,.02,.07,.04,.11,.05,.03,0,.05,.01,.08,.02,.33,.1,.68,.03,.97-.16,0,0,.02-.01,.03-.02,.08-.05,.14-.11,.21-.17,.03-.03,.06-.05,.09-.08,.04-.05,.08-.11,.11-.16,.03-.04,.06-.08,.08-.13,.05-.1,.09-.21,.1-.33Z"/>
          <path class="cls-3" d="M72.48,38.19c-.12-.08-.27-.12-.41-.14-.63-.12-1.25,.33-1.36,.96-.12,.7,.51,1.52,1.28,1.38,.25-.05,.43-.09,.65-.24,.33-.23,.51-.62,.48-1.02-.03-.43-.29-.71-.64-.93Z"/>
          <path class="cls-3" d="M79.84,44.6c-.65,0-1.12,.7-1.06,1.29,.07,.69,.65,1.06,1.29,1.06s1.12-.7,1.06-1.29c-.07-.69-.65-1.06-1.29-1.06Z"/>
          <path class="cls-3" d="M36.41,44.15c-.54,0-.51,.84,.03,.84s.51-.84-.03-.84Z"/>
          <path class="cls-3" d="M40.13,46.45c-.91,0-1.07,1.42-.15,1.42s1.07-1.42,.15-1.42Z"/>
          <path class="cls-3" d="M36.34,49.6c-.37,0-.7,.19-.75,.58-.04,.33,.22,.75,.58,.75s.7-.19,.75-.58c.04-.33-.22-.75-.58-.75Z"/>
          <path class="cls-3" d="M49.55,45.92c-.03-.06-.06-.12-.11-.17-.02-.02-.03-.03-.05-.05-.35-.36-.95,.02-.91,.47,.04,.49,.65,.65,.97,.31,0,0,.02-.02,.02-.03,.14-.16,.15-.36,.08-.53Z"/>
          <path class="cls-3" d="M46.1,40.46c-.4,0-.41,.62,0,.62s.41-.62,0-.62Z"/>
          <path class="cls-3" d="M49.12,34.09c-.82,0-.65,1.27,.17,1.27s.65-1.27-.17-1.27Z"/>
          <path class="cls-3" d="M52.64,38.06c-.6,0-.55,.92,.05,.92s.55-.92-.05-.92Z"/>
          <g>
            <path class="cls-3" d="M60.17,34.35s-.05,.01-.08,.01c.09,0,.06,0,.08-.01Z"/>
            <path class="cls-3" d="M60.28,33.44c-.33-.24-.82-.11-.9,.32-.09,.52,.45,.75,.86,.55-.04,.02-.06,.03-.07,.04,.15-.03,.26-.15,.31-.3,.08-.22-.02-.49-.2-.62Z"/>
          </g>
          <path class="cls-3" d="M62.1,44.07c-.09-.09-.2-.14-.33-.16-.76-.11-.75,1.09-.06,.99,.17-.03,.28-.07,.41-.19,.18-.17,.15-.47-.02-.64Z"/>
          <path class="cls-3" d="M65.98,36.27c-.23,0-.26,.35-.03,.35s.26-.35,.03-.35Z"/>
          <path class="cls-3" d="M70.18,36.24c-.93,0-1.09,1.45-.15,1.45s1.09-1.45,.15-1.45Z"/>
          <path class="cls-3" d="M67.61,37.89c-.34,0-.59,.4-.55,.71,.05,.37,.36,.55,.71,.55s.59-.4,.55-.71c-.05-.37-.36-.55-.71-.55Z"/>
          <path class="cls-3" d="M69.22,44.77c-.63,0-.56,.97,.06,.97s.56-.97-.06-.97Z"/>
          <path class="cls-3" d="M70.27,40.78c-.66,0-.58,1.01,.07,1.01s.58-1.01-.07-1.01Z"/>
          <path class="cls-3" d="M76.91,41.49s-.08-.02-.12-.02c-.99-.19-.99,1.57,.02,1.36,.04,0,.07-.01,.11-.02,.75-.15,.73-1.17,0-1.32Z"/>
          <path class="cls-3" d="M74.11,40.96c-.1-.1-.26-.12-.37-.02-.08,.07-.11,.15-.13,.25-.1,.52,.72,.53,.62,0-.02-.1-.04-.17-.12-.24Z"/>
          <path class="cls-3" d="M74.98,36.51c-.08-.04-.17-.07-.25-.11-.85-.12-.85,1.25-.04,1.13,.24-.04,.39-.13,.52-.34,.13-.22,.02-.6-.23-.69Z"/>
          <path class="cls-3" d="M51.58,34.19c-.69,0-.6,1.07,.09,1.07s.6-1.07-.09-1.07Z"/>
          <path class="cls-3" d="M77.95,49.32c-1,0-1.13,1.55-.12,1.55s1.12-1.55,.12-1.55Z"/>
          <path class="cls-3" d="M83.54,50.06c-.71,0-.61,1.1,.1,1.1s.61-1.1-.1-1.1Z"/>
          <path class="cls-3" d="M82.98,53.06c-.84,0-1.02,1.32-.17,1.32s1.02-1.32,.17-1.32Z"/>
          <path class="cls-3" d="M84.11,46.38c-.55,0-.52,.86,.03,.86s.52-.86-.03-.86Z"/>
          <path class="cls-3" d="M88.09,49.54c-.27,0-.3,.42-.02,.42s.3-.42,.02-.42Z"/>
          <path class="cls-3" d="M85.33,53.38c-.22,0-.25,.34-.03,.34s.25-.34,.03-.34Z"/>
          <path class="cls-3" d="M87.5,49.19c-.73,0-.61,1.13,.11,1.13s.61-1.13-.11-1.13Z"/>
          <path class="cls-3" d="M85.41,52.4c-.34,0-.59,.4-.55,.71,.05,.37,.36,.55,.71,.55s.59-.4,.55-.71c-.05-.37-.36-.55-.71-.55Z"/>
          <path class="cls-3" d="M85.11,55.32c-.43,.03-.58,.54-.29,.83,0,0,.01,.01,.02,.02,.15,.23,.58,.2,.64-.1v.06c.31-.3,.03-.82-.37-.8Z"/>
          <path class="cls-3" d="M31.23,43.15c-.35,0-.47,.41-.26,.65-.12-.14,.04,.08,.09,.11,.17,.1,.31,.04,.45-.11,.22-.25,.07-.65-.28-.65Z"/>
          <path class="cls-3" d="M32.71,46.35c-.82,0-.65,1.27,.17,1.27s.65-1.27-.17-1.27Z"/>
          <path class="cls-3" d="M32.8,49.09c-.14-.34-.4-.56-.7-.67h.03c-.21-.09-.43-.12-.65-.09-.1,.01-.2,.04-.3,.08,0,0-.02,0-.03,0h0c-.12,.05-.23,.11-.32,.18-.31,.25-.46,.6-.52,.99-.11,.69,.44,1.35,1.12,1.44,.76,.09,1.41-.5,1.44-1.23,.04-.24,.02-.48-.07-.7Z"/>
          <path class="cls-3" d="M34.12,52.46c-.74,0-.62,1.14,.12,1.14s.62-1.14-.12-1.14Z"/>
          <path class="cls-3" d="M86.41,51.62c-.26-.07-.49-.03-.74,.04-.6,.15-.81,.83-.68,1.37l.03,.11c.17,.69,.88,.84,1.42,.6,.03,0,.07,0,.1-.02,.46-.12,.76-.64,.74-1.09-.03-.5-.39-.88-.86-1Z"/>
          <path class="cls-3" d="M88.4,54.3c-.6,0-.55,.92,.05,.92s.55-.92-.05-.92Z"/>
          <path class="cls-3" d="M82.75,57.64c-.07-.08-.16-.14-.24-.21-.56-.45-1.38,.14-1.39,.76-.02,.85,.95,1.16,1.55,.68,.07-.05,.12-.12,.17-.2,.24-.29,.15-.78-.09-1.04Z"/>
          <path class="cls-3" d="M78.3,53.17s-.09-.04-.13-.05c-.42-.17-.48,.71,.05,.5,.04-.01,.08-.03,.12-.05,.19-.08,.13-.34-.03-.4Z"/>
          <path class="cls-3" d="M65.73,46.22c-.76,0-.63,1.18,.13,1.18s.63-1.18-.13-1.18Z"/>
          <path class="cls-3" d="M71.59,49.13c-.8,0-.64,1.24,.15,1.24s.64-1.24-.15-1.24Z"/>
          <path class="cls-3" d="M44,48.43c-.59,0-.54,.91,.04,.91s.54-.91-.04-.91Z"/>
          <path class="cls-3" d="M40.4,50.18s-.04-.01-.06-.02c-.56-.16-.87,.59-.59,.99,.08,.12,.17,.2,.29,.28,.11,.07,.25,.07,.36,0,.03-.03,.06-.05,.09-.08,.02,0,.03,0,.05-.01,.26-.07,.41-.39,.38-.64-.03-.29-.25-.46-.51-.53Z"/>
          <path class="cls-10" d="M118.29,61.37c.21-1.41-2.11-1.71-2.66-2.81,.58-.31,2.22-.25,1.49-1.1-.54-.62-2.12-.09-2.76-.1-2.6-.02-2.02-1.19-.64-2.66-1.12-.45-3.16,2.24-3.77,.53-.58,.13-.9,0-1.11-.27-.17,.3-.33,.62-.46,.94,0,.12,0,.24-.02,.38-.23,1.91-.46,2.34,1.48,1.06,.63,.54,.27,1.35,.44,2.01,1.42-1.01,2.26-.61,2.41,1.21,1.68-.83,1.81,1.23,2.81,2.05,.88-1.79,.65-1.53,2.81-1.24Z"/>
          <path class="cls-10" d="M16.11,54.49c-.09-.04-.18-.1-.26-.17-.98-.81-.43-4.12-1.53-4.22-.49,2.6-1.9-1.43-2.31-1.65-.17,.33-.57,.66-.67,1.07-1.25-.33-1.69-2.31-3.06-2.14,.26,.42,.02,.37,.06,.79-2.02-.04-5.23,.56-1.76,1.67,1.04,.33,1.72,.3,1.68,1.49-.04,1.43-1.15,.53-.02,1.7,.27,.28,.85-.17,1.19,.36,.21,.33-.6,1-.38,1.29,.78,1.02,1.53-.71,2.38-.14,1.17,.78-1.28,4.36,1.81,3.05,.72-.31,1.43-.8,2.11-.97,.3-.66,.55-1.39,.74-2.14Z"/>
          <path class="cls-10" d="M36.2,0c-3.38,0-6.19,2.41-6.75,5.58,1.32-.27,2.74-.43,4.23-.43,3.77,0,7.11,.94,9.34,2.41,.03-.27,.05-.54,.05-.81,0-3.73-3.07-6.75-6.86-6.75Z"/>
        </g>
      </g>
    </g>
  </g>
</svg>