<?xml version="1.0" encoding="UTF-8"?>
<svg xmlns="http://www.w3.org/2000/svg" viewBox="0 0 93.67 119">
  <defs>
    <style>
      .cls-1 {
        fill: #fff;
      }

      .cls-2, .cls-3 {
        fill: #f0d907;
      }

      .cls-4 {
        fill: #64bd55;
      }

      .cls-5 {
        fill: #3c37a1;
      }

      .cls-6 {
        isolation: isolate;
      }

      .cls-7 {
        fill: #ff3a5c;
      }

      .cls-3 {
        mix-blend-mode: multiply;
      }

      .cls-8 {
        fill: #5057b8;
      }

      .cls-9 {
        fill: #e8e8e8;
      }

      .cls-10 {
        fill: #a2a7e8;
      }

      .cls-11 {
        fill: #437e39;
      }
    </style>
  </defs>
  <g class="cls-6">
    <g id="Ebene_2" data-name="Ebene 2">
      <g id="_Ńëîé_1" data-name="Ńëîé 1">
        <g>
          <g>
            <path class="cls-11" d="M38.27,47.25c-.86-.35-2.05-.76-3.34-1.06,.02-.1,.02-.2,0-.3,.23-.07,.38-.25,.45-.45,.32,0,.59,.06,.78,.18,.19,.12,.47-.09,.34-.3-.28-.45-.71-.68-1.22-.78-.06-.1-.14-.19-.24-.26-.21-.14-.42-.24-.63-.35,.47-.1,.93-.2,1.34-.31,.28-.08,.26-.56-.05-.53-1.17,.11-2.4,.15-3.62,.23h0c0-.31-.21-.6-.49-.74,1.64-.19,3.28-.07,4.89-.71,.14-.06,.11-.26-.02-.31-4.26-1.65-9.15-.13-12.19,2.98-3.73,3.81-5.53,10.72-6.53,15.83-1.27,6.47-3.32,12.53-4.97,18.88-.82,3.17-1.67,6.54-2.84,9.59-.44,1.15-1.03,2.29-1.5,3.45-1.36,.16-2.73,1.07-4.02,1.31-1.38,.26-3.46,.34-4.16,1.86-.63,1.36-.02,3.04,.41,4.36,.75,2.28,1.76,4.81,3.21,6.75,.35,.47,1.06,.61,1.58,.36,2.03-.96,1.99-3.32,.72-4.85-1.09-1.31-1.42-2.58-1.83-4.19-.07-.28,.3-.55,.84-.79,0,0,0,.02,0,.03,.29,1.31,1.23,2.54,1.92,3.67,.52,.86,.82,1.98,1.46,2.73,.42,.5,1.21,.68,1.75,.23,.96-.82,1.63-3.03,.87-4.09-.6-.84-1.38-1.81-1.69-2.79-.21-.65,.23-.73,.71-1.13,.05-.04,.08-.08,.12-.12,.38,.49,.86,.93,1.25,1.28,.77,.69,1.32,2.06,2.45,2.24,1.31,.2,1.84-.96,2.38-1.9,.6-1.06-.5-1.9-1.2-2.45-1.54-1.22-2.32-2.17-2.35-4.25,0-.34,.04-.67,.11-1,.42-.93,.86-1.86,1.37-2.76,2.71-4.77,3.8-10.33,5.71-15.41,1.96-5.22,3.13-10.77,5.11-15.97,.7-1.84,2.77-7.75,5.23-7.88,1.44-.08,2.92,.13,4.37,.12,1.08,0,2.43-.32,3.46-.17,.14,.02,.18-.18,.05-.23Z"/>
            <path class="cls-7" d="M16.18,75.45c-1.21,0-1.19-1.87,.02-1.87s1.19,1.87-.02,1.87Zm2.24-5.3c-.84,0-1.02,1.32-.17,1.32s1.02-1.32,.17-1.32Zm-1.51,.55c-.37,0-.39,.58-.01,.58s.39-.58,.01-.58Zm1.04-3.75c-.61,0-.55,.94,.05,.94s.55-.94-.05-.94Zm2.03-.04c-.15-.06-.29-.09-.45-.07-.64,.07-.7,1.08-.03,1.16,.16,.02,.29,.01,.44-.05,.43-.17,.51-.85,.04-1.04Zm-.54-5.91c-1.14,0-1.2,1.76-.06,1.76s1.2-1.76,.06-1.76Zm-1.13,2.54c-.56,0-1.01,.51-1,1.06,.02,.57,.5,1,1.06,1s1.01-.51,1-1.06c-.02-.57-.5-1-1.06-1Zm2.29-.09c-.32,0-.55,.35-.52,.64,.04,.34,.32,.52,.64,.52s.55-.35,.52-.64c-.04-.34-.32-.52-.64-.52Zm.78-2.6c-.42,0-.42,.65,0,.65s.42-.65,0-.65Zm-1.8-1.7c-.53,0-.51,.83,.03,.83s.51-.83-.03-.83Zm-.18-2.01c-1.29,0-1.25,1.99,.03,1.99s1.25-1.99-.03-1.99Zm.64-3.84c-.37,.45,.04,.92,.51,.95,.38,.03,.53-.32,.52-.64-.02-.52-.72-.68-1.03-.31Zm1.66,3.44c-.66,0-.58,1.02,.08,1.02s.58-1.02-.08-1.02Zm-7.13,19.54c-.58,0-.54,.91,.04,.91s.54-.91-.04-.91ZM2.73,99.68c.35-.05,.52-.33,.52-.6,.01-.04,.03-.08,.04-.12,.04-.33-.22-.76-.59-.76s-.71,.19-.76,.59c0,.05,0,.1,0,.14-.04,.21,.01,.45,.2,.59,.19,.14,.36,.2,.59,.16Zm1.95-3.35c.87,0,1.04-1.35,.17-1.35s-1.04,1.35-.17,1.35Zm-2.97-.02c-.54,0-.51,.84,.03,.84s.51-.84-.03-.84Zm5.66,0c-.34,0-.58,.39-.54,.7,.05,.37,.36,.54,.7,.54s.58-.39,.54-.7c-.05-.37-.36-.54-.7-.54Zm-5.75-.81s0,0,0,0c.14-.1,.24-.25,.26-.46,.01-.12-.01-.25-.07-.37,0,0,0,0,.01,0-.06-.19-.18-.29-.32-.35-.39,.19-.73,.44-.99,.79,.09,.39,.47,.56,.8,.5l-.03,.03c.12-.02,.23-.07,.33-.14Zm5.85,.29c.62,0,.56-.95-.06-.95s-.56,.95,.06,.95Zm-4.26,.62c.73,0,.61-1.13-.11-1.13s-.61,1.13,.11,1.13Zm2.15-1.96c.67,0,.63-.93,.07-1.11-.2,.07-.4,.14-.6,.19-.19,.33,.01,.91,.54,.91Zm-3.32,6.16c-.05,.01-.05,.08,0,.1h.04c.08,.03,.08-.12,0-.1-.01,0-.02,0-.04,0Zm8.52-9.25c-1.1,0-1.18,1.72-.07,1.72s1.18-1.72,.07-1.72Zm-1.16,3.54c-.35,0-.37,.55-.02,.55s.37-.55,.02-.55Zm1-4.83c.57,.1,.57-.78,0-.68-.01,0-.02,0-.03,0-.34,.06-.34,.61,0,.67,.01,0,.02,0,.04,0Zm1.84,3.77c.4,0,.41-.62,0-.62s-.41,.62,0,.62Zm-8.92,7.38c.63,0,.56-.97-.06-.97s-.56,.97,.06,.97Zm.34-4.22c-.72,0-.61,1.11,.11,1.11s.61-1.11-.11-1.11Zm7.09-3.45c-.46,0-.46,.71,0,.71s.46-.71,0-.71Zm-6.95,5.39c-.58,0-.54,.9,.04,.9s.54-.9-.04-.9Zm4.26-6.54c-.17,.04-.35,.08-.52,.14-.7,.44-.53,1.77,.5,1.77,1.23,0,1.23-1.89,.02-1.91Z"/>
          </g>
          <g>
            <path class="cls-11" d="M49.32,47.25c1-.35,2.38-.76,3.87-1.06-.02-.1-.03-.2,0-.3-.27-.07-.44-.25-.53-.45-.37,0-.68,.06-.9,.18-.22,.12-.54-.09-.39-.3,.32-.45,.82-.68,1.41-.78,.07-.1,.16-.19,.28-.26,.25-.14,.49-.24,.73-.35-.55-.1-1.07-.2-1.55-.31-.32-.08-.3-.56,.06-.53,1.35,.11,2.78,.15,4.19,.23h0c0-.31,.25-.6,.57-.74-1.9-.19-3.8-.07-5.67-.71-.17-.06-.13-.26,.02-.31,4.93-1.65,10.6-.13,14.13,2.98,4.32,3.81,6.41,10.72,7.57,15.83,1.47,6.47,3.85,12.53,5.76,18.88,.96,3.17,1.93,6.54,3.29,9.59,.51,1.15,1.2,2.29,1.74,3.45,1.57,.16,3.16,1.07,4.66,1.31,1.59,.26,4,.34,4.82,1.86,.73,1.36,.02,3.04-.48,4.36-.86,2.28-2.04,4.81-3.71,6.75-.4,.47-1.23,.61-1.83,.36-2.35-.96-2.3-3.32-.83-4.85,1.27-1.31,1.65-2.58,2.12-4.19,.08-.28-.35-.55-.97-.79,0,0,0,.02,0,.03-.33,1.31-1.42,2.54-2.22,3.67-.61,.86-.95,1.98-1.69,2.73-.49,.5-1.41,.68-2.03,.23-1.12-.82-1.88-3.03-1.01-4.09,.69-.84,1.59-1.81,1.96-2.79,.24-.65-.27-.73-.82-1.13-.05-.04-.09-.08-.14-.12-.44,.49-.99,.93-1.45,1.28-.89,.69-1.53,2.06-2.84,2.24-1.51,.2-2.13-.96-2.75-1.9-.7-1.06,.58-1.9,1.39-2.45,1.79-1.22,2.69-2.17,2.72-4.25,0-.34-.05-.67-.13-1-.49-.93-.99-1.86-1.58-2.76-3.14-4.77-4.4-10.33-6.62-15.41-2.28-5.22-3.62-10.77-5.92-15.97-.81-1.84-3.21-7.75-6.06-7.88-1.67-.08-3.38,.13-5.06,.12-1.25,0-2.81-.32-4.01-.17-.16,.02-.21-.18-.06-.23Z"/>
            <path class="cls-7" d="M74.92,75.45c1.4,0,1.38-1.87-.02-1.87s-1.38,1.87,.02,1.87Zm-2.6-5.3c.98,0,1.19,1.32,.2,1.32s-1.19-1.32-.2-1.32Zm1.75,.55c.43,0,.45,.58,.01,.58s-.45-.58-.01-.58Zm-1.2-3.75c.7,0,.64,.94-.06,.94s-.64-.94,.06-.94Zm-2.35-.04c.17-.06,.34-.09,.52-.07,.75,.07,.81,1.08,.04,1.16-.18,.02-.34,.01-.51-.05-.5-.17-.6-.85-.05-1.04Zm.63-5.91c1.32,0,1.39,1.76,.07,1.76s-1.39-1.76-.07-1.76Zm1.31,2.54c.65,0,1.17,.51,1.15,1.06-.02,.57-.58,1-1.23,1s-1.17-.51-1.15-1.06c.02-.57,.58-1,1.23-1Zm-2.66-.09c.37,0,.64,.35,.6,.64-.04,.34-.38,.52-.74,.52s-.64-.35-.6-.64c.04-.34,.37-.52,.74-.52Zm-.9-2.6c.48,0,.49,.65,0,.65s-.49-.65,0-.65Zm2.09-1.7c.62,0,.59,.83-.03,.83s-.59-.83,.03-.83Zm.21-2.01c1.49,0,1.45,1.99-.04,1.99s-1.45-1.99,.04-1.99Zm-.74-3.84c.43,.45-.04,.92-.59,.95-.45,.03-.61-.32-.6-.64,.02-.52,.84-.68,1.19-.31Zm-1.93,3.44c.76,0,.67,1.02-.09,1.02s-.67-1.02,.09-1.02Zm8.27,19.54c.68,0,.62,.91-.05,.91s-.62-.91,.05-.91Zm13.72,23.42c-.41-.05-.61-.33-.6-.6-.02-.04-.04-.08-.05-.12-.05-.33,.26-.76,.69-.76s.82,.19,.88,.59c0,.05,0,.1,0,.14,.05,.21-.01,.45-.23,.59-.22,.14-.41,.2-.69,.16Zm-2.26-3.35c-1,0-1.21-1.35-.19-1.35s1.2,1.35,.19,1.35Zm3.44-.02c.63,0,.6,.84-.03,.84s-.6-.84,.03-.84Zm-6.56,0c.39,0,.67,.39,.63,.7-.05,.37-.41,.54-.8,.54s-.67-.39-.63-.7c.05-.37,.41-.54,.81-.54Zm6.67-.81s0,0,0,0c-.16-.1-.28-.25-.3-.46-.02-.12,.01-.25,.07-.37,0,0,0,0-.01,0,.07-.19,.21-.29,.37-.35,.45,.19,.85,.44,1.15,.79-.11,.39-.54,.56-.93,.5l.03,.03c-.14-.02-.27-.07-.38-.14Zm-6.78,.29c-.71,0-.65-.95,.06-.95s.65,.95-.06,.95Zm4.94,.62c-.85,0-.71-1.13,.13-1.13s.71,1.13-.13,1.13Zm-2.49-1.96c-.78,0-.73-.93-.08-1.11,.24,.07,.47,.14,.7,.19,.22,.33-.01,.91-.62,.91Zm3.85,6.16c.06,.01,.06,.08,0,.1h-.04c-.09,.03-.09-.12,0-.1,.01,0,.03,0,.04,0Zm-9.88-9.25c1.28,0,1.37,1.72,.09,1.72s-1.37-1.72-.09-1.72Zm1.35,3.54c.41,0,.43,.55,.02,.55s-.43-.55-.02-.55Zm-1.15-4.83c-.66,.1-.66-.78,0-.68,.01,0,.03,0,.04,0,.39,.06,.39,.61,0,.67-.01,0-.03,0-.04,0Zm-2.14,3.77c-.46,0-.47-.62,0-.62s.47,.62,0,.62Zm10.34,7.38c-.73,0-.65-.97,.07-.97s.65,.97-.07,.97Zm-.39-4.22c.83,0,.71,1.11-.12,1.11s-.71-1.11,.12-1.11Zm-8.21-3.45c.53,0,.53,.71,0,.71s-.53-.71,0-.71Zm8.05,5.39c.67,0,.62,.9-.05,.9s-.62-.9,.05-.9Zm-4.94-6.54c.2,.04,.4,.08,.6,.14,.81,.44,.62,1.77-.58,1.77-1.42,0-1.43-1.89-.03-1.91Z"/>
          </g>
          <path class="cls-8" d="M61,78.17c-1.35-9.47-3.27-18.7-3.31-28.28-.04-9.67,.34-19.73-.15-29.34-.43-8.33-6.86-12.99-13.87-13.07-6.43-.07-12.47,4.74-12.86,13.07-.45,9.61-.11,19.67-.14,29.34-.04,9.58-1.79,18.81-3.02,28.28-.92,7.05-7.69,18.66-4.26,25.26,3.49,6.7,12.43,6.97,20.17,6.93,8.47-.04,18.29-.23,22.11-6.93,3.76-6.6-3.66-18.21-4.67-25.26Z"/>
          <g>
            <path class="cls-3" d="M43.26,31.26c-4.99,0-9.05-4.06-9.05-9.05,0-.44,.05-.9,.14-1.43,.69-4.4,4.44-7.61,8.9-7.61,4.99,0,9.05,4.06,9.05,9.05s-4.06,9.05-9.05,9.05Z"/>
            <path class="cls-2" d="M43.26,31.26c-4.99,0-9.05-4.06-9.05-9.05,0-.44,.05-.9,.14-1.43,.69-4.4,4.44-7.61,8.9-7.61,4.99,0,9.05,4.06,9.05,9.05s-4.06,9.05-9.05,9.05Z"/>
            <g>
              <g>
                <path class="cls-1" d="M35.79,22.21c0,4.13,3.35,7.47,7.47,7.47s7.47-3.35,7.47-7.47-3.34-7.47-7.47-7.47-7.47,3.35-7.47,7.47Z"/>
                <path class="cls-9" d="M36.07,20.3c.24,3.91,3.45,7.02,7.43,7.02,3.46,0,6.35-2.37,7.2-5.56,0,.15,.04,.3,.04,.45,0,4.13-3.34,7.47-7.47,7.47s-7.47-3.35-7.47-7.47c0-.67,.12-1.3,.28-1.91Z"/>
              </g>
              <g>
                <path d="M42.19,24.13c1.75,1.09,4.04,.55,5.13-1.2,1.08-1.75,.55-4.05-1.2-5.13-1.75-1.09-4.05-.55-5.13,1.2-1.08,1.75-.55,4.04,1.2,5.13Z"/>
                <path class="cls-1" d="M43.31,20.45c.7,.43,1.61,.22,2.05-.48,.43-.7,.22-1.62-.48-2.05-.7-.43-1.62-.22-2.05,.48-.43,.7-.22,1.62,.48,2.05Z"/>
              </g>
            </g>
          </g>
          <path class="cls-4" d="M31.44,71.6c8.59,3.56,16.74,3.75,25.24,.84-4.21,5.5-2.51,18.9-14.09,17.91-9.24-.79-7.98-11.81-10.72-17.93l-.43-.82Z"/>
          <g>
            <path class="cls-1" d="M43.9,84.49c-.33-1.85-1.08-3.06-1.08-3.06,0,0-.89,1.4-1.11,3.78-.15,1.65-.32,3.63-.44,4.95,.41,.09,.85,.16,1.31,.2,.84,.07,1.61,.06,2.32-.01-.43-2.51-.82-4.81-1.01-5.86Z"/>
            <path class="cls-1" d="M49.17,81.74s.95-1.45,1.52-3.95c.18-.77,.36-2.48,.46-3.9-1.28,.24-2.56,.41-3.84,.49,.73,4.74,1.86,7.36,1.86,7.36Z"/>
            <path class="cls-1" d="M40.12,74.07c-1.28-.2-2.57-.46-3.86-.81,.06,.76,.16,1.58,.29,2.45,.92,6,1.31,6.03,1.31,6.03,0,0,1.54-3.72,1.69-4.65,.11-.69,.36-1.12,.57-3.02Z"/>
          </g>
          <path class="cls-10" d="M42.43,88.74c-3.94-.34-6.15-2.36-7.56-5.1,1.19,3.5,3.2,6.33,7.71,6.71,6.5,.56,8.82-3.42,10.34-7.99-1.73,3.92-4.51,6.89-10.5,6.38Z"/>
          <g>
            <path class="cls-11" d="M24.2,110.81c-1.08-1.01-2.23-1.04-3.63-1.21-.1-.01-.13,.13-.04,.17,1.04,.51,2,1.1,2.71,2.03,.59,.77,.93,1.71,1.59,2.41,.23,.25,.67,.09,.74-.23,.24-1.14-.56-2.42-1.37-3.17Z"/>
            <path class="cls-11" d="M41.27,114.94c0-.08-.1-.08-.14-.04-.65,.76-1.44,1.18-2.3,1.66-.33,.18-.24,.76,.14,.81,.69,.1,1.25-.17,1.74-.65,.29-.27,.41-.51,.55-.88,.12-.32,.01-.59,0-.92Z"/>
            <g>
              <path class="cls-5" d="M39.81,107.37s-.06-.02-.09-.02c-1.11,.3-1.73,1.31-2.07,2.25-.32-.89-.79-1.71-1.65-2.48-.07-.06-.2-.04-.24,.03-.53,1.09,.08,2.33,.28,3.44,.3,1.69,.24,3.34,.05,5.02-.1,.04-.2,.06-.3,.1-1.31,.53,.07,2,1.38,1.41,0-.04,0-.06,.02-.08,.03-.05,.1-.04,.2,.03,1.13,.31,1.97-.49,1.43-1.25-.59-.82,.09-3.45,.28-4.7,.14-.91,1.4-2.91,.69-3.76Z"/>
              <path class="cls-5" d="M38.87,115.26c-.08-.12-.16-.24-.27-.37-.57-.72-1.35-.6-1.83-.12-2.86-.06-5.91,.32-8.77-.05-.32-.67-.77-1.07-1.42-1.28,.02-.2,.02-.4,0-.56-.15-.97-1.03-1.83-2.08-1.51-.41,.13-.72,.36-.92,.74-.25,.47-.17,1.15,.25,1.5,.02,.02,.04,.03,.07,.04,.02,.02,.03,.05,.04,.07-.05,.03-.1,.05-.12,.07-.4,.3-.54,.76-.57,1.25-.05,.89,.08,1.64,.54,2.41,.42,.7,1.09,1.27,1.92,1.42,.08,.01,.15,.02,.23,.03,1.49,.28,3.73-.3,4.84-.28,.83,.01,2.57,.04,4.27-.14,1.26,.2,2.54,.28,3.73,.13,.64-.08,.99-.62,1.11-1.2,.2-.94-.48-1.51-1.01-2.18Z"/>
            </g>
          </g>
          <g>
            <path class="cls-11" d="M64.21,110.81c1.07-1.01,2.21-1.04,3.58-1.21,.1-.01,.13,.13,.04,.17-1.03,.51-1.97,1.1-2.68,2.03-.58,.77-.91,1.71-1.57,2.41-.23,.25-.66,.09-.73-.23-.24-1.14,.56-2.42,1.36-3.17Z"/>
            <path class="cls-11" d="M47.36,114.94c0-.08,.1-.08,.14-.04,.64,.76,1.42,1.18,2.27,1.66,.33,.18,.24,.76-.14,.81-.68,.1-1.23-.17-1.72-.65-.28-.27-.4-.51-.54-.88-.12-.32-.01-.59,0-.92Z"/>
            <g>
              <path class="cls-5" d="M48.81,107.37s.06-.02,.08-.02c1.09,.3,1.71,1.31,2.05,2.25,.31-.89,.78-1.71,1.63-2.48,.06-.06,.2-.04,.23,.03,.53,1.09-.08,2.33-.27,3.44-.3,1.69-.23,3.34-.05,5.02,.1,.04,.2,.06,.3,.1,1.3,.53-.07,2-1.37,1.41,0-.04,0-.06-.02-.08-.03-.05-.09-.04-.2,.03-1.12,.31-1.95-.49-1.41-1.25,.58-.82-.09-3.45-.28-4.7-.13-.91-1.39-2.91-.68-3.76Z"/>
              <path class="cls-5" d="M49.74,115.26c.08-.12,.16-.24,.26-.37,.57-.72,1.34-.6,1.8-.12,2.82-.06,5.84,.32,8.66-.05,.31-.67,.76-1.07,1.4-1.28-.02-.2-.02-.4,0-.56,.15-.97,1.02-1.83,2.05-1.51,.4,.13,.71,.36,.9,.74,.25,.47,.16,1.15-.25,1.5-.02,.02-.04,.03-.06,.04-.02,.02-.03,.05-.04,.07,.05,.03,.1,.05,.12,.07,.4,.3,.54,.76,.57,1.25,.05,.89-.07,1.64-.54,2.41-.42,.7-1.08,1.27-1.9,1.42-.08,.01-.15,.02-.22,.03-1.47,.28-3.68-.3-4.78-.28-.82,.01-2.54,.04-4.21-.14-1.25,.2-2.51,.28-3.68,.13-.63-.08-.98-.62-1.1-1.2-.2-.94,.47-1.51,1-2.18Z"/>
            </g>
          </g>
          <path class="cls-11" d="M36.1,43.35c-.07,.11-.17,.07-.21,.23,0,.03,.05,.04,.05,0l.16-.19c.08,.07,.05-.13,0-.05Z"/>
          <path class="cls-7" d="M38.45,39.02c-.48,0-.47,.75,0,.75s.47-.75,0-.75Z"/>
          <path class="cls-7" d="M45.19,38.25c-.54,0-.51,.84,.03,.84s.51-.84-.03-.84Z"/>
          <path class="cls-7" d="M47.78,41.66c-.6,0-1.07,.61-1.03,1.18,.04,.63,.58,1.03,1.18,1.03s1.07-.61,1.03-1.18c-.04-.63-.58-1.03-1.18-1.03Z"/>
          <path class="cls-7" d="M42.24,44.33c-.6,0-1.06,.59-1.03,1.16,.04,.62,.56,1.03,1.16,1.03s1.06-.59,1.03-1.16c-.04-.62-.56-1.03-1.16-1.03Z"/>
          <path class="cls-7" d="M45.72,50.28c-.06-.45-.29-.84-.76-.95-.49-.12-1.15,.18-1.22,.73,0,.06-.02,.12-.02,.18-.07,.55,.17,1.1,.76,1.24,.6,.15,1.36-.36,1.27-1.03,0-.06-.01-.11-.02-.17Z"/>
          <path class="cls-7" d="M46.13,45.16c-.65,0-.57,1,.07,1s.57-1-.07-1Z"/>
          <path class="cls-7" d="M43.36,38.25c-.84,0-1.02,1.32-.17,1.32s1.02-1.32,.17-1.32Z"/>
          <path class="cls-7" d="M50.19,45.1c-1.21,0-1.23,1.88-.01,1.88s1.23-1.88,.01-1.88Z"/>
          <path class="cls-7" d="M48.9,48.1c-1.19,0-1.22,1.85-.03,1.85s1.22-1.85,.03-1.85Z"/>
          <path class="cls-7" d="M49.1,52.77c-1.33,0-1.26,2.06,.06,2.06s1.26-2.06-.06-2.06Z"/>
          <path class="cls-7" d="M48.96,53.68s.02,.02,.03,.02c-.03,.01-.06,.02-.09,.04-.22,.09-.14,.38,.04,.45,.01,0,.02,.01,.04,.02,.15,.06,.34-.08,.34-.24,0-.04,.03-.12,.03-.16,.01-.19-.29-.32-.38-.13Z"/>
          <path class="cls-7" d="M40.96,51.9s-.03,0-.04-.01c-.44-.16-.63,.55-.19,.7,.08,.03,.15,.03,.23,.04,.47,.02,.46-.71,0-.73Z"/>
          <g>
            <path class="cls-7" d="M40.38,56.17s.01,0,.02,0c0,0,0,0,.01,0,0,0-.02,0-.03,0Z"/>
            <path class="cls-7" d="M40.39,56.17s-.04,0-.06,0c.25-.05-.04,1.21,.39,.74,.08-.09,.12-.21,.12-.32-.01-.24-.21-.41-.45-.42Z"/>
          </g>
          <path class="cls-7" d="M45.34,56.82c-.08-.01-.16-.02-.25-.03-.36-.05-.68,.21-.74,.57,0,0,0,.02,0,.02-.07,.43,.33,.8,.75,.74,.06,0,.11-.03,.17-.05,.02,0,.04,0,.06,0,.7-.05,.72-1.18,.01-1.24Z"/>
          <path class="cls-7" d="M45.94,62.28c-.68-.68-1.38-.97-1.93-.39,0,0,0,0,0,0-.02,.02-.04,.04-.06,.07-.03,.04-.05,.08-.08,.12,0,.01-.01,.02-.02,.03-.02,.03-.04,.07-.06,.11,0,.02-.01,.03-.02,.05-.07,.17-.11,.36-.09,.55,.03,.31,.16,.55,.36,.72,.16,.16,.36,.27,.6,.32,.1,.02,.21,.02,.31,.01h0s0,0,0,0c.3-.03,.59-.18,.79-.41,.13-.16,.21-.34,.25-.54,.04-.21,.02-.42-.06-.62Z"/>
          <path class="cls-7" d="M40.33,55.8c-.36,0-.7,.18-.75,.58-.04,.33,.22,.75,.58,.75s.7-.18,.75-.58c.04-.33-.22-.75-.58-.75Z"/>
          <path class="cls-7" d="M43.7,54.03c-.53,0-.51,.83,.03,.83s.51-.83-.03-.83Z"/>
          <path class="cls-7" d="M47.61,40.01s.01,.02,.02,.02c.07,.09,.19,.07,.26,0,0,0,.01-.02,.02-.03,.27-.35-.59-.37-.29,.01Z"/>
          <path class="cls-7" d="M51.59,39.26c-.48,0-.89,.35-.91,.84-.02,.46,.37,.91,.84,.91s.89-.35,.91-.84c.02-.46-.37-.91-.84-.91Z"/>
          <path class="cls-7" d="M48.04,39.05c-.67,0-.59,1.03,.08,1.03s.59-1.03-.08-1.03Z"/>
          <path class="cls-7" d="M50,34.94c-.41,0-.78,.25-.82,.68-.03,.38,.27,.82,.68,.82s.78-.25,.82-.68c.03-.38-.27-.82-.68-.82Z"/>
          <path class="cls-7" d="M45.75,35.02c-.76,0-.63,1.18,.13,1.18s.63-1.18-.13-1.18Z"/>
          <path class="cls-7" d="M40.54,33.53c-.6,0-.55,.92,.05,.92s.55-.92-.05-.92Z"/>
          <path class="cls-7" d="M39.49,41.45c-1.02,0-1.14,1.58-.11,1.58s1.14-1.58,.11-1.58Z"/>
          <path class="cls-7" d="M37.9,44.86s-.05-.03-.08-.04c-.68-.32-1.51,.11-1.64,.85-.14,.8,.74,1.71,1.56,1.3,.1-.05,.21-.11,.31-.16,.79-.44,.52-1.56-.14-1.94Z"/>
          <path class="cls-7" d="M40.32,48.17c-.34,0-.57,.38-.54,.68,.04,.36,.35,.54,.69,.54s.57-.38,.54-.69c-.04-.36-.35-.54-.69-.54Z"/>
          <path class="cls-7" d="M37.96,50.66c-.3,0-.53,.32-.5,.6,.03,.32,.3,.5,.6,.5s.53-.32,.5-.6c-.03-.32-.3-.5-.6-.5Z"/>
          <path class="cls-7" d="M48.16,58.68s-.02,.01-.03,.02c-.24,.16-.34,.56-.2,.82,0,.01,.01,.03,.02,.04,.21,.41,.84,.59,1.14,.15,.02-.02,.03-.05,.05-.07,.45-.66-.33-1.39-.97-.95Z"/>
          <path class="cls-7" d="M47.61,56.51c-.25,0-.28,.39-.03,.39s.28-.39,.03-.39Z"/>
          <path class="cls-7" d="M49.99,49.38s-.03,0-.04,0c-.62-.09-.61,.86-.09,.78,.01,0,.03,0,.04,0,.39-.06,.56-.7,.09-.77Z"/>
          <path class="cls-7" d="M51.18,51.11c-.06-.05-.13-.11-.21-.13-.41-.14-.9,.17-.73,.65,.03,.08,.07,.15,.12,.22,.5,.67,1.43-.27,.81-.73Z"/>
          <path class="cls-7" d="M52.07,48.06c-.04-.45-.65-.45-.7,0,0,.03,0,.05,0,.08-.04,.46,.76,.46,.71,0,0-.03,0-.05,0-.08Z"/>
          <path class="cls-7" d="M53.38,43.16c-.02-.05-.05-.1-.09-.15,0,0,0,0,0,0-.14-.16-.42-.14-.56,0-.14,.14-.15,.29-.12,.48,.07,.41,.73,.37,.8-.02,.02-.12,0-.21-.04-.3Z"/>
          <path class="cls-7" d="M51.58,56.15c-.48,0-.89,.36-.91,.85-.02,.47,.37,.91,.85,.91s.89-.36,.91-.85c.02-.47-.37-.91-.85-.91Z"/>
          <path class="cls-7" d="M49.46,63.29c-.6,0-1.07,.6-1.03,1.17,.04,.63,.57,1.03,1.17,1.03s1.07-.6,1.03-1.17c-.04-.63-.57-1.03-1.17-1.03Z"/>
          <path class="cls-7" d="M50.43,32.05c-.42,0-.42,.65,0,.65s.42-.65,0-.65Z"/>
          <path class="cls-7" d="M52.49,36.02s-.05-.02-.07-.04c-.33-.17-.73,.1-.71,.46,.02,.39,.44,.54,.75,.38,.02,0,.04-.02,.05-.03,.31-.16,.25-.63-.03-.77Z"/>
          <path class="cls-7" d="M53.83,33.31c-.34,0-.57,.38-.54,.69,.04,.36,.35,.54,.68,.54s.57-.38,.54-.69c-.04-.36-.35-.54-.69-.54Z"/>
          <path class="cls-7" d="M37.27,34.57s-.02,0-.03,0c-.13-.07-.27-.11-.44-.08-.43,.07-.62,.44-.6,.84,.18,.22,.36,.44,.54,.67,.9,.41,1.47-1.19,.53-1.42Z"/>
          <path class="cls-7" d="M35.57,38.59s-.02,0-.02,0c-.19,0-.35,.16-.35,.35v.06c0,.46,.65,.44,.7,0,0-.02,0-.05,0-.07,0-.18-.15-.34-.33-.33Z"/>
          <path class="cls-7" d="M34.58,30.25c-.37,0-.71,.19-.76,.59-.04,.33,.22,.76,.59,.76s.71-.19,.76-.59c.04-.33-.22-.76-.59-.76Z"/>
          <path class="cls-7" d="M53.07,27.88c-.58,0-.54,.91,.04,.91s.54-.91-.04-.91Z"/>
          <path class="cls-7" d="M46.43,65.7s0,.02,.01,.04c.14,.44,.73,.37,.86-.04,0-.01,0-.03,.01-.04,.22-.7-1.13-.73-.88,.04Z"/>
          <path class="cls-7" d="M41.96,60.58c-.31,0-.54,.34-.51,.63,.03,.34,.32,.51,.63,.51s.54-.34,.51-.63c-.03-.34-.32-.51-.63-.51Z"/>
          <path class="cls-7" d="M42.65,65.94c-.48,0-.89,.36-.91,.85-.02,.47,.37,.91,.85,.91s.89-.36,.91-.85c.02-.47-.37-.91-.85-.91Z"/>
          <path class="cls-7" d="M45.28,68.68c-.72,0-.61,1.11,.1,1.11s.61-1.11-.1-1.11Z"/>
          <path class="cls-7" d="M47.41,68.31s-.02,.02-.02,.03c-.04,.06-.03,.13,0,.19,.01,.02,.02,.03,.04,.05,.12,.16,.37,.05,.38-.13,.01-.23-.27-.3-.4-.13Z"/>
          <path class="cls-7" d="M45.15,71.28c-1.01,0-1.13,1.57-.12,1.57s1.13-1.57,.12-1.57Z"/>
          <path class="cls-7" d="M46.92,72.08c-.62,0-.56,.95,.06,.95s.56-.95-.06-.95Z"/>
          <path class="cls-7" d="M39.69,.5c-1.69-.73-5.63-.85-6.91,.86,.76-.13,2.06-.01,2.05,1.04-2.45,.09-5.65,1.87-6.28,4.41,.62-.44,2.18-1.01,2.76-.33-.47,.42-1.15,.57-1.62,1.04-.78,.77-1.18,2.06-1.49,3.1,.28-.29,.68-.48,1.1-.41,.1,1.57-.72,3.03-.42,4.66,.25,1.35,.97,2.22,1.65,3.33-.04-2.13,1.18-3.83,2.83-5.14,.07,.47,.26,1.03,.69,1.19,.01-1.09,1.71-2.07,2.5-2.66,.41,2.17,3.04-.09,3.69-.84,1.02-1.16,1.55-2.64,1.64-4.17,.55,.32,.56,1.11,.67,1.69,2.14-2.86,.08-6.49-2.86-7.76Z"/>
          <path d="M42.37,9s.17-.06,.46-.12c.19-.02,.44-.04,.72-.04,.24,.02,.52,.03,.81,.09,.58,.11,1.22,.34,1.87,.63,.32,.16,.65,.3,.97,.49,.32,.18,.64,.38,.95,.59,.31,.21,.6,.45,.87,.68,.27,.25,.53,.49,.76,.76,.24,.25,.44,.52,.63,.77,.2,.24,.33,.52,.47,.75,.14,.23,.22,.47,.32,.67,.09,.2,.15,.38,.19,.53,.09,.3,.13,.47,.13,.47,.02,.06-.02,.13-.08,.15-.05,.01-.1,0-.13-.04h0s-.1-.15-.28-.39c-.09-.12-.18-.27-.33-.41-.14-.15-.27-.33-.46-.49-.19-.16-.37-.35-.6-.51-.22-.17-.45-.35-.71-.5-.24-.17-.53-.31-.8-.45-.29-.13-.57-.27-.86-.39-.29-.12-.59-.23-.88-.31-.29-.1-.59-.16-.87-.23-.57-.11-1.1-.16-1.53-.21-.22-.03-.41-.03-.58-.07-.14,0-.25-.03-.36-.05-.3-.01-.48-.04-.48-.04h0c-.66-.13-1.09-.76-.96-1.42,.08-.43,.39-.76,.77-.9Z"/>
        </g>
      </g>
    </g>
  </g>
</svg>